<?xml version="1.0" encoding="utf-8"?>
<!-- Generator: Adobe Illustrator 26.0.2, SVG Export Plug-In . SVG Version: 6.00 Build 0)  -->
<svg version="1.1" id="レイヤー_1" xmlns="http://www.w3.org/2000/svg" xmlns:xlink="http://www.w3.org/1999/xlink" x="0px"
	 y="0px" viewBox="0 0 400.1 400.1" style="enable-background:new 0 0 400.1 400.1;" xml:space="preserve">
<style type="text/css">
	.st0{fill:#009B65;}
	.st1{fill:#131313;}
	.st2{fill:#FFFFFF;}
</style>
<g>
	<path class="st0" d="M199.92,399.56c-90.03,0-169.21-60.81-192.54-147.89C-6.4,200.21,0.67,146.46,27.31,100.32
		C53.95,54.18,96.96,21.17,148.42,7.38c16.95-4.54,34.37-6.85,51.75-6.85c90.03,0,169.21,60.81,192.54,147.89
		c13.79,51.46,6.71,105.22-19.93,151.35c-26.64,46.14-69.65,79.15-121.11,92.93C234.72,397.26,217.31,399.56,199.92,399.56z"/>
	<g>
		<path class="st1" d="M200.18,1.08c21.68,0,43.11,3.55,63.7,10.55c20.27,6.89,39.22,16.94,56.31,29.87
			c17.26,13.06,32.17,28.72,44.3,46.53c12.55,18.43,21.87,38.8,27.7,60.54c6.95,25.94,8.61,52.46,4.94,78.84
			c-3.55,25.47-11.9,49.73-24.81,72.11c-12.92,22.38-29.75,41.74-50.04,57.54c-21,16.37-44.81,28.19-70.75,35.14
			c-16.91,4.53-34.27,6.83-51.61,6.83c-21.68,0-43.11-3.55-63.71-10.55c-20.27-6.89-39.22-16.94-56.31-29.87
			c-17.26-13.06-32.17-28.72-44.3-46.53c-12.55-18.43-21.87-38.8-27.7-60.54c-6.95-25.94-8.61-52.46-4.94-78.84
			c3.55-25.47,11.9-49.73,24.81-72.11C40.7,78.21,57.53,58.85,77.82,43.04c21-16.37,44.81-28.19,70.75-35.14
			C165.47,3.38,182.83,1.08,200.18,1.08L200.18,1.08 M200.18,0c-17.13,0-34.55,2.22-51.89,6.86
			C41.59,35.45-21.72,145.12,6.86,251.81C30.81,341.17,111.61,400.1,199.92,400.1c17.13,0,34.55-2.22,51.89-6.86
			c106.69-28.59,170.01-138.26,141.42-244.95C369.29,58.93,288.48,0,200.18,0L200.18,0z"/>
	</g>
</g>
<g>
	<path class="st2" d="M99.95,62.31c-0.03,0.03-0.07,0.05-0.1,0.06c-0.03,0.02-0.07,0.04-0.1,0.06c-0.07,0.05-0.17,0.24-0.32,0.58
		c-0.15,0.33-0.35,0.73-0.6,1.2c-0.26,0.47-0.58,0.96-0.98,1.47c-0.4,0.51-0.86,0.97-1.4,1.39c-0.71,0.55-1.45,0.99-2.24,1.32
		c-0.79,0.33-1.58,0.5-2.37,0.52c-0.79,0.01-1.55-0.14-2.28-0.48c-0.73-0.33-1.39-0.87-1.97-1.62c-0.58-0.74-0.94-1.51-1.1-2.3
		c-0.15-0.79-0.13-1.58,0.07-2.35c0.2-0.77,0.55-1.51,1.05-2.2c0.5-0.7,1.1-1.32,1.81-1.88c0.57-0.45,1.12-0.81,1.66-1.08
		c0.54-0.27,1.02-0.5,1.44-0.67c0.43-0.17,0.78-0.29,1.05-0.36c0.27-0.07,0.43-0.12,0.47-0.15c0.06-0.04,0.08-0.11,0.08-0.2
		c0-0.09-0.01-0.16-0.01-0.21l0.41,0l0.28,3.06l-0.26,0.01c-0.03-0.03-0.06-0.06-0.09-0.09c-0.03-0.03-0.07-0.06-0.12-0.1
		c-0.12-0.11-0.33-0.14-0.63-0.11c-0.3,0.03-0.64,0.11-1.02,0.24c-0.38,0.13-0.76,0.29-1.14,0.48c-0.38,0.19-0.71,0.4-0.99,0.62
		c-0.47,0.37-0.87,0.79-1.19,1.26c-0.33,0.47-0.55,0.96-0.67,1.47c-0.12,0.51-0.12,1.02-0.02,1.55c0.1,0.52,0.34,1.03,0.72,1.51
		c0.38,0.48,0.81,0.84,1.29,1.06c0.48,0.23,0.99,0.34,1.51,0.35c0.52,0.01,1.05-0.09,1.59-0.29c0.54-0.2,1.04-0.49,1.51-0.86
		c0.36-0.28,0.7-0.62,1.03-1.01c0.33-0.39,0.6-0.78,0.83-1.16c0.22-0.38,0.38-0.74,0.47-1.07s0.08-0.57-0.03-0.72
		c-0.06-0.08-0.14-0.13-0.22-0.15l0.13-0.32l2.5,0.91L99.95,62.31z"/>
	<path class="st2" d="M103.58,48.26c0.57-0.37,1.13-0.65,1.66-0.85c0.53-0.2,1.04-0.3,1.51-0.29c0.48,0.01,0.92,0.13,1.33,0.36
		c0.41,0.24,0.78,0.61,1.11,1.13c0.51,0.79,0.67,1.54,0.47,2.26c-0.2,0.72-0.64,1.4-1.34,2.06l4.58,1.87
		c0.16,0.07,0.31,0.07,0.44,0.02c0.13-0.05,0.24-0.1,0.34-0.17l0.21,0.32l-3.35,2.16l-0.21-0.32c0.11-0.07,0.19-0.15,0.24-0.23
		c0.05-0.09,0.06-0.16,0.02-0.22c-0.04-0.06-0.11-0.11-0.2-0.16c-0.1-0.05-0.24-0.1-0.42-0.17l-3.78-1.52l-2.56,1.65l2.06,3.19
		c0.07,0.11,0.16,0.16,0.27,0.17c0.11,0,0.27-0.06,0.47-0.19l0.21,0.32l-3.1,2l-0.21-0.32c0.35-0.22,0.45-0.44,0.31-0.66l-5.25-8.14
		c-0.14-0.22-0.38-0.21-0.73,0.01l-0.21-0.32L103.58,48.26z M105.82,52.75c0.43-0.28,0.77-0.54,1.01-0.79
		c0.24-0.25,0.41-0.49,0.5-0.72c0.09-0.23,0.12-0.45,0.09-0.65c-0.03-0.21-0.11-0.41-0.23-0.6c-0.12-0.19-0.27-0.34-0.45-0.46
		c-0.18-0.12-0.39-0.18-0.63-0.19c-0.24-0.01-0.53,0.04-0.86,0.16c-0.33,0.12-0.71,0.32-1.14,0.6l-3.1,2l1.71,2.65L105.82,52.75z"/>
	<path class="st2" d="M121.69,40.66c-0.07-0.14-0.18-0.21-0.32-0.23c-0.14-0.01-0.35,0.05-0.61,0.19l-6.11,3.23l1.23,2.34l3.7-1.95
		c0.25-0.13,0.43-0.27,0.53-0.41c0.1-0.14,0.08-0.36-0.08-0.65l0.34-0.18l1.55,2.94l-0.34,0.18c-0.15-0.29-0.32-0.44-0.5-0.45
		c-0.18-0.01-0.4,0.05-0.65,0.19l-3.7,1.95l1.37,2.6l6.3-3.33c0.19-0.1,0.32-0.22,0.39-0.38c0.07-0.15,0.07-0.3-0.01-0.45l0.34-0.18
		l1.36,2.58l-0.34,0.18c-0.1-0.19-0.22-0.26-0.35-0.23c-0.13,0.04-0.29,0.11-0.48,0.21l-8.79,4.64l-0.18-0.34
		c0.09-0.05,0.15-0.12,0.19-0.21c0.04-0.09,0.03-0.2-0.03-0.31l-4.52-8.57c-0.06-0.11-0.14-0.18-0.24-0.2
		c-0.1-0.02-0.19-0.01-0.28,0.04l-0.18-0.34l8.6-4.54c0.26-0.14,0.43-0.28,0.49-0.42c0.06-0.14,0.06-0.28-0.01-0.41l0.34-0.18
		l1.32,2.49L121.69,40.66z"/>
	<path class="st2" d="M127.58,47.24c0.16-0.1,0.26-0.24,0.29-0.43c0.04-0.19,0.06-0.39,0.08-0.61l0.38-9.18
		c0.02-0.21,0.03-0.4,0.05-0.58c0.01-0.17-0.01-0.31-0.05-0.42c-0.06-0.13-0.14-0.2-0.25-0.22c-0.11-0.01-0.23-0.01-0.34,0.01
		l-0.15-0.35l3.32-1.41l0.15,0.35c-0.08,0.07-0.16,0.14-0.23,0.22c-0.07,0.09-0.08,0.2-0.02,0.34c0.04,0.11,0.11,0.2,0.2,0.29
		c0.09,0.09,0.22,0.19,0.38,0.32l7.48,6.25c0.13,0.12,0.26,0.18,0.4,0.2c0.14,0.02,0.29,0.03,0.47,0.03l0.15,0.35l-3.46,1.47
		l-0.15-0.35c0.05-0.02,0.11-0.07,0.17-0.14c0.06-0.07,0.08-0.15,0.04-0.23c-0.06-0.13-0.18-0.28-0.37-0.44l-1.36-1.14l-4.79,2.04
		l-0.11,1.69c-0.01,0.33,0,0.55,0.05,0.67c0.06,0.14,0.22,0.16,0.47,0.06l0.15,0.35l-2.79,1.19L127.58,47.24z M133.43,40.44
		l-3.2-2.95l-0.29,4.44L133.43,40.44z"/>
	<path class="st2" d="M147.34,39.1c0.08,0.24,0.27,0.31,0.57,0.22l0.12,0.36l-3.12,1.04l-0.12-0.36c0.09-0.03,0.17-0.09,0.22-0.18
		c0.05-0.09,0.06-0.19,0.02-0.31l-2.69-8.05L139,32.94c-0.12,0.04-0.23,0.11-0.32,0.22c-0.09,0.11-0.11,0.25-0.04,0.44l-0.36,0.12
		l-0.95-2.83l0.36-0.12c0.06,0.19,0.16,0.3,0.3,0.33c0.14,0.03,0.27,0.02,0.39-0.02l8.98-3c0.12-0.04,0.23-0.11,0.32-0.22
		c0.09-0.11,0.11-0.25,0.04-0.44l0.36-0.12l0.95,2.83l-0.36,0.12c-0.06-0.19-0.16-0.3-0.3-0.33c-0.14-0.03-0.27-0.02-0.39,0.02
		l-3.34,1.12L147.34,39.1z"/>
	<path class="st2" d="M154.13,37.46c0.36-0.1,0.5-0.28,0.43-0.52l-2.66-9.31c-0.07-0.25-0.28-0.32-0.64-0.22l-0.1-0.37l3.41-0.97
		l0.11,0.37c-0.36,0.1-0.5,0.28-0.43,0.52l2.66,9.31c0.07,0.25,0.28,0.32,0.64,0.22l0.11,0.37l-3.41,0.97L154.13,37.46z"/>
	<path class="st2" d="M170.48,22.95c-0.28,0.06-0.46,0.2-0.54,0.43c-0.08,0.23-0.14,0.41-0.17,0.55l-2.02,8.89
		c-0.07,0.3-0.13,0.55-0.18,0.73c-0.05,0.18-0.07,0.31-0.05,0.38c0.01,0.07,0.04,0.12,0.09,0.16c0.04,0.03,0.1,0.07,0.16,0.1
		l0.08,0.38l-3.2,0.66l-0.08-0.38c0.11-0.08,0.16-0.19,0.13-0.33c-0.01-0.07-0.1-0.2-0.24-0.4c-0.15-0.19-0.33-0.44-0.55-0.73
		l-5.45-7.39c-0.1-0.14-0.22-0.23-0.36-0.27c-0.14-0.04-0.33-0.08-0.59-0.1l-0.08-0.38l3.74-0.77l0.08,0.38
		c-0.1,0.02-0.19,0.06-0.27,0.13c-0.08,0.07-0.11,0.17-0.08,0.31c0.03,0.15,0.13,0.34,0.3,0.55c0.17,0.21,0.37,0.48,0.61,0.79
		l3.86,5.19l1.44-6.2c0.09-0.4,0.18-0.75,0.27-1.07c0.09-0.32,0.12-0.53,0.1-0.64c-0.05-0.22-0.26-0.29-0.65-0.21l-0.08-0.38
		l3.66-0.75L170.48,22.95z"/>
	<path class="st2" d="M184.19,23.15c-0.02-0.16-0.09-0.26-0.22-0.33c-0.13-0.06-0.34-0.08-0.64-0.04l-6.86,0.83l0.32,2.63l4.15-0.5
		c0.28-0.03,0.5-0.1,0.64-0.2c0.15-0.1,0.2-0.31,0.16-0.63l0.38-0.05l0.4,3.3l-0.38,0.05c-0.04-0.32-0.14-0.52-0.31-0.6
		c-0.17-0.07-0.39-0.09-0.67-0.06l-4.15,0.5l0.35,2.92l7.07-0.85c0.21-0.03,0.38-0.1,0.5-0.21c0.12-0.11,0.17-0.26,0.15-0.43
		l0.38-0.05l0.35,2.9l-0.38,0.05c-0.03-0.21-0.11-0.32-0.24-0.34c-0.14-0.01-0.31-0.01-0.52,0.02l-9.87,1.19l-0.05-0.38
		c0.1-0.01,0.18-0.05,0.25-0.13c0.07-0.07,0.1-0.17,0.08-0.3l-1.16-9.62c-0.01-0.13-0.07-0.22-0.15-0.27
		c-0.09-0.05-0.18-0.08-0.28-0.06l-0.05-0.38l9.66-1.17c0.3-0.04,0.5-0.11,0.61-0.21c0.11-0.11,0.15-0.24,0.14-0.39l0.38-0.05
		l0.34,2.8L184.19,23.15z"/>
	<path class="st2" d="M207.51,30.81c-0.01,0.26,0.14,0.39,0.46,0.4l-0.01,0.38l-3.28-0.12l0.01-0.38c0.1,0,0.19-0.03,0.27-0.09
		c0.08-0.06,0.12-0.16,0.13-0.28l0.31-8.49l-3.52-0.13c-0.13,0-0.25,0.03-0.38,0.09c-0.12,0.07-0.19,0.2-0.2,0.4l-0.38-0.01
		l0.11-2.98l0.38,0.01c-0.01,0.2,0.05,0.34,0.17,0.41c0.12,0.08,0.24,0.12,0.37,0.12l9.47,0.35c0.13,0,0.25-0.03,0.38-0.09
		c0.12-0.07,0.19-0.2,0.2-0.4l0.38,0.01L212.26,23l-0.38-0.01c0.01-0.2-0.05-0.34-0.17-0.41c-0.12-0.08-0.24-0.12-0.37-0.12
		l-3.52-0.13L207.51,30.81z"/>
	<path class="st2" d="M222.91,21.66c0.68,0.08,1.28,0.22,1.82,0.4c0.54,0.19,0.99,0.43,1.35,0.74c0.36,0.31,0.63,0.68,0.79,1.13
		c0.16,0.44,0.21,0.97,0.13,1.57c-0.11,0.93-0.47,1.61-1.08,2.04c-0.61,0.43-1.39,0.67-2.35,0.73l2.33,4.37
		c0.08,0.15,0.19,0.25,0.32,0.3c0.13,0.04,0.25,0.07,0.37,0.09l-0.05,0.38l-3.96-0.48l0.05-0.38c0.13,0.01,0.24,0.01,0.34-0.02
		c0.1-0.03,0.15-0.08,0.16-0.15c0.01-0.07-0.01-0.15-0.06-0.25s-0.11-0.23-0.21-0.4l-1.93-3.59l-3.03-0.37l-0.46,3.77
		c-0.02,0.13,0.02,0.23,0.1,0.3c0.08,0.08,0.25,0.13,0.49,0.16l-0.05,0.38l-3.66-0.44l0.05-0.38c0.41,0.05,0.63-0.05,0.66-0.31
		l1.16-9.62c0.03-0.25-0.16-0.41-0.57-0.46l0.05-0.38L222.91,21.66z M221.76,26.54c0.51,0.06,0.94,0.07,1.28,0.04
		c0.35-0.04,0.63-0.11,0.85-0.23c0.21-0.12,0.38-0.27,0.48-0.45c0.11-0.18,0.18-0.38,0.2-0.61c0.03-0.23,0.01-0.44-0.05-0.64
		s-0.18-0.38-0.36-0.55c-0.18-0.16-0.44-0.31-0.77-0.43c-0.33-0.12-0.75-0.21-1.26-0.27l-3.66-0.44l-0.38,3.13L221.76,26.54z"/>
	<path class="st2" d="M241.66,27.39c0.03-0.15,0-0.28-0.1-0.38c-0.1-0.1-0.3-0.18-0.59-0.24l-6.76-1.43l-0.54,2.59l4.09,0.86
		c0.28,0.06,0.5,0.07,0.67,0.02c0.17-0.04,0.29-0.23,0.36-0.55l0.38,0.08l-0.69,3.26l-0.38-0.08c0.07-0.32,0.03-0.54-0.1-0.66
		c-0.13-0.12-0.34-0.21-0.62-0.27l-4.09-0.86l-0.61,2.88l6.97,1.47c0.21,0.04,0.39,0.03,0.54-0.04c0.15-0.07,0.25-0.19,0.28-0.35
		l0.38,0.08l-0.6,2.86l-0.38-0.08c0.04-0.21,0-0.34-0.12-0.4c-0.13-0.06-0.29-0.11-0.5-0.15l-9.73-2.05l0.08-0.38
		c0.1,0.02,0.19,0.01,0.28-0.04c0.09-0.05,0.15-0.13,0.17-0.26l2-9.48c0.03-0.12,0.01-0.23-0.06-0.31
		c-0.06-0.08-0.14-0.13-0.24-0.15l0.08-0.38l9.52,2.01c0.29,0.06,0.51,0.06,0.64-0.01c0.14-0.07,0.22-0.17,0.25-0.33l0.38,0.08
		l-0.58,2.76L241.66,27.39z"/>
	<path class="st2" d="M243.42,36.59c0.26,0.08,0.43,0,0.5-0.25l2.84-9.26c0.07-0.24-0.02-0.41-0.27-0.49l0.11-0.37l3.49,1.07
		l-0.11,0.37c-0.11-0.03-0.18,0.02-0.23,0.15c-0.03,0.11,0.04,0.34,0.23,0.7l3.99,7.87l1.99-6.49c0.08-0.24-0.06-0.42-0.42-0.53
		l0.11-0.37l3.08,0.95l-0.11,0.37c-0.26-0.08-0.42,0-0.5,0.25l-2.84,9.26c-0.08,0.24,0.02,0.41,0.27,0.49l-0.11,0.37l-3.3-1.01
		l0.11-0.37c0.18,0.05,0.28,0.02,0.32-0.1c0.03-0.09-0.03-0.29-0.18-0.57l-4.23-8.4l-2.08,6.77c-0.08,0.24,0.04,0.42,0.36,0.51
		l-0.11,0.37l-3.02-0.93L243.42,36.59z"/>
	<path class="st2" d="M269.41,34.15c0.72,0.3,1.35,0.68,1.89,1.15c0.54,0.47,0.95,1.01,1.23,1.63s0.42,1.3,0.42,2.06
		c-0.01,0.76-0.19,1.58-0.55,2.46c-0.36,0.88-0.81,1.59-1.34,2.13c-0.53,0.54-1.12,0.93-1.75,1.17c-0.64,0.24-1.31,0.33-2.02,0.28
		c-0.71-0.05-1.43-0.22-2.15-0.52l-6.55-2.7l0.15-0.36c0.3,0.13,0.5,0.07,0.6-0.17l3.7-8.95c0.1-0.24,0-0.42-0.31-0.54l0.15-0.36
		L269.41,34.15z M265.04,42.5c0.62,0.25,1.18,0.42,1.68,0.51c0.5,0.08,0.96,0.05,1.38-0.09c0.41-0.14,0.79-0.41,1.12-0.79
		c0.34-0.38,0.64-0.92,0.93-1.6c0.28-0.68,0.44-1.28,0.47-1.79c0.03-0.51-0.05-0.96-0.24-1.36c-0.19-0.39-0.5-0.74-0.91-1.03
		c-0.42-0.3-0.93-0.57-1.55-0.83l-3.06-1.26l-2.88,6.98L265.04,42.5z"/>
	<path class="st2" d="M287,55.86l-0.22-0.13c0.08-0.14,0.06-0.24-0.05-0.32c-0.11-0.08-0.24-0.16-0.37-0.23l-7.83-4.4
		c-0.14-0.08-0.25-0.13-0.35-0.16c-0.1-0.03-0.18,0.01-0.24,0.12l-0.22-0.13l0.38-0.67c0.37-0.66,0.85-1.13,1.44-1.42
		c0.59-0.29,1.24-0.47,1.94-0.55c0.7-0.08,1.41-0.1,2.13-0.05c0.72,0.05,1.41,0.08,2.05,0.09c0.65,0.01,1.21-0.03,1.7-0.13
		c0.49-0.1,0.84-0.34,1.06-0.73c0.15-0.26,0.21-0.51,0.18-0.74c-0.02-0.23-0.1-0.46-0.23-0.66c-0.13-0.21-0.29-0.4-0.49-0.56
		c-0.2-0.16-0.41-0.3-0.62-0.42s-0.49-0.23-0.84-0.33c-0.35-0.1-0.71-0.16-1.08-0.17c-0.37-0.01-0.71,0.03-1.03,0.12
		c-0.32,0.09-0.55,0.26-0.7,0.53c-0.03,0.06-0.06,0.15-0.09,0.27c-0.03,0.12-0.02,0.21,0.01,0.27l-0.26,0.03l-0.76-3.12l0.26-0.03
		c0.04,0.05,0.07,0.11,0.11,0.16c0.04,0.05,0.08,0.1,0.15,0.13c0.07,0.04,0.26,0.03,0.57-0.05c0.3-0.07,0.69-0.13,1.16-0.15
		s1.02,0.01,1.65,0.12c0.63,0.11,1.3,0.36,2.02,0.77c0.47,0.26,0.9,0.58,1.29,0.95c0.39,0.37,0.69,0.77,0.91,1.21
		c0.22,0.44,0.33,0.91,0.33,1.41c0,0.5-0.15,1.02-0.45,1.57c-0.33,0.58-0.71,1-1.15,1.26s-0.92,0.42-1.43,0.48
		c-0.52,0.06-1.05,0.06-1.62-0.02c-0.56-0.07-1.13-0.15-1.71-0.24c-0.58-0.09-1.14-0.16-1.7-0.21c-0.55-0.05-1.08-0.01-1.59,0.11
		l-0.1,0.19l6.14,3.45c0.14,0.08,0.28,0.12,0.42,0.14c0.15,0.02,0.29-0.1,0.43-0.35l0.22,0.13L287,55.86z"/>
	<path class="st2" d="M299.88,50.36c0.69,0.46,1.25,1,1.69,1.64c0.44,0.64,0.74,1.31,0.9,2.04c0.16,0.72,0.17,1.46,0.04,2.21
		c-0.13,0.75-0.43,1.47-0.9,2.17c-0.46,0.7-1.02,1.25-1.66,1.66c-0.64,0.41-1.32,0.68-2.05,0.8c-0.72,0.12-1.46,0.1-2.21-0.07
		c-0.75-0.17-1.46-0.49-2.15-0.95c-0.69-0.46-1.25-1-1.7-1.62c-0.45-0.62-0.75-1.29-0.92-2.01c-0.16-0.72-0.18-1.45-0.05-2.2
		c0.13-0.75,0.43-1.47,0.9-2.17c0.47-0.7,1.02-1.25,1.66-1.66c0.64-0.41,1.33-0.68,2.05-0.81c0.73-0.13,1.47-0.11,2.22,0.05
		C298.47,49.59,299.19,49.9,299.88,50.36z M298.86,51.88c-0.41-0.28-0.85-0.45-1.32-0.52c-0.47-0.07-0.92-0.05-1.37,0.07
		c-0.45,0.12-0.88,0.33-1.29,0.63c-0.41,0.3-0.77,0.68-1.08,1.14c-0.31,0.46-0.52,0.94-0.64,1.44c-0.12,0.49-0.14,0.97-0.08,1.43
		c0.06,0.46,0.21,0.89,0.46,1.29c0.24,0.4,0.57,0.74,0.99,1.02c0.41,0.28,0.85,0.45,1.32,0.52c0.47,0.07,0.92,0.05,1.37-0.07
		s0.88-0.33,1.29-0.63c0.41-0.3,0.77-0.68,1.08-1.14c0.31-0.46,0.52-0.94,0.64-1.43c0.12-0.5,0.14-0.97,0.08-1.43
		c-0.06-0.46-0.21-0.89-0.46-1.29C299.6,52.5,299.27,52.16,298.86,51.88z"/>
	<path class="st2" d="M307.92,70.75l-0.2-0.16c0.1-0.12,0.1-0.23,0-0.33c-0.1-0.09-0.21-0.19-0.33-0.29l-7.07-5.53
		c-0.12-0.1-0.23-0.17-0.32-0.21c-0.09-0.04-0.18-0.02-0.26,0.08l-0.2-0.16l0.47-0.6c0.46-0.59,1.01-0.99,1.64-1.18s1.3-0.28,2-0.25
		c0.7,0.03,1.41,0.12,2.12,0.27c0.71,0.16,1.38,0.29,2.02,0.4c0.64,0.11,1.2,0.15,1.7,0.13s0.88-0.21,1.16-0.56
		c0.18-0.24,0.28-0.47,0.29-0.7c0.01-0.23-0.03-0.47-0.12-0.69c-0.09-0.23-0.23-0.44-0.4-0.63c-0.18-0.19-0.36-0.36-0.55-0.51
		c-0.19-0.15-0.45-0.3-0.79-0.45c-0.33-0.15-0.68-0.26-1.04-0.33c-0.36-0.07-0.71-0.08-1.04-0.04c-0.33,0.04-0.59,0.18-0.77,0.41
		c-0.04,0.06-0.09,0.14-0.13,0.25c-0.04,0.11-0.05,0.2-0.04,0.27l-0.26-0.01l-0.28-3.2l0.26,0.01c0.03,0.06,0.05,0.11,0.08,0.17
		c0.03,0.06,0.07,0.11,0.12,0.15c0.07,0.05,0.26,0.06,0.57,0.04c0.31-0.03,0.7-0.02,1.17,0.02c0.47,0.04,1.01,0.17,1.61,0.37
		c0.6,0.2,1.23,0.55,1.88,1.06c0.42,0.33,0.8,0.71,1.13,1.13c0.33,0.42,0.57,0.87,0.72,1.33c0.15,0.47,0.19,0.95,0.12,1.44
		c-0.07,0.49-0.3,0.99-0.69,1.48c-0.41,0.53-0.85,0.88-1.33,1.07c-0.47,0.19-0.97,0.27-1.49,0.26c-0.52-0.02-1.05-0.1-1.6-0.26
		c-0.55-0.16-1.1-0.32-1.66-0.5c-0.56-0.18-1.11-0.33-1.64-0.46s-1.07-0.18-1.59-0.13l-0.13,0.17l5.54,4.34
		c0.12,0.1,0.26,0.16,0.4,0.2c0.14,0.04,0.3-0.05,0.48-0.28l0.2,0.16L307.92,70.75z"/>
	<path class="st2" d="M317.48,79.35l-0.19-0.17c0.11-0.12,0.11-0.22,0.02-0.33s-0.19-0.2-0.31-0.31l-6.63-6.06
		c-0.12-0.11-0.22-0.18-0.3-0.24c-0.09-0.05-0.17-0.03-0.26,0.06l-0.19-0.17l0.52-0.57c0.51-0.56,1.08-0.91,1.73-1.05
		c0.64-0.15,1.31-0.18,2.01-0.1c0.7,0.08,1.39,0.22,2.09,0.43c0.69,0.21,1.35,0.39,1.98,0.55c0.63,0.16,1.19,0.24,1.69,0.26
		c0.5,0.01,0.9-0.14,1.19-0.47c0.2-0.22,0.32-0.45,0.35-0.68s0.01-0.47-0.07-0.7c-0.08-0.23-0.19-0.45-0.35-0.66
		c-0.16-0.2-0.33-0.39-0.51-0.55c-0.18-0.16-0.43-0.33-0.75-0.51c-0.32-0.18-0.66-0.31-1.01-0.41c-0.36-0.09-0.7-0.13-1.03-0.12
		c-0.33,0.01-0.6,0.13-0.8,0.35c-0.05,0.05-0.1,0.13-0.15,0.24c-0.05,0.11-0.07,0.2-0.06,0.27l-0.26-0.03l-0.04-3.22l0.26,0.03
		c0.02,0.06,0.05,0.12,0.07,0.18c0.02,0.06,0.06,0.11,0.11,0.16c0.06,0.06,0.25,0.08,0.56,0.08c0.31,0,0.7,0.03,1.17,0.11
		c0.47,0.08,0.99,0.24,1.58,0.49c0.59,0.25,1.18,0.65,1.79,1.2c0.4,0.36,0.75,0.77,1.04,1.21c0.3,0.44,0.5,0.91,0.61,1.38
		c0.11,0.48,0.11,0.96,0.01,1.45c-0.11,0.49-0.37,0.96-0.8,1.43c-0.45,0.49-0.92,0.82-1.41,0.97c-0.49,0.15-0.99,0.2-1.5,0.14
		c-0.52-0.06-1.04-0.18-1.57-0.38c-0.53-0.2-1.07-0.4-1.61-0.62c-0.54-0.22-1.08-0.41-1.6-0.58c-0.53-0.17-1.05-0.26-1.57-0.25
		l-0.14,0.16l5.2,4.75c0.12,0.11,0.24,0.18,0.38,0.23c0.14,0.05,0.3-0.03,0.5-0.24l0.19,0.17L317.48,79.35z"/>
	<path class="st2" d="M329.11,82.62c-0.89,0.83-2.27,0.78-3.11-0.11c-0.83-0.89-0.78-2.28,0.1-3.11c0.89-0.83,2.28-0.78,3.11,0.11
		C330.07,80.43,329.97,81.82,329.11,82.62z"/>
	<path class="st2" d="M337.63,99.76c-0.03-0.03-0.05-0.07-0.06-0.1c-0.02-0.03-0.04-0.07-0.06-0.1c-0.05-0.07-0.24-0.17-0.58-0.32
		c-0.33-0.15-0.73-0.35-1.2-0.6c-0.47-0.25-0.96-0.58-1.47-0.97c-0.51-0.4-0.97-0.86-1.4-1.4c-0.55-0.71-0.99-1.45-1.32-2.24
		c-0.33-0.79-0.5-1.58-0.52-2.37c-0.02-0.79,0.14-1.55,0.47-2.28c0.33-0.73,0.87-1.39,1.62-1.98c0.74-0.58,1.5-0.95,2.3-1.1
		c0.79-0.15,1.57-0.13,2.35,0.07c0.77,0.2,1.51,0.55,2.21,1.05c0.7,0.5,1.33,1.1,1.88,1.81c0.45,0.57,0.81,1.12,1.08,1.66
		c0.27,0.53,0.5,1.02,0.67,1.44c0.17,0.43,0.29,0.77,0.36,1.05c0.07,0.27,0.12,0.43,0.16,0.47c0.04,0.06,0.11,0.08,0.2,0.08
		c0.09-0.01,0.16-0.01,0.21-0.01l0,0.41l-3.06,0.28l-0.02-0.26c0.03-0.03,0.06-0.06,0.09-0.09c0.03-0.03,0.06-0.07,0.1-0.12
		c0.1-0.12,0.14-0.33,0.11-0.63s-0.11-0.64-0.24-1.02c-0.13-0.38-0.29-0.75-0.49-1.14c-0.19-0.38-0.4-0.71-0.62-0.99
		c-0.37-0.47-0.79-0.87-1.26-1.19c-0.47-0.33-0.96-0.55-1.47-0.66c-0.51-0.12-1.02-0.12-1.55-0.02c-0.52,0.1-1.03,0.34-1.51,0.72
		c-0.48,0.38-0.83,0.81-1.06,1.29c-0.23,0.48-0.34,0.99-0.35,1.51c-0.01,0.52,0.09,1.05,0.3,1.59c0.2,0.54,0.49,1.04,0.86,1.51
		c0.28,0.36,0.62,0.7,1.01,1.03c0.39,0.33,0.78,0.6,1.16,0.82c0.38,0.22,0.74,0.38,1.08,0.47c0.33,0.09,0.57,0.08,0.72-0.03
		c0.08-0.06,0.13-0.14,0.15-0.23l0.32,0.13l-0.91,2.5L337.63,99.76z"/>
	<path class="st2" d="M351.69,103.37c0.37,0.57,0.66,1.13,0.86,1.66s0.3,1.04,0.29,1.51c0,0.48-0.12,0.92-0.36,1.33
		c-0.24,0.41-0.61,0.78-1.13,1.11c-0.79,0.51-1.54,0.67-2.26,0.47c-0.72-0.19-1.41-0.64-2.06-1.34l-1.86,4.58
		c-0.07,0.16-0.07,0.31-0.02,0.43c0.05,0.13,0.1,0.24,0.17,0.34l-0.32,0.21l-2.17-3.35l0.32-0.21c0.07,0.11,0.15,0.19,0.23,0.24
		c0.09,0.05,0.16,0.06,0.22,0.02c0.06-0.04,0.11-0.11,0.16-0.2c0.05-0.1,0.1-0.24,0.17-0.42l1.52-3.78l-1.66-2.56l-3.19,2.06
		c-0.11,0.07-0.16,0.16-0.17,0.27c0,0.11,0.06,0.27,0.19,0.47l-0.32,0.21l-2.01-3.1l0.32-0.21c0.22,0.35,0.44,0.45,0.66,0.31
		l8.13-5.26c0.22-0.14,0.21-0.38-0.01-0.73l0.32-0.21L351.69,103.37z M347.2,105.62c0.28,0.43,0.54,0.77,0.79,1.01
		c0.25,0.24,0.49,0.41,0.72,0.5c0.23,0.09,0.45,0.12,0.65,0.09c0.21-0.03,0.41-0.11,0.6-0.23c0.19-0.12,0.34-0.27,0.46-0.45
		c0.11-0.18,0.18-0.39,0.19-0.63c0.01-0.24-0.04-0.53-0.16-0.86c-0.12-0.33-0.32-0.71-0.6-1.14l-2.01-3.1l-2.65,1.72L347.2,105.62z"
		/>
	<path class="st2" d="M359.3,121.44c0.14-0.07,0.21-0.18,0.23-0.33s-0.05-0.35-0.19-0.61l-3.24-6.11l-2.34,1.24l1.96,3.69
		c0.13,0.25,0.27,0.43,0.41,0.53c0.14,0.1,0.36,0.08,0.65-0.08l0.18,0.34l-2.94,1.56l-0.18-0.34c0.29-0.15,0.44-0.32,0.45-0.5
		c0.01-0.18-0.05-0.4-0.19-0.65l-1.96-3.69l-2.6,1.38l3.34,6.3c0.1,0.19,0.23,0.32,0.38,0.39c0.15,0.07,0.3,0.07,0.45-0.01
		l0.18,0.34l-2.58,1.37l-0.18-0.34c0.19-0.1,0.26-0.22,0.23-0.35c-0.04-0.13-0.11-0.29-0.21-0.48l-4.65-8.78l0.34-0.18
		c0.05,0.09,0.12,0.15,0.21,0.19c0.09,0.04,0.2,0.03,0.31-0.03l8.56-4.53c0.11-0.06,0.18-0.14,0.2-0.24
		c0.02-0.1,0.01-0.19-0.04-0.28l0.34-0.18l4.55,8.6c0.14,0.26,0.28,0.43,0.42,0.49c0.14,0.06,0.28,0.06,0.41-0.01l0.18,0.34
		l-2.49,1.32L359.3,121.44z"/>
	<path class="st2" d="M352.74,127.36c0.1,0.16,0.24,0.26,0.43,0.29c0.18,0.04,0.39,0.06,0.61,0.08l9.18,0.37
		c0.21,0.02,0.4,0.03,0.58,0.04c0.17,0.01,0.31-0.01,0.42-0.05c0.13-0.06,0.2-0.14,0.22-0.25c0.01-0.11,0.01-0.23-0.01-0.34
		l0.35-0.15l1.42,3.32l-0.35,0.15c-0.07-0.08-0.14-0.16-0.23-0.23c-0.08-0.07-0.2-0.08-0.34-0.02c-0.1,0.04-0.2,0.11-0.28,0.2
		c-0.08,0.09-0.19,0.22-0.32,0.38l-6.24,7.49c-0.12,0.13-0.18,0.26-0.2,0.4c-0.02,0.14-0.03,0.29-0.03,0.47l-0.35,0.15l-1.48-3.45
		l0.35-0.15c0.02,0.05,0.07,0.11,0.14,0.17c0.07,0.06,0.15,0.08,0.23,0.04c0.13-0.06,0.28-0.18,0.44-0.38l1.13-1.37l-2.04-4.79
		l-1.7-0.11c-0.33-0.01-0.55,0.01-0.67,0.06c-0.14,0.06-0.16,0.22-0.06,0.46l-0.35,0.15l-1.19-2.79L352.74,127.36z M359.55,133.2
		l2.95-3.21l-4.44-0.29L359.55,133.2z"/>
	<path class="st2" d="M360.9,147.11c-0.24,0.08-0.31,0.27-0.21,0.57l-0.36,0.12l-1.05-3.11l0.36-0.12c0.03,0.09,0.09,0.17,0.18,0.22
		c0.09,0.05,0.19,0.06,0.31,0.02l8.05-2.7l-1.12-3.34c-0.04-0.12-0.11-0.23-0.22-0.32c-0.11-0.09-0.25-0.11-0.44-0.04l-0.12-0.36
		l2.83-0.95l0.12,0.36c-0.19,0.06-0.3,0.16-0.33,0.3c-0.03,0.14-0.02,0.27,0.02,0.39l3.02,8.98c0.04,0.12,0.11,0.23,0.22,0.32
		c0.11,0.09,0.25,0.11,0.44,0.04l0.12,0.36l-2.83,0.95l-0.12-0.36c0.19-0.06,0.3-0.16,0.33-0.3c0.03-0.14,0.02-0.27-0.02-0.39
		l-1.12-3.34L360.9,147.11z"/>
	<path class="st2" d="M362.55,153.87c0.1,0.36,0.27,0.5,0.52,0.43l9.31-2.66c0.25-0.07,0.32-0.28,0.22-0.64l0.37-0.1l0.97,3.41
		l-0.37,0.1c-0.1-0.36-0.28-0.5-0.52-0.43l-9.31,2.66c-0.25,0.07-0.32,0.28-0.22,0.64l-0.37,0.1l-0.97-3.41L362.55,153.87z"/>
	<path class="st2" d="M377.09,170.23c-0.06-0.28-0.2-0.46-0.43-0.54s-0.41-0.14-0.55-0.17l-8.89-2.01c-0.3-0.07-0.55-0.13-0.73-0.18
		c-0.18-0.05-0.31-0.07-0.38-0.05c-0.07,0.01-0.12,0.04-0.16,0.09c-0.03,0.04-0.07,0.1-0.1,0.16l-0.38,0.08l-0.66-3.2l0.38-0.08
		c0.08,0.11,0.19,0.16,0.33,0.13c0.07-0.01,0.2-0.1,0.4-0.25c0.19-0.15,0.44-0.33,0.72-0.55l7.39-5.46c0.14-0.1,0.23-0.22,0.27-0.36
		c0.04-0.14,0.07-0.34,0.1-0.59l0.38-0.08l0.78,3.74l-0.38,0.08c-0.02-0.1-0.06-0.19-0.13-0.27c-0.07-0.08-0.17-0.11-0.31-0.08
		c-0.15,0.03-0.34,0.13-0.55,0.3c-0.21,0.17-0.48,0.37-0.79,0.61l-5.19,3.87l6.2,1.44c0.4,0.09,0.75,0.18,1.07,0.27
		c0.32,0.09,0.53,0.12,0.64,0.1c0.22-0.05,0.29-0.26,0.21-0.65l0.38-0.08l0.76,3.65L377.09,170.23z"/>
	<path class="st2" d="M376.91,183.92c0.16-0.02,0.26-0.09,0.33-0.22c0.06-0.13,0.08-0.34,0.04-0.64l-0.84-6.86l-2.63,0.32l0.51,4.15
		c0.03,0.28,0.1,0.5,0.2,0.64c0.1,0.15,0.31,0.2,0.63,0.16l0.05,0.38l-3.3,0.4l-0.05-0.38c0.32-0.04,0.52-0.14,0.6-0.31
		c0.07-0.17,0.09-0.39,0.06-0.67l-0.51-4.15l-2.92,0.36l0.87,7.07c0.03,0.21,0.1,0.38,0.21,0.5c0.12,0.12,0.26,0.17,0.43,0.15
		l0.05,0.38l-2.9,0.35l-0.05-0.38c0.21-0.03,0.32-0.11,0.33-0.25c0.01-0.14,0.01-0.31-0.02-0.52l-1.21-9.87l0.38-0.05
		c0.01,0.1,0.06,0.18,0.13,0.25c0.07,0.07,0.17,0.1,0.3,0.08l9.61-1.18c0.13-0.02,0.22-0.07,0.27-0.15
		c0.05-0.09,0.07-0.18,0.06-0.28l0.38-0.05l1.18,9.66c0.04,0.3,0.11,0.5,0.21,0.61c0.11,0.11,0.24,0.15,0.39,0.14l0.05,0.38
		l-2.8,0.34L376.91,183.92z"/>
	<path class="st2" d="M369.28,207.26c-0.26-0.01-0.39,0.14-0.4,0.46l-0.38-0.01l0.12-3.28l0.38,0.01c0,0.1,0.03,0.19,0.09,0.27
		c0.06,0.08,0.16,0.12,0.28,0.13l8.49,0.3l0.12-3.52c0.01-0.13-0.03-0.25-0.09-0.38c-0.07-0.12-0.2-0.19-0.4-0.2l0.01-0.38l2.99,0.1
		l-0.01,0.38c-0.2-0.01-0.34,0.05-0.41,0.17c-0.08,0.12-0.12,0.24-0.12,0.37l-0.33,9.47c-0.01,0.13,0.03,0.25,0.09,0.38
		c0.07,0.12,0.2,0.19,0.4,0.2l-0.01,0.38l-2.99-0.1l0.01-0.38c0.2,0.01,0.34-0.05,0.41-0.17c0.07-0.12,0.11-0.24,0.12-0.37
		l0.12-3.52L369.28,207.26z"/>
	<path class="st2" d="M378.46,222.64c-0.08,0.68-0.21,1.28-0.4,1.82c-0.19,0.54-0.43,0.99-0.74,1.35c-0.31,0.36-0.68,0.63-1.13,0.79
		c-0.44,0.16-0.97,0.21-1.57,0.13c-0.93-0.11-1.61-0.47-2.04-1.08c-0.43-0.61-0.67-1.39-0.73-2.34l-4.36,2.34
		c-0.15,0.08-0.25,0.19-0.3,0.32c-0.04,0.13-0.07,0.25-0.09,0.37l-0.38-0.05l0.47-3.96l0.38,0.05c-0.01,0.13-0.01,0.24,0.02,0.34
		c0.03,0.1,0.08,0.15,0.15,0.16c0.07,0.01,0.15-0.01,0.25-0.06c0.1-0.05,0.23-0.12,0.4-0.21l3.58-1.94l0.36-3.03l-3.77-0.45
		c-0.13-0.02-0.23,0.02-0.3,0.1c-0.07,0.08-0.13,0.25-0.15,0.49l-0.38-0.05l0.44-3.66l0.38,0.05c-0.05,0.41,0.05,0.63,0.31,0.66
		l9.62,1.15c0.25,0.03,0.41-0.16,0.46-0.57l0.38,0.05L378.46,222.64z M373.57,221.5c-0.06,0.51-0.07,0.94-0.03,1.29
		c0.04,0.35,0.11,0.63,0.23,0.84c0.12,0.21,0.27,0.38,0.45,0.48c0.18,0.11,0.38,0.17,0.61,0.2c0.23,0.03,0.44,0.01,0.64-0.05
		c0.2-0.06,0.38-0.18,0.55-0.36c0.16-0.18,0.31-0.44,0.42-0.77c0.12-0.33,0.21-0.75,0.27-1.26l0.44-3.67l-3.14-0.38L373.57,221.5z"
		/>
	<path class="st2" d="M372.77,241.4c0.15,0.03,0.28,0,0.38-0.11c0.1-0.1,0.18-0.3,0.24-0.59l1.41-6.77l-2.59-0.54l-0.86,4.09
		c-0.06,0.28-0.06,0.5-0.02,0.67c0.04,0.17,0.23,0.29,0.55,0.35l-0.08,0.38l-3.26-0.68l0.08-0.38c0.32,0.07,0.54,0.03,0.66-0.1
		c0.12-0.13,0.21-0.34,0.27-0.62l0.86-4.09l-2.88-0.6l-1.46,6.98c-0.04,0.21-0.03,0.39,0.04,0.54c0.07,0.15,0.19,0.25,0.36,0.28
		l-0.08,0.38l-2.86-0.6l0.08-0.38c0.21,0.04,0.34,0,0.4-0.12c0.06-0.13,0.11-0.29,0.15-0.5l2.03-9.73l0.38,0.08
		c-0.02,0.1-0.01,0.19,0.04,0.28c0.05,0.09,0.13,0.15,0.26,0.17l9.48,1.98c0.13,0.03,0.23,0.01,0.31-0.06
		c0.08-0.06,0.13-0.14,0.15-0.24l0.38,0.08l-1.99,9.52c-0.06,0.29-0.06,0.51,0.01,0.64c0.07,0.14,0.18,0.22,0.33,0.25l-0.08,0.38
		l-2.76-0.58L372.77,241.4z"/>
	<path class="st2" d="M363.56,243.19c-0.08,0.26,0,0.42,0.25,0.5l9.26,2.83c0.25,0.07,0.41-0.02,0.49-0.28l0.37,0.11l-1.07,3.49
		l-0.37-0.11c0.03-0.11-0.02-0.18-0.15-0.23c-0.11-0.03-0.34,0.04-0.7,0.23l-7.87,4l6.49,1.98c0.24,0.08,0.42-0.06,0.53-0.42
		l0.37,0.11l-0.94,3.08l-0.37-0.11c0.08-0.26,0-0.43-0.25-0.5l-9.26-2.83c-0.24-0.07-0.41,0.02-0.49,0.28l-0.37-0.11l1.01-3.31
		l0.37,0.11c-0.05,0.18-0.02,0.28,0.1,0.32c0.09,0.03,0.28-0.03,0.57-0.18l8.39-4.24l-6.77-2.07c-0.25-0.07-0.41,0.04-0.51,0.36
		l-0.37-0.11l0.92-3.02L363.56,243.19z"/>
	<path class="st2" d="M366.04,269.17c-0.3,0.72-0.68,1.35-1.15,1.89c-0.47,0.54-1.01,0.95-1.63,1.23c-0.62,0.28-1.3,0.43-2.06,0.42
		c-0.76,0-1.58-0.19-2.46-0.55c-0.88-0.36-1.59-0.81-2.14-1.34c-0.54-0.53-0.93-1.11-1.17-1.75c-0.24-0.64-0.33-1.31-0.29-2.02
		c0.05-0.71,0.22-1.43,0.51-2.15l2.69-6.55l0.35,0.15c-0.12,0.3-0.07,0.5,0.17,0.6l8.96,3.68c0.24,0.1,0.42-0.01,0.54-0.31
		l0.35,0.15L366.04,269.17z M357.68,264.81c-0.25,0.62-0.42,1.18-0.51,1.68c-0.08,0.5-0.05,0.96,0.09,1.38
		c0.15,0.41,0.41,0.79,0.8,1.12c0.38,0.33,0.92,0.64,1.6,0.92c0.68,0.28,1.28,0.44,1.79,0.47c0.51,0.03,0.96-0.05,1.36-0.24
		c0.39-0.19,0.74-0.5,1.03-0.91c0.29-0.42,0.57-0.94,0.82-1.55l1.26-3.06l-6.99-2.87L357.68,264.81z"/>
	<path class="st2" d="M344.36,286.8l0.13-0.22c0.14,0.08,0.24,0.06,0.32-0.05c0.08-0.11,0.16-0.24,0.23-0.37l4.39-7.84
		c0.08-0.14,0.13-0.25,0.16-0.35c0.03-0.1-0.01-0.18-0.12-0.24l0.13-0.22l0.67,0.38c0.66,0.37,1.13,0.85,1.42,1.44
		c0.29,0.59,0.47,1.24,0.55,1.94c0.08,0.7,0.1,1.41,0.05,2.13c-0.05,0.72-0.08,1.41-0.09,2.05c-0.01,0.65,0.03,1.21,0.13,1.7
		c0.1,0.49,0.34,0.84,0.73,1.06c0.26,0.15,0.51,0.21,0.74,0.18s0.45-0.1,0.67-0.23c0.21-0.13,0.39-0.29,0.56-0.49
		c0.16-0.2,0.3-0.41,0.42-0.62c0.12-0.21,0.23-0.49,0.33-0.84c0.1-0.35,0.15-0.71,0.17-1.08c0.01-0.37-0.03-0.71-0.12-1.03
		c-0.09-0.32-0.27-0.55-0.53-0.7c-0.06-0.03-0.15-0.06-0.27-0.09c-0.12-0.02-0.21-0.02-0.27,0.01l-0.03-0.26l3.12-0.77l0.03,0.26
		c-0.05,0.04-0.11,0.07-0.16,0.11c-0.05,0.04-0.1,0.08-0.13,0.15c-0.04,0.07-0.02,0.26,0.05,0.57c0.07,0.3,0.13,0.69,0.16,1.16
		c0.03,0.47-0.01,1.02-0.12,1.65c-0.11,0.62-0.36,1.3-0.76,2.02c-0.26,0.47-0.58,0.9-0.94,1.29c-0.36,0.39-0.77,0.7-1.21,0.91
		c-0.44,0.22-0.91,0.33-1.41,0.33c-0.5,0.01-1.02-0.14-1.57-0.45c-0.58-0.33-1-0.71-1.26-1.15c-0.26-0.44-0.42-0.92-0.48-1.43
		c-0.06-0.52-0.06-1.06,0.01-1.62c0.07-0.56,0.15-1.13,0.24-1.71s0.16-1.14,0.2-1.7c0.05-0.55,0.01-1.08-0.11-1.59l-0.19-0.1
		l-3.44,6.14c-0.08,0.14-0.12,0.28-0.14,0.42c-0.02,0.15,0.1,0.29,0.35,0.43l-0.13,0.22L344.36,286.8z"/>
	<path class="st2" d="M349.89,299.67c-0.46,0.69-1,1.25-1.64,1.69c-0.63,0.44-1.31,0.74-2.03,0.9c-0.72,0.16-1.46,0.18-2.21,0.05
		c-0.75-0.13-1.47-0.43-2.17-0.89c-0.7-0.46-1.25-1.02-1.67-1.66c-0.41-0.64-0.68-1.32-0.81-2.05c-0.13-0.72-0.1-1.46,0.07-2.21
		c0.17-0.75,0.49-1.47,0.94-2.15c0.46-0.69,1-1.26,1.62-1.7c0.62-0.45,1.29-0.76,2.01-0.92c0.71-0.17,1.45-0.18,2.2-0.05
		c0.75,0.13,1.47,0.43,2.17,0.89c0.7,0.46,1.25,1.02,1.67,1.66c0.41,0.64,0.68,1.32,0.81,2.05c0.13,0.73,0.12,1.47-0.04,2.22
		C350.65,298.26,350.34,298.98,349.89,299.67z M348.36,298.65c0.28-0.41,0.45-0.85,0.52-1.32c0.07-0.47,0.05-0.92-0.08-1.37
		s-0.33-0.88-0.63-1.29c-0.3-0.41-0.68-0.77-1.14-1.08c-0.46-0.31-0.94-0.52-1.44-0.63c-0.5-0.12-0.97-0.14-1.43-0.08
		c-0.46,0.06-0.89,0.22-1.29,0.46c-0.4,0.25-0.74,0.57-1.02,0.99c-0.28,0.41-0.45,0.85-0.52,1.32c-0.07,0.47-0.05,0.92,0.08,1.37
		s0.33,0.88,0.63,1.29c0.3,0.41,0.68,0.77,1.14,1.08c0.46,0.31,0.94,0.52,1.44,0.63c0.49,0.12,0.97,0.14,1.43,0.08
		c0.46-0.06,0.89-0.22,1.29-0.46C347.74,299.4,348.08,299.07,348.36,298.65z"/>
	<path class="st2" d="M329.51,307.75l0.16-0.2c0.12,0.1,0.23,0.1,0.33,0c0.1-0.1,0.19-0.21,0.29-0.33l5.52-7.08
		c0.1-0.12,0.17-0.23,0.21-0.32s0.02-0.18-0.08-0.26l0.16-0.2l0.61,0.47c0.59,0.46,0.99,1.01,1.18,1.64c0.19,0.63,0.28,1.3,0.25,2
		c-0.02,0.7-0.11,1.41-0.27,2.12c-0.15,0.71-0.29,1.38-0.4,2.02c-0.11,0.64-0.15,1.2-0.12,1.7c0.03,0.5,0.21,0.88,0.56,1.15
		c0.24,0.18,0.47,0.28,0.7,0.29c0.23,0.01,0.47-0.03,0.69-0.12s0.44-0.23,0.63-0.4c0.19-0.18,0.36-0.36,0.51-0.55
		c0.15-0.19,0.3-0.45,0.45-0.79c0.15-0.33,0.26-0.68,0.33-1.04c0.07-0.36,0.08-0.71,0.04-1.04c-0.04-0.33-0.18-0.59-0.41-0.77
		c-0.06-0.04-0.14-0.09-0.25-0.13c-0.11-0.04-0.2-0.05-0.27-0.03l0.01-0.26l3.2-0.29l-0.01,0.26c-0.06,0.03-0.11,0.05-0.17,0.08
		s-0.11,0.07-0.15,0.13c-0.05,0.07-0.06,0.26-0.04,0.57c0.03,0.31,0.02,0.7-0.02,1.17c-0.04,0.47-0.16,1.01-0.36,1.61
		c-0.2,0.6-0.55,1.23-1.06,1.88c-0.33,0.43-0.71,0.8-1.13,1.14c-0.42,0.33-0.87,0.57-1.33,0.72c-0.47,0.15-0.95,0.19-1.44,0.12
		c-0.5-0.07-0.99-0.3-1.48-0.68c-0.53-0.41-0.89-0.85-1.08-1.33c-0.19-0.47-0.28-0.97-0.26-1.49c0.02-0.52,0.1-1.05,0.26-1.6
		c0.16-0.55,0.32-1.1,0.49-1.66c0.17-0.56,0.33-1.11,0.46-1.65c0.13-0.54,0.17-1.07,0.13-1.59l-0.17-0.13l-4.33,5.55
		c-0.1,0.12-0.16,0.26-0.2,0.4c-0.04,0.14,0.06,0.3,0.28,0.48l-0.16,0.2L329.51,307.75z"/>
	<path class="st2" d="M320.93,317.31l0.17-0.19c0.12,0.11,0.22,0.11,0.33,0.02c0.1-0.09,0.2-0.19,0.31-0.31l6.05-6.64
		c0.11-0.12,0.18-0.22,0.23-0.31c0.05-0.09,0.03-0.17-0.07-0.26l0.17-0.19l0.57,0.52c0.56,0.51,0.91,1.08,1.05,1.72
		c0.15,0.64,0.18,1.31,0.1,2.01c-0.08,0.7-0.22,1.39-0.43,2.09c-0.21,0.69-0.39,1.35-0.55,1.98c-0.16,0.63-0.24,1.19-0.25,1.69
		c-0.01,0.5,0.15,0.9,0.47,1.19c0.22,0.2,0.45,0.32,0.68,0.35c0.23,0.03,0.47,0.01,0.7-0.07c0.23-0.08,0.45-0.19,0.65-0.36
		c0.2-0.16,0.39-0.33,0.55-0.51c0.16-0.18,0.33-0.43,0.51-0.75c0.18-0.32,0.31-0.66,0.41-1.02c0.09-0.36,0.13-0.7,0.12-1.03
		c-0.02-0.33-0.13-0.6-0.35-0.8c-0.05-0.05-0.13-0.1-0.24-0.15c-0.11-0.05-0.2-0.07-0.27-0.05l0.03-0.26l3.21-0.05l-0.03,0.26
		c-0.06,0.02-0.12,0.04-0.18,0.07c-0.06,0.02-0.11,0.06-0.16,0.11c-0.06,0.06-0.08,0.25-0.08,0.56c0,0.31-0.03,0.7-0.11,1.17
		s-0.24,0.99-0.48,1.58c-0.24,0.59-0.64,1.18-1.2,1.79c-0.36,0.4-0.77,0.75-1.21,1.05s-0.91,0.5-1.38,0.62
		c-0.48,0.11-0.96,0.12-1.45,0.01c-0.49-0.11-0.96-0.37-1.43-0.79c-0.49-0.45-0.82-0.92-0.97-1.4c-0.15-0.49-0.2-0.99-0.15-1.5
		c0.06-0.52,0.18-1.04,0.38-1.57c0.2-0.53,0.4-1.07,0.62-1.61c0.22-0.54,0.41-1.08,0.58-1.61c0.17-0.53,0.26-1.05,0.25-1.57
		l-0.16-0.14l-4.74,5.21c-0.11,0.12-0.18,0.24-0.23,0.38c-0.05,0.14,0.03,0.3,0.24,0.5l-0.17,0.19L320.93,317.31z"/>
	<path class="st2" d="M317.68,328.95c-0.83-0.89-0.79-2.27,0.1-3.11c0.89-0.83,2.27-0.79,3.11,0.1c0.83,0.89,0.79,2.28-0.1,3.11
		C319.86,329.91,318.48,329.8,317.68,328.95z"/>
	<path class="st2" d="M300.55,337.5c0.03-0.03,0.07-0.05,0.1-0.06c0.03-0.02,0.07-0.04,0.1-0.06c0.07-0.05,0.17-0.25,0.32-0.58
		c0.15-0.33,0.35-0.73,0.6-1.2c0.25-0.47,0.58-0.96,0.97-1.47c0.4-0.51,0.86-0.98,1.4-1.4c0.7-0.55,1.45-1,2.24-1.33
		c0.79-0.33,1.58-0.51,2.37-0.52c0.79-0.02,1.55,0.14,2.28,0.47c0.73,0.33,1.39,0.87,1.98,1.62c0.58,0.74,0.95,1.5,1.1,2.3
		c0.15,0.79,0.13,1.58-0.07,2.35c-0.2,0.77-0.55,1.51-1.05,2.21c-0.5,0.7-1.1,1.33-1.8,1.88c-0.57,0.45-1.12,0.81-1.66,1.09
		c-0.53,0.28-1.01,0.5-1.44,0.67c-0.43,0.17-0.77,0.29-1.05,0.36c-0.27,0.07-0.43,0.12-0.47,0.16c-0.05,0.04-0.08,0.11-0.08,0.2
		c0.01,0.09,0.01,0.16,0.01,0.21l-0.41,0l-0.29-3.06l0.26-0.02c0.03,0.03,0.06,0.06,0.09,0.09c0.03,0.03,0.07,0.06,0.12,0.1
		c0.12,0.11,0.33,0.14,0.63,0.11c0.3-0.03,0.64-0.11,1.02-0.24c0.38-0.13,0.75-0.3,1.14-0.49s0.71-0.4,0.99-0.62
		c0.47-0.37,0.87-0.79,1.19-1.26c0.32-0.47,0.54-0.96,0.66-1.47c0.12-0.51,0.12-1.02,0.02-1.55c-0.1-0.52-0.35-1.03-0.72-1.51
		c-0.38-0.48-0.81-0.83-1.29-1.06c-0.48-0.22-0.99-0.34-1.51-0.35c-0.52-0.01-1.05,0.09-1.59,0.3c-0.54,0.2-1.04,0.49-1.51,0.86
		c-0.36,0.28-0.7,0.62-1.02,1.01c-0.32,0.39-0.6,0.78-0.82,1.16c-0.22,0.38-0.38,0.74-0.47,1.08c-0.09,0.33-0.08,0.57,0.04,0.72
		c0.06,0.08,0.14,0.13,0.23,0.15l-0.13,0.32l-2.51-0.91L300.55,337.5z"/>
	<path class="st2" d="M296.96,351.56c-0.57,0.37-1.12,0.66-1.66,0.86c-0.53,0.2-1.04,0.3-1.51,0.3s-0.92-0.12-1.33-0.36
		c-0.41-0.24-0.78-0.61-1.11-1.12c-0.51-0.79-0.67-1.54-0.48-2.26c0.19-0.72,0.64-1.41,1.33-2.06l-4.59-1.85
		c-0.16-0.07-0.31-0.07-0.43-0.02c-0.13,0.05-0.24,0.11-0.34,0.17l-0.21-0.32l3.35-2.17l0.21,0.32c-0.11,0.07-0.19,0.15-0.24,0.23
		c-0.05,0.09-0.06,0.16-0.02,0.22c0.04,0.06,0.11,0.11,0.21,0.16c0.1,0.05,0.24,0.1,0.42,0.17l3.78,1.51l2.56-1.66l-2.07-3.18
		c-0.07-0.11-0.16-0.16-0.27-0.17c-0.11,0-0.27,0.06-0.47,0.19l-0.21-0.32l3.09-2.01l0.21,0.32c-0.35,0.23-0.45,0.44-0.31,0.66
		l5.28,8.12c0.14,0.22,0.38,0.21,0.73-0.02l0.21,0.32L296.96,351.56z M294.71,347.07c-0.43,0.28-0.77,0.54-1.01,0.8
		c-0.24,0.25-0.41,0.49-0.5,0.72c-0.09,0.23-0.12,0.44-0.08,0.65c0.03,0.21,0.11,0.41,0.24,0.6c0.12,0.19,0.27,0.34,0.45,0.46
		s0.39,0.18,0.63,0.19c0.24,0.01,0.53-0.04,0.86-0.16c0.33-0.12,0.71-0.32,1.14-0.6l3.09-2.01l-1.72-2.65L294.71,347.07z"/>
	<path class="st2" d="M278.9,359.2c0.07,0.14,0.18,0.21,0.33,0.23c0.14,0.01,0.35-0.05,0.61-0.19l6.1-3.24l-1.24-2.34l-3.69,1.96
		c-0.25,0.13-0.43,0.27-0.53,0.41c-0.1,0.14-0.08,0.36,0.08,0.65l-0.34,0.18l-1.56-2.94l0.34-0.18c0.15,0.29,0.32,0.44,0.5,0.45
		c0.18,0.01,0.4-0.05,0.65-0.19l3.69-1.96l-1.38-2.6l-6.29,3.35c-0.19,0.1-0.32,0.23-0.39,0.38c-0.07,0.15-0.07,0.3,0.01,0.45
		l-0.34,0.18l-1.37-2.58l0.34-0.18c0.1,0.19,0.22,0.26,0.35,0.22c0.13-0.04,0.29-0.11,0.48-0.21l8.78-4.67l0.18,0.34
		c-0.09,0.05-0.15,0.12-0.19,0.21c-0.04,0.09-0.03,0.2,0.03,0.31l4.55,8.55c0.06,0.11,0.14,0.18,0.24,0.2
		c0.1,0.02,0.19,0.01,0.28-0.04l0.18,0.34l-8.59,4.57c-0.26,0.14-0.43,0.28-0.49,0.42c-0.06,0.14-0.06,0.28,0.02,0.42l-0.34,0.18
		l-1.32-2.49L278.9,359.2z"/>
	<path class="st2" d="M272.98,352.65c-0.16,0.1-0.26,0.24-0.29,0.43c-0.04,0.19-0.06,0.39-0.07,0.61l-0.36,9.18
		c-0.02,0.21-0.03,0.4-0.04,0.58c-0.01,0.17,0.01,0.31,0.05,0.42c0.06,0.13,0.14,0.2,0.25,0.22c0.11,0.01,0.23,0.01,0.34-0.01
		l0.15,0.35l-3.31,1.42l-0.15-0.35c0.08-0.07,0.16-0.14,0.23-0.23c0.07-0.09,0.08-0.2,0.02-0.34c-0.05-0.1-0.11-0.2-0.2-0.28
		c-0.09-0.08-0.22-0.19-0.38-0.32l-7.5-6.23c-0.13-0.12-0.26-0.18-0.4-0.2c-0.14-0.02-0.29-0.03-0.47-0.03l-0.15-0.35l3.45-1.48
		l0.15,0.35c-0.05,0.02-0.11,0.07-0.17,0.14c-0.06,0.07-0.08,0.15-0.04,0.23c0.06,0.13,0.18,0.28,0.38,0.44l1.37,1.13l4.78-2.05
		l0.11-1.7c0.01-0.33-0.01-0.55-0.06-0.67c-0.06-0.14-0.22-0.16-0.46-0.06l-0.15-0.35l2.78-1.19L272.98,352.65z M267.15,359.46
		l3.21,2.94l0.28-4.44L267.15,359.46z"/>
	<path class="st2" d="M253.25,360.84c-0.08-0.24-0.27-0.31-0.57-0.21l-0.12-0.36l3.11-1.05l0.12,0.36
		c-0.09,0.03-0.17,0.09-0.22,0.18c-0.05,0.08-0.06,0.19-0.02,0.31l2.72,8.04l3.33-1.13c0.12-0.04,0.23-0.11,0.32-0.22
		c0.09-0.11,0.11-0.25,0.04-0.44l0.36-0.12l0.96,2.83l-0.36,0.12c-0.06-0.19-0.16-0.3-0.3-0.33s-0.27-0.02-0.39,0.02l-8.97,3.03
		c-0.12,0.04-0.23,0.11-0.32,0.22s-0.11,0.25-0.04,0.44l-0.36,0.12l-0.96-2.83l0.36-0.12c0.06,0.19,0.16,0.3,0.3,0.33
		c0.14,0.03,0.27,0.02,0.39-0.02l3.33-1.13L253.25,360.84z"/>
	<path class="st2" d="M246.44,362.52c-0.36,0.1-0.5,0.27-0.43,0.52l2.66,9.31c0.07,0.25,0.28,0.32,0.64,0.22l0.1,0.37l-3.41,0.97
		l-0.1-0.37c0.36-0.1,0.5-0.28,0.43-0.52l-2.66-9.31c-0.07-0.25-0.28-0.32-0.64-0.22l-0.1-0.37l3.41-0.97L246.44,362.52z"/>
	<path class="st2" d="M230.13,377.07c0.28-0.06,0.46-0.2,0.54-0.43c0.08-0.23,0.14-0.41,0.17-0.55l2-8.9
		c0.07-0.31,0.12-0.55,0.17-0.73c0.05-0.18,0.07-0.31,0.05-0.38c-0.01-0.07-0.04-0.12-0.09-0.16c-0.04-0.03-0.1-0.07-0.16-0.1
		l-0.08-0.38l3.19-0.67l0.08,0.38c-0.11,0.08-0.16,0.19-0.13,0.33c0.01,0.07,0.1,0.2,0.25,0.4c0.15,0.19,0.33,0.43,0.55,0.72
		l5.47,7.38c0.1,0.14,0.22,0.23,0.36,0.27c0.14,0.04,0.33,0.08,0.59,0.1l0.08,0.38l-3.74,0.78l-0.08-0.38
		c0.1-0.02,0.19-0.07,0.27-0.13c0.08-0.07,0.11-0.17,0.08-0.31c-0.03-0.15-0.13-0.34-0.3-0.55c-0.17-0.21-0.37-0.47-0.61-0.79
		l-3.87-5.18l-1.43,6.2c-0.09,0.4-0.18,0.75-0.27,1.07c-0.09,0.32-0.12,0.53-0.1,0.64c0.05,0.22,0.26,0.29,0.65,0.21l0.08,0.38
		l-3.65,0.76L230.13,377.07z"/>
	<path class="st2" d="M216.44,376.9c0.02,0.15,0.09,0.26,0.22,0.33c0.13,0.06,0.34,0.08,0.64,0.04l6.86-0.85l-0.33-2.63l-4.15,0.51
		c-0.28,0.04-0.5,0.1-0.64,0.2c-0.15,0.1-0.2,0.31-0.16,0.63l-0.38,0.05l-0.41-3.3l0.38-0.05c0.04,0.32,0.14,0.52,0.31,0.6
		c0.17,0.07,0.39,0.09,0.67,0.06l4.15-0.51l-0.36-2.92l-7.07,0.88c-0.21,0.03-0.38,0.1-0.5,0.21c-0.12,0.12-0.17,0.26-0.15,0.43
		l-0.38,0.05l-0.36-2.9l0.38-0.05c0.03,0.21,0.11,0.32,0.25,0.34s0.31,0,0.52-0.02l9.87-1.22l0.05,0.38
		c-0.1,0.01-0.18,0.06-0.25,0.13c-0.07,0.07-0.1,0.17-0.08,0.3l1.19,9.61c0.02,0.13,0.07,0.22,0.15,0.27
		c0.09,0.05,0.18,0.07,0.28,0.06l0.05,0.38l-9.65,1.19c-0.3,0.04-0.5,0.11-0.61,0.22c-0.11,0.11-0.15,0.24-0.13,0.39l-0.38,0.05
		l-0.35-2.79L216.44,376.9z"/>
	<path class="st2" d="M193.08,369.3c0.01-0.26-0.14-0.39-0.46-0.4l0.01-0.38l3.28,0.11l-0.01,0.38c-0.1,0-0.19,0.03-0.27,0.09
		c-0.08,0.06-0.12,0.16-0.13,0.28l-0.29,8.49l3.52,0.12c0.13,0,0.25-0.03,0.38-0.09c0.12-0.07,0.19-0.2,0.2-0.4l0.38,0.01l-0.1,2.99
		l-0.38-0.01c0.01-0.2-0.05-0.34-0.17-0.41c-0.12-0.07-0.24-0.11-0.37-0.12l-9.47-0.32c-0.13,0-0.25,0.03-0.38,0.09
		c-0.12,0.07-0.19,0.2-0.19,0.4l-0.38-0.01l0.1-2.99l0.38,0.01c-0.01,0.2,0.05,0.34,0.17,0.41c0.12,0.07,0.24,0.11,0.37,0.12
		l3.52,0.12L193.08,369.3z"/>
	<path class="st2" d="M177.75,378.51c-0.68-0.08-1.29-0.21-1.82-0.4c-0.54-0.19-0.99-0.43-1.35-0.74c-0.36-0.31-0.63-0.68-0.79-1.12
		c-0.16-0.44-0.21-0.97-0.14-1.57c0.11-0.93,0.47-1.61,1.08-2.04c0.61-0.43,1.39-0.67,2.34-0.73l-2.34-4.36
		c-0.08-0.15-0.19-0.25-0.32-0.3c-0.13-0.04-0.25-0.07-0.37-0.09l0.04-0.38l3.96,0.47l-0.05,0.38c-0.13-0.01-0.24-0.01-0.34,0.03
		c-0.1,0.03-0.15,0.08-0.16,0.15c-0.01,0.07,0.01,0.15,0.06,0.25c0.05,0.1,0.12,0.23,0.21,0.4l1.94,3.58l3.03,0.36l0.45-3.77
		c0.02-0.13-0.02-0.23-0.1-0.3c-0.08-0.07-0.25-0.12-0.49-0.15l0.05-0.38l3.67,0.43l-0.05,0.38c-0.41-0.05-0.63,0.05-0.66,0.31
		l-1.14,9.62c-0.03,0.25,0.16,0.41,0.57,0.45l-0.04,0.38L177.75,378.51z M178.88,373.62c-0.51-0.06-0.94-0.07-1.28-0.03
		c-0.35,0.04-0.63,0.12-0.84,0.23c-0.21,0.12-0.38,0.27-0.48,0.45c-0.11,0.18-0.17,0.38-0.2,0.61c-0.03,0.23-0.01,0.44,0.05,0.64
		c0.06,0.2,0.18,0.38,0.37,0.55c0.18,0.16,0.44,0.31,0.77,0.42c0.33,0.12,0.75,0.21,1.26,0.27l3.66,0.43l0.37-3.14L178.88,373.62z"
		/>
	<path class="st2" d="M158.95,372.83c-0.03,0.15,0,0.28,0.11,0.38c0.1,0.1,0.3,0.18,0.59,0.24l6.77,1.41l0.54-2.59l-4.09-0.85
		c-0.28-0.06-0.5-0.06-0.67-0.02c-0.17,0.04-0.29,0.23-0.35,0.55l-0.38-0.08l0.68-3.26l0.38,0.08c-0.07,0.32-0.03,0.54,0.1,0.66
		c0.13,0.12,0.34,0.21,0.62,0.27l4.09,0.85l0.6-2.88l-6.98-1.45c-0.21-0.04-0.39-0.03-0.54,0.04c-0.15,0.07-0.25,0.19-0.28,0.36
		l-0.38-0.08l0.59-2.86l0.38,0.08c-0.04,0.21,0,0.34,0.12,0.4c0.13,0.05,0.29,0.1,0.5,0.15l9.73,2.02l-0.08,0.38
		c-0.1-0.02-0.19-0.01-0.28,0.04c-0.09,0.05-0.15,0.13-0.17,0.26l-1.97,9.48c-0.03,0.13-0.01,0.23,0.06,0.31
		c0.06,0.08,0.14,0.13,0.24,0.15l-0.08,0.38l-9.53-1.98c-0.29-0.06-0.51-0.06-0.64,0.01c-0.14,0.06-0.22,0.17-0.25,0.33l-0.38-0.08
		l0.57-2.76L158.95,372.83z"/>
	<path class="st2" d="M157.15,363.63c-0.26-0.08-0.43,0-0.5,0.25l-2.82,9.27c-0.07,0.25,0.02,0.41,0.28,0.49L154,374l-3.49-1.06
		l0.11-0.37c0.11,0.03,0.18-0.02,0.23-0.15c0.03-0.11-0.04-0.34-0.23-0.7l-4.01-7.86l-1.97,6.49c-0.07,0.24,0.07,0.42,0.42,0.53
		l-0.11,0.37l-3.08-0.94l0.11-0.37c0.26,0.08,0.43,0,0.5-0.25l2.82-9.27c0.07-0.25-0.02-0.41-0.28-0.49l0.11-0.37l3.31,1.01
		l-0.11,0.37c-0.18-0.05-0.28-0.02-0.32,0.1c-0.03,0.09,0.03,0.28,0.18,0.57l4.25,8.38l2.06-6.78c0.07-0.24-0.04-0.41-0.36-0.51
		l0.11-0.37l3.02,0.92L157.15,363.63z"/>
	<path class="st2" d="M131.17,366.14c-0.72-0.3-1.36-0.68-1.89-1.14s-0.95-1.01-1.24-1.62c-0.29-0.62-0.43-1.3-0.42-2.06
		c0-0.76,0.19-1.58,0.55-2.46c0.36-0.88,0.81-1.59,1.34-2.14c0.53-0.54,1.11-0.94,1.75-1.17c0.64-0.24,1.31-0.34,2.02-0.29
		c0.71,0.05,1.43,0.22,2.15,0.51l6.55,2.68l-0.15,0.36c-0.3-0.12-0.5-0.07-0.6,0.17l-3.67,8.96c-0.1,0.24,0.01,0.42,0.31,0.54
		l-0.15,0.36L131.17,366.14z M135.52,357.78c-0.62-0.25-1.18-0.42-1.68-0.51s-0.96-0.05-1.38,0.09c-0.41,0.15-0.79,0.41-1.12,0.8
		c-0.33,0.39-0.64,0.92-0.92,1.61c-0.28,0.68-0.44,1.28-0.47,1.79c-0.03,0.51,0.05,0.96,0.24,1.35c0.19,0.39,0.5,0.74,0.91,1.03
		c0.42,0.29,0.94,0.57,1.55,0.82l3.06,1.25l2.86-6.99L135.52,357.78z"/>
	<path class="st2" d="M113.51,344.48l0.22,0.12c-0.08,0.14-0.06,0.24,0.05,0.32s0.23,0.16,0.37,0.23l7.84,4.38
		c0.14,0.08,0.25,0.13,0.35,0.16c0.1,0.03,0.18-0.01,0.24-0.12l0.22,0.13l-0.37,0.67c-0.37,0.66-0.85,1.13-1.44,1.42
		c-0.59,0.29-1.24,0.47-1.94,0.56c-0.7,0.08-1.41,0.1-2.13,0.06c-0.72-0.05-1.41-0.07-2.05-0.08c-0.64-0.01-1.21,0.03-1.7,0.14
		c-0.49,0.1-0.84,0.34-1.06,0.73c-0.15,0.26-0.21,0.51-0.18,0.74c0.03,0.23,0.1,0.46,0.23,0.66c0.13,0.21,0.29,0.4,0.5,0.56
		c0.2,0.16,0.41,0.3,0.62,0.42c0.21,0.12,0.49,0.23,0.84,0.32c0.35,0.1,0.71,0.15,1.08,0.16s0.71-0.03,1.03-0.12
		c0.32-0.09,0.55-0.27,0.7-0.53c0.03-0.06,0.06-0.15,0.09-0.27c0.03-0.12,0.02-0.21-0.01-0.27l0.26-0.03l0.77,3.12l-0.26,0.03
		c-0.04-0.05-0.07-0.11-0.11-0.16c-0.04-0.05-0.08-0.1-0.15-0.13c-0.07-0.04-0.26-0.02-0.57,0.05c-0.3,0.08-0.69,0.13-1.16,0.16
		c-0.47,0.03-1.02-0.01-1.65-0.11c-0.63-0.11-1.3-0.36-2.02-0.76c-0.47-0.26-0.9-0.58-1.29-0.94c-0.39-0.37-0.7-0.77-0.91-1.21
		c-0.22-0.44-0.33-0.91-0.34-1.41c-0.01-0.5,0.14-1.02,0.45-1.57c0.33-0.58,0.71-1.01,1.15-1.27c0.44-0.26,0.92-0.42,1.43-0.48
		c0.52-0.06,1.06-0.06,1.62,0.01c0.56,0.07,1.13,0.15,1.71,0.24c0.58,0.09,1.14,0.15,1.69,0.2c0.55,0.05,1.08,0.01,1.59-0.11
		l0.1-0.19l-6.15-3.43c-0.14-0.08-0.28-0.12-0.42-0.14c-0.15-0.02-0.29,0.1-0.43,0.35l-0.22-0.13L113.51,344.48z"/>
	<path class="st2" d="M100.66,350.02c-0.69-0.46-1.25-1-1.69-1.63c-0.44-0.63-0.74-1.31-0.91-2.03c-0.16-0.72-0.18-1.46-0.05-2.21
		c0.13-0.75,0.43-1.47,0.89-2.17c0.46-0.7,1.02-1.26,1.65-1.67c0.64-0.41,1.32-0.68,2.05-0.81c0.72-0.13,1.46-0.1,2.21,0.07
		c0.75,0.17,1.47,0.48,2.15,0.94c0.69,0.46,1.26,0.99,1.71,1.62c0.45,0.62,0.76,1.29,0.92,2.01c0.17,0.71,0.18,1.45,0.05,2.2
		c-0.13,0.75-0.43,1.48-0.89,2.17s-1.02,1.26-1.66,1.67c-0.64,0.41-1.32,0.68-2.05,0.82c-0.73,0.13-1.47,0.12-2.23-0.04
		C102.07,350.78,101.34,350.48,100.66,350.02z M101.67,348.49c0.42,0.27,0.85,0.45,1.32,0.52c0.47,0.07,0.92,0.04,1.37-0.08
		c0.45-0.12,0.88-0.33,1.29-0.63c0.41-0.3,0.77-0.68,1.08-1.14c0.31-0.46,0.52-0.94,0.63-1.44c0.12-0.5,0.14-0.97,0.08-1.43
		c-0.06-0.46-0.22-0.89-0.46-1.29c-0.25-0.4-0.58-0.74-0.99-1.02c-0.42-0.27-0.86-0.45-1.32-0.52c-0.47-0.07-0.92-0.04-1.37,0.08
		c-0.45,0.12-0.88,0.33-1.29,0.63c-0.41,0.3-0.77,0.68-1.08,1.14c-0.31,0.46-0.52,0.94-0.63,1.44c-0.11,0.5-0.14,0.97-0.08,1.43
		c0.06,0.46,0.22,0.89,0.46,1.29C100.92,347.88,101.25,348.22,101.67,348.49z"/>
	<path class="st2" d="M92.58,329.67l0.2,0.16c-0.1,0.12-0.1,0.23,0,0.33c0.1,0.09,0.21,0.19,0.33,0.29l7.09,5.51
		c0.12,0.1,0.23,0.17,0.32,0.21c0.09,0.04,0.18,0.02,0.26-0.08l0.2,0.16l-0.47,0.61c-0.46,0.6-1.01,0.99-1.64,1.19
		c-0.63,0.19-1.3,0.28-2,0.26c-0.7-0.02-1.41-0.11-2.12-0.27c-0.71-0.16-1.38-0.29-2.02-0.39c-0.64-0.11-1.2-0.15-1.7-0.12
		c-0.5,0.03-0.88,0.21-1.15,0.56c-0.18,0.24-0.28,0.47-0.29,0.71s0.03,0.46,0.12,0.69s0.23,0.44,0.41,0.63
		c0.18,0.19,0.36,0.36,0.55,0.51c0.19,0.15,0.45,0.3,0.79,0.45c0.33,0.15,0.68,0.26,1.04,0.33c0.36,0.07,0.71,0.08,1.04,0.04
		c0.33-0.04,0.59-0.18,0.77-0.42c0.04-0.06,0.09-0.14,0.13-0.25c0.04-0.11,0.05-0.2,0.03-0.27l0.26,0.01l0.29,3.2l-0.26-0.01
		c-0.03-0.06-0.05-0.11-0.08-0.17c-0.03-0.06-0.07-0.11-0.13-0.15c-0.07-0.05-0.26-0.06-0.57-0.04c-0.31,0.03-0.7,0.02-1.17-0.02
		c-0.47-0.04-1.01-0.16-1.61-0.36c-0.6-0.2-1.23-0.55-1.88-1.06c-0.43-0.33-0.81-0.71-1.14-1.13c-0.33-0.42-0.57-0.86-0.72-1.33
		s-0.19-0.95-0.12-1.45c0.07-0.49,0.3-0.99,0.68-1.48c0.41-0.53,0.85-0.89,1.32-1.08c0.47-0.19,0.97-0.28,1.49-0.26
		c0.52,0.02,1.05,0.1,1.6,0.26c0.55,0.15,1.1,0.32,1.66,0.49c0.56,0.17,1.11,0.32,1.65,0.46c0.54,0.13,1.07,0.17,1.59,0.13
		l0.13-0.17l-5.56-4.32c-0.12-0.1-0.26-0.16-0.4-0.2s-0.3,0.06-0.47,0.28l-0.2-0.16L92.58,329.67z"/>
	<path class="st2" d="M83,321.1l0.19,0.17c-0.11,0.12-0.11,0.22-0.02,0.33c0.09,0.1,0.19,0.2,0.31,0.31l6.65,6.04
		c0.12,0.1,0.22,0.18,0.31,0.23c0.09,0.05,0.18,0.03,0.26-0.07l0.19,0.17l-0.52,0.57c-0.51,0.56-1.08,0.91-1.72,1.06
		c-0.64,0.15-1.31,0.18-2.01,0.11c-0.7-0.08-1.39-0.22-2.09-0.43s-1.36-0.39-1.98-0.55c-0.63-0.16-1.19-0.24-1.69-0.25
		c-0.5-0.01-0.9,0.15-1.19,0.47c-0.2,0.22-0.32,0.45-0.35,0.68c-0.03,0.23,0,0.47,0.07,0.7c0.08,0.23,0.2,0.45,0.36,0.66
		c0.16,0.2,0.33,0.39,0.51,0.55c0.18,0.16,0.43,0.33,0.75,0.51c0.32,0.18,0.66,0.31,1.02,0.4c0.36,0.09,0.7,0.13,1.03,0.12
		c0.33-0.02,0.6-0.13,0.8-0.36c0.05-0.05,0.1-0.13,0.15-0.24c0.05-0.11,0.07-0.2,0.06-0.27l0.26,0.03l0.05,3.21l-0.26-0.03
		c-0.02-0.06-0.05-0.12-0.07-0.18c-0.02-0.06-0.06-0.11-0.11-0.16c-0.06-0.06-0.25-0.08-0.56-0.08c-0.31,0-0.7-0.03-1.17-0.11
		c-0.47-0.08-0.99-0.24-1.58-0.48s-1.18-0.64-1.79-1.2c-0.4-0.36-0.75-0.77-1.05-1.21c-0.3-0.44-0.5-0.9-0.62-1.38
		c-0.11-0.48-0.12-0.96-0.01-1.45c0.11-0.49,0.37-0.96,0.79-1.43c0.45-0.5,0.92-0.82,1.4-0.97c0.49-0.15,0.99-0.2,1.5-0.15
		c0.52,0.06,1.04,0.18,1.57,0.38c0.53,0.2,1.07,0.4,1.62,0.62s1.08,0.41,1.61,0.58c0.53,0.17,1.05,0.25,1.57,0.25l0.14-0.16
		l-5.21-4.73c-0.12-0.11-0.24-0.18-0.38-0.23c-0.14-0.05-0.3,0.03-0.49,0.24l-0.19-0.17L83,321.1z"/>
	<path class="st2" d="M71.36,317.87c0.89-0.83,2.27-0.79,3.11,0.09c0.83,0.89,0.79,2.27-0.09,3.11c-0.89,0.83-2.27,0.79-3.11-0.09
		C70.4,320.06,70.5,318.67,71.36,317.87z"/>
	<path class="st2" d="M62.78,300.75c0.03,0.03,0.05,0.07,0.06,0.1c0.02,0.03,0.04,0.07,0.06,0.1c0.05,0.07,0.25,0.17,0.58,0.32
		s0.73,0.34,1.21,0.6c0.47,0.25,0.96,0.58,1.47,0.97c0.51,0.39,0.98,0.86,1.4,1.39c0.56,0.7,1,1.45,1.33,2.24
		c0.33,0.79,0.51,1.58,0.53,2.37c0.02,0.79-0.14,1.55-0.47,2.28c-0.33,0.73-0.87,1.39-1.62,1.98c-0.74,0.58-1.5,0.95-2.29,1.11
		c-0.79,0.15-1.57,0.13-2.35-0.06c-0.77-0.2-1.51-0.54-2.21-1.04c-0.7-0.5-1.33-1.1-1.88-1.8c-0.45-0.57-0.81-1.12-1.09-1.65
		c-0.28-0.53-0.5-1.01-0.67-1.44c-0.17-0.43-0.29-0.77-0.36-1.05c-0.07-0.27-0.12-0.43-0.16-0.47c-0.04-0.06-0.11-0.08-0.2-0.08
		c-0.09,0.01-0.16,0.01-0.21,0.01l0-0.41l3.06-0.29l0.02,0.26c-0.03,0.03-0.06,0.06-0.09,0.09s-0.06,0.07-0.1,0.12
		c-0.11,0.12-0.14,0.33-0.11,0.63c0.03,0.3,0.11,0.64,0.24,1.02c0.13,0.37,0.3,0.75,0.49,1.14c0.19,0.38,0.4,0.71,0.62,0.99
		c0.37,0.47,0.79,0.87,1.27,1.19s0.96,0.54,1.47,0.66c0.51,0.11,1.02,0.12,1.55,0.01c0.52-0.1,1.03-0.35,1.51-0.73
		c0.48-0.38,0.83-0.81,1.06-1.3c0.22-0.49,0.34-0.99,0.34-1.51c0.01-0.52-0.09-1.05-0.3-1.58c-0.21-0.54-0.49-1.04-0.86-1.51
		c-0.28-0.36-0.62-0.7-1.01-1.02c-0.39-0.32-0.78-0.6-1.17-0.82c-0.38-0.22-0.74-0.38-1.08-0.47c-0.33-0.09-0.57-0.08-0.72,0.04
		c-0.08,0.06-0.13,0.14-0.15,0.23l-0.32-0.13l0.9-2.51L62.78,300.75z"/>
	<path class="st2" d="M48.72,297.19c-0.37-0.57-0.66-1.12-0.86-1.65c-0.2-0.53-0.3-1.03-0.3-1.51c0-0.48,0.12-0.92,0.36-1.33
		c0.24-0.41,0.61-0.78,1.12-1.11c0.79-0.51,1.54-0.67,2.26-0.48c0.72,0.19,1.41,0.64,2.06,1.33l1.85-4.59
		c0.07-0.16,0.07-0.31,0.02-0.43c-0.05-0.13-0.11-0.24-0.17-0.34l0.32-0.21l2.18,3.34l-0.32,0.21c-0.07-0.11-0.15-0.19-0.23-0.24
		c-0.09-0.05-0.16-0.06-0.22-0.02c-0.06,0.04-0.11,0.11-0.16,0.21c-0.05,0.1-0.1,0.24-0.17,0.42l-1.51,3.78l1.67,2.56l3.18-2.07
		c0.11-0.07,0.16-0.16,0.17-0.27c0-0.11-0.06-0.27-0.19-0.47l0.32-0.21l2.02,3.09l-0.32,0.21c-0.22-0.35-0.44-0.45-0.66-0.31
		L53,302.37c-0.21,0.14-0.21,0.38,0.02,0.73l-0.32,0.21L48.72,297.19z M53.2,294.93c-0.28-0.43-0.54-0.76-0.8-1.01
		c-0.25-0.24-0.49-0.41-0.72-0.5c-0.23-0.09-0.44-0.12-0.65-0.08s-0.41,0.11-0.6,0.24c-0.19,0.12-0.34,0.27-0.46,0.45
		c-0.11,0.18-0.18,0.39-0.19,0.63c-0.01,0.24,0.05,0.53,0.17,0.86c0.12,0.33,0.32,0.71,0.6,1.14l2.02,3.09l2.64-1.72L53.2,294.93z"
		/>
	<path class="st2" d="M41.04,279.12c-0.14,0.07-0.21,0.18-0.23,0.33c-0.01,0.14,0.05,0.35,0.19,0.61l3.25,6.1l2.33-1.25l-1.97-3.69
		c-0.13-0.25-0.27-0.43-0.41-0.53s-0.36-0.07-0.65,0.08l-0.18-0.34l2.94-1.57l0.18,0.34c-0.29,0.15-0.44,0.32-0.44,0.5
		c-0.01,0.18,0.06,0.4,0.19,0.65l1.97,3.69l2.6-1.39l-3.35-6.29c-0.1-0.19-0.23-0.32-0.38-0.39c-0.15-0.07-0.3-0.07-0.45,0.01
		l-0.18-0.34l2.58-1.38l0.18,0.34c-0.19,0.1-0.26,0.22-0.22,0.35c0.04,0.13,0.11,0.29,0.21,0.48l4.68,8.77l-0.34,0.18
		c-0.05-0.09-0.12-0.15-0.21-0.19c-0.09-0.04-0.2-0.03-0.31,0.03l-8.55,4.56c-0.11,0.06-0.18,0.14-0.2,0.24
		c-0.02,0.1-0.01,0.19,0.04,0.28l-0.34,0.18l-4.58-8.58c-0.14-0.26-0.28-0.43-0.42-0.49c-0.14-0.06-0.28-0.06-0.41,0.02l-0.18-0.34
		l2.48-1.33L41.04,279.12z"/>
	<path class="st2" d="M47.58,273.18c-0.1-0.16-0.24-0.26-0.43-0.29c-0.19-0.04-0.39-0.06-0.61-0.07l-9.18-0.34
		c-0.21-0.02-0.4-0.03-0.58-0.04c-0.17-0.01-0.31,0.01-0.42,0.05c-0.13,0.06-0.2,0.14-0.21,0.26c-0.01,0.11-0.01,0.23,0.01,0.34
		l-0.35,0.15l-1.43-3.31l0.35-0.15c0.07,0.08,0.14,0.16,0.23,0.23c0.09,0.07,0.2,0.08,0.34,0.02c0.1-0.05,0.2-0.11,0.28-0.2
		c0.09-0.09,0.19-0.22,0.32-0.38l6.22-7.51c0.12-0.13,0.18-0.26,0.2-0.4c0.02-0.14,0.03-0.29,0.03-0.47l0.35-0.15l1.48,3.45
		l-0.35,0.15c-0.02-0.05-0.07-0.11-0.14-0.17s-0.15-0.08-0.23-0.04c-0.13,0.06-0.28,0.18-0.44,0.38l-1.13,1.37l2.06,4.78l1.69,0.11
		c0.33,0.01,0.56-0.01,0.67-0.06c0.14-0.06,0.16-0.22,0.06-0.46l0.35-0.15l1.2,2.78L47.58,273.18z M40.76,267.37l-2.94,3.22
		l4.44,0.27L40.76,267.37z"/>
	<path class="st2" d="M39.37,253.47c0.24-0.08,0.31-0.27,0.21-0.57l0.36-0.12l1.06,3.11l-0.36,0.12c-0.03-0.09-0.09-0.17-0.18-0.22
		c-0.09-0.05-0.19-0.06-0.31-0.02l-8.04,2.73l1.13,3.33c0.04,0.12,0.11,0.23,0.22,0.32c0.11,0.09,0.25,0.11,0.44,0.04l0.12,0.36
		l-2.83,0.96l-0.12-0.36c0.19-0.06,0.3-0.16,0.33-0.3c0.03-0.14,0.02-0.27-0.02-0.39l-3.04-8.97c-0.04-0.12-0.11-0.23-0.22-0.32
		c-0.11-0.09-0.25-0.1-0.44-0.04l-0.12-0.36l2.83-0.96l0.12,0.36c-0.19,0.06-0.3,0.16-0.33,0.3c-0.03,0.14-0.02,0.27,0.02,0.39
		l1.13,3.33L39.37,253.47z"/>
	<path class="st2" d="M37.68,246.69c-0.1-0.36-0.27-0.5-0.52-0.43l-9.31,2.66c-0.25,0.07-0.32,0.28-0.22,0.64l-0.37,0.1l-0.97-3.41
		l0.37-0.1c0.1,0.36,0.28,0.5,0.52,0.43l9.31-2.66c0.25-0.07,0.32-0.28,0.22-0.64l0.37-0.1l0.97,3.41L37.68,246.69z"/>
	<path class="st2" d="M23.11,230.4c0.06,0.28,0.2,0.46,0.43,0.54c0.23,0.08,0.41,0.14,0.55,0.17l8.9,1.98
		c0.31,0.07,0.55,0.12,0.73,0.17c0.18,0.05,0.31,0.07,0.38,0.05c0.07-0.01,0.12-0.04,0.16-0.09c0.03-0.04,0.07-0.1,0.1-0.16
		l0.38-0.08l0.67,3.19l-0.38,0.08c-0.08-0.11-0.19-0.16-0.33-0.13c-0.07,0.01-0.2,0.1-0.39,0.25c-0.19,0.15-0.43,0.33-0.72,0.56
		l-7.37,5.48c-0.14,0.1-0.23,0.22-0.27,0.36s-0.07,0.34-0.09,0.59l-0.38,0.08l-0.79-3.74l0.38-0.08c0.02,0.1,0.07,0.19,0.13,0.27
		c0.07,0.08,0.17,0.11,0.31,0.08c0.15-0.03,0.34-0.13,0.55-0.3c0.21-0.17,0.47-0.37,0.79-0.61l5.18-3.88l-6.21-1.42
		c-0.4-0.09-0.75-0.18-1.07-0.26c-0.32-0.09-0.53-0.12-0.64-0.09c-0.22,0.05-0.29,0.27-0.21,0.65l-0.38,0.08l-0.77-3.65L23.11,230.4
		z"/>
	<path class="st2" d="M23.25,216.67c-0.16,0.02-0.26,0.09-0.33,0.22c-0.06,0.13-0.08,0.34-0.04,0.64l0.86,6.86l2.62-0.33l-0.52-4.15
		c-0.04-0.28-0.1-0.5-0.2-0.64c-0.1-0.15-0.31-0.2-0.63-0.16l-0.05-0.38l3.3-0.41l0.05,0.38c-0.32,0.04-0.52,0.14-0.6,0.31
		c-0.07,0.17-0.09,0.39-0.06,0.67l0.52,4.15l2.92-0.37l-0.89-7.07c-0.03-0.21-0.1-0.38-0.21-0.5c-0.12-0.12-0.26-0.17-0.43-0.15
		l-0.05-0.38l2.9-0.36l0.05,0.38c-0.21,0.03-0.32,0.11-0.34,0.25c-0.01,0.14,0,0.31,0.02,0.52l1.23,9.86l-0.38,0.05
		c-0.01-0.1-0.06-0.18-0.13-0.25c-0.07-0.07-0.17-0.1-0.3-0.08l-9.61,1.2c-0.13,0.02-0.22,0.07-0.27,0.15
		c-0.05,0.09-0.07,0.18-0.06,0.28l-0.38,0.05l-1.21-9.65c-0.04-0.3-0.11-0.5-0.22-0.61c-0.11-0.11-0.24-0.15-0.39-0.13l-0.05-0.38
		l2.79-0.35L23.25,216.67z"/>
	<path class="st2" d="M30.81,193.32c0.26,0.01,0.39-0.14,0.4-0.46l0.38,0.01l-0.11,3.28l-0.38-0.01c0-0.1-0.03-0.19-0.09-0.27
		c-0.06-0.08-0.16-0.12-0.28-0.13l-8.49-0.27L22.13,199c0,0.13,0.03,0.25,0.09,0.38c0.07,0.12,0.2,0.19,0.4,0.19l-0.01,0.38
		l-2.99-0.1l0.01-0.38c0.2,0.01,0.34-0.05,0.41-0.17c0.08-0.12,0.11-0.24,0.12-0.37l0.3-9.47c0-0.13-0.03-0.25-0.09-0.38
		c-0.07-0.12-0.2-0.19-0.4-0.19l0.01-0.38l2.98,0.1L22.97,189c-0.2-0.01-0.34,0.05-0.41,0.17c-0.07,0.12-0.11,0.24-0.12,0.37
		l-0.11,3.52L30.81,193.32z"/>
	<path class="st2" d="M21.58,177.96c0.08-0.68,0.21-1.29,0.39-1.82c0.18-0.54,0.43-0.99,0.74-1.35c0.31-0.36,0.68-0.63,1.12-0.79
		c0.44-0.16,0.97-0.21,1.57-0.14c0.93,0.11,1.61,0.47,2.04,1.08c0.43,0.61,0.68,1.39,0.74,2.34l4.35-2.35
		c0.15-0.08,0.25-0.19,0.3-0.32c0.04-0.13,0.07-0.25,0.09-0.37l0.38,0.04l-0.46,3.96l-0.38-0.04c0.02-0.13,0.01-0.24-0.02-0.34
		c-0.03-0.1-0.08-0.15-0.15-0.16c-0.07-0.01-0.15,0.01-0.25,0.06c-0.1,0.05-0.23,0.12-0.4,0.21l-3.58,1.95l-0.35,3.03l3.77,0.44
		c0.13,0.01,0.23-0.02,0.3-0.1c0.07-0.08,0.13-0.25,0.15-0.49l0.38,0.04l-0.43,3.67l-0.38-0.04c0.05-0.41-0.06-0.63-0.31-0.66
		l-9.62-1.12c-0.25-0.03-0.41,0.16-0.45,0.57l-0.38-0.04L21.58,177.96z M26.48,179.09c0.06-0.51,0.07-0.94,0.03-1.28
		c-0.04-0.35-0.12-0.63-0.23-0.84c-0.12-0.21-0.27-0.37-0.45-0.48c-0.18-0.11-0.38-0.17-0.61-0.2c-0.23-0.03-0.44-0.01-0.64,0.05
		c-0.2,0.06-0.38,0.18-0.55,0.37c-0.16,0.18-0.31,0.44-0.42,0.77c-0.12,0.33-0.21,0.75-0.27,1.26l-0.43,3.67l3.14,0.37L26.48,179.09
		z"/>
	<path class="st2" d="M27.23,159.19c-0.15-0.03-0.28,0-0.38,0.11c-0.1,0.1-0.18,0.3-0.24,0.59l-1.39,6.77l2.59,0.53l0.84-4.1
		c0.06-0.28,0.06-0.5,0.02-0.67c-0.05-0.17-0.23-0.29-0.55-0.35l0.08-0.38l3.26,0.67l-0.08,0.38c-0.32-0.07-0.54-0.03-0.66,0.1
		c-0.12,0.13-0.21,0.34-0.27,0.62l-0.84,4.1l2.88,0.59l1.44-6.98c0.04-0.21,0.03-0.39-0.04-0.54c-0.07-0.15-0.19-0.25-0.36-0.28
		l0.08-0.38l2.86,0.59l-0.08,0.38c-0.21-0.04-0.34,0-0.4,0.13c-0.05,0.13-0.1,0.29-0.15,0.5l-2.01,9.74l-0.38-0.08
		c0.02-0.1,0.01-0.19-0.04-0.28c-0.05-0.09-0.13-0.15-0.26-0.17l-9.49-1.95c-0.13-0.03-0.23-0.01-0.31,0.06
		c-0.08,0.06-0.13,0.14-0.15,0.24l-0.38-0.08l1.96-9.53c0.06-0.29,0.06-0.51-0.01-0.64c-0.07-0.14-0.18-0.22-0.33-0.25l0.08-0.38
		l2.76,0.57L27.23,159.19z"/>
	<path class="st2" d="M36.43,157.37c0.08-0.26-0.01-0.43-0.25-0.5l-9.27-2.8c-0.25-0.07-0.41,0.02-0.48,0.28l-0.37-0.11l1.06-3.49
		l0.37,0.11c-0.03,0.11,0.02,0.18,0.15,0.23c0.11,0.03,0.34-0.05,0.7-0.24l7.86-4.02l-6.49-1.96c-0.25-0.07-0.42,0.07-0.53,0.42
		l-0.37-0.11l0.93-3.08l0.37,0.11c-0.08,0.26,0.01,0.42,0.25,0.5l9.27,2.8c0.25,0.07,0.41-0.02,0.48-0.28l0.37,0.11l-1,3.31
		l-0.37-0.11c0.05-0.18,0.02-0.28-0.1-0.32c-0.09-0.03-0.28,0.03-0.57,0.18l-8.38,4.27l6.78,2.05c0.24,0.07,0.41-0.04,0.51-0.36
		l0.37,0.11l-0.91,3.02L36.43,157.37z"/>
	<path class="st2" d="M33.88,131.4c0.3-0.72,0.68-1.36,1.14-1.9c0.47-0.54,1.01-0.95,1.62-1.24c0.62-0.29,1.3-0.43,2.06-0.43
		c0.76,0,1.58,0.18,2.46,0.54c0.88,0.36,1.6,0.8,2.14,1.33c0.54,0.53,0.94,1.11,1.18,1.75c0.24,0.64,0.34,1.31,0.29,2.02
		c-0.04,0.71-0.21,1.43-0.51,2.15l-2.67,6.56l-0.36-0.15c0.12-0.3,0.07-0.5-0.17-0.6l-8.97-3.66c-0.24-0.1-0.42,0.01-0.54,0.31
		l-0.36-0.15L33.88,131.4z M42.25,135.73c0.25-0.62,0.42-1.18,0.5-1.68c0.08-0.5,0.05-0.96-0.1-1.38c-0.15-0.41-0.41-0.79-0.8-1.12
		c-0.39-0.33-0.92-0.64-1.61-0.92c-0.68-0.28-1.28-0.43-1.79-0.47c-0.51-0.03-0.96,0.05-1.35,0.24c-0.39,0.19-0.74,0.5-1.03,0.92
		c-0.29,0.42-0.57,0.94-0.82,1.56l-1.25,3.06l6.99,2.85L42.25,135.73z"/>
	<path class="st2" d="M55.5,113.72l-0.12,0.22c-0.14-0.08-0.24-0.06-0.32,0.05c-0.08,0.11-0.16,0.24-0.23,0.37l-4.37,7.85
		c-0.08,0.14-0.13,0.25-0.16,0.35c-0.03,0.1,0.01,0.18,0.12,0.24l-0.12,0.22l-0.67-0.37c-0.66-0.37-1.13-0.85-1.42-1.44
		c-0.29-0.59-0.48-1.24-0.56-1.93c-0.08-0.7-0.1-1.41-0.06-2.13c0.04-0.72,0.07-1.41,0.08-2.05s-0.04-1.21-0.14-1.7
		c-0.1-0.49-0.35-0.84-0.73-1.05c-0.26-0.15-0.51-0.21-0.74-0.18c-0.23,0.03-0.46,0.1-0.66,0.23c-0.21,0.13-0.39,0.29-0.56,0.5
		c-0.16,0.2-0.3,0.41-0.42,0.62c-0.12,0.21-0.22,0.49-0.32,0.84c-0.1,0.35-0.15,0.71-0.16,1.08c-0.01,0.37,0.03,0.71,0.12,1.03
		c0.09,0.32,0.27,0.55,0.53,0.7c0.06,0.03,0.15,0.06,0.27,0.09c0.12,0.02,0.21,0.02,0.27-0.01l0.03,0.26l-3.12,0.78L42,118.02
		c0.05-0.04,0.1-0.07,0.16-0.11c0.05-0.04,0.1-0.08,0.13-0.15c0.04-0.07,0.02-0.26-0.05-0.57c-0.08-0.3-0.13-0.69-0.16-1.16
		c-0.03-0.47,0.01-1.02,0.11-1.65s0.36-1.3,0.76-2.02c0.26-0.47,0.58-0.9,0.94-1.3c0.36-0.39,0.77-0.7,1.21-0.92
		c0.44-0.22,0.91-0.33,1.41-0.34c0.5-0.01,1.02,0.14,1.57,0.45c0.58,0.32,1.01,0.71,1.27,1.14c0.26,0.44,0.42,0.92,0.49,1.43
		c0.06,0.52,0.06,1.06-0.01,1.62c-0.07,0.56-0.15,1.13-0.23,1.71c-0.09,0.58-0.15,1.14-0.2,1.7c-0.05,0.55-0.01,1.08,0.12,1.59
		l0.19,0.1l3.42-6.15c0.08-0.14,0.12-0.28,0.14-0.42c0.02-0.15-0.1-0.29-0.35-0.43l0.12-0.22L55.5,113.72z"/>
	<path class="st2" d="M49.94,100.85c0.45-0.69,1-1.25,1.63-1.7c0.63-0.44,1.31-0.75,2.03-0.91c0.72-0.16,1.46-0.18,2.21-0.05
		c0.75,0.13,1.48,0.42,2.18,0.89c0.7,0.46,1.26,1.01,1.67,1.65c0.41,0.64,0.68,1.32,0.81,2.04c0.13,0.72,0.11,1.46-0.06,2.21
		c-0.17,0.75-0.48,1.47-0.94,2.15c-0.45,0.69-0.99,1.26-1.61,1.71c-0.62,0.45-1.29,0.76-2,0.93c-0.72,0.17-1.45,0.19-2.2,0.06
		c-0.75-0.13-1.47-0.42-2.18-0.89c-0.7-0.46-1.26-1.01-1.67-1.65c-0.41-0.64-0.69-1.32-0.82-2.05c-0.13-0.73-0.12-1.47,0.04-2.22
		C49.18,102.26,49.49,101.54,49.94,100.85z M51.47,101.86c-0.27,0.42-0.44,0.86-0.51,1.32c-0.07,0.47-0.04,0.92,0.08,1.37
		c0.12,0.45,0.33,0.88,0.63,1.29c0.3,0.41,0.68,0.77,1.14,1.07c0.46,0.31,0.94,0.52,1.44,0.63c0.5,0.11,0.97,0.14,1.43,0.08
		c0.46-0.06,0.89-0.22,1.29-0.46c0.4-0.25,0.74-0.58,1.01-0.99c0.27-0.42,0.45-0.86,0.51-1.32c0.07-0.47,0.04-0.92-0.08-1.37
		c-0.12-0.45-0.33-0.88-0.63-1.29c-0.3-0.41-0.68-0.77-1.14-1.07s-0.94-0.52-1.44-0.63c-0.5-0.11-0.97-0.14-1.43-0.08
		c-0.46,0.06-0.89,0.22-1.29,0.46C52.09,101.12,51.75,101.45,51.47,101.86z"/>
	<path class="st2" d="M70.28,92.74l-0.16,0.2c-0.12-0.1-0.23-0.09-0.33,0c-0.09,0.1-0.19,0.21-0.28,0.33l-5.5,7.1
		c-0.1,0.12-0.17,0.23-0.21,0.32c-0.04,0.09-0.02,0.18,0.09,0.26l-0.16,0.2l-0.61-0.47c-0.6-0.46-0.99-1.01-1.19-1.64
		c-0.2-0.63-0.28-1.29-0.26-2c0.02-0.7,0.11-1.41,0.26-2.12c0.15-0.71,0.28-1.38,0.39-2.02c0.11-0.64,0.15-1.2,0.12-1.7
		c-0.03-0.5-0.22-0.88-0.56-1.15c-0.24-0.18-0.47-0.28-0.71-0.29c-0.24-0.01-0.46,0.03-0.69,0.13c-0.23,0.1-0.43,0.23-0.63,0.41
		c-0.19,0.18-0.36,0.36-0.51,0.55c-0.15,0.19-0.3,0.45-0.45,0.79c-0.15,0.33-0.26,0.68-0.32,1.04c-0.07,0.36-0.08,0.71-0.04,1.04
		c0.04,0.33,0.18,0.59,0.42,0.77c0.06,0.04,0.14,0.09,0.25,0.13c0.11,0.04,0.2,0.05,0.27,0.03l-0.01,0.26l-3.2,0.3l0.01-0.26
		c0.06-0.03,0.11-0.05,0.17-0.08c0.06-0.03,0.11-0.07,0.15-0.13c0.05-0.07,0.06-0.26,0.04-0.57c-0.03-0.31-0.02-0.7,0.02-1.17
		c0.04-0.47,0.16-1.01,0.36-1.61c0.2-0.6,0.55-1.23,1.05-1.88c0.33-0.43,0.71-0.81,1.13-1.14c0.42-0.33,0.86-0.57,1.33-0.72
		c0.47-0.15,0.95-0.19,1.44-0.12s0.99,0.3,1.48,0.68c0.53,0.41,0.89,0.85,1.08,1.32c0.19,0.47,0.28,0.97,0.26,1.49
		c-0.01,0.52-0.1,1.05-0.25,1.6c-0.15,0.55-0.32,1.1-0.49,1.66c-0.17,0.56-0.32,1.11-0.45,1.65c-0.13,0.54-0.17,1.07-0.13,1.59
		l0.17,0.13l4.31-5.56c0.1-0.12,0.16-0.26,0.2-0.4c0.04-0.14-0.06-0.3-0.28-0.47l0.16-0.2L70.28,92.74z"/>
	<path class="st2" d="M78.83,83.15l-0.17,0.19c-0.12-0.1-0.23-0.11-0.33-0.02c-0.1,0.09-0.2,0.19-0.31,0.31L72,90.29
		c-0.11,0.12-0.18,0.22-0.23,0.31c-0.05,0.09-0.03,0.18,0.07,0.26l-0.17,0.19l-0.57-0.52c-0.56-0.51-0.91-1.08-1.06-1.72
		c-0.15-0.64-0.18-1.31-0.11-2.01c0.08-0.7,0.22-1.4,0.42-2.09c0.21-0.69,0.39-1.36,0.54-1.98c0.15-0.63,0.24-1.19,0.25-1.69
		c0.01-0.5-0.15-0.9-0.48-1.19c-0.22-0.2-0.45-0.31-0.68-0.34c-0.23-0.03-0.47,0-0.7,0.07c-0.23,0.08-0.45,0.2-0.65,0.36
		c-0.2,0.16-0.39,0.33-0.55,0.51c-0.16,0.18-0.33,0.43-0.51,0.75c-0.18,0.32-0.31,0.66-0.4,1.02c-0.09,0.36-0.13,0.7-0.11,1.03
		c0.02,0.33,0.14,0.6,0.36,0.8c0.05,0.05,0.13,0.1,0.24,0.15c0.11,0.05,0.2,0.07,0.27,0.05l-0.03,0.26l-3.21,0.06l0.03-0.26
		c0.06-0.02,0.12-0.05,0.18-0.07c0.06-0.02,0.11-0.06,0.16-0.11c0.06-0.06,0.08-0.25,0.08-0.56c-0.01-0.31,0.03-0.7,0.11-1.17
		c0.08-0.47,0.24-0.99,0.48-1.58c0.24-0.59,0.64-1.19,1.19-1.8c0.36-0.4,0.76-0.75,1.21-1.05c0.44-0.3,0.9-0.51,1.38-0.62
		c0.48-0.11,0.96-0.12,1.45-0.01c0.49,0.11,0.96,0.37,1.43,0.79c0.5,0.45,0.82,0.92,0.98,1.4c0.16,0.49,0.21,0.99,0.15,1.5
		s-0.18,1.04-0.37,1.57s-0.4,1.07-0.61,1.62c-0.21,0.54-0.41,1.08-0.58,1.61c-0.17,0.53-0.25,1.05-0.25,1.58l0.16,0.14l4.72-5.22
		c0.1-0.12,0.18-0.24,0.23-0.38c0.05-0.14-0.03-0.3-0.24-0.49l0.17-0.19L78.83,83.15z"/>
	<path class="st2" d="M82.04,71.51c0.83,0.88,0.79,2.27-0.09,3.11c-0.88,0.83-2.27,0.79-3.11-0.09c-0.84-0.88-0.79-2.27,0.09-3.11
		C79.85,70.55,81.24,70.65,82.04,71.51z"/>
</g>
<g>
	<g>
		<polygon class="st2" points="215.32,152.65 219.08,166.69 209.05,179.38 211.81,189.7 228.98,169.11 222.23,144.18 		"/>
		<path class="st2" d="M205.28,169.74"/>
		<polygon class="st2" points="158.85,158.36 185.05,128.26 174.9,127.15 148.23,157.03 159.04,197.37 169.56,198.33 		"/>
		<polygon class="st2" points="177.55,160.15 203.43,129.78 191.91,128.69 165.93,159.32 176.56,199 188.35,200.43 		"/>
		<polygon class="st2" points="210.46,130.41 184.96,161.19 195.64,201.03 207.23,202.31 196.46,162.11 221.99,131.54 		"/>
	</g>
	<g>
		
			<rect x="174.44" y="233.98" transform="matrix(0.9659 -0.2588 0.2588 0.9659 -58.6068 54.8334)" class="st2" width="9.02" height="32.04"/>
		<polygon class="st2" points="251.99,213.82 220.13,222.36 222.16,229.93 233.95,226.77 240.22,250.17 248.51,247.95 
			242.24,224.55 254.02,221.4 		"/>
		<g>
			<polygon class="st2" points="192.72,262.74 201.59,260.37 204.6,252.87 198.84,248.16 			"/>
			<polygon class="st2" points="216.39,223.42 207.46,225.81 203.1,236.79 193.73,229.45 184.49,231.94 215.16,256.78 225.2,254.09 
				208.93,241.34 			"/>
		</g>
		<polygon class="st2" points="270.53,208.76 270.54,208.71 270.5,208.72 262.53,210.85 262.5,210.86 262.53,210.9 257.29,245.48 
			266.35,243.06 267.01,237.22 277.7,234.35 272.18,227.72 267.97,228.85 269.16,218.41 285.4,237.95 294.45,235.53 		"/>
		<polygon class="st2" points="136.09,278.19 144.96,275.82 144.99,275.81 138.64,252.12 157.77,247 160.62,257.66 144.4,262 
			151.88,267.85 170.5,262.86 163.7,237.5 127.77,247.13 		"/>
	</g>
</g>
</svg>
