<?xml version="1.0" encoding="utf-8"?>
<!-- Generator: Adobe Illustrator 26.0.2, SVG Export Plug-In . SVG Version: 6.00 Build 0)  -->
<svg version="1.1" id="レイヤー_1" xmlns="http://www.w3.org/2000/svg" xmlns:xlink="http://www.w3.org/1999/xlink" x="0px"
	 y="0px" viewBox="0 0 306.28 306.28" style="enable-background:new 0 0 306.28 306.28;" xml:space="preserve">
<style type="text/css">
	.st0{fill:#F4DB67;}
	.st1{fill:#131313;}
	.st2{fill:#FFFFFF;stroke:#000000;stroke-width:0.5339;stroke-miterlimit:10;}
</style>
<g>
	<g>
		<path class="st0" d="M172.06,305.87c-4.51,0-9.34-3.32-14-6.54c-4.61-3.17-9.37-6.46-14.05-6.77c-0.24-0.02-0.49-0.02-0.73-0.02
			c-4.28,0-9.04,2.44-13.65,4.79c-4.63,2.37-9.43,4.82-13.73,4.82c-0.91,0-1.79-0.11-2.6-0.33c-4.96-1.33-8.48-6.78-11.9-12.06
			c-2.97-4.59-6.04-9.34-10.07-11.32c-2.15-1.06-4.84-1.55-8.46-1.55c-2.29,0-4.73,0.2-7.09,0.38c-2.33,0.19-4.73,0.38-6.96,0.38
			c-4.32,0-7.31-0.75-9.41-2.37c-3.99-3.07-5.15-9.41-6.27-15.54c-0.99-5.43-2.02-11.05-5.03-14.49c-3.05-3.48-8.51-5.25-13.8-6.97
			c-5.89-1.91-11.99-3.89-14.48-8.19s-1.15-10.57,0.14-16.63c1.16-5.44,2.36-11.06,0.87-15.43c-1.47-4.33-5.82-8.02-10.03-11.6
			c-4.75-4.04-9.66-8.21-10.32-13.2c-0.64-4.86,2.97-10.11,6.46-15.18c3.17-4.61,6.46-9.37,6.77-14.05
			c0.3-4.48-2.28-9.51-4.77-14.38c-2.86-5.59-5.82-11.38-4.49-16.33s6.78-8.48,12.06-11.9c4.59-2.97,9.34-6.04,11.32-10.07
			c2.07-4.21,1.61-9.98,1.16-15.55c-0.49-6.14-1-12.48,1.99-16.38c3.07-3.99,9.41-5.15,15.54-6.27c5.43-0.99,11.05-2.02,14.49-5.03
			c3.48-3.05,5.25-8.51,6.97-13.8c1.91-5.89,3.89-11.99,8.19-14.48c1.64-0.94,3.64-1.4,6.13-1.4c3.25,0,6.93,0.79,10.5,1.55
			c3.61,0.77,7.35,1.57,10.69,1.57c1.81,0,3.37-0.23,4.75-0.7c4.33-1.47,8.02-5.82,11.6-10.03c4.04-4.75,8.21-9.66,13.2-10.32
			c0.38-0.05,0.78-0.08,1.17-0.08c4.51,0,9.34,3.32,14,6.54c4.61,3.17,9.37,6.46,14.05,6.77c0.24,0.02,0.49,0.02,0.73,0.02
			c4.28,0,9.04-2.44,13.65-4.79c4.63-2.37,9.43-4.82,13.73-4.82c0.91,0,1.79,0.11,2.6,0.33c4.96,1.33,8.48,6.78,11.9,12.06
			c2.97,4.59,6.04,9.34,10.07,11.32c2.15,1.06,4.83,1.55,8.46,1.55c2.29,0,4.73-0.19,7.09-0.38c2.33-0.19,4.73-0.38,6.96-0.38
			c4.32,0,7.31,0.75,9.41,2.37c3.99,3.07,5.15,9.41,6.27,15.54c0.99,5.43,2.02,11.05,5.03,14.49c3.05,3.48,8.51,5.25,13.8,6.97
			c5.89,1.91,11.99,3.89,14.48,8.19s1.15,10.57-0.14,16.63c-1.16,5.44-2.36,11.06-0.87,15.43c1.47,4.33,5.82,8.02,10.03,11.6
			c4.75,4.04,9.66,8.21,10.32,13.2c0.64,4.86-2.97,10.11-6.46,15.18c-3.17,4.61-6.46,9.37-6.77,14.05
			c-0.3,4.48,2.28,9.51,4.77,14.38c2.86,5.59,5.82,11.38,4.5,16.33c-1.33,4.96-6.78,8.48-12.06,11.9
			c-4.59,2.97-9.34,6.04-11.32,10.07c-2.07,4.21-1.61,9.98-1.17,15.55c0.49,6.14,1,12.48-1.99,16.38
			c-3.07,3.99-9.41,5.15-15.54,6.27c-5.43,0.99-11.05,2.02-14.49,5.03c-3.48,3.05-5.25,8.51-6.97,13.8
			c-1.91,5.89-3.89,11.99-8.19,14.48c-1.64,0.95-3.64,1.4-6.13,1.4c-3.24,0-6.93-0.79-10.5-1.55c-3.61-0.77-7.35-1.57-10.69-1.57
			c-1.81,0-3.37,0.23-4.75,0.7c-4.33,1.47-8.02,5.82-11.6,10.03c-4.04,4.75-8.21,9.66-13.2,10.32
			C172.86,305.85,172.46,305.87,172.06,305.87z"/>
		<g>
			<path class="st1" d="M134.21,0.82c4.38,0,9.16,3.29,13.77,6.47c4.65,3.21,9.46,6.52,14.26,6.84c0.25,0.02,0.51,0.02,0.76,0.02
				c4.38,0,9.19-2.46,13.83-4.84c4.59-2.35,9.34-4.78,13.54-4.78c0.87,0,1.72,0.11,2.5,0.32c4.8,1.29,8.29,6.68,11.66,11.89
				c3,4.64,6.1,9.43,10.23,11.47c2.2,1.08,4.95,1.59,8.64,1.59c2.31,0,4.76-0.2,7.12-0.38c2.32-0.18,4.71-0.38,6.93-0.38
				c4.22,0,7.13,0.73,9.16,2.28c3.87,2.97,5.01,9.23,6.12,15.29c1,5.49,2.04,11.16,5.12,14.68c3.12,3.56,8.64,5.35,13.98,7.08
				c5.82,1.89,11.84,3.84,14.25,8.01c2.41,4.17,1.09,10.36-0.19,16.34c-1.17,5.49-2.38,11.17-0.86,15.65
				c1.51,4.43,5.9,8.17,10.16,11.78c4.69,3.99,9.54,8.11,10.18,12.94c0.62,4.71-2.94,9.89-6.39,14.89
				c-3.21,4.65-6.52,9.46-6.84,14.26c-0.31,4.59,2.3,9.68,4.81,14.59c2.83,5.52,5.75,11.24,4.46,16.04
				c-1.29,4.8-6.68,8.29-11.89,11.66c-4.64,3-9.43,6.1-11.47,10.23c-2.12,4.31-1.65,10.13-1.21,15.76
				c0.48,6.06,0.98,12.33-1.91,16.09c-2.97,3.87-9.23,5.01-15.29,6.12c-5.49,1-11.16,2.04-14.68,5.12
				c-3.56,3.12-5.35,8.64-7.08,13.98c-1.89,5.82-3.84,11.84-8.01,14.25c-1.57,0.91-3.51,1.35-5.93,1.35c-3.2,0-6.87-0.78-10.41-1.54
				c-3.63-0.77-7.39-1.58-10.77-1.58c-1.86,0-3.46,0.24-4.88,0.72c-4.43,1.51-8.17,5.9-11.78,10.16
				c-3.99,4.69-8.11,9.54-12.94,10.18c-0.37,0.05-0.74,0.07-1.12,0.07c-4.38,0-9.16-3.29-13.77-6.47
				c-4.65-3.21-9.46-6.52-14.26-6.84c-0.25-0.02-0.51-0.02-0.76-0.02c-4.38,0-9.19,2.46-13.83,4.84c-4.59,2.35-9.34,4.78-13.54,4.78
				c-0.87,0-1.72-0.11-2.5-0.32c-4.8-1.29-8.29-6.68-11.66-11.89c-3-4.64-6.1-9.43-10.23-11.47c-2.2-1.08-4.95-1.59-8.64-1.59
				c-2.31,0-4.76,0.2-7.12,0.38c-2.32,0.19-4.72,0.38-6.93,0.38c-4.22,0-7.13-0.73-9.16-2.28c-3.87-2.97-5.01-9.23-6.12-15.29
				c-1-5.49-2.04-11.16-5.12-14.68c-3.12-3.56-8.64-5.35-13.98-7.08c-5.82-1.89-11.84-3.84-14.25-8.01
				c-2.41-4.17-1.09-10.36,0.19-16.34c1.17-5.49,2.38-11.17,0.86-15.65c-1.51-4.43-5.9-8.17-10.16-11.78
				c-4.69-3.99-9.54-8.11-10.18-12.94c-0.62-4.71,2.94-9.88,6.39-14.89c3.21-4.65,6.52-9.46,6.84-14.26
				c0.31-4.59-2.3-9.68-4.81-14.59c-2.83-5.52-5.75-11.24-4.46-16.04c1.29-4.8,6.68-8.29,11.89-11.66c4.64-3,9.43-6.1,11.47-10.23
				c2.12-4.31,1.65-10.13,1.21-15.76c-0.48-6.06-0.98-12.33,1.91-16.09c2.97-3.87,9.23-5.01,15.29-6.12
				c5.49-1,11.16-2.04,14.68-5.12c3.56-3.12,5.35-8.64,7.08-13.98c1.89-5.82,3.84-11.84,8.01-14.25c1.57-0.91,3.51-1.35,5.93-1.35
				c3.2,0,6.87,0.78,10.41,1.54c3.63,0.77,7.39,1.58,10.77,1.58c1.86,0,3.46-0.24,4.88-0.72c4.43-1.51,8.17-5.9,11.78-10.16
				c3.99-4.69,8.11-9.54,12.94-10.18C133.46,0.84,133.84,0.82,134.21,0.82 M134.21,0c-0.41,0-0.82,0.03-1.23,0.08
				c-9.62,1.27-15.8,17.28-24.88,20.37c-1.42,0.48-2.98,0.68-4.62,0.68c-6.59,0-14.6-3.11-21.18-3.11c-2.34,0-4.49,0.39-6.34,1.46
				c-8.34,4.81-7.95,21.96-15.22,28.32c-7.21,6.31-24.17,3.66-30.08,11.36c-5.81,7.56,1.11,23.24-3.2,32
				c-4.18,8.5-20.86,12.54-23.41,22.04s9.88,21.34,9.25,30.79c-0.65,9.74-14.48,19.85-13.23,29.31c1.27,9.62,17.28,15.8,20.37,24.88
				c3.11,9.15-5.79,23.8-0.98,32.14c4.81,8.34,21.96,7.95,28.32,15.22c6.31,7.21,3.66,24.17,11.36,30.08
				c2.51,1.93,5.91,2.45,9.66,2.45c4.5,0,9.51-0.76,14.05-0.76c3.07,0,5.93,0.35,8.28,1.51c8.5,4.18,12.54,20.86,22.04,23.41
				c0.88,0.24,1.79,0.34,2.71,0.34c8.73,0,18.94-9.62,27.37-9.62c0.24,0,0.47,0.01,0.71,0.02c9.32,0.62,18.98,13.31,28.08,13.31
				c0.41,0,0.82-0.03,1.23-0.08c9.62-1.27,15.8-17.28,24.88-20.37c1.42-0.48,2.98-0.68,4.62-0.68c6.59,0,14.6,3.11,21.18,3.11
				c2.34,0,4.49-0.39,6.34-1.46c8.34-4.81,7.95-21.96,15.22-28.32c7.21-6.31,24.17-3.66,30.08-11.36c5.81-7.56-1.11-23.24,3.2-32
				c4.18-8.5,20.86-12.54,23.41-22.04c2.54-9.5-9.88-21.34-9.25-30.79c0.65-9.74,14.48-19.85,13.23-29.31
				c-1.27-9.62-17.28-15.8-20.37-24.88c-3.11-9.15,5.79-23.8,0.98-32.14c-4.81-8.34-21.96-7.95-28.32-15.22
				c-6.31-7.21-3.66-24.17-11.36-30.08c-2.51-1.93-5.91-2.45-9.66-2.45c-4.5,0-9.51,0.76-14.05,0.76c-3.07,0-5.93-0.35-8.28-1.51
				c-8.5-4.18-12.54-20.86-22.04-23.41c-0.88-0.24-1.79-0.34-2.71-0.34c-8.73,0-18.94,9.62-27.37,9.62c-0.24,0-0.47-0.01-0.71-0.02
				C152.98,12.69,143.31,0,134.21,0L134.21,0z"/>
		</g>
	</g>
	<g>
		<path d="M76.63,97.31c0.05-0.07,0.09-0.15,0.12-0.23c0.04-0.08,0.07-0.19,0.11-0.32c0.05-0.2-0.06-0.45-0.35-0.74
			c-0.29-0.29-0.69-0.6-1.21-0.91c-0.52-0.32-1.14-0.63-1.84-0.94S72,93.6,71.19,93.38c-0.76-0.2-1.57-0.33-2.45-0.37
			c-0.88-0.05-1.72,0.04-2.52,0.26c-0.8,0.22-1.51,0.6-2.13,1.15c-0.62,0.55-1.06,1.3-1.32,2.26c-0.26,0.96-0.25,1.83,0.01,2.62
			c0.26,0.79,0.69,1.47,1.27,2.06c0.58,0.59,1.27,1.08,2.06,1.48c0.78,0.4,1.55,0.7,2.31,0.9c0.33,0.09,0.86,0.17,1.6,0.25
			c0.74,0.08,1.48,0.11,2.24,0.09c0.76-0.01,1.44-0.07,2.05-0.18c0.61-0.11,0.95-0.3,1.03-0.58c0.03-0.13,0.04-0.23,0.01-0.32
			c-0.03-0.09-0.06-0.19-0.08-0.31l0.49-0.15l2.3,6.98l-0.52,0.14c-0.02-0.14-0.06-0.24-0.14-0.3c-0.08-0.06-0.18-0.11-0.31-0.14
			c-0.18-0.05-0.56-0.03-1.15,0.04c-0.59,0.07-1.34,0.12-2.24,0.13c-0.91,0.01-1.96-0.04-3.14-0.15c-1.18-0.11-2.48-0.36-3.9-0.74
			c-1.51-0.41-2.96-1-4.34-1.79c-1.38-0.79-2.55-1.77-3.51-2.93c-0.96-1.16-1.63-2.48-2.02-3.95c-0.39-1.47-0.36-3.05,0.09-4.74
			c0.45-1.69,1.21-3.07,2.29-4.15c1.07-1.08,2.31-1.88,3.73-2.41c1.41-0.53,2.92-0.81,4.52-0.84c1.6-0.03,3.16,0.16,4.67,0.56
			s2.8,0.84,3.85,1.29c1.05,0.46,1.93,0.89,2.63,1.29c0.68,0.4,1.2,0.72,1.56,0.97c0.37,0.25,0.65,0.4,0.85,0.45
			c0.23,0.06,0.44,0.01,0.65-0.15l0.39,0.23l-5.08,5.33L76.63,97.31z"/>
		<path d="M97.42,95.06c1.61,0.43,3.07,1.06,4.38,1.88c1.31,0.82,2.38,1.81,3.22,2.95c0.84,1.14,1.41,2.43,1.7,3.86
			c0.29,1.43,0.22,2.98-0.23,4.64c-0.45,1.66-1.15,3.04-2.12,4.13c-0.97,1.09-2.1,1.92-3.4,2.49c-1.3,0.57-2.72,0.87-4.25,0.89
			c-1.53,0.02-3.11-0.18-4.72-0.62c-1.61-0.43-3.08-1.04-4.39-1.83c-1.32-0.79-2.4-1.75-3.24-2.89c-0.84-1.14-1.41-2.43-1.7-3.86
			c-0.29-1.43-0.22-2.98,0.23-4.64s1.15-3.04,2.12-4.13c0.97-1.09,2.1-1.92,3.4-2.49c1.3-0.57,2.72-0.89,4.27-0.94
			C94.23,94.44,95.8,94.63,97.42,95.06z M96.18,99.67c-0.83-0.22-1.65-0.31-2.47-0.26c-0.81,0.05-1.56,0.24-2.26,0.55
			c-0.69,0.32-1.3,0.77-1.83,1.38c-0.53,0.6-0.91,1.34-1.14,2.23c-0.24,0.88-0.28,1.72-0.12,2.5c0.15,0.78,0.45,1.49,0.9,2.1
			c0.44,0.62,1,1.15,1.68,1.6c0.68,0.45,1.43,0.79,2.26,1.01c0.83,0.22,1.65,0.31,2.47,0.25c0.81-0.05,1.56-0.24,2.26-0.55
			c0.69-0.31,1.3-0.77,1.83-1.37c0.53-0.6,0.91-1.34,1.14-2.23c0.24-0.88,0.28-1.72,0.12-2.5c-0.15-0.78-0.45-1.49-0.9-2.1
			c-0.44-0.62-1-1.15-1.68-1.6C97.77,100.23,97.01,99.9,96.18,99.67z"/>
		<path d="M125.85,123.75c0.49,0.08,0.81,0.08,0.95-0.01c0.14-0.08,0.24-0.21,0.29-0.39l3.73-13.92l-0.05-0.1l-10.66,12.87
			l-2.68-16.61l-0.08-0.02l-3.79,14.15c-0.05,0.18-0.03,0.34,0.05,0.48c0.08,0.14,0.36,0.31,0.82,0.48l-0.12,0.45l-6.66-1.78
			l0.12-0.45c0.49,0.08,0.81,0.08,0.95-0.01c0.14-0.08,0.24-0.21,0.29-0.39l4.72-17.62c0.05-0.18,0.03-0.34-0.05-0.48
			c-0.08-0.14-0.36-0.31-0.82-0.48l0.12-0.45l9.87,2.65l-0.12,0.45c-0.61-0.14-0.98,0.01-1.09,0.44c-0.01,0.03,0.02,0.25,0.06,0.67
			c0.05,0.42,0.12,0.94,0.21,1.56c0.09,0.62,0.2,1.29,0.31,2.01c0.12,0.72,0.23,1.41,0.34,2.08c0.11,0.66,0.2,1.25,0.28,1.76
			c0.08,0.51,0.14,0.85,0.17,1.02c0.69-0.84,1.38-1.66,2.07-2.44c0.7-0.79,1.33-1.51,1.9-2.17c0.57-0.66,1.03-1.21,1.4-1.65
			c0.36-0.44,0.56-0.73,0.59-0.85c0.11-0.43-0.13-0.74-0.72-0.92l0.12-0.45l10.25,2.75l-0.12,0.45c-0.49-0.08-0.81-0.08-0.95,0.01
			c-0.14,0.08-0.24,0.21-0.29,0.39l-4.72,17.62c-0.05,0.18-0.03,0.34,0.05,0.48c0.08,0.14,0.36,0.31,0.82,0.48l-0.12,0.45
			l-7.56-2.03L125.85,123.75z"/>
		<path d="M156.41,131.94c0.49,0.08,0.81,0.08,0.95-0.01c0.14-0.08,0.24-0.21,0.29-0.39l3.73-13.92l-0.05-0.1l-10.66,12.87
			l-2.68-16.61l-0.08-0.02l-3.79,14.15c-0.05,0.18-0.03,0.34,0.05,0.48c0.08,0.14,0.36,0.31,0.82,0.48l-0.12,0.45l-6.66-1.78
			l0.12-0.45c0.49,0.08,0.81,0.08,0.95-0.01s0.24-0.21,0.29-0.39l4.72-17.62c0.05-0.18,0.03-0.34-0.05-0.48
			c-0.08-0.14-0.36-0.31-0.82-0.48l0.12-0.45l9.87,2.65l-0.12,0.45c-0.61-0.14-0.98,0.01-1.09,0.44c-0.01,0.03,0.02,0.25,0.06,0.67
			c0.05,0.42,0.12,0.94,0.21,1.56c0.09,0.62,0.2,1.29,0.31,2.01c0.12,0.72,0.23,1.41,0.34,2.08c0.11,0.66,0.2,1.25,0.28,1.76
			c0.08,0.51,0.14,0.85,0.17,1.02c0.69-0.84,1.38-1.66,2.07-2.44c0.7-0.79,1.33-1.51,1.9-2.17c0.57-0.66,1.03-1.21,1.4-1.65
			c0.36-0.44,0.56-0.73,0.59-0.85c0.11-0.43-0.13-0.74-0.72-0.92l0.12-0.45l10.25,2.75l-0.12,0.45c-0.49-0.08-0.81-0.08-0.95,0.01
			c-0.14,0.08-0.24,0.21-0.29,0.39l-4.72,17.62c-0.05,0.18-0.03,0.34,0.05,0.48s0.36,0.31,0.82,0.48l-0.12,0.45l-7.56-2.03
			L156.41,131.94z"/>
		<path d="M185.76,132.51c0.02-0.27-0.03-0.5-0.15-0.71c-0.12-0.21-0.37-0.36-0.75-0.46l-7.03-1.88l-0.94,3.52l12.14,3.25
			c0.2,0.05,0.37,0.03,0.51-0.09c0.14-0.11,0.3-0.4,0.48-0.87l0.45,0.12l-1.73,6.47l-0.45-0.12c0.04-0.34,0.02-0.56-0.06-0.67
			c-0.08-0.1-0.22-0.18-0.42-0.24l-18.87-5.06l0.12-0.45c0.49,0.08,0.81,0.08,0.95-0.01c0.14-0.08,0.24-0.21,0.29-0.39l4.72-17.62
			c0.05-0.18,0.03-0.34-0.05-0.48c-0.08-0.14-0.36-0.31-0.82-0.48l0.12-0.45l18.87,5.06c0.2,0.05,0.37,0.03,0.51-0.09
			c0.14-0.11,0.29-0.37,0.46-0.79l0.45,0.12l-1.76,6.58l-0.45-0.12c0.06-0.44,0.06-0.75,0-0.91c-0.06-0.16-0.2-0.28-0.4-0.33
			l-12.14-3.25l-0.84,3.14l7.03,1.88c0.38,0.1,0.67,0.09,0.88-0.03c0.21-0.12,0.37-0.3,0.49-0.54l0.45,0.12l-1.58,5.9L185.76,132.51
			z"/>
		<path d="M199.28,123.81c0.05-0.18,0.03-0.34-0.05-0.48c-0.08-0.14-0.36-0.31-0.82-0.48l0.12-0.45l9.11,2.44l-0.12,0.45
			c-0.44-0.09-0.73-0.11-0.9-0.06c-0.16,0.05-0.26,0.14-0.29,0.27c-0.01,0.05,0.09,0.32,0.31,0.81c0.22,0.49,0.51,1.11,0.88,1.86
			c0.37,0.75,0.79,1.58,1.25,2.51c0.47,0.92,0.94,1.85,1.43,2.77c0.48,0.93,0.95,1.81,1.4,2.65c0.45,0.84,0.84,1.56,1.17,2.16
			l2.71-10.1c0.11-0.43-0.09-0.73-0.61-0.89l0.12-0.45l6.92,1.85l-0.12,0.45c-0.49-0.08-0.81-0.08-0.95,0.01s-0.24,0.21-0.29,0.39
			l-4.72,17.62c-0.05,0.18-0.03,0.34,0.05,0.48s0.36,0.31,0.82,0.48l-0.12,0.45l-7.19-1.93l0.12-0.45c0.35,0.09,0.6,0.12,0.73,0.07
			c0.13-0.05,0.22-0.13,0.25-0.26c0.02-0.08,0.01-0.18-0.04-0.31c-0.05-0.13-0.16-0.37-0.33-0.72c-0.18-0.35-0.44-0.84-0.8-1.49
			c-0.35-0.65-0.82-1.52-1.39-2.6c-0.57-1.09-1.28-2.44-2.12-4.05c-0.84-1.62-1.84-3.58-3-5.89l-3.18,11.88
			c-0.05,0.18-0.03,0.34,0.05,0.48c0.08,0.14,0.36,0.31,0.82,0.48l-0.12,0.45l-7.19-1.93l0.12-0.45c0.49,0.08,0.81,0.08,0.95-0.01
			c0.14-0.08,0.24-0.21,0.29-0.39L199.28,123.81z"/>
		<path d="M226.38,150.69c0.49,0.08,0.81,0.08,0.95-0.01c0.14-0.08,0.24-0.21,0.29-0.39l3.79-14.15l-6.51-1.74
			c-0.2-0.05-0.37-0.02-0.51,0.09c-0.14,0.11-0.29,0.38-0.45,0.79l-0.45-0.12l1.8-6.73l0.45,0.12c-0.07,0.44-0.07,0.75,0,0.91
			c0.06,0.17,0.2,0.28,0.4,0.33l18.68,5.01c0.2,0.05,0.37,0.03,0.51-0.09c0.14-0.11,0.29-0.37,0.46-0.79l0.45,0.12l-1.8,6.73
			l-0.45-0.12c0.06-0.44,0.06-0.75,0-0.91c-0.06-0.17-0.2-0.28-0.4-0.33l-6.51-1.74l-3.79,14.15c-0.05,0.18-0.03,0.34,0.05,0.48
			c0.08,0.14,0.36,0.31,0.82,0.48l-0.12,0.45l-7.79-2.09L226.38,150.69z"/>
		<path d="M247.56,148.63c-0.09,0.14-0.19,0.4-0.29,0.77c-0.07,0.25,0.09,0.6,0.47,1.04c0.38,0.44,0.91,0.9,1.58,1.38
			c0.67,0.48,1.46,0.94,2.37,1.38c0.91,0.45,1.85,0.8,2.84,1.06c1.89,0.51,3.34,0.66,4.34,0.45c1-0.2,1.61-0.72,1.84-1.56
			c0.12-0.45-0.18-0.88-0.9-1.27s-1.64-0.81-2.77-1.23c-1.13-0.42-2.34-0.88-3.64-1.38c-1.3-0.5-2.48-1.08-3.54-1.76
			c-1.06-0.68-1.88-1.46-2.47-2.36c-0.58-0.9-0.71-1.95-0.39-3.16c0.26-0.96,0.71-1.77,1.36-2.43c0.65-0.66,1.45-1.17,2.39-1.51
			c0.94-0.34,2.02-0.52,3.24-0.53s2.52,0.17,3.91,0.54c1.29,0.34,2.46,0.75,3.53,1.21c1.07,0.46,2,0.91,2.8,1.34
			c0.8,0.43,1.47,0.81,2.01,1.13c0.54,0.32,0.93,0.51,1.18,0.58c0.25,0.07,0.47,0.06,0.65-0.01c0.18-0.07,0.36-0.17,0.52-0.29
			l0.38,0.26l-4.02,4.56l-0.39-0.35l0.11-0.42c0.06-0.23-0.12-0.53-0.55-0.9c-0.43-0.37-0.99-0.75-1.7-1.14
			c-0.71-0.39-1.51-0.78-2.41-1.15c-0.9-0.38-1.79-0.68-2.67-0.92c-1.64-0.44-2.84-0.56-3.59-0.36c-0.76,0.2-1.19,0.52-1.31,0.95
			c-0.11,0.43,0.03,0.81,0.42,1.15c0.4,0.34,0.95,0.65,1.65,0.95c0.7,0.3,1.51,0.6,2.43,0.91c0.92,0.31,1.85,0.66,2.8,1.05
			c0.95,0.39,1.86,0.82,2.73,1.3c0.87,0.48,1.61,1.03,2.23,1.67c0.61,0.64,1.05,1.38,1.31,2.22c0.26,0.84,0.25,1.8-0.04,2.89
			c-0.22,0.83-0.61,1.61-1.17,2.32c-0.56,0.72-1.33,1.28-2.32,1.71c-0.99,0.42-2.23,0.64-3.7,0.65c-1.48,0.01-3.23-0.26-5.28-0.81
			c-1.59-0.43-2.94-0.87-4.04-1.33c-1.11-0.46-2.04-0.9-2.78-1.33c-0.75-0.43-1.33-0.8-1.75-1.1c-0.42-0.3-0.74-0.48-0.97-0.54
			c-0.15-0.04-0.3-0.02-0.44,0.05c-0.14,0.07-0.29,0.15-0.45,0.24l-0.42-0.24l4.6-5.98L247.56,148.63z"/>
		<path d="M162.02,166.37c0-0.19-0.05-0.34-0.14-0.46c-0.09-0.12-0.27-0.22-0.55-0.29c-0.25-0.07-0.55-0.03-0.89,0.13
			c-0.34,0.15-0.68,0.35-1.01,0.6c-0.34,0.25-0.64,0.51-0.92,0.79c-0.28,0.28-0.48,0.52-0.62,0.73c0.09,0.16,0.23,0.35,0.42,0.56
			c0.19,0.21,0.39,0.42,0.61,0.61c0.22,0.19,0.44,0.37,0.67,0.52c0.23,0.16,0.43,0.26,0.61,0.3c0.38,0.1,0.65-0.01,0.82-0.35
			l0.45,0.12l-1.39,5.18c-0.61-0.16-1.22-0.35-1.84-0.55c-0.62-0.21-1.21-0.47-1.77-0.8c-0.56-0.33-1.07-0.71-1.53-1.16
			c-0.46-0.45-0.85-0.96-1.15-1.52c-1.45,0.56-2.82,0.82-4.12,0.78c-1.3-0.04-2.69-0.26-4.18-0.65c-0.93-0.25-1.86-0.61-2.79-1.09
			c-0.93-0.48-1.72-1.07-2.38-1.79c-0.66-0.72-1.14-1.53-1.43-2.45c-0.3-0.92-0.29-1.93,0-3.04c0.2-0.73,0.5-1.37,0.92-1.92
			c0.42-0.55,0.91-1.02,1.47-1.41c0.56-0.39,1.18-0.69,1.86-0.9c0.68-0.21,1.37-0.34,2.09-0.39c-0.4-0.54-0.7-1.13-0.92-1.77
			c-0.22-0.64-0.24-1.29-0.07-1.94c0.27-1.01,0.71-1.77,1.33-2.3c0.61-0.52,1.32-0.88,2.11-1.06c0.79-0.18,1.63-0.23,2.51-0.14
			c0.88,0.09,1.71,0.24,2.5,0.45c0.81,0.22,1.59,0.5,2.36,0.86c0.77,0.36,1.44,0.8,2.02,1.33c0.57,0.53,0.99,1.16,1.24,1.89
			c0.25,0.73,0.24,1.59-0.02,2.57c-0.13,0.48-0.34,0.9-0.64,1.27c-0.3,0.36-0.65,0.68-1.04,0.94c-0.39,0.26-0.82,0.48-1.27,0.65
			c-0.45,0.18-0.9,0.33-1.34,0.45c0.33,0.47,0.63,0.98,0.89,1.54c0.26,0.55,0.5,1.09,0.74,1.62c1.23-1.05,2.54-1.96,3.94-2.74
			c1.4-0.77,2.9-1.3,4.51-1.57l-1.74,6.51L162.02,166.37z M147.48,167.09c0.73,0.2,1.55,0.22,2.45,0.07
			c0.9-0.15,1.66-0.45,2.27-0.91c-0.19-2.43-1.29-3.91-3.31-4.45c-0.96-0.26-1.82-0.24-2.57,0.06c-0.76,0.3-1.24,0.86-1.47,1.69
			c-0.22,0.83-0.08,1.57,0.42,2.2C145.78,166.39,146.52,166.84,147.48,167.09z M151.87,154c-0.58-0.16-1.2-0.13-1.84,0.07
			c-0.65,0.2-1.1,0.68-1.35,1.42c-0.15,0.77,0,1.41,0.46,1.91s0.98,0.83,1.56,0.99c0.58,0.16,1.19,0.13,1.84-0.07
			c0.65-0.2,1.1-0.68,1.35-1.42c0.15-0.77,0-1.41-0.46-1.91C152.97,154.49,152.45,154.16,151.87,154z"/>
		<path class="st2" d="M91.5,191.96c0.02-0.29-0.04-0.55-0.17-0.77c-0.13-0.23-0.4-0.4-0.82-0.51l-7.67-2.06l-1.03,3.84l13.24,3.55
			c0.22,0.06,0.41,0.03,0.56-0.09c0.15-0.12,0.32-0.44,0.52-0.95l0.5,0.13l-1.89,7.06l-0.5-0.13c0.04-0.37,0.02-0.61-0.07-0.73
			c-0.09-0.11-0.24-0.2-0.46-0.26l-20.59-5.52l0.13-0.49c0.54,0.08,0.88,0.08,1.04-0.01c0.16-0.09,0.26-0.23,0.31-0.42l5.15-19.23
			c0.05-0.19,0.03-0.37-0.06-0.52c-0.09-0.16-0.39-0.33-0.9-0.53l0.13-0.49l20.59,5.52c0.22,0.06,0.41,0.03,0.56-0.09
			c0.15-0.12,0.32-0.41,0.5-0.86l0.5,0.13l-1.92,7.18l-0.5-0.13c0.07-0.48,0.07-0.81,0-0.99c-0.07-0.18-0.21-0.3-0.43-0.36
			l-13.24-3.55l-0.92,3.42l7.67,2.06c0.41,0.11,0.73,0.1,0.96-0.03c0.23-0.13,0.4-0.33,0.53-0.59l0.5,0.13L92,192.09L91.5,191.96z"
			/>
		<path class="st2" d="M106.06,203.82c0.26,0.01,0.44,0,0.54-0.03c0.1-0.03,0.16-0.09,0.18-0.17c0.01-0.06-0.02-0.37-0.1-0.93
			c-0.08-0.57-0.19-1.31-0.31-2.23c-0.12-0.92-0.28-1.96-0.47-3.13c-0.19-1.17-0.37-2.38-0.55-3.64c-0.18-1.26-0.37-2.5-0.57-3.73
			c-0.2-1.23-0.38-2.37-0.54-3.42c-0.16-1.05-0.3-1.95-0.4-2.72c-0.1-0.77-0.17-1.3-0.21-1.6c-0.07-0.52-0.14-0.86-0.21-1.03
			c-0.07-0.17-0.22-0.29-0.43-0.38l0.13-0.49l8.46,2.27l-0.13,0.49c-0.34-0.06-0.57-0.06-0.7-0.01c-0.13,0.05-0.22,0.15-0.25,0.29
			c-0.02,0.08-0.01,0.27,0.05,0.57c0.05,0.3,0.17,0.92,0.34,1.88c0.17,0.96,0.42,2.35,0.74,4.18c0.32,1.83,0.75,4.31,1.29,7.47
			c1.97-2.39,3.53-4.29,4.69-5.71c1.16-1.41,2.05-2.49,2.68-3.24c0.63-0.75,1.04-1.26,1.23-1.55c0.19-0.29,0.31-0.48,0.34-0.6
			c0.04-0.14,0.02-0.25-0.04-0.34c-0.06-0.09-0.22-0.18-0.46-0.28l0.13-0.49l7.1,1.9l-0.13,0.49c-0.18,0.01-0.33,0.03-0.44,0.06
			c-0.11,0.03-0.22,0.13-0.33,0.31c-0.1,0.15-0.37,0.51-0.82,1.06c-0.44,0.56-0.99,1.25-1.64,2.08c-0.65,0.83-1.37,1.75-2.16,2.76
			c-0.79,1.01-1.59,2.04-2.42,3.09c-0.83,1.05-1.63,2.07-2.41,3.07c-0.78,1-1.48,1.89-2.09,2.67c-0.61,0.78-1.1,1.43-1.47,1.95
			c-0.38,0.52-0.57,0.81-0.58,0.86c-0.07,0.25,0.09,0.42,0.48,0.53l-0.14,0.54l-8.5-2.28L106.06,203.82z"/>
		<path class="st2" d="M144.48,206.15c0.02-0.29-0.04-0.55-0.17-0.77c-0.13-0.23-0.4-0.4-0.82-0.51l-7.67-2.06l-1.03,3.84
			l13.24,3.55c0.22,0.06,0.41,0.03,0.56-0.09c0.15-0.12,0.32-0.44,0.52-0.95l0.5,0.13l-1.89,7.06l-0.5-0.13
			c0.04-0.37,0.02-0.61-0.07-0.73c-0.09-0.11-0.24-0.2-0.46-0.26l-20.59-5.52l0.13-0.49c0.54,0.08,0.88,0.08,1.04-0.01
			c0.16-0.09,0.26-0.23,0.31-0.42l5.15-19.23c0.05-0.19,0.03-0.37-0.06-0.52c-0.09-0.16-0.39-0.33-0.9-0.53l0.13-0.49l20.59,5.52
			c0.22,0.06,0.41,0.03,0.56-0.09c0.15-0.12,0.32-0.41,0.5-0.86l0.5,0.13l-1.92,7.18l-0.5-0.13c0.07-0.48,0.07-0.81,0-0.99
			c-0.07-0.18-0.21-0.3-0.43-0.36l-13.24-3.55l-0.92,3.42l7.67,2.06c0.41,0.11,0.73,0.1,0.96-0.03c0.23-0.13,0.4-0.33,0.53-0.59
			l0.5,0.13l-1.72,6.44L144.48,206.15z"/>
		<path class="st2" d="M159.23,196.66c0.05-0.19,0.03-0.37-0.06-0.52c-0.09-0.16-0.39-0.33-0.9-0.53l0.13-0.49l9.94,2.66l-0.13,0.49
			c-0.48-0.1-0.8-0.12-0.98-0.06c-0.18,0.06-0.28,0.15-0.32,0.29c-0.01,0.06,0.1,0.35,0.34,0.89c0.24,0.54,0.56,1.21,0.96,2.03
			c0.4,0.81,0.86,1.73,1.37,2.73c0.51,1.01,1.03,2.02,1.56,3.03c0.53,1.01,1.03,1.97,1.53,2.89c0.49,0.91,0.92,1.7,1.27,2.35
			l2.95-11.02c0.13-0.47-0.1-0.79-0.67-0.98l0.13-0.49l7.55,2.02l-0.13,0.49c-0.54-0.08-0.88-0.08-1.04,0.01
			c-0.16,0.09-0.26,0.23-0.31,0.42l-5.15,19.23c-0.05,0.19-0.03,0.37,0.06,0.52c0.09,0.16,0.39,0.33,0.9,0.53l-0.13,0.49l-7.84-2.1
			l0.13-0.49c0.38,0.1,0.65,0.13,0.8,0.08c0.15-0.05,0.24-0.14,0.27-0.28c0.02-0.08,0.01-0.2-0.04-0.34
			c-0.05-0.15-0.17-0.41-0.37-0.78c-0.19-0.38-0.48-0.92-0.87-1.63c-0.39-0.71-0.89-1.65-1.52-2.84c-0.63-1.18-1.4-2.66-2.31-4.42
			c-0.91-1.76-2-3.9-3.28-6.43l-3.47,12.96c-0.05,0.19-0.03,0.37,0.06,0.52c0.09,0.16,0.39,0.33,0.9,0.53l-0.13,0.49l-7.84-2.1
			l0.13-0.49c0.54,0.08,0.88,0.08,1.04-0.01c0.16-0.09,0.26-0.23,0.31-0.42L159.23,196.66z"/>
		<path class="st2" d="M188.79,225.99c0.54,0.08,0.88,0.08,1.04-0.01c0.16-0.09,0.26-0.23,0.31-0.42l4.13-15.43l-7.1-1.9
			c-0.22-0.06-0.41-0.03-0.56,0.09c-0.15,0.12-0.32,0.41-0.5,0.86l-0.49-0.13l1.97-7.34l0.49,0.13c-0.07,0.48-0.07,0.81,0,1
			c0.07,0.18,0.21,0.3,0.43,0.36l20.38,5.46c0.22,0.06,0.41,0.03,0.56-0.09c0.15-0.12,0.32-0.41,0.5-0.86l0.49,0.13l-1.97,7.34
			l-0.49-0.13c0.07-0.48,0.07-0.81,0-1c-0.07-0.18-0.21-0.3-0.43-0.36l-7.1-1.9l-4.13,15.43c-0.05,0.19-0.03,0.37,0.06,0.52
			c0.09,0.16,0.39,0.33,0.9,0.53l-0.13,0.49l-8.5-2.28L188.79,225.99z"/>
	</g>
</g>
</svg>
