<?xml version="1.0" encoding="utf-8"?>
<!-- Generator: Adobe Illustrator 18.1.1, SVG Export Plug-In . SVG Version: 6.00 Build 0)  -->
<svg version="1.1" id="レイヤー_1" xmlns="http://www.w3.org/2000/svg" xmlns:xlink="http://www.w3.org/1999/xlink" x="0px"
	 y="0px" viewBox="0 0 67 16" enable-background="new 0 0 67 16" xml:space="preserve">
<g>
	<g>
		<polygon points="13,6.9 13,9.8 10.5,11.7 10.5,13.8 14.8,10.8 14.8,5.7 		"/>
		<path d="M10.2,9.7"/>
		<polygon fill="#9FC44F" points="2,5.1 8.5,0.7 6.6,0 0,4.3 0,12.6 2,13.3 		"/>
		<polygon points="5.4,6.4 11.9,2 9.8,1.2 3.3,5.7 3.3,13.8 5.4,14.7 		"/>
		<polygon points="13.2,2.4 6.8,7 6.8,15.2 8.9,16 8.9,7.8 15.4,3.2 		"/>
	</g>
	<g>
		<polygon points="37.9,12.3 40.4,12.3 41.7,10.5 40.5,8.9 		"/>
		<rect x="34" y="3.7" width="2.4" height="8.6"/>
		<polygon points="56.7,3.7 47.8,3.7 47.8,5.8 51.1,5.8 51.1,12.3 53.4,12.3 53.4,5.8 56.7,5.8 		"/>
		<polygon points="46.8,3.7 44.3,3.7 42.4,6.3 40.5,3.7 37.9,3.7 44.1,12.3 47,12.3 43.6,7.8 		"/>
		<polygon points="61.9,3.7 61.9,3.6 61.9,3.6 59.7,3.6 59.7,3.6 59.7,3.7 55.9,12.3 58.4,12.3 59,10.8 62,10.8 61,8.7 59.8,8.7 
			60.9,6.1 63.7,12.3 66.3,12.3 		"/>
		<polygon points="22.1,12.4 24.6,12.4 24.6,12.4 24.6,5.7 29.9,5.7 29.9,8.7 25.4,8.7 26.9,10.8 32.1,10.8 32.1,3.7 22.1,3.7 		"/>
	</g>
</g>
</svg>
