<?xml version="1.0" encoding="utf-8"?>
<!-- Generator: Adobe Illustrator 26.0.2, SVG Export Plug-In . SVG Version: 6.00 Build 0)  -->
<svg version="1.1" id="レイヤー_1" xmlns="http://www.w3.org/2000/svg" xmlns:xlink="http://www.w3.org/1999/xlink" x="0px"
	 y="0px" viewBox="0 0 450 450" style="enable-background:new 0 0 450 450;" xml:space="preserve">
<style type="text/css">
	.st0{fill:#F4DB67;}
	.st1{fill:#131313;}
	.st2{fill:#FFFFFF;stroke:#131313;stroke-width:0.6;stroke-miterlimit:10;}
</style>
<g>
	<g>
		<path class="st0" d="M225,449c-7.51,0-14.58-6.17-21.41-12.13c-5.91-5.16-12.02-10.49-18.41-11.75c-1.19-0.24-2.47-0.35-3.82-0.35
			c-5.74,0-12.14,2.15-18.33,4.23c-6.03,2.02-12.26,4.12-17.67,4.12c-2.3,0-4.29-0.36-6.1-1.11c-6.81-2.82-10.94-11.16-14.93-19.23
			c-3.52-7.1-7.15-14.44-12.66-18.13c-5.58-3.73-13.8-4.3-21.76-4.85c-8.92-0.62-18.15-1.25-23.3-6.4s-5.79-14.37-6.4-23.3
			c-0.55-7.95-1.12-16.18-4.85-21.76c-3.69-5.51-11.03-9.15-18.13-12.66c-8.06-3.99-16.4-8.12-19.23-14.93
			c-2.75-6.63,0.18-15.35,3.01-23.77c2.56-7.61,5.2-15.47,3.88-22.15c-1.26-6.39-6.6-12.5-11.75-18.41C7.16,239.58,1,232.51,1,225
			s6.17-14.58,12.13-21.41c5.16-5.91,10.49-12.02,11.75-18.41c1.32-6.68-1.32-14.54-3.88-22.15c-2.83-8.43-5.76-17.14-3.01-23.77
			c2.82-6.81,11.16-10.94,19.23-14.93c7.1-3.52,14.44-7.15,18.13-12.66c3.73-5.58,4.3-13.8,4.85-21.76
			c0.62-8.92,1.25-18.15,6.4-23.3s14.37-5.79,23.3-6.4c7.95-0.55,16.18-1.12,21.76-4.85c5.51-3.69,9.15-11.03,12.66-18.13
			c3.99-8.06,8.12-16.4,14.93-19.23c1.81-0.75,3.8-1.11,6.1-1.11c5.41,0,11.64,2.09,17.67,4.12c6.19,2.08,12.6,4.23,18.33,4.23
			c1.34,0,2.63-0.12,3.82-0.35c6.39-1.26,12.5-6.6,18.41-11.75C210.42,7.16,217.49,1,225,1s14.58,6.17,21.41,12.13
			c5.91,5.16,12.02,10.49,18.41,11.75c1.19,0.24,2.47,0.35,3.82,0.35c5.74,0,12.14-2.15,18.33-4.23c6.03-2.02,12.26-4.12,17.67-4.12
			c2.3,0,4.3,0.36,6.1,1.11c6.81,2.82,10.94,11.16,14.93,19.23c3.52,7.1,7.15,14.44,12.66,18.13c5.58,3.73,13.8,4.3,21.76,4.85
			c8.92,0.62,18.15,1.25,23.3,6.4s5.79,14.37,6.4,23.3c0.55,7.95,1.12,16.18,4.85,21.76c3.69,5.51,11.03,9.15,18.13,12.66
			c8.06,3.99,16.4,8.12,19.23,14.93c2.75,6.63-0.18,15.35-3.01,23.77c-2.56,7.61-5.2,15.47-3.88,22.15
			c1.26,6.39,6.6,12.5,11.75,18.41c5.96,6.83,12.13,13.9,12.13,21.41s-6.17,14.58-12.13,21.41c-5.16,5.91-10.49,12.02-11.75,18.41
			c-1.32,6.68,1.32,14.54,3.88,22.15c2.83,8.43,5.76,17.14,3.01,23.77c-2.82,6.81-11.16,10.94-19.23,14.93
			c-7.1,3.52-14.44,7.15-18.13,12.66c-3.73,5.58-4.3,13.8-4.85,21.76c-0.62,8.92-1.25,18.15-6.4,23.3s-14.37,5.79-23.3,6.4
			c-7.95,0.55-16.18,1.12-21.76,4.85c-5.51,3.69-9.15,11.03-12.66,18.13c-3.99,8.06-8.12,16.4-14.93,19.23
			c-1.81,0.75-3.8,1.11-6.1,1.11c-5.41,0-11.64-2.09-17.67-4.12c-6.19-2.08-12.6-4.23-18.33-4.23c-1.34,0-2.63,0.12-3.82,0.35
			c-6.39,1.26-12.5,6.6-18.41,11.75C239.58,442.84,232.51,449,225,449z"/>
		<g>
			<path class="st1" d="M225,1.57c7.3,0,14.28,6.09,21.03,11.99c5.97,5.21,12.14,10.59,18.68,11.89c1.23,0.24,2.55,0.37,3.93,0.37
				c5.83,0,12.28-2.17,18.52-4.26c5.98-2.01,12.17-4.09,17.49-4.09c2.22,0,4.14,0.35,5.88,1.07c6.61,2.74,10.69,10.98,14.64,18.95
				c3.55,7.17,7.22,14.58,12.86,18.35c5.7,3.82,14.01,4.39,22.04,4.95c8.82,0.61,17.94,1.24,22.93,6.24c5,5,5.63,14.11,6.24,22.93
				c0.56,8.03,1.13,16.33,4.95,22.04c3.77,5.64,11.18,9.31,18.35,12.86c7.97,3.95,16.21,8.03,18.95,14.64
				c2.67,6.44-0.09,14.66-3.02,23.37c-2.58,7.68-5.25,15.62-3.9,22.45c1.29,6.54,6.68,12.71,11.89,18.68
				c5.89,6.75,11.99,13.74,11.99,21.03s-6.09,14.28-11.99,21.03c-5.21,5.97-10.59,12.14-11.89,18.68
				c-1.35,6.83,1.32,14.77,3.9,22.45c2.93,8.71,5.69,16.93,3.02,23.37c-2.74,6.61-10.98,10.69-18.95,14.64
				c-7.17,3.55-14.58,7.22-18.35,12.86c-3.82,5.7-4.39,14.01-4.95,22.04c-0.61,8.82-1.24,17.94-6.24,22.93
				c-5,5-14.11,5.63-22.93,6.24c-8.03,0.56-16.33,1.13-22.04,4.95c-5.64,3.77-9.31,11.18-12.86,18.35
				c-3.95,7.97-8.03,16.21-14.64,18.95c-1.74,0.72-3.66,1.07-5.88,1.07c-5.31,0-11.5-2.08-17.49-4.09
				c-6.24-2.09-12.69-4.26-18.52-4.26c-1.38,0-2.7,0.12-3.93,0.37c-6.54,1.29-12.71,6.68-18.68,11.89
				c-6.75,5.89-13.74,11.99-21.03,11.99s-14.28-6.09-21.03-11.99c-5.97-5.21-12.14-10.59-18.68-11.89
				c-1.23-0.24-2.55-0.37-3.93-0.37c-5.83,0-12.28,2.17-18.52,4.26c-5.98,2.01-12.17,4.09-17.49,4.09c-2.22,0-4.15-0.35-5.88-1.07
				c-6.61-2.74-10.69-10.98-14.64-18.95c-3.55-7.17-7.22-14.58-12.86-18.35c-5.7-3.82-14.01-4.39-22.04-4.95
				c-8.82-0.61-17.94-1.24-22.93-6.24c-5-5-5.63-14.11-6.24-22.93c-0.56-8.03-1.13-16.33-4.95-22.04
				c-3.77-5.64-11.18-9.31-18.35-12.86c-7.97-3.95-16.21-8.03-18.95-14.64c-2.67-6.44,0.09-14.66,3.02-23.37
				c2.58-7.68,5.25-15.62,3.9-22.45c-1.29-6.54-6.68-12.71-11.89-18.68C7.66,239.28,1.57,232.3,1.57,225s6.09-14.28,11.99-21.03
				c5.21-5.97,10.59-12.14,11.89-18.68c1.35-6.83-1.32-14.77-3.9-22.45c-2.93-8.71-5.69-16.93-3.02-23.37
				c2.74-6.61,10.98-10.69,18.95-14.64c7.17-3.55,14.58-7.22,18.35-12.86c3.82-5.7,4.39-14.01,4.95-22.04
				c0.61-8.82,1.24-17.94,6.24-22.93c5-5,14.11-5.63,22.93-6.24c8.03-0.56,16.33-1.13,22.04-4.95c5.64-3.77,9.31-11.18,12.86-18.35
				c3.95-7.97,8.03-16.21,14.64-18.95c1.74-0.72,3.66-1.07,5.88-1.07c5.31,0,11.5,2.08,17.49,4.09c6.24,2.1,12.69,4.26,18.52,4.26
				c1.38,0,2.7-0.12,3.93-0.37c6.54-1.29,12.71-6.68,18.68-11.89C210.72,7.66,217.7,1.57,225,1.57 M225,0.42
				c-14.33,0-26.39,21.21-39.93,23.89c-1.2,0.24-2.44,0.34-3.71,0.34c-11.24,0-24.95-8.35-36.01-8.35c-2.23,0-4.35,0.34-6.32,1.16
				c-13.06,5.42-16.08,29.63-27.69,37.41c-11.7,7.83-35.22,1.41-45.14,11.33c-9.92,9.92-3.49,33.44-11.33,45.14
				c-7.77,11.61-31.99,14.63-37.41,27.69c-5.32,12.84,9.61,32.08,6.85,46.03C21.64,198.61,0.42,210.67,0.42,225
				c0,14.33,21.21,26.39,23.89,39.93c2.76,13.95-12.17,33.19-6.85,46.03c5.42,13.06,29.63,16.08,37.41,27.69
				c7.83,11.7,1.41,35.22,11.33,45.14c9.92,9.92,33.44,3.49,45.14,11.33c11.61,7.77,14.63,31.99,27.69,37.41
				c1.97,0.82,4.09,1.16,6.32,1.16c11.05,0,24.77-8.35,36.01-8.35c1.27,0,2.51,0.11,3.71,0.34c13.54,2.68,25.6,23.89,39.93,23.89
				c14.33,0,26.39-21.21,39.93-23.89c1.2-0.24,2.44-0.34,3.71-0.34c11.24,0,24.95,8.35,36.01,8.35c2.23,0,4.35-0.34,6.32-1.16
				c13.06-5.42,16.08-29.63,27.69-37.41c11.7-7.83,35.22-1.41,45.14-11.33c9.92-9.92,3.49-33.44,11.33-45.14
				c7.77-11.61,31.99-14.63,37.41-27.69c5.32-12.84-9.61-32.08-6.85-46.03c2.68-13.54,23.89-25.6,23.89-39.93
				c0-14.33-21.21-26.39-23.89-39.93c-2.76-13.95,12.17-33.19,6.85-46.03c-5.42-13.06-29.63-16.08-37.41-27.69
				c-7.83-11.7-1.41-35.22-11.33-45.14c-9.92-9.92-33.44-3.49-45.14-11.33c-11.61-7.77-14.63-31.99-27.69-37.41
				c-1.97-0.82-4.09-1.16-6.32-1.16c-11.05,0-24.77,8.35-36.01,8.35c-1.27,0-2.51-0.11-3.71-0.34C251.39,21.64,239.33,0.42,225,0.42
				L225,0.42z"/>
		</g>
	</g>
	<g>
		<path class="st2" d="M77.44,233.02c-0.07-0.36-0.22-0.66-0.46-0.89c-0.23-0.23-0.62-0.35-1.16-0.35H65.78v5.02H83.1
			c0.29,0,0.5-0.1,0.65-0.3c0.14-0.2,0.25-0.64,0.32-1.32h0.65v9.23h-0.65c-0.07-0.47-0.18-0.76-0.32-0.86
			c-0.14-0.11-0.36-0.16-0.65-0.16H56.18v-0.65c0.68-0.07,1.11-0.19,1.27-0.35c0.16-0.16,0.24-0.37,0.24-0.62v-25.14
			c0-0.25-0.08-0.46-0.24-0.62c-0.16-0.16-0.59-0.28-1.27-0.35V215H83.1c0.29,0,0.5-0.1,0.65-0.3c0.14-0.2,0.25-0.6,0.32-1.21h0.65
			v9.39h-0.65c-0.07-0.61-0.18-1.02-0.32-1.21c-0.14-0.2-0.36-0.3-0.65-0.3H65.78v4.48h10.04c0.54,0,0.93-0.12,1.16-0.35
			c0.23-0.23,0.39-0.53,0.46-0.89h0.65v8.42H77.44z"/>
		<path class="st2" d="M88.98,242.73c0.32,0,0.74-0.3,1.24-0.92l10.79-12.84l-10.04-12.63c-0.25-0.29-0.48-0.48-0.67-0.57
			c-0.2-0.09-0.39-0.13-0.57-0.13V215h12.63v0.65c-0.43,0.04-0.75,0.09-0.97,0.16c-0.22,0.07-0.32,0.25-0.32,0.54
			c0,0.07,0.23,0.4,0.7,1c0.47,0.59,1,1.24,1.59,1.94c0.59,0.7,1.15,1.37,1.67,2c0.52,0.63,0.85,1.03,1,1.21
			c0.22-0.25,0.59-0.69,1.13-1.32c0.54-0.63,1.09-1.29,1.65-1.97c0.56-0.68,1.06-1.3,1.51-1.86c0.45-0.56,0.67-0.89,0.67-1
			c0-0.29-0.13-0.48-0.4-0.57c-0.27-0.09-0.51-0.13-0.73-0.13V215h12.36v0.65c-0.58,0.04-1.03,0.25-1.35,0.65l-9.93,12.3
			l10.95,13.87c0.11,0.14,0.25,0.22,0.43,0.24c0.18,0.02,0.36,0.03,0.54,0.03v0.65h-12.63v-0.65c0.68,0,1.02-0.09,1.02-0.27
			c0-0.14-0.17-0.47-0.51-0.97c-0.34-0.5-0.77-1.11-1.29-1.81c-0.52-0.7-1.1-1.46-1.73-2.27c-0.63-0.81-1.23-1.59-1.81-2.35
			c-0.11,0.18-0.33,0.47-0.67,0.86c-0.34,0.4-0.72,0.83-1.13,1.29c-0.41,0.47-0.86,0.96-1.32,1.48c-0.47,0.52-0.9,1.02-1.3,1.48
			c-0.4,0.47-0.72,0.87-0.97,1.21c-0.25,0.34-0.38,0.59-0.38,0.73c0,0.29,0.16,0.46,0.49,0.51c0.32,0.05,0.59,0.08,0.81,0.08v0.65
			H88.98V242.73z"/>
		<path class="st2" d="M138.03,241.76c0,0.25,0.08,0.46,0.24,0.62c0.16,0.16,0.58,0.28,1.27,0.35v0.65h-11.11v-0.65
			c0.68-0.07,1.11-0.19,1.27-0.35c0.16-0.16,0.24-0.37,0.24-0.62v-25.14c0-0.25-0.08-0.46-0.24-0.62c-0.16-0.16-0.58-0.28-1.27-0.35
			V215h19.32c1.69,0,3.18,0.24,4.48,0.73c1.3,0.49,2.37,1.14,3.24,1.97c0.86,0.83,1.51,1.79,1.94,2.89c0.43,1.1,0.65,2.24,0.65,3.43
			s-0.22,2.33-0.65,3.43c-0.43,1.1-1.08,2.05-1.94,2.86c-0.86,0.81-1.94,1.46-3.24,1.94c-1.3,0.49-2.79,0.73-4.48,0.73h-9.71V241.76
			z M146.23,227.25c1.51,0,2.62-0.25,3.32-0.76c0.7-0.5,1.05-1.33,1.05-2.48c0-1.04-0.35-1.8-1.05-2.27c-0.7-0.47-1.81-0.7-3.32-0.7
			h-8.2v6.2H146.23z"/>
		<path class="st2" d="M172.67,241.76c0,0.25,0.08,0.46,0.24,0.62c0.16,0.16,0.58,0.28,1.27,0.35v0.65h-11.11v-0.65
			c0.68-0.07,1.11-0.19,1.27-0.35c0.16-0.16,0.24-0.37,0.24-0.62v-25.14c0-0.25-0.08-0.46-0.24-0.62c-0.16-0.16-0.58-0.28-1.27-0.35
			V215h19.75c3.99,0,6.89,0.73,8.69,2.19c1.8,1.46,2.7,3.71,2.7,6.77c0,2.48-0.73,4.42-2.19,5.83c-1.46,1.4-3.3,2.41-5.53,3.02
			l6.37,8.96c0.43,0.65,0.95,0.97,1.56,0.97v0.65h-11.22v-0.65c0.79-0.04,1.19-0.36,1.19-0.97c0-0.07-0.14-0.32-0.43-0.76
			c-0.29-0.43-0.65-0.95-1.08-1.56c-0.43-0.61-0.91-1.27-1.43-1.97c-0.52-0.7-1.03-1.38-1.51-2.02c-0.49-0.65-0.91-1.22-1.27-1.73
			c-0.36-0.5-0.59-0.84-0.7-1.02h-5.29V241.76z M181.73,226.98c1.58,0,2.67-0.3,3.26-0.89s0.89-1.29,0.89-2.08
			c0-0.79-0.3-1.48-0.89-2.08c-0.59-0.59-1.68-0.89-3.26-0.89h-9.07v5.93H181.73z"/>
		<path class="st2" d="M221.93,233.02c-0.07-0.36-0.22-0.66-0.46-0.89c-0.23-0.23-0.62-0.35-1.16-0.35h-10.04v5.02h17.32
			c0.29,0,0.5-0.1,0.65-0.3c0.14-0.2,0.25-0.64,0.32-1.32h0.65v9.23h-0.65c-0.07-0.47-0.18-0.76-0.32-0.86
			c-0.14-0.11-0.36-0.16-0.65-0.16h-26.92v-0.65c0.68-0.07,1.11-0.19,1.27-0.35c0.16-0.16,0.24-0.37,0.24-0.62v-25.14
			c0-0.25-0.08-0.46-0.24-0.62c-0.16-0.16-0.59-0.28-1.27-0.35V215h26.92c0.29,0,0.5-0.1,0.65-0.3c0.14-0.2,0.25-0.6,0.32-1.21h0.65
			v9.39h-0.65c-0.07-0.61-0.18-1.02-0.32-1.21c-0.14-0.2-0.36-0.3-0.65-0.3h-17.32v4.48h10.04c0.54,0,0.93-0.12,1.16-0.35
			c0.23-0.23,0.39-0.53,0.46-0.89h0.65v8.42H221.93z"/>
		<path class="st2" d="M237.68,232.43c-0.07,0.22-0.11,0.59-0.11,1.13c0,0.36,0.33,0.76,1,1.21c0.66,0.45,1.53,0.87,2.59,1.27
			c1.06,0.4,2.27,0.73,3.64,1c1.37,0.27,2.75,0.4,4.15,0.4c2.7,0,4.68-0.31,5.93-0.94c1.26-0.63,1.89-1.54,1.89-2.72
			c0-0.65-0.55-1.11-1.65-1.38c-1.1-0.27-2.47-0.49-4.13-0.65c-1.66-0.16-3.44-0.34-5.34-0.54c-1.91-0.2-3.69-0.56-5.34-1.08
			c-1.65-0.52-3.03-1.28-4.13-2.27c-1.1-0.99-1.65-2.35-1.65-4.07c0-1.37,0.31-2.61,0.94-3.72c0.63-1.11,1.51-2.07,2.64-2.86
			c1.13-0.79,2.51-1.41,4.13-1.86c1.62-0.45,3.42-0.67,5.4-0.67c1.84,0,3.54,0.12,5.13,0.35c1.58,0.23,2.99,0.49,4.21,0.78
			c1.22,0.29,2.25,0.55,3.08,0.78c0.83,0.23,1.42,0.35,1.78,0.35c0.36,0,0.65-0.08,0.86-0.24c0.22-0.16,0.41-0.35,0.59-0.57
			l0.59,0.22l-3.72,7.5l-0.65-0.32v-0.59c0-0.32-0.35-0.66-1.05-1c-0.7-0.34-1.59-0.65-2.67-0.92c-1.08-0.27-2.29-0.49-3.62-0.67
			c-1.33-0.18-2.63-0.27-3.89-0.27c-2.34,0-3.98,0.27-4.91,0.81c-0.94,0.54-1.4,1.12-1.4,1.73c0,0.61,0.32,1.07,0.97,1.38
			c0.65,0.31,1.49,0.53,2.54,0.67c1.04,0.14,2.23,0.26,3.56,0.35c1.33,0.09,2.7,0.22,4.1,0.4c1.4,0.18,2.77,0.43,4.1,0.76
			c1.33,0.32,2.52,0.8,3.56,1.43c1.04,0.63,1.89,1.46,2.54,2.48c0.65,1.02,0.97,2.31,0.97,3.86c0,1.19-0.24,2.36-0.73,3.51
			c-0.49,1.15-1.31,2.19-2.48,3.1c-1.17,0.92-2.73,1.65-4.69,2.19c-1.96,0.54-4.4,0.81-7.31,0.81c-2.27,0-4.22-0.11-5.85-0.32
			c-1.64-0.22-3.03-0.48-4.18-0.78c-1.15-0.31-2.06-0.58-2.72-0.84c-0.67-0.25-1.16-0.38-1.48-0.38c-0.22,0-0.4,0.07-0.57,0.22
			c-0.16,0.14-0.33,0.31-0.51,0.49l-0.65-0.16l3.99-9.6L237.68,232.43z"/>
		<path class="st2" d="M272.32,232.43c-0.07,0.22-0.11,0.59-0.11,1.13c0,0.36,0.33,0.76,1,1.21c0.66,0.45,1.53,0.87,2.59,1.27
			c1.06,0.4,2.27,0.73,3.64,1c1.37,0.27,2.75,0.4,4.15,0.4c2.7,0,4.68-0.31,5.93-0.94c1.26-0.63,1.89-1.54,1.89-2.72
			c0-0.65-0.55-1.11-1.65-1.38c-1.1-0.27-2.47-0.49-4.13-0.65c-1.66-0.16-3.44-0.34-5.34-0.54c-1.91-0.2-3.69-0.56-5.34-1.08
			c-1.65-0.52-3.03-1.28-4.13-2.27c-1.1-0.99-1.65-2.35-1.65-4.07c0-1.37,0.31-2.61,0.94-3.72c0.63-1.11,1.51-2.07,2.64-2.86
			c1.13-0.79,2.51-1.41,4.13-1.86c1.62-0.45,3.42-0.67,5.4-0.67c1.84,0,3.54,0.12,5.13,0.35c1.58,0.23,2.99,0.49,4.21,0.78
			c1.22,0.29,2.25,0.55,3.08,0.78c0.83,0.23,1.42,0.35,1.78,0.35c0.36,0,0.65-0.08,0.86-0.24c0.22-0.16,0.41-0.35,0.59-0.57
			l0.59,0.22l-3.72,7.5l-0.65-0.32v-0.59c0-0.32-0.35-0.66-1.05-1c-0.7-0.34-1.59-0.65-2.67-0.92c-1.08-0.27-2.29-0.49-3.62-0.67
			c-1.33-0.18-2.63-0.27-3.89-0.27c-2.34,0-3.98,0.27-4.91,0.81c-0.94,0.54-1.4,1.12-1.4,1.73c0,0.61,0.32,1.07,0.97,1.38
			c0.65,0.31,1.49,0.53,2.54,0.67c1.04,0.14,2.23,0.26,3.56,0.35c1.33,0.09,2.7,0.22,4.1,0.4c1.4,0.18,2.77,0.43,4.1,0.76
			c1.33,0.32,2.52,0.8,3.56,1.43c1.04,0.63,1.89,1.46,2.54,2.48c0.65,1.02,0.97,2.31,0.97,3.86c0,1.19-0.24,2.36-0.73,3.51
			c-0.49,1.15-1.31,2.19-2.48,3.1c-1.17,0.92-2.73,1.65-4.69,2.19c-1.96,0.54-4.4,0.81-7.31,0.81c-2.27,0-4.22-0.11-5.85-0.32
			c-1.64-0.22-3.03-0.48-4.18-0.78c-1.15-0.31-2.06-0.58-2.72-0.84c-0.67-0.25-1.16-0.38-1.48-0.38c-0.22,0-0.4,0.07-0.57,0.22
			c-0.16,0.14-0.33,0.31-0.51,0.49l-0.65-0.16l3.99-9.6L272.32,232.43z"/>
		<path class="st2" d="M305.18,242.73c0.68-0.07,1.11-0.19,1.27-0.35c0.16-0.16,0.24-0.37,0.24-0.62v-25.14
			c0-0.25-0.08-0.46-0.24-0.62c-0.16-0.16-0.59-0.28-1.27-0.35V215h11.11v0.65c-0.68,0.07-1.11,0.19-1.27,0.35
			c-0.16,0.16-0.24,0.37-0.24,0.62v25.14c0,0.25,0.08,0.46,0.24,0.62c0.16,0.16,0.58,0.28,1.27,0.35v0.65h-11.11V242.73z"/>
		<path class="st2" d="M339.34,214.68c2.3,0,4.47,0.32,6.5,0.94c2.03,0.63,3.81,1.56,5.34,2.78c1.53,1.22,2.74,2.73,3.64,4.53
			c0.9,1.8,1.35,3.89,1.35,6.26c0,2.37-0.45,4.46-1.35,6.26c-0.9,1.8-2.11,3.31-3.64,4.53c-1.53,1.22-3.31,2.12-5.34,2.7
			c-2.03,0.58-4.2,0.86-6.5,0.86c-2.3,0-4.47-0.29-6.5-0.86c-2.03-0.58-3.81-1.47-5.34-2.7c-1.53-1.22-2.74-2.73-3.64-4.53
			c-0.9-1.8-1.35-3.89-1.35-6.26c0-2.37,0.45-4.46,1.35-6.26c0.9-1.8,2.11-3.31,3.64-4.53c1.53-1.22,3.31-2.15,5.34-2.78
			C334.87,214.99,337.03,214.68,339.34,214.68z M339.34,221.26c-1.19,0-2.31,0.18-3.37,0.54c-1.06,0.36-2,0.87-2.81,1.54
			c-0.81,0.67-1.46,1.49-1.94,2.48c-0.49,0.99-0.73,2.11-0.73,3.37c0,1.26,0.24,2.38,0.73,3.37c0.49,0.99,1.13,1.82,1.94,2.48
			c0.81,0.67,1.74,1.18,2.81,1.54c1.06,0.36,2.19,0.54,3.37,0.54c1.19,0,2.31-0.18,3.37-0.54c1.06-0.36,2-0.87,2.81-1.54
			c0.81-0.67,1.46-1.49,1.94-2.48c0.49-0.99,0.73-2.11,0.73-3.37c0-1.26-0.24-2.38-0.73-3.37c-0.49-0.99-1.13-1.82-1.94-2.48
			c-0.81-0.67-1.74-1.18-2.81-1.54C341.65,221.44,340.52,221.26,339.34,221.26z"/>
		<path class="st2" d="M363.35,216.62c0-0.25-0.08-0.46-0.24-0.62c-0.16-0.16-0.59-0.28-1.27-0.35V215h13v0.65
			c-0.61,0.04-1.02,0.12-1.21,0.24c-0.2,0.13-0.3,0.28-0.3,0.46c0,0.07,0.23,0.4,0.7,0.97c0.47,0.58,1.08,1.3,1.84,2.16
			c0.75,0.86,1.61,1.83,2.56,2.89c0.95,1.06,1.92,2.12,2.89,3.18c0.97,1.06,1.91,2.07,2.81,3.02c0.9,0.95,1.67,1.77,2.32,2.45
			v-14.41c0-0.61-0.38-0.93-1.13-0.97V215h9.87v0.65c-0.68,0.07-1.11,0.19-1.27,0.35c-0.16,0.16-0.24,0.37-0.24,0.62v25.14
			c0,0.25,0.08,0.46,0.24,0.62c0.16,0.16,0.58,0.28,1.27,0.35v0.65h-10.25v-0.65c0.5,0,0.84-0.05,1-0.16
			c0.16-0.11,0.24-0.25,0.24-0.43c0-0.11-0.05-0.24-0.16-0.4c-0.11-0.16-0.34-0.44-0.7-0.84c-0.36-0.4-0.89-0.96-1.59-1.7
			c-0.7-0.74-1.63-1.73-2.78-2.97c-1.15-1.24-2.57-2.79-4.26-4.64c-1.69-1.85-3.72-4.11-6.1-6.77v16.94c0,0.25,0.08,0.46,0.24,0.62
			c0.16,0.16,0.58,0.28,1.27,0.35v0.65h-10.25v-0.65c0.68-0.07,1.11-0.19,1.27-0.35c0.16-0.16,0.24-0.37,0.24-0.62V216.62z"/>
		<path d="M121.82,303.22c0.72-0.08,1.17-0.2,1.34-0.37c0.17-0.17,0.26-0.39,0.26-0.66v-21.34h-9.82c-0.31,0-0.53,0.11-0.68,0.31
			c-0.15,0.21-0.27,0.64-0.34,1.28h-0.68v-10.16h0.68c0.08,0.65,0.19,1.08,0.34,1.28c0.15,0.21,0.38,0.31,0.68,0.31h28.19
			c0.3,0,0.53-0.1,0.68-0.31c0.15-0.21,0.27-0.64,0.34-1.28h0.68v10.16h-0.68c-0.08-0.65-0.19-1.07-0.34-1.28
			c-0.15-0.21-0.38-0.31-0.68-0.31h-9.82v21.34c0,0.27,0.09,0.48,0.26,0.66c0.17,0.17,0.62,0.3,1.34,0.37v0.68h-11.76V303.22z"/>
		<path d="M158.51,302.19c0,0.27,0.09,0.48,0.26,0.66c0.17,0.17,0.62,0.3,1.34,0.37v0.68h-11.76v-0.68c0.72-0.08,1.17-0.2,1.34-0.37
			c0.17-0.17,0.26-0.39,0.26-0.66V275.6c0-0.27-0.09-0.49-0.26-0.66c-0.17-0.17-0.62-0.29-1.34-0.37v-0.68h20.89
			c4.22,0,7.29,0.77,9.19,2.31c1.9,1.54,2.85,3.93,2.85,7.16c0,2.62-0.77,4.68-2.31,6.16c-1.54,1.48-3.49,2.55-5.85,3.2l6.73,9.47
			c0.46,0.68,1.01,1.03,1.65,1.03v0.68h-11.87v-0.68c0.84-0.04,1.26-0.38,1.26-1.03c0-0.08-0.15-0.34-0.46-0.8
			c-0.3-0.46-0.68-1.01-1.14-1.66c-0.46-0.65-0.96-1.34-1.51-2.08c-0.55-0.74-1.08-1.46-1.6-2.14s-0.96-1.29-1.34-1.83
			c-0.38-0.53-0.63-0.89-0.74-1.08h-5.59V302.19z M168.1,286.56c1.67,0,2.83-0.31,3.45-0.94c0.63-0.63,0.94-1.36,0.94-2.2
			c0-0.84-0.31-1.57-0.94-2.2c-0.63-0.63-1.78-0.94-3.45-0.94h-9.59v6.28H168.1z"/>
		<path d="M210.62,292.95c-0.08-0.38-0.24-0.69-0.48-0.94c-0.25-0.25-0.66-0.37-1.23-0.37h-10.62v5.31h18.32
			c0.3,0,0.53-0.1,0.68-0.31c0.15-0.21,0.27-0.67,0.34-1.4h0.68v9.76h-0.68c-0.08-0.49-0.19-0.8-0.34-0.91
			c-0.15-0.11-0.38-0.17-0.68-0.17h-28.48v-0.68c0.72-0.08,1.17-0.2,1.34-0.37c0.17-0.17,0.26-0.39,0.26-0.66V275.6
			c0-0.27-0.09-0.49-0.26-0.66c-0.17-0.17-0.62-0.29-1.34-0.37v-0.68h28.48c0.3,0,0.53-0.1,0.68-0.31c0.15-0.21,0.27-0.64,0.34-1.28
			h0.68v9.93h-0.68c-0.08-0.65-0.19-1.07-0.34-1.28c-0.15-0.21-0.38-0.31-0.68-0.31h-18.32v4.74h10.62c0.57,0,0.98-0.12,1.23-0.37
			c0.25-0.25,0.41-0.56,0.48-0.94h0.68v8.9H210.62z"/>
		<path d="M226.37,275.6c0-0.27-0.09-0.49-0.26-0.66c-0.17-0.17-0.62-0.29-1.34-0.37v-0.68h13.75v0.68
			c-0.65,0.04-1.08,0.12-1.28,0.26c-0.21,0.13-0.31,0.29-0.31,0.48c0,0.08,0.25,0.42,0.74,1.03c0.49,0.61,1.14,1.37,1.94,2.28
			c0.8,0.91,1.7,1.93,2.71,3.05c1.01,1.12,2.03,2.24,3.05,3.37c1.03,1.12,2.02,2.19,2.97,3.2c0.95,1.01,1.77,1.87,2.45,2.6V275.6
			c0-0.65-0.4-0.99-1.2-1.03v-0.68h10.44v0.68c-0.72,0.08-1.17,0.2-1.34,0.37c-0.17,0.17-0.26,0.39-0.26,0.66v26.59
			c0,0.27,0.09,0.48,0.26,0.66c0.17,0.17,0.62,0.3,1.34,0.37v0.68h-10.84v-0.68c0.53,0,0.88-0.06,1.06-0.17
			c0.17-0.11,0.26-0.27,0.26-0.46c0-0.11-0.06-0.26-0.17-0.43c-0.11-0.17-0.36-0.47-0.74-0.88c-0.38-0.42-0.94-1.02-1.68-1.8
			c-0.74-0.78-1.72-1.83-2.94-3.14c-1.22-1.31-2.72-2.95-4.51-4.91c-1.79-1.96-3.94-4.35-6.45-7.16v17.92
			c0,0.27,0.09,0.48,0.26,0.66c0.17,0.17,0.62,0.3,1.34,0.37v0.68h-10.84v-0.68c0.72-0.08,1.17-0.2,1.34-0.37
			c0.17-0.17,0.26-0.39,0.26-0.66V275.6z"/>
		<path d="M269.34,275.6c0-0.27-0.09-0.49-0.26-0.66c-0.17-0.17-0.62-0.29-1.34-0.37v-0.68h18.95c2.63,0,4.91,0.38,6.85,1.14
			c1.94,0.76,3.54,1.82,4.79,3.17c1.26,1.35,2.2,2.94,2.83,4.77c0.63,1.83,0.94,3.8,0.94,5.94c0,1.94-0.33,3.81-1,5.62
			c-0.67,1.81-1.67,3.41-3.02,4.79c-1.35,1.39-3.02,2.5-5.02,3.34c-2,0.84-4.33,1.26-6.99,1.26h-18.32v-0.68
			c0.72-0.08,1.17-0.2,1.34-0.37c0.17-0.17,0.26-0.39,0.26-0.66V275.6z M285.15,297.17c3,0,5.17-0.77,6.51-2.31
			c1.33-1.54,2-3.53,2-5.96c0-2.43-0.67-4.42-2-5.96c-1.33-1.54-3.5-2.31-6.51-2.31h-7.25v16.55H285.15z"/>
		<path d="M310.03,292.32c-0.08,0.23-0.11,0.63-0.11,1.2c0,0.38,0.35,0.81,1.06,1.28c0.7,0.48,1.62,0.92,2.74,1.34
			c1.12,0.42,2.41,0.77,3.85,1.06s2.91,0.43,4.39,0.43c2.85,0,4.95-0.33,6.28-1c1.33-0.67,2-1.63,2-2.88c0-0.68-0.58-1.17-1.74-1.46
			c-1.16-0.29-2.62-0.51-4.37-0.68c-1.75-0.17-3.63-0.36-5.65-0.57c-2.02-0.21-3.9-0.59-5.65-1.14c-1.75-0.55-3.21-1.35-4.37-2.4
			c-1.16-1.05-1.74-2.48-1.74-4.31c0-1.45,0.33-2.76,1-3.94c0.67-1.18,1.6-2.19,2.8-3.02c1.2-0.84,2.65-1.49,4.37-1.97
			c1.71-0.48,3.61-0.71,5.71-0.71c1.94,0,3.75,0.12,5.42,0.37c1.67,0.25,3.16,0.52,4.45,0.83c1.29,0.31,2.38,0.58,3.25,0.83
			c0.87,0.25,1.5,0.37,1.88,0.37c0.38,0,0.68-0.09,0.91-0.26c0.23-0.17,0.44-0.37,0.63-0.6l0.63,0.23l-3.94,7.93l-0.68-0.34v-0.63
			c0-0.34-0.37-0.69-1.11-1.06c-0.74-0.36-1.68-0.68-2.83-0.97c-1.14-0.29-2.42-0.52-3.82-0.71c-1.41-0.19-2.78-0.29-4.11-0.29
			c-2.47,0-4.2,0.29-5.19,0.86c-0.99,0.57-1.48,1.18-1.48,1.83c0,0.65,0.34,1.13,1.03,1.46c0.68,0.32,1.58,0.56,2.68,0.71
			c1.1,0.15,2.36,0.28,3.77,0.37c1.41,0.1,2.85,0.24,4.34,0.43c1.48,0.19,2.93,0.46,4.34,0.8c1.41,0.34,2.66,0.85,3.77,1.51
			c1.1,0.67,2,1.54,2.68,2.62c0.68,1.08,1.03,2.45,1.03,4.08c0,1.26-0.26,2.49-0.77,3.71c-0.51,1.22-1.39,2.31-2.63,3.28
			c-1.24,0.97-2.89,1.74-4.97,2.31c-2.07,0.57-4.65,0.86-7.73,0.86c-2.4,0-4.46-0.11-6.19-0.34c-1.73-0.23-3.21-0.5-4.42-0.83
			c-1.22-0.32-2.18-0.62-2.88-0.88c-0.7-0.27-1.23-0.4-1.57-0.4c-0.23,0-0.43,0.08-0.6,0.23c-0.17,0.15-0.35,0.32-0.54,0.51
			l-0.68-0.17l4.22-10.16L310.03,292.32z"/>
	</g>
	<g>
		<path d="M127.12,148.31c0,3.25-2.62,5.88-5.88,5.88s-5.88-2.62-5.88-5.88c0-3.25,2.62-5.88,5.88-5.88
			C124.6,142.44,127.12,145.18,127.12,148.31z"/>
		<path d="M181.55,158.05c0.49,0,0.85-0.09,1.07-0.28c0.22-0.18,0.38-0.56,0.46-1.13h0.73v9.86h-0.73
			c-0.08-0.57-0.26-0.92-0.52-1.04c-0.27-0.12-0.7-0.18-1.32-0.18h-27.18c-0.41,0-0.71,0.06-0.92,0.18
			c-0.2,0.12-0.31,0.47-0.31,1.04h-0.73c-0.08-1.8,0.16-3.45,0.73-4.96c0.57-1.51,1.37-2.9,2.39-4.16c1.02-1.26,2.21-2.43,3.58-3.49
			c1.37-1.06,2.79-2.04,4.29-2.94c1.49-0.9,2.99-1.75,4.5-2.57c1.51-0.82,2.94-1.63,4.29-2.45c0.61-0.37,1.06-0.75,1.35-1.16
			c0.28-0.41,0.43-0.96,0.43-1.65c0-0.77-0.34-1.5-1.01-2.17c-0.67-0.67-1.79-1.01-3.34-1.01c-1.43,0-2.77,0.22-4.01,0.67
			c-1.25,0.45-2.34,0.98-3.28,1.59c-0.94,0.61-1.67,1.24-2.2,1.87c-0.53,0.63-0.8,1.15-0.8,1.56c0,0.24,0.08,0.55,0.24,0.92
			l-0.73,0.55l-6.49-9.12l0.67-0.49c0.12,0.12,0.28,0.24,0.46,0.34c0.18,0.1,0.4,0.15,0.64,0.15c0.33,0,0.87-0.28,1.62-0.83
			c0.75-0.55,1.77-1.15,3.03-1.81c1.31-0.69,2.84-1.31,4.59-1.84c1.75-0.53,3.8-0.8,6.12-0.8c1.75,0,3.43,0.27,5.02,0.8
			c1.59,0.53,3,1.25,4.22,2.17c1.23,0.92,2.2,2.02,2.94,3.31c0.73,1.29,1.1,2.7,1.1,4.25c0,1.51-0.32,2.82-0.95,3.92
			c-0.63,1.1-1.46,2.07-2.48,2.91c-1.02,0.84-2.17,1.58-3.46,2.23c-1.29,0.65-2.58,1.28-3.89,1.87c-1.31,0.59-2.55,1.19-3.74,1.81
			c-1.18,0.61-2.18,1.31-3,2.08H181.55z"/>
		<path d="M205.85,132.7c2.29,0,4.43,0.42,6.43,1.25c2,0.84,3.76,1.99,5.3,3.46c1.53,1.47,2.73,3.2,3.61,5.2
			c0.88,2,1.32,4.18,1.32,6.55c0,2.37-0.44,4.55-1.32,6.55c-0.88,2-2.08,3.73-3.61,5.2c-1.53,1.47-3.3,2.59-5.3,3.37
			c-2,0.78-4.14,1.16-6.43,1.16c-2.24,0-4.38-0.39-6.4-1.16c-2.02-0.78-3.8-1.9-5.33-3.37c-1.53-1.47-2.73-3.2-3.61-5.2
			c-0.88-2-1.32-4.18-1.32-6.55c0-2.37,0.44-4.55,1.32-6.55c0.88-2,2.08-3.73,3.61-5.2c1.53-1.47,3.31-2.62,5.33-3.46
			C201.48,133.12,203.61,132.7,205.85,132.7z M205.85,139.92c-1.35,0-2.5,0.26-3.46,0.79c-0.96,0.53-1.74,1.23-2.36,2.11
			c-0.61,0.87-1.06,1.86-1.35,2.96c-0.29,1.1-0.43,2.22-0.43,3.36c0,1.14,0.14,2.26,0.43,3.36c0.29,1.1,0.73,2.09,1.35,2.96
			c0.61,0.87,1.4,1.58,2.36,2.1c0.96,0.53,2.11,0.79,3.46,0.79c1.35,0,2.5-0.26,3.46-0.79c0.96-0.53,1.74-1.23,2.36-2.1
			c0.61-0.87,1.06-1.86,1.35-2.96c0.28-1.1,0.43-2.22,0.43-3.36c0-1.14-0.14-2.26-0.43-3.36c-0.29-1.1-0.73-2.09-1.35-2.96
			c-0.61-0.87-1.4-1.58-2.36-2.11C208.35,140.19,207.2,139.92,205.85,139.92z"/>
		<path d="M256.36,158.05c0.49,0,0.85-0.09,1.07-0.28c0.22-0.18,0.38-0.56,0.46-1.13h0.73v9.86h-0.73
			c-0.08-0.57-0.26-0.92-0.52-1.04c-0.27-0.12-0.7-0.18-1.32-0.18h-27.18c-0.41,0-0.71,0.06-0.92,0.18
			c-0.2,0.12-0.31,0.47-0.31,1.04h-0.73c-0.08-1.8,0.16-3.45,0.73-4.96c0.57-1.51,1.37-2.9,2.39-4.16c1.02-1.26,2.21-2.43,3.58-3.49
			c1.37-1.06,2.79-2.04,4.29-2.94c1.49-0.9,2.99-1.75,4.5-2.57c1.51-0.82,2.94-1.63,4.29-2.45c0.61-0.37,1.06-0.75,1.35-1.16
			c0.28-0.41,0.43-0.96,0.43-1.65c0-0.77-0.34-1.5-1.01-2.17c-0.67-0.67-1.79-1.01-3.34-1.01c-1.43,0-2.77,0.22-4.01,0.67
			c-1.25,0.45-2.34,0.98-3.28,1.59c-0.94,0.61-1.67,1.24-2.2,1.87c-0.53,0.63-0.8,1.15-0.8,1.56c0,0.24,0.08,0.55,0.24,0.92
			l-0.73,0.55l-6.49-9.12l0.67-0.49c0.12,0.12,0.28,0.24,0.46,0.34c0.18,0.1,0.4,0.15,0.64,0.15c0.33,0,0.87-0.28,1.62-0.83
			c0.75-0.55,1.77-1.15,3.03-1.81c1.31-0.69,2.84-1.31,4.59-1.84c1.75-0.53,3.8-0.8,6.12-0.8c1.75,0,3.43,0.27,5.02,0.8
			c1.59,0.53,3,1.25,4.22,2.17c1.23,0.92,2.2,2.02,2.94,3.31c0.73,1.29,1.1,2.7,1.1,4.25c0,1.51-0.32,2.82-0.95,3.92
			c-0.63,1.1-1.46,2.07-2.48,2.91c-1.02,0.84-2.17,1.58-3.46,2.23c-1.29,0.65-2.58,1.28-3.89,1.87c-1.31,0.59-2.55,1.19-3.74,1.81
			c-1.18,0.61-2.18,1.31-3,2.08H256.36z"/>
		<path d="M293.76,158.05c0.49,0,0.85-0.09,1.07-0.28c0.22-0.18,0.38-0.56,0.46-1.13h0.73v9.86h-0.73
			c-0.08-0.57-0.26-0.92-0.52-1.04c-0.27-0.12-0.7-0.18-1.32-0.18h-27.18c-0.41,0-0.71,0.06-0.92,0.18
			c-0.2,0.12-0.31,0.47-0.31,1.04h-0.73c-0.08-1.8,0.16-3.45,0.73-4.96c0.57-1.51,1.37-2.9,2.39-4.16c1.02-1.26,2.21-2.43,3.58-3.49
			c1.37-1.06,2.79-2.04,4.29-2.94c1.49-0.9,2.99-1.75,4.5-2.57c1.51-0.82,2.94-1.63,4.29-2.45c0.61-0.37,1.06-0.75,1.35-1.16
			c0.28-0.41,0.43-0.96,0.43-1.65c0-0.77-0.34-1.5-1.01-2.17c-0.67-0.67-1.79-1.01-3.34-1.01c-1.43,0-2.77,0.22-4.01,0.67
			c-1.25,0.45-2.34,0.98-3.28,1.59c-0.94,0.61-1.67,1.24-2.2,1.87c-0.53,0.63-0.8,1.15-0.8,1.56c0,0.24,0.08,0.55,0.25,0.92
			l-0.73,0.55l-6.49-9.12l0.67-0.49c0.12,0.12,0.28,0.24,0.46,0.34c0.18,0.1,0.4,0.15,0.64,0.15c0.33,0,0.87-0.28,1.62-0.83
			c0.75-0.55,1.76-1.15,3.03-1.81c1.31-0.69,2.84-1.31,4.59-1.84c1.75-0.53,3.79-0.8,6.12-0.8c1.75,0,3.43,0.27,5.02,0.8
			c1.59,0.53,3,1.25,4.22,2.17c1.22,0.92,2.2,2.02,2.94,3.31c0.73,1.29,1.1,2.7,1.1,4.25c0,1.51-0.32,2.82-0.95,3.92
			c-0.63,1.1-1.46,2.07-2.48,2.91c-1.02,0.84-2.17,1.58-3.46,2.23c-1.29,0.65-2.58,1.28-3.89,1.87c-1.31,0.59-2.55,1.19-3.73,1.81
			c-1.18,0.61-2.18,1.31-3,2.08H293.76z"/>
		<path d="M333.8,148.31c0,3.25-2.62,5.88-5.88,5.88s-5.88-2.62-5.88-5.88c0-3.25,2.62-5.88,5.88-5.88
			C331.29,142.44,333.8,145.18,333.8,148.31z"/>
	</g>
</g>
</svg>
