<?xml version="1.0" encoding="utf-8"?>
<!-- Generator: Adobe Illustrator 26.0.2, SVG Export Plug-In . SVG Version: 6.00 Build 0)  -->
<svg version="1.1" id="レイヤー_1" xmlns="http://www.w3.org/2000/svg" xmlns:xlink="http://www.w3.org/1999/xlink" x="0px"
	 y="0px" viewBox="0 0 400.07 400.07" style="enable-background:new 0 0 400.07 400.07;" xml:space="preserve">
<style type="text/css">
	.st0{fill:#F4DB67;}
	.st1{fill:#131313;}
</style>
<g>
	<g>
		<path class="st0" d="M199.85,399.49c-34.8,0-69.21-9.25-99.53-26.75C54.19,346.11,21.19,303.1,7.4,251.65
			c-13.79-51.45-6.71-105.2,19.92-151.33C45.15,69.44,70.9,43.9,101.78,26.46C131.76,9.52,165.8,0.57,200.22,0.57
			c34.8,0,69.21,9.25,99.53,26.75c46.13,26.63,79.13,69.64,92.92,121.09c13.79,51.45,6.71,105.2-19.92,151.33
			c-17.83,30.88-43.58,56.42-74.45,73.86C268.31,390.54,234.27,399.49,199.85,399.49z"/>
		<g>
			<path class="st1" d="M200.23,1.15c34.69,0,69.01,9.22,99.23,26.67c23.25,13.42,43.17,31,59.22,52.23
				c15.5,20.51,26.75,43.56,33.43,68.51c6.68,24.95,8.47,50.53,5.3,76.05c-3.28,26.42-11.75,51.6-25.17,74.85
				c-17.78,30.79-43.45,56.26-74.24,73.65c-29.89,16.88-63.84,25.81-98.16,25.81c-34.7,0-69.01-9.22-99.24-26.67
				c-23.25-13.42-43.17-31-59.22-52.23c-15.5-20.51-26.75-43.56-33.43-68.51c-6.68-24.95-8.47-50.53-5.3-76.05
				c3.28-26.42,11.75-51.6,25.17-74.85c17.78-30.79,43.45-56.26,74.24-73.65C131.95,10.07,165.9,1.15,200.23,1.15L200.23,1.15
				 M200.22,0C131.1,0,63.87,35.87,26.83,100.03c-55.23,95.66-22.45,217.98,73.21,273.21c31.5,18.19,65.88,26.83,99.81,26.83
				c69.12,0,136.35-35.87,173.39-100.03c55.23-95.66,22.45-217.98-73.21-273.21C268.53,8.64,234.15,0,200.22,0L200.22,0z"/>
		</g>
	</g>
	<g>
		<g>
			<polygon class="st1" points="244.34,177.31 237.08,189.9 221.01,191.78 215.67,201.03 242.36,198.61 255.22,176.2 			"/>
			<path class="st1" d="M225.16,182.3"/>
			<polygon class="st1" points="200.38,141.42 240.19,138.66 233.8,130.7 193.81,132.97 172.93,169.14 179.69,177.26 			"/>
			<polygon class="st1" points="212.34,155.91 252.11,152.73 244.73,143.82 204.7,147.1 184.16,182.68 191.49,192.03 			"/>
			<polygon class="st1" points="256.64,158.14 216.84,161.88 196.22,197.6 203.51,206.71 224.32,170.67 263.99,167.1 			"/>
		</g>
		<g>
			
				<rect x="133.77" y="215.92" transform="matrix(0.5 -0.866 0.866 0.5 -116.0039 239.9375)" class="st1" width="32.04" height="9.02"/>
			<polygon class="st1" points="227.02,246.5 198.45,230.01 194.53,236.8 205.11,242.9 192.99,263.88 200.42,268.17 212.53,247.19 
				223.1,253.29 			"/>
			<g>
				<polygon class="st1" points="150.52,239.18 158.47,243.77 165.89,240.6 165.16,233.2 				"/>
				<polygon class="st1" points="195.06,228.11 187.06,223.49 176.21,228.16 174.77,216.35 166.48,211.58 170.59,250.83 
					179.6,256.03 177.11,235.51 				"/>
			</g>
			<polygon class="st1" points="243.71,256.03 243.75,256 243.71,255.98 236.57,251.86 236.54,251.84 236.54,251.89 208.38,272.64 
				216.5,277.32 221.1,273.66 230.68,279.2 231.46,270.6 227.69,268.42 235.92,261.89 233.58,287.19 241.69,291.87 			"/>
			<polygon class="st1" points="99.55,210.07 107.5,214.65 107.53,214.67 119.79,193.43 136.94,203.33 131.42,212.89 116.88,204.49 
				118.02,213.91 134.72,223.55 147.85,200.81 115.63,182.21 			"/>
		</g>
	</g>
	<g>
		<path class="st1" d="M225.02,42.38c-0.04-0.01-0.08-0.01-0.11-0.02c-0.03-0.01-0.07-0.02-0.11-0.02
			c-0.08-0.01-0.28,0.05-0.59,0.17c-0.32,0.12-0.72,0.26-1.2,0.4c-0.48,0.14-1.02,0.25-1.62,0.33c-0.6,0.07-1.22,0.07-1.85,0
			c-0.83-0.1-1.62-0.31-2.36-0.61c-0.74-0.3-1.38-0.72-1.91-1.23c-0.53-0.52-0.93-1.12-1.2-1.83c-0.26-0.7-0.34-1.5-0.23-2.39
			c0.11-0.87,0.37-1.62,0.8-2.25c0.43-0.63,0.96-1.13,1.6-1.51c0.64-0.38,1.36-0.63,2.16-0.76c0.79-0.13,1.61-0.15,2.44-0.04
			c0.68,0.08,1.28,0.21,1.82,0.38c0.54,0.17,1,0.34,1.4,0.51c0.4,0.17,0.71,0.32,0.93,0.46c0.23,0.14,0.36,0.21,0.42,0.21
			c0.07,0.01,0.13-0.02,0.18-0.08c0.06-0.06,0.1-0.11,0.13-0.15l0.27,0.27l-1.84,2.21l-0.18-0.16c0.01-0.04,0.01-0.08,0.01-0.12
			c0-0.04-0.01-0.09-0.01-0.14c-0.01-0.15-0.12-0.31-0.34-0.5c-0.22-0.18-0.5-0.35-0.83-0.51c-0.34-0.16-0.69-0.31-1.08-0.43
			c-0.38-0.13-0.74-0.21-1.07-0.25c-0.56-0.07-1.1-0.05-1.63,0.04c-0.53,0.1-1,0.27-1.41,0.53c-0.41,0.26-0.76,0.6-1.04,1.01
			c-0.28,0.42-0.45,0.91-0.52,1.48s-0.02,1.09,0.15,1.56c0.17,0.47,0.43,0.88,0.77,1.23c0.34,0.35,0.75,0.64,1.25,0.86
			c0.49,0.22,1.01,0.37,1.57,0.43c0.42,0.05,0.87,0.06,1.35,0.01c0.48-0.04,0.91-0.12,1.32-0.22c0.4-0.1,0.74-0.24,1.03-0.4
			c0.28-0.16,0.43-0.33,0.45-0.5c0.01-0.09-0.01-0.18-0.05-0.25l0.3-0.12l1.05,2.26L225.02,42.38z"/>
		<path class="st1" d="M236.74,35.47c0.63,0.13,1.18,0.31,1.66,0.53c0.48,0.22,0.88,0.49,1.2,0.81c0.31,0.32,0.53,0.69,0.64,1.12
			c0.11,0.43,0.11,0.92-0.01,1.48c-0.19,0.86-0.58,1.46-1.19,1.81c-0.61,0.35-1.36,0.51-2.25,0.48l1.8,4.28
			c0.06,0.15,0.15,0.25,0.27,0.3c0.12,0.05,0.23,0.09,0.33,0.11l-0.08,0.35l-3.66-0.79l0.08-0.35c0.12,0.03,0.22,0.03,0.32,0.01
			c0.09-0.02,0.15-0.06,0.16-0.13c0.01-0.06,0-0.15-0.03-0.24c-0.03-0.1-0.09-0.23-0.16-0.39l-1.49-3.51l-2.8-0.6l-0.75,3.48
			c-0.03,0.12,0,0.21,0.07,0.29c0.07,0.08,0.22,0.14,0.44,0.19l-0.08,0.35l-3.38-0.73l0.08-0.35c0.38,0.08,0.59,0,0.64-0.23
			l1.91-8.88c0.05-0.23-0.11-0.39-0.49-0.47l0.08-0.35L236.74,35.47z M235.24,39.94c0.47,0.1,0.87,0.15,1.2,0.15s0.6-0.05,0.81-0.14
			c0.21-0.09,0.37-0.22,0.49-0.38c0.12-0.16,0.2-0.34,0.24-0.55c0.04-0.21,0.05-0.41,0.01-0.6c-0.04-0.19-0.14-0.37-0.29-0.54
			c-0.15-0.17-0.38-0.32-0.68-0.46c-0.3-0.14-0.68-0.26-1.15-0.36l-3.38-0.73l-0.62,2.89L235.24,39.94z"/>
		<path class="st1" d="M253.78,42.44c0.04-0.14,0.02-0.26-0.06-0.37c-0.09-0.1-0.26-0.2-0.53-0.28l-6.19-1.91l-0.73,2.37l3.75,1.16
			c0.25,0.08,0.46,0.1,0.62,0.08c0.16-0.03,0.29-0.19,0.38-0.48l0.34,0.11l-0.92,2.98l-0.34-0.11c0.09-0.29,0.08-0.5-0.04-0.63
			c-0.11-0.13-0.3-0.23-0.55-0.31l-3.75-1.16l-0.82,2.64l6.38,1.97c0.19,0.06,0.36,0.06,0.51,0.01c0.15-0.05,0.25-0.15,0.29-0.31
			l0.34,0.11l-0.81,2.62l-0.34-0.11c0.06-0.19,0.03-0.32-0.08-0.38c-0.11-0.06-0.26-0.12-0.46-0.18l-8.9-2.75l0.11-0.34
			c0.09,0.03,0.18,0.02,0.27-0.01c0.09-0.04,0.15-0.11,0.19-0.23l2.68-8.67c0.03-0.12,0.03-0.21-0.03-0.29
			c-0.05-0.08-0.12-0.13-0.21-0.16l0.11-0.34l8.71,2.69c0.27,0.08,0.47,0.1,0.6,0.05c0.13-0.05,0.22-0.14,0.27-0.28l0.34,0.11
			l-0.78,2.52L253.78,42.44z"/>
		<path class="st1" d="M253.35,50.72c0.17,0.04,0.33,0.01,0.48-0.09c0.15-0.1,0.3-0.22,0.46-0.35l6.34-5.83
			c0.15-0.13,0.29-0.24,0.41-0.35c0.12-0.11,0.2-0.21,0.24-0.31c0.05-0.12,0.04-0.23-0.03-0.31c-0.07-0.08-0.14-0.16-0.23-0.22
			l0.14-0.33l3.13,1.26l-0.13,0.33c-0.1-0.01-0.2-0.01-0.3,0c-0.1,0.01-0.18,0.08-0.24,0.22c-0.04,0.1-0.06,0.21-0.05,0.32
			c0,0.12,0.02,0.27,0.04,0.47l0.81,9.1c0.01,0.16,0.05,0.29,0.13,0.4c0.08,0.1,0.18,0.21,0.29,0.33l-0.14,0.33l-3.26-1.32
			l0.13-0.33c0.05,0.02,0.12,0.03,0.21,0.02c0.09-0.01,0.15-0.05,0.18-0.12c0.05-0.12,0.07-0.3,0.05-0.54l-0.15-1.66l-4.53-1.83
			l-1.2,1.05c-0.23,0.21-0.37,0.37-0.41,0.48c-0.05,0.14,0.03,0.25,0.27,0.35l-0.13,0.33l-2.63-1.06L253.35,50.72z M261.73,50.09
			l-0.17-4.08l-3.13,2.75L261.73,50.09z"/>
		<path class="st1" d="M271.84,58.43c-0.11,0.21-0.03,0.39,0.23,0.52l-0.16,0.32l-2.76-1.38l0.16-0.32
			c0.08,0.04,0.17,0.05,0.26,0.03c0.09-0.02,0.17-0.09,0.22-0.19l3.56-7.12l-2.95-1.47c-0.11-0.05-0.23-0.08-0.36-0.07
			c-0.13,0.01-0.24,0.1-0.32,0.26l-0.32-0.16l1.25-2.5l0.32,0.16c-0.08,0.17-0.09,0.31-0.02,0.42c0.07,0.11,0.16,0.19,0.27,0.25
			l7.94,3.97c0.11,0.05,0.23,0.08,0.36,0.07c0.13-0.01,0.24-0.1,0.32-0.26l0.32,0.16l-1.25,2.5l-0.32-0.16
			c0.08-0.17,0.09-0.31,0.02-0.42c-0.07-0.11-0.16-0.19-0.27-0.25l-2.95-1.47L271.84,58.43z"/>
		<path class="st1" d="M277.43,61.84c0.3,0.17,0.51,0.15,0.63-0.06l4.41-7.94c0.12-0.21,0.02-0.4-0.28-0.57l0.17-0.31l2.9,1.61
			l-0.17,0.31c-0.3-0.17-0.51-0.15-0.63,0.06l-4.41,7.94c-0.12,0.21-0.02,0.4,0.28,0.57l-0.18,0.32l-2.9-1.61L277.43,61.84z"/>
		<path class="st1" d="M297.91,63.09c-0.22-0.15-0.44-0.17-0.64-0.08c-0.21,0.1-0.37,0.18-0.48,0.25l-7.24,4.55
			c-0.25,0.16-0.45,0.28-0.6,0.37c-0.16,0.09-0.25,0.16-0.29,0.22c-0.04,0.06-0.05,0.11-0.05,0.16c0.01,0.05,0.02,0.11,0.04,0.17
			l-0.2,0.3l-2.56-1.68l0.2-0.3c0.13,0.02,0.23-0.02,0.3-0.14c0.04-0.06,0.07-0.2,0.1-0.42c0.03-0.23,0.07-0.51,0.11-0.85l1.3-8.51
			c0.02-0.16,0.01-0.3-0.06-0.42c-0.06-0.12-0.17-0.27-0.32-0.45l0.2-0.3l2.99,1.97l-0.2,0.3c-0.08-0.05-0.17-0.08-0.26-0.09
			c-0.1-0.01-0.18,0.04-0.26,0.15c-0.08,0.12-0.14,0.31-0.17,0.56c-0.03,0.25-0.07,0.56-0.12,0.93l-0.89,6l5.07-3.15
			c0.32-0.2,0.62-0.38,0.89-0.53c0.27-0.15,0.43-0.27,0.49-0.36c0.12-0.18,0.02-0.37-0.29-0.58l0.2-0.3l2.92,1.93L297.91,63.09z"/>
		<path class="st1" d="M306.89,72.34c0.09-0.12,0.11-0.24,0.07-0.36c-0.04-0.13-0.18-0.28-0.4-0.45l-5.09-4l-1.53,1.95l3.08,2.42
			c0.21,0.16,0.39,0.26,0.56,0.3c0.16,0.03,0.34-0.07,0.53-0.31l0.28,0.22l-1.93,2.45l-0.28-0.22c0.19-0.24,0.25-0.44,0.19-0.6
			c-0.06-0.16-0.2-0.32-0.41-0.49l-3.08-2.42L297.17,73l5.25,4.13c0.16,0.12,0.31,0.19,0.47,0.19c0.16,0.01,0.29-0.06,0.38-0.18
			l0.28,0.22l-1.69,2.15l-0.28-0.22c0.12-0.16,0.14-0.29,0.06-0.38c-0.08-0.1-0.2-0.21-0.36-0.33l-7.33-5.76l0.22-0.28
			c0.07,0.06,0.16,0.09,0.25,0.08c0.09,0,0.18-0.05,0.25-0.14l5.61-7.14c0.07-0.09,0.1-0.19,0.08-0.28
			c-0.02-0.09-0.07-0.17-0.14-0.23l0.22-0.28l7.17,5.63c0.22,0.17,0.4,0.26,0.54,0.26c0.14,0,0.26-0.05,0.35-0.17l0.28,0.22
			l-1.63,2.08L306.89,72.34z"/>
		<path class="st1" d="M317.27,92.91c-0.18,0.16-0.16,0.35,0.03,0.57l-0.26,0.24l-2.09-2.26l0.26-0.24
			c0.06,0.07,0.14,0.11,0.24,0.12c0.09,0.01,0.18-0.02,0.27-0.1l5.84-5.41l-2.24-2.42c-0.08-0.09-0.19-0.15-0.31-0.19
			c-0.13-0.04-0.26,0.01-0.39,0.13l-0.24-0.26l2.05-1.9l0.25,0.26c-0.14,0.13-0.19,0.25-0.16,0.38c0.03,0.13,0.08,0.24,0.16,0.32
			l6.04,6.51c0.08,0.09,0.18,0.15,0.31,0.19c0.13,0.04,0.26-0.01,0.39-0.13l0.24,0.26l-2.05,1.9l-0.24-0.26
			c0.14-0.13,0.19-0.25,0.16-0.38s-0.08-0.24-0.16-0.32l-2.24-2.42L317.27,92.91z"/>
		<path class="st1" d="M333.54,97.06c0.39,0.5,0.71,1,0.94,1.47c0.23,0.48,0.36,0.94,0.4,1.39c0.04,0.45-0.04,0.87-0.23,1.27
			c-0.19,0.4-0.51,0.78-0.96,1.13c-0.69,0.54-1.38,0.75-2.07,0.63c-0.69-0.12-1.37-0.48-2.03-1.07l-1.35,4.44
			c-0.05,0.16-0.04,0.29,0.01,0.41c0.06,0.12,0.12,0.22,0.18,0.3l-0.28,0.22l-2.3-2.95l0.28-0.22c0.07,0.09,0.15,0.16,0.24,0.21
			c0.08,0.04,0.15,0.05,0.21,0c0.05-0.04,0.1-0.11,0.13-0.21c0.04-0.09,0.08-0.23,0.13-0.4l1.1-3.65l-1.76-2.25l-2.8,2.19
			c-0.09,0.07-0.14,0.16-0.13,0.27c0.01,0.1,0.08,0.25,0.22,0.43l-0.28,0.22l-2.13-2.73l0.28-0.22c0.24,0.3,0.45,0.38,0.64,0.23
			l7.15-5.59c0.19-0.15,0.16-0.37-0.07-0.68l0.28-0.22L333.54,97.06z M329.53,99.53c0.3,0.38,0.57,0.67,0.83,0.88
			c0.25,0.21,0.49,0.34,0.71,0.41c0.22,0.06,0.43,0.07,0.62,0.03c0.19-0.05,0.37-0.14,0.54-0.27c0.17-0.13,0.3-0.28,0.39-0.46
			c0.09-0.17,0.13-0.37,0.12-0.6c-0.01-0.23-0.09-0.49-0.22-0.79c-0.14-0.3-0.36-0.63-0.65-1.01l-2.13-2.73l-2.33,1.82L329.53,99.53
			z"/>
		<path class="st1" d="M342.17,113.31c0.12-0.08,0.18-0.19,0.18-0.32c0-0.14-0.08-0.32-0.23-0.55l-3.53-5.43l-2.08,1.35l2.14,3.29
			c0.15,0.22,0.29,0.38,0.43,0.46c0.14,0.08,0.34,0.04,0.6-0.13l0.2,0.3l-2.62,1.7l-0.2-0.3c0.26-0.17,0.38-0.34,0.38-0.51
			c-0.01-0.17-0.08-0.37-0.23-0.59l-2.14-3.29l-2.31,1.5l3.64,5.6c0.11,0.17,0.24,0.28,0.38,0.33c0.15,0.06,0.29,0.04,0.42-0.05
			l0.2,0.3l-2.3,1.49l-0.2-0.3c0.17-0.11,0.23-0.22,0.18-0.34c-0.05-0.12-0.12-0.26-0.23-0.43l-5.08-7.81l0.3-0.2
			c0.05,0.08,0.12,0.13,0.21,0.16c0.09,0.03,0.19,0.01,0.29-0.05l7.61-4.95c0.1-0.07,0.16-0.15,0.17-0.24
			c0.01-0.09-0.01-0.18-0.06-0.26l0.3-0.2l4.97,7.65c0.15,0.23,0.3,0.38,0.43,0.42c0.13,0.05,0.26,0.03,0.39-0.05l0.2,0.3
			l-2.21,1.44L342.17,113.31z"/>
		<path class="st1" d="M337.24,120.61c0.12,0.22,0.28,0.28,0.5,0.17l8.03-4.24c0.21-0.11,0.26-0.28,0.14-0.5l0.32-0.17l1.6,3.02
			l-0.32,0.17c-0.05-0.09-0.13-0.11-0.25-0.05c-0.09,0.05-0.2,0.25-0.31,0.61l-2.59,7.86l5.62-2.97c0.21-0.11,0.24-0.32,0.08-0.63
			l0.32-0.17l1.41,2.67l-0.32,0.17c-0.12-0.22-0.28-0.28-0.5-0.17l-8.03,4.24c-0.21,0.11-0.26,0.28-0.14,0.5l-0.32,0.17l-1.51-2.87
			l0.32-0.17c0.08,0.15,0.17,0.2,0.28,0.15c0.08-0.04,0.17-0.21,0.26-0.5l2.77-8.36l-5.87,3.1c-0.21,0.11-0.25,0.3-0.1,0.57
			l-0.32,0.17l-1.38-2.62L337.24,120.61z"/>
		<path class="st1" d="M356.06,136.24c0.28,0.68,0.44,1.35,0.49,2.02c0.05,0.67-0.04,1.3-0.26,1.9s-0.59,1.14-1.09,1.64
			c-0.51,0.5-1.17,0.92-2,1.26c-0.83,0.34-1.59,0.52-2.31,0.52c-0.71,0.01-1.36-0.12-1.94-0.39c-0.58-0.26-1.09-0.65-1.53-1.15
			c-0.44-0.5-0.8-1.09-1.08-1.77l-2.54-6.13l0.33-0.14c0.12,0.28,0.29,0.38,0.51,0.29l8.39-3.47c0.22-0.09,0.27-0.28,0.16-0.56
			l0.33-0.14L356.06,136.24z M347.63,138.87c0.24,0.58,0.5,1.06,0.78,1.45c0.28,0.39,0.6,0.67,0.97,0.85
			c0.37,0.18,0.79,0.25,1.27,0.22c0.48-0.03,1.04-0.18,1.68-0.45c0.64-0.26,1.14-0.56,1.5-0.87c0.36-0.31,0.61-0.67,0.74-1.05
			c0.13-0.39,0.16-0.82,0.08-1.29c-0.08-0.47-0.24-1-0.48-1.58l-1.19-2.86l-6.54,2.71L347.63,138.87z"/>
		<path class="st1" d="M353.31,162.32l-0.06-0.23c0.14-0.04,0.2-0.12,0.18-0.25c-0.02-0.13-0.05-0.26-0.09-0.4l-2.26-8.11
			c-0.04-0.14-0.08-0.25-0.12-0.34c-0.04-0.08-0.12-0.11-0.24-0.08l-0.06-0.23l0.69-0.19c0.68-0.19,1.31-0.18,1.9,0.02
			c0.58,0.2,1.13,0.51,1.65,0.92c0.52,0.41,1,0.87,1.44,1.38c0.45,0.51,0.88,0.99,1.3,1.42c0.42,0.44,0.82,0.78,1.21,1.04
			c0.39,0.26,0.78,0.33,1.18,0.22c0.27-0.07,0.47-0.2,0.61-0.37c0.14-0.17,0.24-0.37,0.29-0.59c0.06-0.22,0.07-0.46,0.04-0.7
			c-0.03-0.24-0.07-0.47-0.13-0.69c-0.06-0.22-0.17-0.48-0.34-0.78c-0.17-0.3-0.37-0.58-0.6-0.83c-0.24-0.25-0.49-0.46-0.76-0.61
			c-0.27-0.15-0.54-0.19-0.81-0.12c-0.06,0.02-0.14,0.06-0.24,0.12c-0.09,0.06-0.15,0.12-0.18,0.18l-0.19-0.15l1.57-2.58l0.19,0.16
			c-0.01,0.06-0.02,0.12-0.03,0.18c-0.01,0.06-0.01,0.12,0.01,0.18c0.02,0.08,0.16,0.19,0.41,0.34c0.25,0.15,0.54,0.38,0.87,0.67
			c0.33,0.3,0.67,0.69,1.01,1.17c0.34,0.49,0.62,1.1,0.83,1.85c0.14,0.49,0.21,0.98,0.23,1.48c0.02,0.5-0.05,0.97-0.2,1.41
			c-0.15,0.44-0.39,0.82-0.72,1.15s-0.78,0.58-1.34,0.74c-0.6,0.17-1.14,0.19-1.6,0.07c-0.46-0.12-0.88-0.33-1.27-0.63
			c-0.38-0.3-0.74-0.66-1.06-1.09c-0.32-0.42-0.65-0.85-0.97-1.3c-0.32-0.44-0.65-0.86-0.99-1.26c-0.33-0.4-0.71-0.73-1.12-0.98
			l-0.19,0.05l1.77,6.36c0.04,0.14,0.1,0.27,0.19,0.37c0.08,0.11,0.26,0.13,0.51,0.05l0.06,0.23L353.31,162.32z"/>
		<path class="st1" d="M365.49,167.23c0.15,0.76,0.16,1.49,0.03,2.21c-0.13,0.71-0.38,1.36-0.76,1.94
			c-0.37,0.58-0.85,1.08-1.44,1.49c-0.58,0.41-1.26,0.69-2.03,0.84s-1.51,0.15-2.2,0c-0.7-0.15-1.33-0.43-1.89-0.83
			c-0.56-0.4-1.03-0.9-1.41-1.51c-0.38-0.61-0.64-1.3-0.8-2.05s-0.17-1.49-0.05-2.2c0.12-0.71,0.36-1.36,0.73-1.94
			c0.37-0.58,0.84-1.08,1.43-1.49c0.59-0.41,1.26-0.69,2.04-0.84c0.77-0.15,1.51-0.15,2.2,0c0.7,0.15,1.33,0.43,1.9,0.83
			c0.57,0.4,1.05,0.9,1.44,1.51C365.06,165.78,365.34,166.47,365.49,167.23z M363.8,167.56c-0.09-0.46-0.27-0.86-0.53-1.22
			c-0.26-0.36-0.58-0.64-0.96-0.86c-0.38-0.22-0.8-0.36-1.27-0.44c-0.47-0.08-0.96-0.06-1.47,0.04c-0.51,0.1-0.97,0.28-1.37,0.53
			c-0.41,0.25-0.74,0.55-1.01,0.89c-0.26,0.35-0.45,0.73-0.55,1.16c-0.11,0.43-0.11,0.87-0.02,1.33c0.09,0.46,0.27,0.86,0.53,1.22
			c0.26,0.36,0.58,0.64,0.96,0.86c0.38,0.22,0.8,0.36,1.27,0.44c0.47,0.08,0.96,0.06,1.47-0.04c0.51-0.1,0.97-0.28,1.37-0.53
			c0.41-0.25,0.74-0.55,1.01-0.89c0.26-0.35,0.45-0.73,0.55-1.16C363.88,168.46,363.89,168.02,363.8,167.56z"/>
		<path class="st1" d="M357.27,186.1l-0.03-0.24c0.15-0.02,0.22-0.09,0.22-0.22c0-0.13-0.01-0.26-0.03-0.41l-1.01-8.36
			c-0.02-0.15-0.04-0.26-0.07-0.35c-0.03-0.09-0.11-0.13-0.23-0.11l-0.03-0.24l0.72-0.09c0.7-0.08,1.33,0.02,1.87,0.31
			c0.55,0.29,1.04,0.68,1.49,1.16c0.45,0.48,0.85,1.01,1.22,1.59c0.36,0.57,0.72,1.11,1.07,1.6c0.35,0.5,0.7,0.9,1.04,1.21
			c0.35,0.31,0.72,0.45,1.14,0.4c0.28-0.03,0.5-0.12,0.66-0.27c0.16-0.15,0.29-0.33,0.38-0.54c0.09-0.21,0.14-0.44,0.15-0.68
			c0.01-0.24,0-0.48-0.02-0.7c-0.03-0.23-0.1-0.5-0.22-0.82c-0.12-0.32-0.28-0.62-0.47-0.91c-0.2-0.29-0.42-0.52-0.66-0.72
			c-0.25-0.19-0.51-0.27-0.78-0.24c-0.07,0.01-0.15,0.03-0.25,0.08c-0.1,0.05-0.17,0.1-0.2,0.16l-0.16-0.18l1.94-2.31l0.16,0.18
			c-0.02,0.06-0.04,0.11-0.06,0.17c-0.02,0.06-0.03,0.12-0.02,0.18c0.01,0.08,0.13,0.21,0.35,0.4c0.22,0.19,0.48,0.45,0.76,0.79
			c0.28,0.34,0.56,0.78,0.82,1.31c0.27,0.53,0.44,1.18,0.54,1.95c0.06,0.5,0.06,1,0,1.5c-0.06,0.5-0.2,0.95-0.41,1.36
			c-0.21,0.41-0.51,0.75-0.88,1.03c-0.38,0.28-0.86,0.46-1.44,0.53c-0.62,0.07-1.15,0.02-1.59-0.17c-0.44-0.19-0.82-0.46-1.16-0.82
			c-0.33-0.36-0.63-0.77-0.88-1.23s-0.51-0.94-0.77-1.43c-0.25-0.49-0.51-0.95-0.78-1.4c-0.27-0.44-0.59-0.83-0.96-1.14l-0.2,0.02
			l0.79,6.55c0.02,0.15,0.06,0.28,0.13,0.4c0.07,0.12,0.23,0.16,0.5,0.13l0.03,0.24L357.27,186.1z"/>
		<path class="st1" d="M357.89,198.13l-0.01-0.24c0.15-0.01,0.22-0.07,0.23-0.2c0.01-0.13,0.01-0.26,0-0.41l-0.37-8.41
			c-0.01-0.15-0.02-0.27-0.05-0.36c-0.02-0.09-0.1-0.14-0.22-0.13l-0.01-0.24l0.72-0.03c0.71-0.03,1.32,0.12,1.84,0.45
			c0.52,0.33,0.99,0.75,1.4,1.27c0.41,0.52,0.77,1.07,1.09,1.67c0.32,0.6,0.63,1.16,0.94,1.68c0.31,0.52,0.63,0.95,0.95,1.29
			c0.32,0.34,0.69,0.5,1.1,0.48c0.28-0.01,0.51-0.09,0.68-0.22c0.17-0.13,0.31-0.3,0.42-0.51c0.1-0.2,0.17-0.43,0.2-0.67
			c0.03-0.24,0.04-0.48,0.03-0.7c-0.01-0.23-0.06-0.51-0.16-0.83c-0.09-0.33-0.23-0.64-0.4-0.94c-0.17-0.3-0.37-0.55-0.6-0.76
			c-0.23-0.21-0.48-0.31-0.76-0.3c-0.07,0-0.15,0.02-0.26,0.06c-0.11,0.04-0.18,0.08-0.21,0.14l-0.15-0.19l2.11-2.15l0.15,0.19
			c-0.02,0.05-0.05,0.11-0.07,0.16c-0.02,0.05-0.04,0.11-0.03,0.18c0,0.08,0.11,0.22,0.32,0.43c0.21,0.2,0.44,0.49,0.7,0.85
			c0.26,0.36,0.5,0.82,0.72,1.37c0.22,0.55,0.35,1.21,0.39,1.98c0.02,0.51-0.02,1-0.12,1.5c-0.1,0.49-0.27,0.93-0.51,1.32
			c-0.24,0.39-0.56,0.71-0.96,0.96c-0.4,0.25-0.89,0.39-1.47,0.41c-0.63,0.03-1.15-0.07-1.57-0.29c-0.42-0.22-0.79-0.52-1.09-0.9
			c-0.3-0.38-0.57-0.81-0.79-1.3c-0.22-0.48-0.44-0.98-0.66-1.48s-0.44-0.99-0.67-1.45c-0.23-0.46-0.53-0.87-0.87-1.21l-0.2,0.01
			l0.29,6.59c0.01,0.15,0.04,0.28,0.1,0.41c0.06,0.12,0.22,0.18,0.49,0.17l0.01,0.24L357.89,198.13z"/>
		<path class="st1" d="M363.42,207.86c-1.14-0.04-2.03-0.99-1.99-2.13c0.04-1.14,0.99-2.03,2.13-1.99c1.14,0.04,2.03,0.99,1.99,2.13
			C365.51,207.05,364.52,207.9,363.42,207.86z"/>
		<path class="st1" d="M357.72,224.73c0-0.04,0.01-0.08,0.02-0.11c0.01-0.03,0.02-0.07,0.02-0.11c0.01-0.08-0.05-0.28-0.17-0.59
			c-0.12-0.32-0.26-0.72-0.4-1.2c-0.14-0.48-0.25-1.02-0.33-1.62c-0.08-0.6-0.07-1.22,0-1.85c0.1-0.83,0.3-1.62,0.61-2.36
			c0.3-0.74,0.71-1.38,1.23-1.92c0.51-0.54,1.12-0.94,1.83-1.2c0.7-0.26,1.5-0.34,2.39-0.24c0.87,0.11,1.62,0.37,2.25,0.79
			c0.63,0.42,1.13,0.96,1.51,1.6c0.38,0.64,0.63,1.36,0.77,2.16c0.13,0.79,0.15,1.61,0.05,2.44c-0.08,0.67-0.21,1.28-0.38,1.82
			c-0.17,0.54-0.34,1-0.51,1.4c-0.17,0.4-0.32,0.71-0.45,0.93c-0.13,0.23-0.21,0.36-0.21,0.42c-0.01,0.07,0.02,0.13,0.08,0.18
			c0.06,0.05,0.11,0.1,0.15,0.13l-0.27,0.27l-2.22-1.84l0.16-0.18c0.04,0.01,0.08,0.01,0.12,0s0.09-0.01,0.14-0.01
			c0.15-0.01,0.31-0.12,0.49-0.34c0.18-0.22,0.35-0.5,0.51-0.83c0.16-0.34,0.3-0.7,0.43-1.08c0.13-0.38,0.21-0.74,0.25-1.07
			c0.07-0.56,0.05-1.1-0.05-1.63c-0.1-0.53-0.28-1-0.53-1.41c-0.26-0.41-0.6-0.76-1.01-1.04c-0.42-0.28-0.91-0.45-1.48-0.52
			c-0.57-0.07-1.09-0.02-1.56,0.15c-0.47,0.17-0.88,0.43-1.23,0.77c-0.35,0.34-0.64,0.76-0.86,1.25c-0.22,0.49-0.36,1.01-0.43,1.57
			c-0.05,0.42-0.05,0.87-0.01,1.35c0.04,0.48,0.12,0.91,0.22,1.32s0.24,0.74,0.4,1.03c0.16,0.28,0.33,0.43,0.5,0.45
			c0.09,0.01,0.17-0.01,0.25-0.05l0.12,0.3l-2.26,1.06L357.72,224.73z"/>
		<path class="st1" d="M364.65,236.44c-0.13,0.63-0.31,1.18-0.53,1.67c-0.22,0.48-0.49,0.88-0.81,1.2
			c-0.32,0.31-0.69,0.53-1.12,0.64c-0.43,0.11-0.92,0.11-1.48-0.01c-0.86-0.18-1.46-0.58-1.81-1.19c-0.35-0.61-0.51-1.36-0.48-2.25
			l-4.27,1.81c-0.15,0.06-0.25,0.15-0.3,0.27c-0.05,0.12-0.09,0.23-0.11,0.33l-0.35-0.08l0.78-3.66l0.35,0.08
			c-0.02,0.12-0.03,0.22-0.01,0.32c0.02,0.09,0.06,0.15,0.13,0.16c0.07,0.01,0.15,0,0.24-0.03c0.1-0.03,0.23-0.09,0.39-0.16
			l3.51-1.5l0.6-2.8l-3.48-0.74c-0.12-0.03-0.21,0-0.29,0.07c-0.08,0.07-0.14,0.22-0.19,0.44l-0.35-0.08l0.72-3.38l0.35,0.07
			c-0.08,0.38,0,0.59,0.23,0.64l8.88,1.9c0.23,0.05,0.39-0.11,0.47-0.49l0.35,0.08L364.65,236.44z M360.18,234.95
			c-0.1,0.47-0.15,0.87-0.14,1.2c0,0.33,0.05,0.6,0.14,0.81c0.09,0.21,0.22,0.37,0.38,0.49c0.16,0.12,0.34,0.2,0.55,0.24
			c0.21,0.04,0.41,0.05,0.6,0.01c0.19-0.04,0.37-0.14,0.54-0.29c0.17-0.15,0.32-0.38,0.46-0.68c0.14-0.3,0.26-0.68,0.36-1.15
			l0.72-3.38l-2.89-0.62L360.18,234.95z"/>
		<path class="st1" d="M357.71,253.49c0.14,0.04,0.26,0.02,0.37-0.07c0.1-0.09,0.2-0.26,0.28-0.53l1.9-6.19l-2.37-0.73l-1.15,3.75
			c-0.08,0.25-0.1,0.46-0.08,0.62c0.03,0.16,0.19,0.29,0.48,0.38l-0.11,0.34l-2.98-0.92l0.11-0.34c0.29,0.09,0.5,0.08,0.63-0.04
			c0.13-0.11,0.23-0.3,0.31-0.55l1.15-3.75l-2.64-0.81l-1.96,6.39c-0.06,0.19-0.06,0.36-0.01,0.51c0.05,0.15,0.15,0.25,0.31,0.29
			l-0.11,0.34l-2.62-0.8l0.11-0.34c0.19,0.06,0.32,0.03,0.38-0.08c0.06-0.11,0.12-0.27,0.18-0.46l2.74-8.91l0.34,0.11
			c-0.03,0.09-0.02,0.18,0.01,0.27c0.04,0.09,0.11,0.15,0.23,0.18l8.68,2.67c0.11,0.03,0.21,0.03,0.29-0.03
			c0.08-0.05,0.13-0.12,0.16-0.21l0.34,0.11l-2.68,8.72c-0.08,0.27-0.1,0.47-0.05,0.6c0.05,0.13,0.14,0.22,0.29,0.27l-0.11,0.34
			l-2.52-0.78L357.71,253.49z"/>
		<path class="st1" d="M349.43,253.07c-0.04,0.17-0.01,0.33,0.09,0.48c0.1,0.15,0.22,0.3,0.36,0.46l5.84,6.33
			c0.13,0.15,0.24,0.29,0.35,0.41c0.11,0.12,0.21,0.2,0.31,0.24c0.12,0.05,0.23,0.04,0.31-0.03c0.08-0.07,0.16-0.14,0.22-0.23
			l0.33,0.13l-1.26,3.14l-0.33-0.13c0.01-0.1,0.01-0.2,0-0.3c-0.01-0.1-0.08-0.18-0.22-0.24c-0.1-0.04-0.21-0.06-0.32-0.05
			c-0.12,0-0.27,0.02-0.47,0.04l-9.1,0.83c-0.16,0.01-0.29,0.05-0.4,0.13c-0.1,0.08-0.21,0.18-0.33,0.29l-0.33-0.13l1.31-3.27
			l0.33,0.13c-0.02,0.05-0.03,0.12-0.02,0.21c0.01,0.09,0.05,0.15,0.12,0.18c0.12,0.05,0.31,0.07,0.54,0.05l1.66-0.15l1.82-4.53
			l-1.05-1.2c-0.21-0.23-0.37-0.36-0.48-0.41c-0.14-0.05-0.25,0.04-0.35,0.27l-0.33-0.13l1.06-2.64L349.43,253.07z M350.08,261.45
			l4.08-0.17l-2.75-3.13L350.08,261.45z"/>
		<path class="st1" d="M341.74,271.6c-0.21-0.11-0.39-0.03-0.52,0.23l-0.32-0.16l1.37-2.76l0.32,0.16
			c-0.04,0.08-0.05,0.17-0.03,0.26s0.09,0.17,0.19,0.22l7.13,3.54l1.47-2.95c0.05-0.11,0.08-0.23,0.07-0.36
			c-0.01-0.13-0.1-0.24-0.26-0.32l0.16-0.32l2.51,1.25l-0.16,0.32c-0.17-0.08-0.31-0.09-0.42-0.02c-0.11,0.07-0.19,0.16-0.25,0.27
			l-3.95,7.95c-0.05,0.11-0.08,0.23-0.07,0.36c0.01,0.13,0.1,0.24,0.26,0.32l-0.16,0.32l-2.51-1.25l0.16-0.32
			c0.17,0.08,0.31,0.09,0.42,0.02c0.11-0.07,0.19-0.16,0.25-0.27l1.47-2.95L341.74,271.6z"/>
		<path class="st1" d="M338.35,277.17c-0.17,0.3-0.15,0.51,0.06,0.63l7.94,4.41c0.21,0.12,0.4,0.02,0.57-0.28l0.31,0.17l-1.61,2.9
			l-0.31-0.17c0.17-0.3,0.15-0.51-0.06-0.63l-7.94-4.41c-0.21-0.12-0.4-0.02-0.57,0.28l-0.32-0.18l1.61-2.9L338.35,277.17z"/>
		<path class="st1" d="M337.12,297.68c0.15-0.22,0.17-0.44,0.08-0.64c-0.1-0.21-0.18-0.36-0.25-0.47l-4.56-7.23
			c-0.16-0.25-0.28-0.45-0.37-0.6c-0.09-0.15-0.16-0.25-0.22-0.29c-0.06-0.04-0.11-0.05-0.16-0.05c-0.05,0.01-0.11,0.02-0.17,0.04
			l-0.3-0.2l1.68-2.56l0.3,0.2c-0.02,0.13,0.02,0.23,0.14,0.3c0.06,0.04,0.2,0.07,0.42,0.1s0.51,0.07,0.85,0.11l8.51,1.28
			c0.16,0.02,0.3,0.01,0.42-0.06c0.12-0.06,0.27-0.17,0.45-0.33l0.3,0.2l-1.97,2.99l-0.3-0.2c0.05-0.08,0.08-0.17,0.09-0.26
			c0.01-0.1-0.04-0.18-0.15-0.26c-0.12-0.08-0.31-0.14-0.56-0.16c-0.25-0.03-0.56-0.07-0.93-0.12l-6-0.88l3.16,5.07
			c0.2,0.32,0.38,0.62,0.53,0.89c0.15,0.27,0.27,0.43,0.36,0.49c0.18,0.12,0.37,0.02,0.57-0.29l0.3,0.2l-1.92,2.93L337.12,297.68z"
			/>
		<path class="st1" d="M327.9,306.65c0.12,0.09,0.24,0.11,0.36,0.07c0.13-0.04,0.28-0.18,0.45-0.4l3.99-5.1l-1.95-1.53l-2.42,3.09
			c-0.16,0.21-0.26,0.4-0.3,0.56c-0.03,0.16,0.07,0.34,0.31,0.52l-0.22,0.28l-2.46-1.92l0.22-0.28c0.24,0.19,0.44,0.25,0.6,0.19
			c0.16-0.06,0.32-0.2,0.48-0.41l2.42-3.09l-2.17-1.7l-4.12,5.26c-0.12,0.16-0.19,0.31-0.19,0.47c0,0.16,0.06,0.29,0.18,0.38
			l-0.22,0.28l-2.16-1.69l0.22-0.28c0.16,0.12,0.29,0.14,0.38,0.06c0.1-0.08,0.21-0.2,0.33-0.36l5.74-7.34l0.28,0.22
			c-0.06,0.07-0.08,0.16-0.08,0.25c0,0.09,0.05,0.18,0.14,0.25l7.15,5.6c0.09,0.07,0.19,0.1,0.28,0.08
			c0.09-0.02,0.17-0.07,0.22-0.14l0.28,0.22l-5.62,7.18c-0.17,0.22-0.26,0.4-0.26,0.54c0,0.14,0.06,0.26,0.17,0.35l-0.22,0.28
			l-2.08-1.63L327.9,306.65z"/>
		<path class="st1" d="M307.37,317.06c-0.16-0.18-0.35-0.16-0.57,0.04l-0.24-0.26l2.25-2.1l0.25,0.26
			c-0.07,0.06-0.11,0.14-0.12,0.24c-0.01,0.09,0.02,0.19,0.1,0.27l5.42,5.82l2.42-2.25c0.09-0.08,0.15-0.19,0.19-0.31
			c0.04-0.13-0.01-0.26-0.13-0.39l0.26-0.24l1.91,2.05l-0.26,0.25c-0.13-0.14-0.25-0.19-0.38-0.16c-0.13,0.03-0.24,0.08-0.32,0.17
			l-6.5,6.05c-0.09,0.08-0.15,0.19-0.19,0.31c-0.04,0.13,0.01,0.26,0.13,0.39l-0.26,0.25l-1.91-2.05l0.26-0.25
			c0.13,0.14,0.25,0.19,0.38,0.16c0.13-0.03,0.24-0.08,0.32-0.16l2.42-2.25L307.37,317.06z"/>
		<path class="st1" d="M303.22,333.36c-0.5,0.4-0.99,0.71-1.47,0.94c-0.48,0.23-0.94,0.37-1.39,0.4c-0.45,0.04-0.87-0.04-1.27-0.22
			c-0.4-0.19-0.78-0.5-1.13-0.96c-0.54-0.69-0.75-1.38-0.63-2.07c0.12-0.69,0.48-1.37,1.07-2.04l-4.44-1.35
			c-0.16-0.05-0.29-0.04-0.41,0.01c-0.12,0.06-0.21,0.12-0.3,0.18l-0.22-0.28l2.94-2.31l0.22,0.28c-0.09,0.07-0.16,0.15-0.21,0.24
			c-0.04,0.08-0.04,0.15,0,0.21c0.04,0.05,0.11,0.1,0.2,0.13c0.1,0.04,0.23,0.08,0.4,0.13l3.66,1.1l2.25-1.77l-2.2-2.8
			c-0.07-0.09-0.16-0.14-0.27-0.13c-0.1,0.01-0.25,0.08-0.43,0.22l-0.22-0.28l2.72-2.14l0.22,0.28c-0.3,0.24-0.38,0.45-0.23,0.64
			l5.61,7.14c0.15,0.19,0.37,0.16,0.68-0.08l0.22,0.28L303.22,333.36z M300.74,329.36c-0.38,0.3-0.67,0.57-0.88,0.83
			c-0.21,0.26-0.34,0.49-0.41,0.71c-0.06,0.22-0.07,0.43-0.02,0.62c0.05,0.19,0.14,0.37,0.27,0.54c0.13,0.17,0.28,0.3,0.46,0.39
			c0.17,0.09,0.38,0.13,0.6,0.12c0.23-0.01,0.49-0.09,0.79-0.23c0.3-0.14,0.63-0.36,1.01-0.66l2.72-2.14l-1.83-2.33L300.74,329.36z"
			/>
		<path class="st1" d="M286.98,342.02c0.08,0.12,0.19,0.18,0.32,0.18c0.14,0,0.32-0.08,0.55-0.23l5.43-3.54l-1.36-2.08l-3.28,2.14
			c-0.22,0.15-0.38,0.29-0.46,0.43s-0.04,0.34,0.13,0.6l-0.3,0.2l-1.71-2.61l0.3-0.2c0.17,0.26,0.34,0.38,0.51,0.37
			c0.17-0.01,0.37-0.08,0.59-0.23l3.28-2.14l-1.51-2.31l-5.59,3.65c-0.17,0.11-0.28,0.24-0.33,0.38c-0.05,0.15-0.04,0.29,0.05,0.42
			l-0.3,0.2l-1.5-2.29l0.3-0.2c0.11,0.17,0.23,0.23,0.35,0.18c0.12-0.05,0.26-0.12,0.43-0.23l7.8-5.1l0.2,0.3
			c-0.08,0.05-0.13,0.12-0.16,0.21c-0.03,0.09-0.01,0.19,0.06,0.29l4.96,7.6c0.06,0.1,0.15,0.16,0.24,0.17
			c0.09,0.01,0.18-0.01,0.26-0.06l0.2,0.3l-7.64,4.99c-0.23,0.15-0.38,0.3-0.42,0.43s-0.03,0.26,0.05,0.39l-0.3,0.2l-1.44-2.21
			L286.98,342.02z"/>
		<path class="st1" d="M279.7,337.09c-0.22,0.12-0.28,0.29-0.17,0.5l4.26,8.02c0.11,0.21,0.28,0.26,0.5,0.14l0.17,0.32l-3.02,1.6
			l-0.17-0.32c0.09-0.05,0.11-0.13,0.05-0.25c-0.05-0.1-0.26-0.2-0.62-0.31l-7.86-2.57l2.98,5.62c0.11,0.21,0.32,0.24,0.63,0.07
			l0.17,0.32l-2.67,1.42l-0.17-0.32c0.22-0.12,0.28-0.29,0.17-0.5l-4.26-8.02c-0.11-0.21-0.28-0.26-0.5-0.14l-0.17-0.32l2.86-1.52
			l0.17,0.32c-0.15,0.08-0.2,0.17-0.15,0.28c0.04,0.08,0.21,0.17,0.5,0.26l8.37,2.76l-3.11-5.86c-0.11-0.21-0.3-0.25-0.58-0.1
			l-0.17-0.32l2.61-1.39L279.7,337.09z"/>
		<path class="st1" d="M264.07,355.96c-0.68,0.28-1.35,0.44-2.02,0.49c-0.67,0.05-1.3-0.04-1.9-0.26s-1.15-0.58-1.65-1.09
			c-0.5-0.51-0.92-1.17-1.26-2c-0.34-0.83-0.52-1.59-0.53-2.31c-0.01-0.71,0.12-1.36,0.39-1.94c0.26-0.58,0.65-1.09,1.15-1.53
			c0.5-0.44,1.09-0.8,1.77-1.08l6.13-2.55l0.14,0.33c-0.28,0.12-0.38,0.29-0.29,0.51l3.49,8.38c0.09,0.22,0.28,0.27,0.56,0.16
			l0.14,0.33L264.07,355.96z M261.43,347.53c-0.58,0.24-1.06,0.5-1.45,0.78c-0.39,0.28-0.67,0.6-0.85,0.97
			c-0.18,0.37-0.25,0.79-0.22,1.27c0.03,0.48,0.18,1.04,0.45,1.68s0.56,1.14,0.87,1.5c0.32,0.36,0.67,0.61,1.06,0.74
			c0.39,0.13,0.82,0.16,1.29,0.08s1-0.24,1.58-0.48l2.86-1.19l-2.72-6.54L261.43,347.53z"/>
		<path class="st1" d="M238.02,353.24l0.23-0.06c0.04,0.14,0.12,0.2,0.25,0.18c0.13-0.02,0.26-0.05,0.4-0.09l8.11-2.28
			c0.14-0.04,0.25-0.08,0.34-0.13c0.08-0.04,0.11-0.12,0.08-0.24l0.23-0.06l0.2,0.69c0.19,0.68,0.19,1.31-0.02,1.9
			c-0.2,0.58-0.51,1.13-0.92,1.65c-0.41,0.52-0.87,1-1.38,1.45c-0.51,0.45-0.98,0.88-1.42,1.3c-0.44,0.42-0.78,0.83-1.04,1.22
			s-0.33,0.79-0.22,1.18c0.08,0.27,0.2,0.47,0.37,0.61c0.17,0.14,0.37,0.24,0.59,0.29c0.22,0.05,0.46,0.07,0.7,0.04
			c0.24-0.03,0.47-0.07,0.69-0.13c0.22-0.06,0.48-0.18,0.78-0.34c0.3-0.17,0.58-0.37,0.83-0.61c0.25-0.24,0.45-0.49,0.61-0.76
			c0.15-0.27,0.19-0.54,0.11-0.81c-0.02-0.06-0.06-0.14-0.12-0.24c-0.06-0.09-0.12-0.15-0.18-0.18l0.15-0.19l2.58,1.56l-0.16,0.19
			c-0.06-0.01-0.12-0.02-0.18-0.03c-0.06-0.01-0.12-0.01-0.18,0.01c-0.08,0.02-0.19,0.16-0.34,0.41c-0.15,0.25-0.37,0.54-0.67,0.87
			c-0.29,0.33-0.68,0.67-1.17,1.01c-0.49,0.34-1.1,0.62-1.84,0.83c-0.49,0.14-0.98,0.21-1.48,0.23c-0.5,0.02-0.97-0.05-1.41-0.2
			c-0.44-0.15-0.82-0.39-1.16-0.71c-0.33-0.33-0.58-0.77-0.74-1.34c-0.17-0.6-0.19-1.14-0.07-1.6c0.12-0.46,0.33-0.89,0.63-1.27
			c0.3-0.38,0.66-0.74,1.08-1.06c0.42-0.33,0.85-0.65,1.29-0.98c0.44-0.33,0.86-0.65,1.26-0.99c0.4-0.33,0.73-0.71,0.98-1.13
			l-0.05-0.19l-6.35,1.78c-0.14,0.04-0.27,0.1-0.37,0.19c-0.11,0.09-0.13,0.26-0.05,0.51l-0.23,0.06L238.02,353.24z"/>
		<path class="st1" d="M233.11,365.44c-0.76,0.15-1.49,0.16-2.21,0.03s-1.36-0.38-1.95-0.75s-1.08-0.85-1.49-1.43
			c-0.41-0.58-0.69-1.26-0.85-2.03c-0.15-0.77-0.16-1.51,0-2.2c0.15-0.7,0.43-1.33,0.82-1.89c0.4-0.56,0.9-1.03,1.51-1.41
			c0.61-0.38,1.29-0.65,2.05-0.8c0.76-0.15,1.49-0.17,2.2-0.05c0.71,0.11,1.36,0.36,1.94,0.72c0.58,0.37,1.08,0.84,1.49,1.42
			c0.41,0.58,0.69,1.26,0.85,2.03c0.15,0.77,0.16,1.51,0,2.2c-0.15,0.7-0.43,1.33-0.82,1.9c-0.4,0.57-0.9,1.05-1.51,1.44
			C234.55,365.01,233.87,365.29,233.11,365.44z M232.77,363.75c0.46-0.09,0.86-0.27,1.22-0.53c0.36-0.26,0.64-0.58,0.86-0.96
			c0.22-0.38,0.36-0.8,0.44-1.27c0.08-0.47,0.06-0.96-0.04-1.47c-0.1-0.51-0.28-0.97-0.53-1.37c-0.25-0.41-0.55-0.74-0.89-1
			c-0.35-0.26-0.73-0.45-1.16-0.55c-0.43-0.1-0.87-0.11-1.33-0.02c-0.46,0.09-0.86,0.27-1.22,0.53s-0.64,0.58-0.86,0.96
			c-0.22,0.38-0.36,0.8-0.44,1.27c-0.08,0.47-0.06,0.96,0.04,1.47c0.1,0.51,0.28,0.97,0.53,1.37c0.25,0.4,0.55,0.74,0.89,1
			c0.35,0.26,0.73,0.45,1.16,0.55C231.87,363.84,232.31,363.84,232.77,363.75z"/>
		<path class="st1" d="M214.25,357.26l0.24-0.03c0.02,0.15,0.09,0.22,0.22,0.21c0.13,0,0.26-0.01,0.41-0.03l8.36-1.02
			c0.15-0.02,0.26-0.04,0.35-0.07c0.09-0.03,0.13-0.11,0.11-0.23l0.24-0.03l0.09,0.71c0.09,0.7-0.02,1.32-0.31,1.87
			c-0.29,0.55-0.68,1.04-1.16,1.49c-0.48,0.45-1.01,0.86-1.58,1.22c-0.57,0.37-1.11,0.72-1.6,1.07c-0.49,0.35-0.9,0.7-1.21,1.05
			c-0.31,0.35-0.45,0.73-0.4,1.14c0.03,0.28,0.12,0.5,0.27,0.66c0.15,0.16,0.33,0.29,0.54,0.38c0.21,0.09,0.44,0.14,0.68,0.15
			s0.48,0,0.7-0.03c0.22-0.03,0.5-0.1,0.82-0.22c0.32-0.12,0.62-0.28,0.91-0.47c0.28-0.2,0.52-0.42,0.72-0.66
			c0.19-0.24,0.27-0.51,0.24-0.78c-0.01-0.07-0.03-0.15-0.08-0.25c-0.05-0.1-0.1-0.17-0.16-0.2l0.18-0.16l2.31,1.93l-0.18,0.16
			c-0.06-0.02-0.11-0.04-0.17-0.06c-0.06-0.02-0.12-0.03-0.18-0.02c-0.08,0.01-0.21,0.13-0.4,0.35c-0.19,0.23-0.45,0.48-0.79,0.76
			c-0.34,0.28-0.78,0.56-1.31,0.83c-0.53,0.27-1.18,0.45-1.95,0.54c-0.5,0.06-1,0.06-1.5,0c-0.5-0.06-0.95-0.2-1.36-0.41
			c-0.41-0.21-0.75-0.51-1.03-0.88c-0.28-0.38-0.46-0.85-0.53-1.44c-0.08-0.62-0.02-1.15,0.17-1.59c0.19-0.44,0.46-0.83,0.82-1.16
			c0.36-0.33,0.77-0.63,1.23-0.89c0.47-0.26,0.94-0.51,1.43-0.77c0.49-0.25,0.95-0.52,1.4-0.79s0.82-0.59,1.14-0.97l-0.02-0.2
			l-6.55,0.8c-0.15,0.02-0.28,0.06-0.4,0.13c-0.12,0.07-0.16,0.23-0.13,0.5l-0.24,0.03L214.25,357.26z"/>
		<path class="st1" d="M202.22,357.9l0.24-0.01c0.01,0.15,0.07,0.22,0.2,0.23c0.13,0.01,0.26,0.01,0.41,0l8.41-0.38
			c0.15-0.01,0.27-0.02,0.36-0.05c0.09-0.02,0.14-0.1,0.13-0.22l0.24-0.01l0.03,0.72c0.03,0.71-0.12,1.32-0.45,1.84
			c-0.33,0.52-0.75,0.99-1.27,1.4c-0.51,0.41-1.07,0.78-1.67,1.1c-0.6,0.32-1.16,0.64-1.68,0.95c-0.52,0.31-0.95,0.63-1.29,0.95
			c-0.34,0.32-0.5,0.69-0.48,1.1c0.01,0.28,0.09,0.51,0.22,0.68c0.13,0.17,0.3,0.31,0.51,0.42c0.2,0.1,0.43,0.17,0.67,0.2
			c0.24,0.03,0.48,0.04,0.7,0.03c0.23-0.01,0.5-0.06,0.83-0.16c0.33-0.1,0.64-0.23,0.94-0.4c0.3-0.17,0.55-0.38,0.76-0.61
			c0.21-0.23,0.31-0.49,0.3-0.76c0-0.07-0.02-0.15-0.06-0.26c-0.04-0.11-0.08-0.18-0.14-0.21l0.19-0.15l2.16,2.1l-0.19,0.15
			c-0.06-0.02-0.11-0.05-0.16-0.07c-0.05-0.02-0.11-0.03-0.18-0.03c-0.08,0-0.22,0.11-0.43,0.32c-0.2,0.21-0.49,0.44-0.85,0.7
			c-0.36,0.26-0.82,0.5-1.37,0.72c-0.55,0.23-1.21,0.36-1.98,0.39c-0.51,0.02-1.01-0.01-1.5-0.11s-0.93-0.27-1.32-0.51
			c-0.39-0.24-0.71-0.56-0.96-0.96c-0.25-0.4-0.39-0.89-0.42-1.47c-0.03-0.63,0.07-1.15,0.29-1.57c0.22-0.42,0.52-0.79,0.9-1.09
			c0.38-0.3,0.81-0.57,1.3-0.79c0.48-0.22,0.98-0.44,1.48-0.66s0.99-0.44,1.45-0.68c0.46-0.23,0.87-0.53,1.21-0.88l-0.01-0.2
			l-6.59,0.3c-0.15,0.01-0.28,0.04-0.41,0.1c-0.12,0.06-0.18,0.22-0.17,0.49l-0.24,0.01L202.22,357.9z"/>
		<path class="st1" d="M192.5,363.44c0.04-1.14,0.99-2.03,2.13-1.99c1.14,0.04,2.03,0.99,1.99,2.13c-0.04,1.14-0.99,2.03-2.13,1.99
			C193.31,365.53,192.46,364.54,192.5,363.44z"/>
		<path class="st1" d="M175.6,357.78c0.04,0,0.08,0.01,0.11,0.02c0.03,0.01,0.07,0.02,0.11,0.02c0.08,0.01,0.28-0.05,0.59-0.17
			c0.32-0.12,0.72-0.26,1.2-0.4c0.48-0.14,1.02-0.26,1.62-0.33c0.6-0.08,1.22-0.08,1.85,0c0.83,0.1,1.62,0.3,2.37,0.6
			c0.74,0.3,1.38,0.71,1.92,1.23c0.54,0.51,0.94,1.12,1.2,1.82c0.27,0.7,0.35,1.5,0.24,2.38c-0.1,0.87-0.37,1.62-0.79,2.25
			c-0.42,0.63-0.96,1.13-1.6,1.51c-0.64,0.38-1.36,0.64-2.16,0.77c-0.79,0.13-1.61,0.15-2.44,0.05c-0.68-0.08-1.28-0.21-1.82-0.38
			c-0.54-0.17-1-0.34-1.4-0.51c-0.4-0.17-0.71-0.32-0.93-0.45c-0.23-0.13-0.37-0.2-0.42-0.21c-0.07-0.01-0.13,0.02-0.18,0.08
			c-0.05,0.06-0.1,0.11-0.13,0.15l-0.27-0.27l1.83-2.22l0.18,0.16c-0.01,0.04-0.01,0.08,0,0.12c0,0.04,0.01,0.09,0.01,0.14
			c0.01,0.15,0.12,0.31,0.34,0.49c0.22,0.18,0.5,0.35,0.84,0.51c0.34,0.16,0.7,0.3,1.08,0.43c0.38,0.13,0.74,0.21,1.07,0.25
			c0.56,0.07,1.1,0.05,1.63-0.05c0.53-0.1,1-0.28,1.41-0.54c0.41-0.26,0.76-0.6,1.04-1.01c0.28-0.42,0.45-0.91,0.52-1.48
			c0.07-0.57,0.02-1.09-0.16-1.56c-0.17-0.47-0.43-0.88-0.77-1.23c-0.34-0.35-0.76-0.63-1.25-0.85c-0.49-0.22-1.01-0.36-1.57-0.43
			c-0.42-0.05-0.87-0.05-1.35-0.01c-0.47,0.04-0.91,0.12-1.32,0.23c-0.4,0.11-0.74,0.24-1.02,0.4c-0.28,0.16-0.43,0.33-0.45,0.5
			c-0.01,0.09,0.01,0.18,0.05,0.25l-0.3,0.13l-1.06-2.26L175.6,357.78z"/>
		<path class="st1" d="M163.9,364.73c-0.63-0.13-1.18-0.31-1.67-0.53c-0.49-0.22-0.88-0.49-1.2-0.81c-0.31-0.32-0.53-0.69-0.64-1.12
			c-0.11-0.43-0.11-0.92,0.01-1.48c0.18-0.86,0.58-1.47,1.18-1.81c0.61-0.35,1.36-0.51,2.25-0.48l-1.81-4.27
			c-0.06-0.15-0.16-0.25-0.27-0.3c-0.12-0.05-0.23-0.09-0.33-0.11l0.07-0.35l3.66,0.78l-0.07,0.35c-0.12-0.02-0.22-0.03-0.32-0.01
			c-0.09,0.02-0.15,0.06-0.16,0.13s0,0.15,0.03,0.24c0.03,0.1,0.09,0.23,0.16,0.39l1.51,3.51l2.8,0.59l0.74-3.48
			c0.02-0.12,0-0.21-0.07-0.29c-0.07-0.08-0.22-0.14-0.44-0.19l0.07-0.35l3.38,0.72l-0.07,0.35c-0.38-0.08-0.59,0-0.64,0.23
			l-1.88,8.88c-0.05,0.23,0.12,0.39,0.49,0.47l-0.07,0.35L163.9,364.73z M165.38,360.25c-0.47-0.1-0.87-0.15-1.2-0.14
			c-0.33,0.01-0.6,0.05-0.81,0.15c-0.21,0.09-0.37,0.22-0.49,0.38c-0.12,0.16-0.19,0.34-0.24,0.55c-0.04,0.21-0.05,0.41-0.01,0.6
			c0.04,0.19,0.14,0.37,0.29,0.54c0.16,0.17,0.38,0.32,0.68,0.46c0.3,0.14,0.68,0.26,1.15,0.36l3.38,0.72l0.61-2.9L165.38,360.25z"
			/>
		<path class="st1" d="M146.85,357.82c-0.04,0.14-0.02,0.26,0.07,0.37c0.09,0.1,0.26,0.2,0.53,0.28l6.2,1.89l0.72-2.37l-3.75-1.15
			c-0.26-0.08-0.46-0.1-0.62-0.08c-0.16,0.03-0.29,0.19-0.38,0.48l-0.34-0.11l0.91-2.98l0.34,0.11c-0.09,0.29-0.08,0.5,0.04,0.63
			c0.12,0.13,0.3,0.23,0.56,0.31l3.75,1.15l0.81-2.64l-6.39-1.95c-0.19-0.06-0.36-0.06-0.51-0.01s-0.25,0.15-0.29,0.31l-0.34-0.11
			l0.8-2.62l0.34,0.11c-0.06,0.19-0.03,0.32,0.08,0.38c0.11,0.06,0.26,0.12,0.46,0.18l8.91,2.72l-0.11,0.34
			c-0.09-0.03-0.18-0.02-0.27,0.01c-0.09,0.04-0.15,0.11-0.18,0.23l-2.65,8.68c-0.03,0.12-0.03,0.21,0.03,0.29
			c0.05,0.08,0.12,0.13,0.21,0.16l-0.11,0.34l-8.72-2.66c-0.27-0.08-0.47-0.1-0.6-0.05c-0.13,0.05-0.22,0.15-0.27,0.29l-0.34-0.11
			l0.77-2.52L146.85,357.82z"/>
		<path class="st1" d="M147.25,349.55c-0.17-0.04-0.33-0.01-0.48,0.09c-0.15,0.1-0.3,0.22-0.45,0.36l-6.32,5.85
			c-0.15,0.13-0.29,0.24-0.41,0.35c-0.12,0.11-0.2,0.21-0.24,0.31c-0.05,0.12-0.04,0.23,0.03,0.31c0.07,0.08,0.15,0.16,0.23,0.22
			l-0.13,0.33l-3.14-1.25l0.13-0.33c0.1,0.01,0.2,0.01,0.3,0c0.1-0.01,0.18-0.08,0.24-0.22c0.04-0.1,0.06-0.21,0.05-0.32
			s-0.02-0.27-0.04-0.47l-0.84-9.1c-0.01-0.16-0.05-0.29-0.13-0.4c-0.08-0.1-0.18-0.21-0.29-0.33l0.13-0.33l3.27,1.31l-0.13,0.33
			c-0.05-0.02-0.12-0.03-0.21-0.02s-0.15,0.05-0.18,0.12c-0.05,0.12-0.06,0.3-0.04,0.54l0.16,1.66l4.53,1.81l1.2-1.05
			c0.23-0.21,0.36-0.37,0.41-0.48c0.06-0.14-0.04-0.25-0.27-0.35l0.13-0.33l2.64,1.05L147.25,349.55z M138.87,350.2l0.18,4.08
			l3.13-2.76L138.87,350.2z"/>
		<path class="st1" d="M128.72,341.89c0.11-0.21,0.03-0.39-0.23-0.52l0.16-0.32l2.76,1.37l-0.16,0.32
			c-0.08-0.04-0.17-0.05-0.26-0.03s-0.17,0.09-0.22,0.19l-3.53,7.13l2.96,1.46c0.11,0.05,0.23,0.07,0.36,0.07
			c0.13-0.01,0.24-0.1,0.32-0.26l0.32,0.16l-1.24,2.51l-0.32-0.16c0.08-0.17,0.09-0.31,0.02-0.42c-0.07-0.11-0.16-0.19-0.27-0.25
			l-7.96-3.94c-0.11-0.05-0.23-0.08-0.36-0.07c-0.13,0.01-0.24,0.1-0.32,0.27l-0.32-0.16l1.24-2.51l0.32,0.16
			c-0.08,0.17-0.09,0.31-0.02,0.42c0.07,0.11,0.16,0.19,0.27,0.24l2.96,1.46L128.72,341.89z"/>
		<path class="st1" d="M123.09,338.48c-0.3-0.17-0.51-0.15-0.63,0.06l-4.41,7.94c-0.12,0.21-0.02,0.4,0.28,0.57l-0.17,0.31
			l-2.9-1.61l0.18-0.32c0.3,0.17,0.51,0.15,0.63-0.06l4.41-7.94c0.12-0.21,0.02-0.4-0.28-0.57l0.18-0.32l2.9,1.61L123.09,338.48z"/>
		<path class="st1" d="M102.63,337.31c0.22,0.15,0.44,0.17,0.64,0.08c0.21-0.1,0.36-0.18,0.47-0.25l7.22-4.57
			c0.25-0.16,0.45-0.28,0.6-0.37c0.15-0.09,0.25-0.16,0.29-0.22c0.04-0.06,0.05-0.11,0.05-0.16c0-0.05-0.02-0.11-0.04-0.17l0.2-0.3
			l2.56,1.67l-0.2,0.3c-0.13-0.02-0.23,0.02-0.3,0.14c-0.04,0.06-0.07,0.2-0.1,0.43c-0.03,0.23-0.07,0.51-0.11,0.85l-1.27,8.51
			c-0.02,0.16,0,0.3,0.06,0.42c0.06,0.12,0.17,0.27,0.33,0.45l-0.2,0.3l-3-1.96l0.2-0.3c0.08,0.05,0.17,0.08,0.26,0.09
			c0.1,0.01,0.18-0.04,0.26-0.16c0.08-0.12,0.14-0.31,0.16-0.56c0.03-0.25,0.07-0.56,0.12-0.93l0.87-6l-5.06,3.17
			c-0.32,0.2-0.62,0.38-0.89,0.53c-0.27,0.15-0.43,0.27-0.49,0.36c-0.12,0.18-0.02,0.37,0.29,0.57l-0.2,0.3l-2.93-1.92
			L102.63,337.31z"/>
		<path class="st1" d="M93.64,328.11c-0.09,0.11-0.11,0.24-0.07,0.36c0.04,0.13,0.18,0.28,0.4,0.45l5.11,3.99l1.52-1.96l-3.09-2.41
			c-0.21-0.16-0.4-0.26-0.56-0.3c-0.16-0.03-0.33,0.07-0.52,0.31l-0.28-0.22l1.92-2.46l0.28,0.22c-0.19,0.24-0.25,0.44-0.19,0.6
			c0.06,0.16,0.2,0.32,0.41,0.48l3.09,2.41l1.7-2.18l-5.27-4.11c-0.16-0.12-0.32-0.19-0.47-0.19c-0.16-0.01-0.29,0.06-0.38,0.18
			l-0.28-0.22l1.69-2.16l0.28,0.22c-0.12,0.16-0.14,0.29-0.06,0.38c0.08,0.1,0.2,0.21,0.36,0.33l7.35,5.73l-0.22,0.28
			c-0.07-0.06-0.16-0.09-0.25-0.08c-0.1,0-0.18,0.05-0.25,0.15l-5.59,7.16c-0.07,0.09-0.1,0.19-0.08,0.28
			c0.02,0.09,0.07,0.17,0.14,0.23l-0.22,0.28l-7.19-5.61c-0.22-0.17-0.4-0.26-0.54-0.26c-0.14,0-0.26,0.06-0.35,0.17l-0.28-0.22
			l1.62-2.08L93.64,328.11z"/>
		<path class="st1" d="M83.18,307.57c0.18-0.16,0.16-0.35-0.04-0.57l0.26-0.25l2.1,2.25l-0.26,0.25c-0.06-0.07-0.14-0.11-0.24-0.12
			c-0.09-0.01-0.18,0.02-0.27,0.1l-5.82,5.43l2.25,2.41c0.08,0.09,0.19,0.15,0.31,0.19c0.13,0.04,0.26-0.01,0.39-0.13l0.25,0.26
			l-2.05,1.91l-0.25-0.26c0.14-0.13,0.19-0.26,0.16-0.38c-0.03-0.13-0.08-0.24-0.17-0.32l-6.06-6.49c-0.08-0.09-0.19-0.15-0.31-0.19
			c-0.13-0.04-0.26,0.01-0.39,0.14l-0.25-0.26l2.05-1.91l0.25,0.26c-0.14,0.13-0.19,0.25-0.16,0.38c0.03,0.13,0.08,0.24,0.17,0.32
			l2.25,2.41L83.18,307.57z"/>
		<path class="st1" d="M66.89,303.47c-0.4-0.5-0.71-0.99-0.94-1.47c-0.23-0.48-0.37-0.94-0.41-1.39c-0.04-0.45,0.04-0.87,0.22-1.27
			c0.19-0.4,0.5-0.78,0.95-1.13c0.69-0.54,1.38-0.76,2.07-0.64c0.69,0.12,1.37,0.47,2.04,1.07l1.34-4.44
			c0.05-0.16,0.04-0.29-0.02-0.41c-0.06-0.12-0.12-0.22-0.18-0.3l0.28-0.22l2.31,2.94l-0.28,0.22c-0.07-0.09-0.15-0.16-0.24-0.21
			c-0.08-0.04-0.15-0.04-0.21,0c-0.05,0.04-0.1,0.11-0.13,0.2c-0.03,0.1-0.08,0.23-0.13,0.41l-1.09,3.66l1.77,2.25l2.8-2.2
			c0.09-0.07,0.14-0.16,0.13-0.27s-0.08-0.25-0.22-0.42l0.28-0.22l2.14,2.72l-0.28,0.22c-0.24-0.3-0.45-0.38-0.64-0.23l-7.13,5.62
			c-0.19,0.15-0.16,0.38,0.08,0.68l-0.28,0.22L66.89,303.47z M70.89,300.98c-0.3-0.38-0.57-0.67-0.83-0.87
			c-0.26-0.21-0.49-0.34-0.71-0.4c-0.22-0.06-0.43-0.07-0.62-0.02c-0.19,0.05-0.37,0.14-0.54,0.27c-0.17,0.13-0.3,0.28-0.39,0.46
			c-0.09,0.17-0.13,0.38-0.12,0.61c0.01,0.23,0.09,0.49,0.23,0.79c0.14,0.3,0.36,0.63,0.66,1.01l2.14,2.72l2.33-1.83L70.89,300.98z"
			/>
		<path class="st1" d="M58.2,287.25c-0.12,0.08-0.18,0.19-0.18,0.32c0,0.14,0.08,0.32,0.23,0.55l3.55,5.42l2.07-1.36l-2.15-3.28
			c-0.15-0.22-0.29-0.38-0.43-0.46c-0.14-0.08-0.34-0.04-0.6,0.13l-0.2-0.3l2.61-1.71l0.2,0.3c-0.26,0.17-0.38,0.34-0.37,0.51
			s0.08,0.37,0.23,0.59l2.15,3.28l2.31-1.51l-3.66-5.59c-0.11-0.17-0.24-0.28-0.39-0.33c-0.15-0.06-0.29-0.04-0.42,0.05l-0.2-0.3
			l2.29-1.5l0.2,0.3c-0.17,0.11-0.23,0.23-0.18,0.35c0.05,0.12,0.13,0.26,0.24,0.43l5.11,7.8l-0.3,0.2
			c-0.05-0.08-0.12-0.13-0.21-0.16c-0.09-0.03-0.19-0.01-0.29,0.06l-7.6,4.98c-0.1,0.07-0.15,0.15-0.17,0.24
			c-0.01,0.09,0.01,0.18,0.06,0.26l-0.3,0.2l-5-7.63c-0.15-0.23-0.3-0.37-0.43-0.42c-0.14-0.05-0.26-0.03-0.39,0.05l-0.2-0.3
			l2.21-1.45L58.2,287.25z"/>
		<path class="st1" d="M63.12,279.95c-0.12-0.22-0.28-0.28-0.5-0.17l-8.01,4.27c-0.21,0.11-0.26,0.28-0.14,0.5l-0.32,0.17
			l-1.61-3.02l0.32-0.17c0.05,0.09,0.13,0.11,0.25,0.05c0.09-0.05,0.2-0.25,0.31-0.62l2.56-7.87l-5.61,2.99
			c-0.21,0.11-0.24,0.32-0.07,0.63l-0.32,0.17l-1.42-2.66l0.32-0.17c0.12,0.22,0.29,0.28,0.5,0.17l8.01-4.27
			c0.21-0.11,0.26-0.28,0.14-0.5l0.32-0.17l1.52,2.86l-0.32,0.17c-0.08-0.15-0.17-0.2-0.28-0.15c-0.08,0.04-0.17,0.21-0.26,0.5
			l-2.74,8.37l5.86-3.12c0.21-0.11,0.25-0.3,0.1-0.58l0.32-0.17l1.39,2.61L63.12,279.95z"/>
		<path class="st1" d="M44.23,264.36c-0.28-0.68-0.45-1.35-0.5-2.01c-0.05-0.67,0.04-1.3,0.26-1.9c0.22-0.6,0.58-1.15,1.09-1.65
			c0.51-0.5,1.17-0.92,2-1.27c0.82-0.34,1.59-0.52,2.3-0.53c0.71-0.01,1.36,0.12,1.94,0.38s1.09,0.65,1.53,1.15s0.8,1.09,1.09,1.77
			l2.56,6.13l-0.33,0.14c-0.12-0.28-0.29-0.38-0.51-0.29l-8.38,3.5c-0.22,0.09-0.27,0.28-0.16,0.56l-0.33,0.14L44.23,264.36z
			 M52.66,261.7c-0.24-0.58-0.5-1.06-0.78-1.45c-0.28-0.39-0.6-0.67-0.97-0.85c-0.37-0.18-0.79-0.25-1.27-0.22s-1.04,0.18-1.68,0.45
			c-0.64,0.27-1.14,0.56-1.5,0.88c-0.36,0.32-0.61,0.67-0.74,1.06c-0.13,0.39-0.16,0.82-0.08,1.29c0.08,0.47,0.24,1,0.49,1.57
			l1.2,2.86l6.53-2.73L52.66,261.7z"/>
		<path class="st1" d="M46.89,238.27l0.06,0.23c-0.14,0.04-0.2,0.12-0.18,0.25c0.02,0.13,0.05,0.26,0.09,0.4l2.29,8.1
			c0.04,0.14,0.08,0.25,0.13,0.34c0.04,0.08,0.12,0.11,0.24,0.08l0.06,0.23l-0.69,0.2c-0.68,0.19-1.31,0.19-1.9-0.02
			s-1.13-0.51-1.65-0.92c-0.52-0.41-1-0.87-1.45-1.38c-0.45-0.51-0.88-0.98-1.3-1.42c-0.42-0.44-0.83-0.78-1.22-1.04
			c-0.39-0.26-0.79-0.33-1.18-0.22c-0.27,0.08-0.47,0.2-0.61,0.37c-0.14,0.17-0.24,0.37-0.29,0.59c-0.05,0.22-0.07,0.46-0.04,0.7
			c0.03,0.24,0.07,0.47,0.13,0.69c0.06,0.22,0.18,0.48,0.34,0.78c0.17,0.3,0.37,0.57,0.61,0.83c0.24,0.25,0.49,0.45,0.76,0.61
			c0.27,0.15,0.54,0.19,0.81,0.11c0.06-0.02,0.14-0.06,0.24-0.12c0.09-0.06,0.15-0.12,0.18-0.19l0.19,0.15l-1.56,2.58l-0.19-0.16
			c0.01-0.06,0.02-0.12,0.03-0.18c0.01-0.06,0.01-0.12-0.01-0.18c-0.02-0.08-0.16-0.19-0.41-0.34c-0.25-0.15-0.54-0.37-0.87-0.67
			c-0.33-0.29-0.67-0.68-1.01-1.17c-0.34-0.49-0.62-1.1-0.83-1.84c-0.14-0.49-0.21-0.98-0.23-1.48c-0.02-0.5,0.05-0.97,0.2-1.4
			c0.15-0.44,0.38-0.82,0.71-1.16c0.33-0.33,0.77-0.58,1.34-0.74c0.6-0.17,1.14-0.2,1.6-0.08c0.46,0.12,0.89,0.33,1.27,0.63
			c0.38,0.3,0.74,0.66,1.06,1.08c0.33,0.42,0.65,0.85,0.98,1.29c0.33,0.44,0.66,0.86,0.99,1.26c0.33,0.4,0.71,0.72,1.13,0.98
			l0.19-0.05l-1.79-6.35c-0.04-0.14-0.1-0.26-0.19-0.37c-0.09-0.11-0.26-0.12-0.51-0.05l-0.07-0.23L46.89,238.27z"/>
		<path class="st1" d="M34.7,233.41c-0.15-0.76-0.17-1.49-0.04-2.21c0.13-0.71,0.38-1.36,0.75-1.95c0.37-0.59,0.85-1.08,1.43-1.49
			c0.58-0.41,1.26-0.69,2.03-0.85c0.77-0.16,1.5-0.16,2.2-0.01c0.7,0.15,1.33,0.43,1.89,0.82c0.56,0.4,1.04,0.9,1.42,1.51
			c0.38,0.61,0.65,1.29,0.8,2.05c0.15,0.76,0.17,1.49,0.06,2.2s-0.35,1.36-0.72,1.94c-0.36,0.58-0.84,1.08-1.42,1.49
			c-0.58,0.41-1.26,0.69-2.03,0.85c-0.77,0.16-1.5,0.16-2.2,0.01c-0.7-0.15-1.33-0.43-1.9-0.82c-0.57-0.4-1.05-0.9-1.45-1.5
			C35.13,234.85,34.85,234.16,34.7,233.41z M36.39,233.06c0.09,0.46,0.27,0.86,0.53,1.22c0.26,0.36,0.58,0.64,0.96,0.86
			c0.38,0.22,0.8,0.36,1.27,0.44c0.47,0.08,0.96,0.06,1.47-0.04c0.51-0.1,0.97-0.28,1.37-0.53c0.41-0.25,0.74-0.55,1-0.9
			c0.26-0.35,0.45-0.73,0.55-1.16c0.1-0.43,0.11-0.87,0.02-1.33c-0.09-0.46-0.27-0.86-0.53-1.22c-0.26-0.35-0.58-0.64-0.96-0.86
			c-0.38-0.22-0.8-0.36-1.27-0.44c-0.47-0.07-0.96-0.06-1.47,0.04c-0.51,0.1-0.97,0.28-1.37,0.53c-0.4,0.25-0.74,0.55-1,0.9
			c-0.26,0.35-0.45,0.73-0.55,1.16C36.3,232.16,36.29,232.61,36.39,233.06z"/>
		<path class="st1" d="M42.85,214.54l0.03,0.24c-0.15,0.02-0.22,0.09-0.21,0.22c0,0.13,0.01,0.26,0.03,0.41l1.04,8.36
			c0.02,0.15,0.04,0.26,0.07,0.35c0.03,0.09,0.11,0.13,0.23,0.11l0.03,0.24l-0.71,0.09c-0.7,0.09-1.32-0.01-1.87-0.3
			c-0.55-0.29-1.04-0.67-1.49-1.15c-0.45-0.48-0.86-1.01-1.22-1.58c-0.37-0.57-0.73-1.11-1.08-1.6c-0.35-0.49-0.7-0.9-1.05-1.21
			c-0.35-0.31-0.73-0.44-1.14-0.39c-0.28,0.03-0.5,0.13-0.66,0.27c-0.16,0.15-0.29,0.33-0.38,0.54c-0.09,0.21-0.14,0.44-0.15,0.68
			c-0.01,0.24,0,0.48,0.03,0.7c0.03,0.22,0.1,0.5,0.22,0.82c0.12,0.32,0.28,0.62,0.47,0.91c0.2,0.29,0.42,0.52,0.66,0.71
			c0.24,0.19,0.51,0.27,0.78,0.23c0.07-0.01,0.15-0.04,0.25-0.08c0.1-0.05,0.17-0.1,0.2-0.16l0.16,0.18l-1.93,2.32l-0.16-0.18
			c0.02-0.06,0.04-0.11,0.06-0.17c0.02-0.06,0.03-0.12,0.02-0.18c-0.01-0.08-0.13-0.21-0.35-0.4c-0.22-0.19-0.48-0.45-0.76-0.79
			c-0.28-0.34-0.56-0.78-0.83-1.31c-0.27-0.53-0.45-1.18-0.54-1.95c-0.06-0.5-0.06-1,0-1.5s0.19-0.95,0.41-1.36
			c0.21-0.41,0.5-0.76,0.88-1.04c0.38-0.28,0.85-0.46,1.44-0.53c0.62-0.08,1.15-0.02,1.59,0.17c0.44,0.19,0.83,0.46,1.16,0.81
			c0.33,0.36,0.63,0.77,0.89,1.23c0.26,0.47,0.52,0.94,0.77,1.43c0.26,0.49,0.52,0.95,0.79,1.39c0.27,0.44,0.59,0.82,0.97,1.14
			l0.2-0.02l-0.81-6.55c-0.02-0.15-0.06-0.28-0.13-0.4c-0.07-0.12-0.23-0.16-0.5-0.13l-0.03-0.24L42.85,214.54z"/>
		<path class="st1" d="M42.19,202.51l0.01,0.24c-0.15,0.01-0.22,0.07-0.23,0.2c-0.01,0.13-0.01,0.26,0,0.41l0.4,8.41
			c0.01,0.15,0.02,0.27,0.05,0.36c0.02,0.09,0.1,0.13,0.22,0.13l0.01,0.24l-0.72,0.03c-0.71,0.03-1.32-0.11-1.84-0.44
			c-0.52-0.33-0.99-0.75-1.4-1.27c-0.41-0.51-0.78-1.07-1.1-1.67c-0.32-0.6-0.64-1.16-0.95-1.68c-0.31-0.52-0.63-0.95-0.95-1.29
			c-0.32-0.34-0.69-0.5-1.1-0.48c-0.28,0.01-0.51,0.09-0.68,0.22c-0.17,0.14-0.31,0.31-0.42,0.51s-0.17,0.43-0.2,0.67
			c-0.03,0.24-0.04,0.48-0.03,0.7c0.01,0.23,0.06,0.5,0.16,0.83c0.09,0.33,0.23,0.64,0.4,0.94c0.17,0.3,0.38,0.55,0.61,0.76
			c0.23,0.21,0.48,0.31,0.76,0.29c0.07,0,0.15-0.02,0.26-0.06c0.1-0.04,0.18-0.08,0.21-0.14l0.15,0.19l-2.1,2.16l-0.15-0.19
			c0.02-0.05,0.05-0.11,0.07-0.16c0.02-0.05,0.03-0.12,0.03-0.18c0-0.08-0.11-0.22-0.32-0.43c-0.21-0.2-0.44-0.49-0.7-0.85
			c-0.26-0.36-0.5-0.82-0.72-1.37c-0.23-0.55-0.36-1.21-0.39-1.98c-0.02-0.51,0.01-1.01,0.11-1.5c0.1-0.49,0.27-0.93,0.51-1.33
			c0.24-0.39,0.56-0.71,0.95-0.97c0.4-0.25,0.89-0.39,1.47-0.42c0.63-0.03,1.15,0.07,1.58,0.29c0.42,0.22,0.79,0.52,1.09,0.9
			c0.3,0.38,0.57,0.81,0.79,1.29c0.22,0.48,0.44,0.98,0.66,1.48c0.22,0.5,0.44,0.99,0.68,1.45c0.24,0.46,0.53,0.87,0.88,1.21
			l0.2-0.01l-0.31-6.59c-0.01-0.15-0.04-0.28-0.1-0.41c-0.06-0.12-0.22-0.18-0.49-0.17l-0.01-0.24L42.19,202.51z"/>
		<path class="st1" d="M36.63,192.8c1.14,0.04,2.03,0.98,2,2.12c-0.04,1.14-0.98,2.03-2.12,1.99c-1.14-0.04-2.03-0.98-2-2.12
			C34.54,193.61,35.53,192.76,36.63,192.8z"/>
		<path class="st1" d="M42.27,175.89c0,0.04-0.01,0.08-0.02,0.11c-0.01,0.03-0.02,0.07-0.02,0.11c-0.01,0.08,0.05,0.28,0.17,0.59
			c0.12,0.32,0.26,0.72,0.4,1.2c0.14,0.48,0.26,1.02,0.33,1.62c0.08,0.6,0.08,1.22,0,1.85c-0.1,0.83-0.3,1.62-0.6,2.37
			c-0.3,0.74-0.71,1.38-1.22,1.92c-0.51,0.54-1.12,0.94-1.82,1.21c-0.7,0.27-1.5,0.35-2.39,0.24c-0.87-0.1-1.63-0.36-2.25-0.79
			c-0.63-0.42-1.13-0.95-1.52-1.6s-0.64-1.36-0.78-2.15c-0.13-0.79-0.15-1.61-0.06-2.44c0.08-0.67,0.2-1.28,0.37-1.82
			s0.34-1,0.51-1.4c0.17-0.4,0.32-0.71,0.45-0.93c0.13-0.23,0.2-0.37,0.21-0.42c0.01-0.07-0.02-0.13-0.08-0.18
			c-0.06-0.06-0.11-0.1-0.15-0.13l0.27-0.27l2.22,1.83l-0.16,0.18c-0.04,0-0.08-0.01-0.12,0c-0.04,0-0.09,0.01-0.14,0.01
			c-0.15,0.01-0.31,0.12-0.49,0.35c-0.18,0.22-0.35,0.5-0.51,0.84c-0.16,0.34-0.3,0.7-0.43,1.08c-0.12,0.38-0.21,0.74-0.24,1.07
			c-0.07,0.56-0.05,1.1,0.05,1.63c0.1,0.53,0.28,1,0.54,1.41c0.26,0.41,0.6,0.76,1.02,1.03c0.42,0.28,0.91,0.45,1.48,0.52
			c0.57,0.07,1.09,0.01,1.56-0.16c0.47-0.17,0.88-0.43,1.23-0.77c0.35-0.34,0.63-0.76,0.85-1.25c0.22-0.49,0.36-1.01,0.43-1.57
			c0.05-0.42,0.05-0.87,0.01-1.35c-0.05-0.47-0.12-0.91-0.23-1.32c-0.11-0.4-0.24-0.74-0.4-1.02c-0.16-0.28-0.33-0.43-0.5-0.45
			c-0.09-0.01-0.17,0.01-0.25,0.05l-0.13-0.3l2.26-1.06L42.27,175.89z"/>
		<path class="st1" d="M35.3,164.2c0.13-0.63,0.31-1.18,0.52-1.67c0.22-0.49,0.49-0.89,0.8-1.2c0.32-0.31,0.69-0.53,1.12-0.64
			c0.43-0.11,0.92-0.11,1.48,0c0.86,0.18,1.47,0.57,1.82,1.18c0.35,0.6,0.51,1.35,0.49,2.25l4.27-1.82c0.15-0.06,0.25-0.15,0.3-0.27
			c0.05-0.12,0.09-0.23,0.11-0.33l0.35,0.07l-0.77,3.66l-0.35-0.07c0.03-0.12,0.03-0.22,0.01-0.32c-0.02-0.09-0.06-0.15-0.13-0.16
			c-0.06-0.01-0.15,0-0.24,0.03c-0.1,0.03-0.23,0.09-0.39,0.16l-3.51,1.51l-0.59,2.8l3.48,0.73c0.12,0.02,0.22,0,0.29-0.07
			c0.08-0.07,0.14-0.22,0.18-0.44l0.35,0.07l-0.71,3.39l-0.35-0.07c0.08-0.38,0-0.59-0.23-0.64l-8.89-1.87
			c-0.23-0.05-0.39,0.11-0.47,0.49l-0.35-0.07L35.3,164.2z M39.78,165.68c0.1-0.47,0.15-0.87,0.14-1.2
			c-0.01-0.33-0.06-0.6-0.15-0.81c-0.09-0.21-0.22-0.37-0.38-0.49c-0.16-0.12-0.34-0.19-0.55-0.24c-0.21-0.04-0.41-0.05-0.6,0
			c-0.19,0.04-0.37,0.14-0.54,0.3c-0.17,0.16-0.32,0.38-0.46,0.68c-0.14,0.3-0.26,0.68-0.35,1.15l-0.71,3.39l2.9,0.61L39.78,165.68z
			"/>
		<path class="st1" d="M42.18,147.14c-0.14-0.04-0.26-0.02-0.36,0.07s-0.2,0.26-0.28,0.53l-1.88,6.2l2.37,0.72l1.14-3.75
			c0.08-0.26,0.1-0.46,0.08-0.62c-0.03-0.16-0.19-0.29-0.48-0.38l0.1-0.34l2.99,0.91l-0.1,0.34c-0.29-0.09-0.5-0.08-0.63,0.04
			c-0.13,0.12-0.23,0.3-0.3,0.56l-1.14,3.75l2.64,0.8l1.94-6.39c0.06-0.19,0.06-0.36,0.01-0.51c-0.05-0.15-0.16-0.25-0.31-0.29
			l0.1-0.34l2.62,0.8l-0.1,0.34c-0.19-0.06-0.32-0.03-0.38,0.08c-0.06,0.11-0.12,0.27-0.18,0.46l-2.71,8.92l-0.34-0.1
			c0.03-0.09,0.02-0.18-0.01-0.27c-0.04-0.09-0.11-0.15-0.23-0.18l-8.69-2.64c-0.12-0.03-0.21-0.03-0.29,0.03
			c-0.08,0.05-0.13,0.12-0.16,0.21l-0.34-0.1l2.65-8.73c0.08-0.27,0.1-0.47,0.05-0.6c-0.05-0.13-0.15-0.22-0.29-0.26l0.1-0.34
			l2.53,0.77L42.18,147.14z"/>
		<path class="st1" d="M50.46,147.5c0.04-0.17,0.01-0.33-0.09-0.48c-0.1-0.15-0.22-0.3-0.36-0.45l-5.86-6.31
			c-0.13-0.15-0.24-0.29-0.35-0.41c-0.11-0.12-0.21-0.2-0.31-0.24c-0.12-0.05-0.23-0.04-0.31,0.03s-0.16,0.14-0.22,0.23l-0.33-0.13
			l1.25-3.14l0.33,0.13c-0.01,0.1-0.01,0.2,0,0.3c0.01,0.1,0.08,0.18,0.22,0.24c0.1,0.04,0.21,0.06,0.32,0.05
			c0.12,0,0.27-0.02,0.47-0.04l9.1-0.86c0.16-0.01,0.29-0.05,0.4-0.13c0.1-0.08,0.21-0.18,0.33-0.29l0.33,0.13l-1.3,3.27l-0.34-0.13
			c0.02-0.05,0.03-0.12,0.02-0.21c-0.01-0.09-0.05-0.15-0.12-0.18c-0.12-0.05-0.3-0.06-0.54-0.04L51.44,139l-1.8,4.54l1.05,1.19
			c0.21,0.23,0.37,0.36,0.48,0.41c0.14,0.05,0.25-0.04,0.34-0.27l0.33,0.13l-1.05,2.64L50.46,147.5z M49.79,139.12l-4.08,0.19
			l2.76,3.12L49.79,139.12z"/>
		<path class="st1" d="M58.08,128.98c0.22,0.11,0.39,0.03,0.52-0.24l0.32,0.16l-1.36,2.76l-0.32-0.16c0.04-0.08,0.05-0.17,0.03-0.26
			c-0.02-0.09-0.09-0.17-0.19-0.22l-7.14-3.52l-1.46,2.96c-0.05,0.11-0.07,0.23-0.07,0.36c0.01,0.13,0.1,0.24,0.27,0.32l-0.16,0.32
			L46,130.23l0.16-0.32c0.17,0.08,0.31,0.09,0.42,0.02c0.11-0.07,0.19-0.16,0.24-0.27l3.93-7.97c0.05-0.11,0.07-0.23,0.06-0.36
			c-0.01-0.13-0.1-0.24-0.27-0.32l0.16-0.32l2.51,1.24l-0.16,0.32c-0.17-0.08-0.31-0.09-0.42-0.02c-0.11,0.07-0.19,0.16-0.24,0.27
			l-1.46,2.96L58.08,128.98z"/>
		<path class="st1" d="M61.49,123.32c0.17-0.3,0.15-0.51-0.06-0.63l-7.94-4.41c-0.21-0.12-0.4-0.02-0.57,0.28l-0.32-0.18l1.61-2.9
			l0.32,0.18c-0.17,0.3-0.15,0.51,0.06,0.63l7.94,4.41c0.21,0.12,0.4,0.02,0.57-0.28l0.32,0.18l-1.61,2.9L61.49,123.32z"/>
		<path class="st1" d="M62.61,102.89c-0.15,0.22-0.17,0.44-0.07,0.64c0.1,0.21,0.18,0.36,0.25,0.47l4.59,7.21
			c0.16,0.25,0.28,0.45,0.37,0.6c0.09,0.15,0.16,0.25,0.22,0.29c0.06,0.04,0.11,0.05,0.16,0.05c0.05-0.01,0.11-0.02,0.17-0.04
			l0.3,0.2l-1.67,2.56l-0.3-0.2c0.02-0.13-0.02-0.23-0.14-0.3c-0.06-0.04-0.2-0.07-0.43-0.1c-0.23-0.03-0.51-0.07-0.85-0.11
			l-8.52-1.25c-0.16-0.02-0.3,0-0.42,0.06c-0.12,0.06-0.27,0.17-0.45,0.33l-0.3-0.2l1.95-3l0.3,0.2c-0.05,0.08-0.08,0.17-0.09,0.26
			c-0.01,0.1,0.04,0.18,0.15,0.26c0.12,0.08,0.31,0.13,0.56,0.16c0.25,0.03,0.56,0.07,0.93,0.12l6.01,0.86l-3.18-5.05
			c-0.2-0.32-0.38-0.62-0.53-0.88c-0.15-0.27-0.27-0.43-0.36-0.49c-0.18-0.12-0.37-0.02-0.57,0.29l-0.3-0.2l1.91-2.93L62.61,102.89z
			"/>
		<path class="st1" d="M71.8,93.88c-0.12-0.09-0.24-0.11-0.36-0.07c-0.13,0.04-0.28,0.18-0.45,0.4l-3.98,5.12l1.96,1.52l2.41-3.1
			c0.16-0.21,0.26-0.4,0.29-0.56c0.03-0.16-0.07-0.34-0.31-0.52l0.22-0.28l2.46,1.91l-0.22,0.28c-0.24-0.19-0.44-0.25-0.6-0.19
			c-0.16,0.06-0.32,0.2-0.48,0.41l-2.41,3.09l2.18,1.69l4.1-5.27c0.12-0.16,0.19-0.32,0.19-0.47c0-0.16-0.06-0.28-0.18-0.38
			l0.22-0.28L79,98.86l-0.22,0.28c-0.16-0.12-0.29-0.14-0.39-0.06c-0.1,0.08-0.21,0.2-0.33,0.36l-5.72,7.36l-0.28-0.22
			c0.06-0.07,0.08-0.16,0.08-0.25c0-0.09-0.05-0.18-0.15-0.25l-7.17-5.57c-0.1-0.07-0.19-0.1-0.28-0.08
			c-0.09,0.02-0.17,0.07-0.22,0.14l-0.28-0.22l5.6-7.2c0.17-0.22,0.26-0.4,0.26-0.55c0-0.14-0.06-0.26-0.17-0.35l0.22-0.28
			l2.08,1.62L71.8,93.88z"/>
		<path class="st1" d="M92.3,83.39c0.16,0.18,0.35,0.16,0.57-0.04l0.25,0.26l-2.25,2.11l-0.25-0.26c0.07-0.06,0.11-0.14,0.12-0.24
			c0.01-0.09-0.02-0.18-0.1-0.27l-5.45-5.81l-2.41,2.26c-0.09,0.08-0.15,0.19-0.19,0.31c-0.04,0.13,0.01,0.26,0.14,0.39l-0.26,0.25
			l-1.92-2.04l0.26-0.25c0.13,0.14,0.26,0.19,0.38,0.16c0.13-0.03,0.24-0.08,0.32-0.17l6.48-6.07c0.09-0.08,0.15-0.19,0.19-0.31
			c0.04-0.13-0.01-0.26-0.14-0.39l0.26-0.25l1.92,2.04l-0.26,0.25c-0.13-0.14-0.26-0.19-0.38-0.16c-0.13,0.03-0.24,0.08-0.32,0.17
			l-2.41,2.26L92.3,83.39z"/>
		<path class="st1" d="M96.4,67.07c0.5-0.4,0.99-0.71,1.47-0.95c0.48-0.23,0.94-0.37,1.39-0.41c0.45-0.04,0.87,0.04,1.27,0.22
			c0.4,0.18,0.78,0.5,1.13,0.95c0.55,0.69,0.76,1.38,0.64,2.07c-0.12,0.69-0.47,1.37-1.06,2.04l4.44,1.33
			c0.16,0.05,0.29,0.04,0.41-0.02c0.12-0.06,0.22-0.12,0.3-0.19l0.22,0.28l-2.93,2.32l-0.22-0.28c0.09-0.07,0.16-0.15,0.21-0.24
			c0.04-0.09,0.04-0.15,0-0.21c-0.04-0.05-0.11-0.1-0.21-0.13c-0.1-0.03-0.23-0.08-0.41-0.13l-3.66-1.08l-2.24,1.77l2.21,2.79
			c0.07,0.09,0.16,0.14,0.27,0.13c0.11-0.01,0.25-0.08,0.42-0.22l0.22,0.28l-2.71,2.15l-0.22-0.28c0.3-0.24,0.38-0.45,0.23-0.64
			l-5.63-7.12c-0.15-0.19-0.38-0.16-0.68,0.08l-0.22-0.28L96.4,67.07z M98.89,71.07c0.38-0.3,0.67-0.57,0.87-0.83
			c0.21-0.26,0.34-0.49,0.4-0.71c0.06-0.22,0.07-0.43,0.02-0.62c-0.05-0.19-0.14-0.37-0.27-0.54c-0.13-0.17-0.29-0.3-0.46-0.39
			c-0.17-0.09-0.38-0.13-0.61-0.12c-0.23,0.01-0.49,0.09-0.79,0.23c-0.3,0.14-0.63,0.36-1.01,0.66l-2.71,2.15l1.84,2.32L98.89,71.07
			z"/>
		<path class="st1" d="M112.61,58.35c-0.08-0.12-0.19-0.18-0.32-0.18c-0.14,0-0.32,0.08-0.55,0.23l-5.41,3.56l1.36,2.07l3.28-2.15
			c0.22-0.15,0.38-0.29,0.46-0.43s0.04-0.34-0.13-0.6l0.3-0.2l1.71,2.61l-0.3,0.2c-0.17-0.26-0.34-0.38-0.51-0.37
			c-0.17,0.01-0.37,0.09-0.59,0.23l-3.28,2.15l1.52,2.31l5.58-3.67c0.17-0.11,0.28-0.24,0.33-0.39c0.05-0.15,0.04-0.29-0.05-0.42
			l0.3-0.2l1.51,2.29l-0.3,0.2c-0.11-0.17-0.23-0.23-0.35-0.18s-0.26,0.13-0.43,0.24l-7.79,5.12l-0.2-0.3
			c0.08-0.05,0.13-0.12,0.16-0.21c0.03-0.09,0.01-0.19-0.06-0.29l-4.99-7.59c-0.07-0.1-0.15-0.15-0.24-0.16
			c-0.09-0.01-0.18,0.01-0.26,0.06l-0.2-0.3l7.62-5.01c0.23-0.15,0.37-0.3,0.42-0.43c0.05-0.13,0.03-0.26-0.05-0.39l0.3-0.2
			l1.45,2.21L112.61,58.35z"/>
		<path class="st1" d="M119.91,63.25c0.22-0.12,0.28-0.29,0.17-0.5l-4.28-8.01c-0.11-0.21-0.28-0.26-0.51-0.14l-0.17-0.32l3.02-1.61
			l0.17,0.32c-0.09,0.05-0.11,0.13-0.05,0.25c0.05,0.09,0.26,0.2,0.62,0.31l7.87,2.55l-3-5.61c-0.11-0.21-0.32-0.24-0.63-0.07
			l-0.17-0.32l2.66-1.43l0.17,0.32c-0.22,0.12-0.28,0.29-0.17,0.5l4.29,8.01c0.11,0.21,0.28,0.26,0.5,0.14l0.17,0.32l-2.86,1.53
			l-0.17-0.32c0.15-0.08,0.2-0.18,0.14-0.28c-0.04-0.08-0.21-0.17-0.5-0.25l-8.38-2.73l3.13,5.85c0.11,0.21,0.3,0.25,0.57,0.1
			l0.17,0.32l-2.61,1.4L119.91,63.25z"/>
		<path class="st1" d="M135.45,44.35c0.68-0.28,1.35-0.45,2.01-0.5c0.67-0.05,1.3,0.04,1.9,0.25c0.6,0.22,1.15,0.58,1.65,1.09
			c0.5,0.51,0.93,1.17,1.27,1.99c0.35,0.82,0.52,1.59,0.53,2.3c0.01,0.71-0.12,1.36-0.38,1.94c-0.26,0.58-0.64,1.09-1.14,1.53
			c-0.5,0.44-1.09,0.81-1.77,1.09l-6.12,2.57l-0.14-0.33c0.28-0.12,0.38-0.29,0.28-0.51l-3.52-8.37c-0.09-0.22-0.28-0.27-0.56-0.15
			l-0.14-0.33L135.45,44.35z M138.12,52.77c0.58-0.24,1.06-0.5,1.45-0.78c0.39-0.28,0.67-0.6,0.85-0.98
			c0.18-0.37,0.25-0.79,0.21-1.27c-0.03-0.48-0.19-1.04-0.45-1.67c-0.27-0.64-0.56-1.14-0.88-1.5s-0.67-0.6-1.06-0.74
			c-0.39-0.13-0.82-0.16-1.29-0.08c-0.47,0.08-1,0.25-1.57,0.49l-2.86,1.2l2.74,6.53L138.12,52.77z"/>
		<path class="st1" d="M161.54,46.96l-0.23,0.07c-0.04-0.14-0.12-0.2-0.25-0.18c-0.13,0.02-0.26,0.05-0.4,0.09l-8.1,2.3
			c-0.14,0.04-0.25,0.08-0.34,0.13s-0.11,0.12-0.08,0.24l-0.23,0.07l-0.2-0.69c-0.19-0.68-0.19-1.31,0.01-1.9
			c0.2-0.58,0.51-1.13,0.91-1.65c0.41-0.52,0.87-1,1.38-1.45c0.51-0.45,0.98-0.89,1.42-1.31c0.43-0.42,0.78-0.83,1.04-1.22
			c0.26-0.39,0.33-0.79,0.21-1.18c-0.08-0.27-0.2-0.47-0.37-0.61c-0.17-0.14-0.37-0.23-0.59-0.29c-0.22-0.05-0.46-0.07-0.7-0.04
			c-0.24,0.03-0.47,0.07-0.69,0.13c-0.22,0.06-0.48,0.18-0.78,0.35c-0.3,0.17-0.57,0.37-0.82,0.61c-0.25,0.24-0.45,0.49-0.6,0.76
			c-0.15,0.27-0.19,0.54-0.11,0.81c0.02,0.06,0.06,0.14,0.12,0.24c0.06,0.09,0.12,0.15,0.19,0.18l-0.15,0.19l-2.58-1.55l0.15-0.19
			c0.06,0.01,0.12,0.02,0.18,0.03c0.06,0.01,0.12,0.01,0.18-0.01c0.08-0.02,0.19-0.16,0.34-0.41c0.15-0.25,0.37-0.54,0.67-0.88
			c0.29-0.33,0.68-0.67,1.17-1.02c0.48-0.35,1.1-0.62,1.84-0.84c0.49-0.14,0.98-0.22,1.48-0.23c0.5-0.02,0.97,0.05,1.41,0.19
			c0.44,0.15,0.82,0.38,1.16,0.71c0.34,0.33,0.58,0.77,0.74,1.34c0.17,0.6,0.2,1.14,0.08,1.6c-0.12,0.46-0.33,0.89-0.63,1.27
			c-0.3,0.38-0.66,0.74-1.08,1.07c-0.42,0.33-0.85,0.65-1.29,0.98c-0.44,0.33-0.86,0.66-1.26,0.99c-0.4,0.33-0.72,0.71-0.98,1.13
			l0.05,0.19l6.35-1.81c0.14-0.04,0.27-0.1,0.37-0.19c0.11-0.09,0.12-0.26,0.05-0.51l0.23-0.07L161.54,46.96z"/>
		<path class="st1" d="M166.41,34.75c0.76-0.15,1.49-0.17,2.21-0.04c0.71,0.13,1.36,0.38,1.95,0.75c0.59,0.37,1.08,0.85,1.5,1.43
			c0.41,0.58,0.7,1.26,0.85,2.03c0.16,0.77,0.16,1.51,0.01,2.2c-0.15,0.7-0.42,1.33-0.82,1.89c-0.4,0.56-0.9,1.04-1.51,1.42
			c-0.61,0.38-1.29,0.65-2.05,0.81c-0.76,0.15-1.49,0.18-2.2,0.06c-0.71-0.11-1.36-0.35-1.94-0.72c-0.58-0.36-1.08-0.84-1.49-1.42
			c-0.41-0.58-0.69-1.26-0.85-2.03c-0.16-0.77-0.16-1.51-0.01-2.2c0.15-0.7,0.42-1.33,0.82-1.9c0.39-0.57,0.89-1.05,1.5-1.45
			C164.97,35.18,165.65,34.9,166.41,34.75z M166.75,36.44c-0.46,0.09-0.86,0.27-1.22,0.53c-0.35,0.26-0.64,0.58-0.85,0.96
			c-0.22,0.38-0.36,0.8-0.43,1.27c-0.07,0.47-0.06,0.96,0.04,1.47c0.1,0.51,0.28,0.97,0.53,1.37c0.25,0.4,0.55,0.74,0.9,1
			c0.35,0.26,0.73,0.45,1.16,0.55c0.43,0.1,0.87,0.11,1.33,0.01c0.46-0.09,0.86-0.27,1.22-0.53c0.35-0.26,0.64-0.58,0.86-0.96
			c0.22-0.38,0.36-0.8,0.43-1.27c0.07-0.47,0.06-0.96-0.04-1.47c-0.1-0.51-0.28-0.97-0.53-1.37c-0.25-0.4-0.55-0.74-0.9-1
			s-0.73-0.45-1.16-0.55C167.65,36.35,167.21,36.34,166.75,36.44z"/>
		<path class="st1" d="M185.29,42.87l-0.24,0.03c-0.02-0.15-0.09-0.22-0.22-0.21c-0.13,0-0.26,0.01-0.41,0.03l-8.35,1.05
			c-0.15,0.02-0.26,0.04-0.35,0.08s-0.13,0.11-0.11,0.23l-0.24,0.03l-0.09-0.71c-0.09-0.7,0.01-1.33,0.3-1.87
			c0.29-0.55,0.67-1.05,1.15-1.5c0.48-0.45,1.01-0.86,1.58-1.23c0.57-0.37,1.1-0.73,1.6-1.08c0.49-0.35,0.9-0.7,1.21-1.05
			c0.31-0.35,0.44-0.73,0.39-1.14c-0.03-0.28-0.13-0.5-0.27-0.66c-0.15-0.16-0.33-0.29-0.54-0.38c-0.21-0.09-0.44-0.14-0.68-0.15
			c-0.24-0.01-0.48,0-0.7,0.03c-0.23,0.03-0.5,0.1-0.82,0.22c-0.32,0.12-0.62,0.28-0.91,0.48c-0.28,0.2-0.52,0.42-0.71,0.66
			c-0.19,0.25-0.27,0.51-0.23,0.79c0.01,0.07,0.04,0.15,0.08,0.25c0.05,0.1,0.1,0.17,0.16,0.2l-0.18,0.16l-2.32-1.93l0.18-0.16
			c0.06,0.02,0.11,0.04,0.17,0.06c0.06,0.02,0.12,0.03,0.18,0.02c0.08-0.01,0.21-0.13,0.4-0.35c0.19-0.23,0.45-0.48,0.79-0.77
			c0.34-0.28,0.78-0.56,1.31-0.83c0.53-0.27,1.18-0.45,1.95-0.55c0.5-0.06,1-0.07,1.5-0.01c0.5,0.06,0.95,0.19,1.36,0.4
			c0.41,0.21,0.76,0.5,1.04,0.88c0.28,0.37,0.46,0.85,0.53,1.43c0.08,0.62,0.02,1.15-0.16,1.59c-0.19,0.44-0.46,0.83-0.81,1.16
			c-0.35,0.33-0.76,0.63-1.23,0.89c-0.46,0.26-0.94,0.52-1.42,0.77c-0.49,0.26-0.95,0.52-1.39,0.79c-0.44,0.27-0.82,0.59-1.14,0.97
			l0.03,0.2l6.55-0.82c0.15-0.02,0.28-0.06,0.4-0.13c0.12-0.07,0.16-0.24,0.13-0.5l0.24-0.03L185.29,42.87z"/>
		<path class="st1" d="M197.32,42.19l-0.24,0.01c-0.01-0.15-0.07-0.22-0.2-0.23c-0.13-0.01-0.26-0.01-0.41,0l-8.41,0.41
			c-0.15,0.01-0.27,0.02-0.36,0.05c-0.09,0.02-0.13,0.1-0.13,0.22l-0.24,0.01l-0.04-0.72c-0.03-0.71,0.11-1.32,0.44-1.84
			c0.33-0.52,0.75-0.99,1.26-1.4c0.51-0.41,1.07-0.78,1.67-1.1c0.6-0.32,1.16-0.64,1.68-0.95c0.52-0.31,0.95-0.63,1.28-0.95
			c0.34-0.32,0.5-0.69,0.48-1.1c-0.01-0.28-0.09-0.51-0.22-0.68c-0.14-0.17-0.31-0.31-0.51-0.42s-0.43-0.17-0.67-0.2
			c-0.24-0.03-0.48-0.04-0.7-0.03c-0.23,0.01-0.5,0.06-0.83,0.16c-0.33,0.1-0.64,0.23-0.94,0.41c-0.3,0.18-0.55,0.38-0.76,0.61
			c-0.21,0.23-0.31,0.49-0.29,0.77c0,0.07,0.02,0.15,0.06,0.26s0.09,0.18,0.14,0.21l-0.19,0.15l-2.16-2.1l0.19-0.15
			c0.05,0.02,0.11,0.05,0.16,0.07c0.05,0.02,0.12,0.03,0.18,0.03c0.08,0,0.22-0.11,0.43-0.32c0.2-0.21,0.49-0.44,0.85-0.7
			c0.36-0.26,0.82-0.5,1.37-0.73c0.55-0.23,1.21-0.36,1.98-0.4c0.51-0.02,1.01,0.01,1.5,0.11c0.49,0.1,0.93,0.26,1.33,0.51
			c0.39,0.24,0.71,0.56,0.97,0.95c0.25,0.4,0.39,0.89,0.42,1.47c0.03,0.63-0.06,1.15-0.28,1.58c-0.22,0.42-0.52,0.79-0.9,1.1
			c-0.38,0.31-0.81,0.57-1.29,0.79c-0.48,0.22-0.98,0.45-1.48,0.66c-0.5,0.22-0.99,0.45-1.45,0.68c-0.46,0.24-0.87,0.53-1.21,0.88
			l0.01,0.2l6.59-0.32c0.15-0.01,0.28-0.04,0.41-0.1c0.12-0.06,0.18-0.22,0.17-0.49l0.24-0.01L197.32,42.19z"/>
		<path class="st1" d="M207.02,36.6c-0.03,1.14-0.98,2.03-2.12,2c-1.14-0.03-2.03-0.98-2-2.12c0.03-1.14,0.98-2.03,2.12-2
			C206.2,34.52,207.05,35.5,207.02,36.6z"/>
	</g>
</g>
</svg>
