<?xml version="1.0" encoding="utf-8"?>
<!-- Generator: Adobe Illustrator 26.0.3, SVG Export Plug-In . SVG Version: 6.00 Build 0)  -->
<svg version="1.1" id="レイヤー_1" xmlns="http://www.w3.org/2000/svg" xmlns:xlink="http://www.w3.org/1999/xlink" x="0px"
	 y="0px" viewBox="0 0 298 292.1" style="enable-background:new 0 0 298 292.1;" xml:space="preserve">
<style type="text/css">
	.st0{fill:#707CB3;}
	.st1{fill:#131313;}
	.st2{fill:#FFFFFF;}
</style>
<g>
	<g>
		<polygon class="st0" points="143.9,276.5 129,290.7 118,273.3 100.7,284.4 93.3,265.2 74.1,272.7 70.7,252.5 50.6,256.3 
			51.2,235.9 30.7,235.6 35.4,215.7 15.4,211.4 24,192.8 5.3,184.6 17.4,168.1 0.6,156.3 15.8,142.5 1.8,127.6 19.4,117.2 8.6,99.7 
			28,93 20.8,73.8 41.2,70.8 38,50.4 58.6,51.3 59.4,30.7 79.4,35.7 84.1,15.6 102.9,24.3 111.3,5.5 128.1,17.5 140,0.6 154.1,15.6 
			169,1.4 180,18.8 197.4,7.7 204.8,26.9 224,19.4 227.3,39.6 247.5,35.8 246.8,56.2 267.3,56.4 262.6,76.4 282.6,80.7 274,99.3 
			292.8,107.5 280.6,124 297.4,135.8 282.2,149.6 296.2,164.5 278.6,174.9 289.4,192.3 270.1,199.1 277.3,218.3 256.9,221.3 
			260.1,241.7 239.5,240.7 238.7,261.3 218.6,256.4 213.9,276.5 195.2,267.8 186.7,286.6 169.9,274.6 158.1,291.5 		"/>
		<path class="st1" d="M140,1.3l13.5,14.3l0.6,0.6l0.6-0.6L168.9,2l10.5,16.7l0.4,0.7l0.7-0.4l16.6-10.6l7.1,18.4l0.3,0.8l0.8-0.3
			l18.3-7.2l3.2,19.3L227,40l0.8-0.2l19.2-3.6l-0.6,19.6l0,0.8l0.8,0l19.6,0.2l-4.5,19l-0.2,0.8l0.8,0.2L282,81l-8.2,17.8l-0.3,0.7
			l0.7,0.3l17.9,7.9l-11.6,15.8l-0.5,0.7l0.7,0.5l16,11.3L282.2,149l-0.6,0.5l0.6,0.6l13.4,14.3l-16.8,10l-0.7,0.4l0.4,0.7
			l10.3,16.6l-18.5,6.5l-0.8,0.3l0.3,0.8l6.9,18.3l-19.5,2.9l-0.8,0.1l0.1,0.8l3.1,19.5l-19.7-0.9l-0.8,0l0,0.8l-0.8,19.7l-19.2-4.7
			l-0.8-0.2l-0.2,0.8l-4.5,19.2l-17.9-8.3l-0.7-0.3l-0.3,0.7l-8.1,18l-16-11.5l-0.7-0.5l-0.5,0.7L158,290.8l-13.5-14.3l-0.6-0.6
			l-0.6,0.6l-14.2,13.7l-10.5-16.7l-0.4-0.7l-0.7,0.4l-16.6,10.6l-7.1-18.4l-0.3-0.8l-0.8,0.3l-18.3,7.2l-3.2-19.3L71,252l-0.8,0.2
			L51,255.8l0.6-19.6l0-0.8l-0.8,0l-19.6-0.2l4.5-19l0.2-0.8l-0.8-0.2L16,211.1l8.2-17.8l0.3-0.7l-0.7-0.3l-17.9-7.9l11.6-15.8
			l0.5-0.7l-0.7-0.5l-16-11.3l14.5-13.1l0.6-0.5l-0.6-0.6L2.4,127.7l16.8-10l0.7-0.4l-0.4-0.7L9.2,100l18.5-6.5l0.8-0.3l-0.3-0.8
			l-6.9-18.3l19.5-2.9l0.8-0.1l-0.1-0.8l-3.1-19.5l19.7,0.9l0.8,0l0-0.8l0.8-19.7L78.9,36l0.8,0.2l0.2-0.8l4.5-19.2l17.9,8.3
			l0.7,0.3l0.3-0.7l8.1-18l16,11.5l0.7,0.5l0.5-0.7L140,1.3 M139.9,0L128,16.9L111.2,4.9l-8.5,18.9L83.9,15l-4.8,20.2L59,30.2
			l-0.8,20.7l-20.7-1l3.2,20.5l-20.5,3.1l7.2,19.3L8,99.5L18.9,117L1.2,127.5l14.1,15L0,156.3l16.8,11.9L4.6,184.7l18.8,8.3
			l-8.6,18.7l20.1,4.3l-4.7,20l20.6,0.2l-0.6,20.6l20.2-3.8l3.4,20.3l19.3-7.6l7.4,19.3l17.4-11.2l11,17.5l14.9-14.3l14.2,15.1
			l11.9-16.9l16.8,12.1l8.5-18.9l18.8,8.7l4.8-20.2l20.1,4.9l0.8-20.7l20.7,1l-3.2-20.5l20.5-3.1l-7.2-19.3l19.4-6.8l-10.8-17.5
			l17.7-10.5l-14.1-15l15.2-13.8l-16.8-11.9l12.2-16.6l-18.8-8.3l8.6-18.7l-20.1-4.3l4.7-20l-20.6-0.2l0.6-20.6l-20.2,3.8l-3.4-20.3
			L205,26.4l-7.4-19.3l-17.4,11.2l-11-17.5l-14.9,14.3L139.9,0L139.9,0z"/>
	</g>
	<g>
		<path class="st1" d="M50.8,116.5c0,0.2,0,0.4,0.1,0.7c0.1,0.2,0.3,0.4,0.9,0.6c0.5,0.2,1.1,0.3,1.9,0.4c0.8,0.1,1.6,0.1,2.5,0
			c0.9-0.1,1.9-0.2,2.8-0.5c1.8-0.5,3-1,3.7-1.6c0.7-0.6,1-1.3,0.8-2.1c-0.1-0.4-0.5-0.6-1.3-0.6c-0.8,0-1.7,0.1-2.8,0.3
			c-1.1,0.2-2.3,0.4-3.6,0.6c-1.3,0.2-2.5,0.3-3.7,0.2c-1.2,0-2.2-0.3-3.1-0.7c-0.9-0.4-1.5-1.2-1.8-2.3c-0.2-0.9-0.2-1.7,0-2.5
			c0.2-0.8,0.6-1.6,1.2-2.3c0.6-0.7,1.4-1.3,2.4-1.9c1-0.6,2.1-1,3.4-1.4c1.2-0.3,2.3-0.5,3.4-0.7c1.1-0.1,2-0.2,2.9-0.2
			c0.8,0,1.6,0,2.1,0c0.6,0,1,0,1.2-0.1c0.2-0.1,0.4-0.2,0.5-0.3c0.1-0.1,0.2-0.3,0.3-0.5l0.4,0l-1.1,5.4l-0.5-0.1l-0.1-0.4
			c-0.1-0.2-0.3-0.4-0.9-0.5c-0.5-0.1-1.1-0.1-1.9-0.1c-0.7,0-1.6,0.1-2.5,0.2c-0.9,0.1-1.8,0.3-2.6,0.5c-1.5,0.4-2.5,0.9-3.1,1.4
			c-0.5,0.5-0.7,1-0.6,1.3c0.1,0.4,0.4,0.6,0.9,0.7c0.5,0.1,1.1,0.1,1.8,0c0.7-0.1,1.5-0.2,2.4-0.4c0.9-0.2,1.8-0.3,2.7-0.5
			c0.9-0.1,1.9-0.2,2.8-0.2c0.9,0,1.8,0.1,2.6,0.3c0.8,0.2,1.5,0.6,2.1,1.1c0.6,0.5,1,1.3,1.3,2.3c0.2,0.8,0.2,1.5,0.1,2.4
			c-0.1,0.8-0.5,1.6-1.1,2.4c-0.6,0.8-1.5,1.5-2.7,2.2c-1.2,0.7-2.7,1.3-4.6,1.8c-1.5,0.4-2.8,0.7-3.9,0.8c-1.1,0.1-2.1,0.2-2.9,0.2
			c-0.8,0-1.4,0-1.9-0.1c-0.5,0-0.8,0-1,0c-0.1,0-0.3,0.1-0.3,0.2c-0.1,0.1-0.2,0.3-0.3,0.4l-0.5,0l1-6.8L50.8,116.5z"/>
		<path class="st1" d="M86.3,107.3c-0.1-0.2-0.3-0.4-0.5-0.5c-0.2-0.1-0.5-0.1-0.8,0l-6.5,1.8l0.9,3.2l11.3-3
			c0.2-0.1,0.3-0.2,0.4-0.3c0.1-0.2,0.1-0.5,0-0.9l0.4-0.1l1.6,5.9l-0.4,0.1c-0.1-0.3-0.2-0.4-0.4-0.5c-0.1,0-0.3,0-0.4,0l-17.6,4.7
			l-0.1-0.4c0.4-0.2,0.7-0.3,0.8-0.4c0.1-0.1,0.1-0.3,0.1-0.4l-4.3-16c0-0.2-0.1-0.3-0.3-0.4s-0.4-0.1-0.9,0l-0.1-0.4L87,94.9
			c0.2-0.1,0.3-0.2,0.4-0.3c0.1-0.2,0.1-0.4,0-0.8l0.4-0.1l1.6,6l-0.4,0.1c-0.2-0.4-0.3-0.6-0.4-0.7c-0.1-0.1-0.3-0.1-0.5-0.1
			l-11.3,3l0.8,2.9l6.5-1.8c0.4-0.1,0.6-0.2,0.7-0.4c0.1-0.2,0.2-0.4,0.1-0.6l0.4-0.1l1.4,5.4L86.3,107.3z"/>
		<path class="st1" d="M109.4,101.2c-0.1-0.2-0.3-0.4-0.5-0.5c-0.2-0.1-0.5-0.1-0.8,0l-6.5,1.8l0.9,3.2l11.3-3
			c0.2-0.1,0.3-0.2,0.4-0.3c0.1-0.2,0.1-0.5,0-0.9l0.4-0.1l1.6,5.9l-0.4,0.1c-0.1-0.3-0.2-0.4-0.4-0.5c-0.1,0-0.3,0-0.4,0l-17.6,4.7
			l-0.1-0.4c0.4-0.2,0.7-0.3,0.8-0.4c0.1-0.1,0.1-0.3,0.1-0.4l-4.3-16c0-0.2-0.1-0.3-0.3-0.4c-0.1-0.1-0.4-0.1-0.9,0l-0.1-0.4
			l17.6-4.7c0.2-0.1,0.3-0.2,0.4-0.3c0.1-0.2,0.1-0.4,0-0.8l0.4-0.1l1.6,6l-0.4,0.1c-0.2-0.4-0.3-0.6-0.4-0.7
			c-0.1-0.1-0.3-0.1-0.5-0.1l-11.3,3l0.8,2.9l6.5-1.8c0.4-0.1,0.6-0.2,0.7-0.4c0.1-0.2,0.2-0.4,0.1-0.6l0.4-0.1l1.4,5.4L109.4,101.2
			z"/>
		<path class="st1" d="M142.5,98.9c0.4-0.2,0.7-0.3,0.8-0.4c0.1-0.1,0.1-0.3,0.1-0.4l-3.4-12.6l-0.1-0.1l-2.7,15l-9.8-11.8l-0.1,0
			l3.4,12.9c0,0.2,0.1,0.3,0.3,0.4c0.1,0.1,0.4,0.1,0.9,0l0.1,0.4l-6.2,1.7l-0.1-0.4c0.4-0.2,0.7-0.3,0.8-0.4
			c0.1-0.1,0.1-0.3,0.1-0.4l-4.3-16c0-0.2-0.1-0.3-0.3-0.4c-0.1-0.1-0.4-0.1-0.9,0l-0.1-0.4l9.2-2.5l0.1,0.4
			c-0.6,0.2-0.8,0.5-0.7,0.8c0,0,0.1,0.2,0.4,0.5c0.2,0.3,0.5,0.7,0.9,1.1c0.4,0.4,0.7,0.9,1.2,1.4c0.4,0.5,0.8,1,1.2,1.5
			c0.4,0.5,0.7,0.9,1,1.3c0.3,0.4,0.5,0.6,0.6,0.7c0.2-1,0.3-1.9,0.6-2.9c0.2-0.9,0.4-1.8,0.5-2.6c0.2-0.8,0.3-1.4,0.4-1.9
			c0.1-0.5,0.1-0.8,0.1-0.9c-0.1-0.4-0.4-0.5-1-0.4l-0.1-0.4l9.5-2.6l0.1,0.4c-0.4,0.2-0.7,0.3-0.8,0.4c-0.1,0.1-0.1,0.3-0.1,0.4
			l4.3,16c0,0.2,0.1,0.3,0.3,0.4c0.1,0.1,0.4,0.1,0.9,0l0.1,0.4l-7,1.9L142.5,98.9z"/>
		<path class="st1" d="M159.8,75.1c1.5-0.4,3-0.6,4.4-0.5c1.4,0,2.8,0.3,4,0.8c1.2,0.5,2.3,1.3,3.1,2.2c0.9,1,1.5,2.2,1.9,3.8
			s0.5,2.9,0.2,4.2c-0.3,1.3-0.8,2.5-1.6,3.5c-0.8,1-1.8,1.9-3,2.7c-1.2,0.7-2.6,1.3-4.1,1.7c-1.5,0.4-3,0.6-4.4,0.6
			c-1.4,0-2.7-0.3-3.9-0.8c-1.2-0.5-2.3-1.3-3.1-2.3c-0.9-1-1.5-2.2-1.9-3.8s-0.5-2.9-0.2-4.2c0.3-1.3,0.8-2.5,1.6-3.5
			c0.8-1,1.8-1.9,3-2.7C157,76.1,158.3,75.5,159.8,75.1z M160.9,79.3c-0.8,0.2-1.5,0.5-2.1,0.9c-0.6,0.4-1.2,0.9-1.6,1.5
			c-0.4,0.6-0.7,1.2-0.8,1.9c-0.1,0.7-0.1,1.5,0.1,2.3c0.2,0.8,0.6,1.5,1.1,2c0.5,0.5,1,1,1.7,1.2c0.6,0.3,1.3,0.4,2.1,0.5
			c0.8,0,1.5,0,2.3-0.2c0.8-0.2,1.5-0.5,2.1-0.9c0.6-0.4,1.2-0.9,1.6-1.5c0.4-0.6,0.7-1.2,0.8-1.9c0.1-0.7,0.1-1.5-0.1-2.3
			c-0.2-0.8-0.6-1.5-1.1-2c-0.5-0.5-1-1-1.7-1.2c-0.6-0.3-1.3-0.4-2.1-0.5C162.5,79,161.7,79.1,160.9,79.3z"/>
		<path class="st1" d="M185.9,86.6c0,0.2,0.1,0.3,0.3,0.4c0.1,0.1,0.4,0.1,0.9,0l0.1,0.4l-7.2,1.9l-0.1-0.4c0.4-0.2,0.7-0.3,0.8-0.4
			c0.1-0.1,0.1-0.3,0.1-0.4l-4.3-16c0-0.2-0.1-0.3-0.3-0.4s-0.4-0.1-0.9,0l-0.1-0.4l12.9-3.5c2.6-0.7,4.6-0.7,6-0.1
			c1.4,0.6,2.4,1.9,2.9,3.8c0.4,1.6,0.3,2.9-0.4,4.1c-0.7,1.1-1.7,2.1-3.1,2.9l5.7,4.6c0.4,0.3,0.8,0.5,1.2,0.3l0.1,0.4l-7.3,2
			l-0.1-0.4c0.5-0.2,0.7-0.4,0.6-0.8c0,0-0.1-0.2-0.4-0.4c-0.3-0.2-0.6-0.5-1-0.8c-0.4-0.3-0.8-0.6-1.3-1c-0.5-0.4-0.9-0.7-1.3-1
			c-0.4-0.3-0.8-0.6-1.1-0.9c-0.3-0.3-0.5-0.4-0.6-0.5l-3.4,0.9L185.9,86.6z M189.3,75.6c1-0.3,1.7-0.7,2-1.1c0.3-0.5,0.4-1,0.2-1.5
			c-0.1-0.5-0.4-0.9-0.9-1.2c-0.5-0.3-1.2-0.3-2.3,0l-5.9,1.6l1,3.8L189.3,75.6z"/>
		<path class="st1" d="M217.1,72.3c-0.1-0.2-0.3-0.4-0.5-0.5c-0.2-0.1-0.5-0.1-0.8,0l-6.5,1.8l0.9,3.2l11.3-3
			c0.2-0.1,0.3-0.2,0.4-0.3c0.1-0.2,0.1-0.5,0-0.9l0.4-0.1l1.6,5.9l-0.4,0.1c-0.1-0.3-0.2-0.4-0.4-0.5c-0.1,0-0.3,0-0.4,0L205,82.6
			l-0.1-0.4c0.4-0.2,0.7-0.3,0.8-0.4c0.1-0.1,0.1-0.3,0.1-0.4l-4.3-16c0-0.2-0.1-0.3-0.3-0.4c-0.1-0.1-0.4-0.1-0.9,0l-0.1-0.4
			l17.6-4.7c0.2-0.1,0.3-0.2,0.4-0.3c0.1-0.2,0.1-0.4,0-0.8l0.4-0.1l1.6,6l-0.4,0.1c-0.2-0.4-0.3-0.6-0.4-0.7
			c-0.1-0.1-0.3-0.1-0.5-0.1l-11.3,3l0.8,2.9l6.5-1.8c0.4-0.1,0.6-0.2,0.7-0.4c0.1-0.2,0.2-0.4,0.1-0.6l0.4-0.1l1.4,5.4L217.1,72.3z
			"/>
	</g>
	<g>
		<path class="st1" d="M60.6,153.1c0,0.2,0,0.4,0.1,0.7c0.1,0.2,0.3,0.4,0.9,0.6c0.5,0.2,1.1,0.3,1.9,0.4c0.8,0.1,1.6,0.1,2.5,0
			c0.9-0.1,1.9-0.2,2.8-0.5c1.8-0.5,3-1,3.7-1.6c0.7-0.6,1-1.3,0.8-2.1c-0.1-0.4-0.5-0.6-1.3-0.6c-0.8,0-1.7,0.1-2.8,0.3
			c-1.1,0.2-2.3,0.4-3.6,0.6c-1.3,0.2-2.5,0.3-3.7,0.2c-1.2,0-2.2-0.3-3.1-0.7c-0.9-0.4-1.5-1.2-1.8-2.3c-0.2-0.9-0.2-1.7,0-2.5
			c0.2-0.8,0.6-1.6,1.2-2.3c0.6-0.7,1.4-1.3,2.4-1.9c1-0.6,2.1-1,3.4-1.4c1.2-0.3,2.3-0.5,3.4-0.7c1.1-0.1,2-0.2,2.9-0.2
			c0.8,0,1.6,0,2.1,0c0.6,0,1,0,1.2-0.1c0.2-0.1,0.4-0.2,0.5-0.3c0.1-0.1,0.2-0.3,0.3-0.5l0.4,0l-1.1,5.4l-0.5-0.1l-0.1-0.4
			c-0.1-0.2-0.3-0.4-0.9-0.5c-0.5-0.1-1.1-0.1-1.9-0.1c-0.7,0-1.6,0.1-2.5,0.2c-0.9,0.1-1.8,0.3-2.6,0.5c-1.5,0.4-2.5,0.9-3.1,1.4
			c-0.5,0.5-0.7,1-0.6,1.3c0.1,0.4,0.4,0.6,0.9,0.7c0.5,0.1,1.1,0.1,1.8,0c0.7-0.1,1.5-0.2,2.4-0.4c0.9-0.2,1.8-0.3,2.7-0.5
			c0.9-0.1,1.9-0.2,2.8-0.2c0.9,0,1.8,0.1,2.6,0.3c0.8,0.2,1.5,0.6,2.1,1.1c0.6,0.5,1,1.3,1.3,2.3c0.2,0.8,0.2,1.5,0.1,2.4
			c-0.1,0.8-0.5,1.6-1.1,2.4c-0.6,0.8-1.5,1.5-2.7,2.2c-1.2,0.7-2.7,1.3-4.6,1.8c-1.5,0.4-2.8,0.7-3.9,0.8c-1.1,0.1-2.1,0.2-2.9,0.2
			c-0.8,0-1.4,0-1.9-0.1c-0.5,0-0.8,0-1,0c-0.1,0-0.3,0.1-0.3,0.2c-0.1,0.1-0.2,0.3-0.3,0.4l-0.5,0l1-6.8L60.6,153.1z"/>
		<path class="st1" d="M96.1,143.9c-0.1-0.2-0.3-0.4-0.5-0.5c-0.2-0.1-0.5-0.1-0.8,0l-6.5,1.8l0.9,3.2l11.3-3
			c0.2-0.1,0.3-0.2,0.4-0.3c0.1-0.2,0.1-0.5,0-0.9l0.4-0.1l1.6,5.9l-0.4,0.1c-0.1-0.3-0.2-0.4-0.4-0.5c-0.1,0-0.3,0-0.4,0L84,154.3
			l-0.1-0.4c0.4-0.2,0.7-0.3,0.8-0.4c0.1-0.1,0.1-0.3,0.1-0.4l-4.3-16c0-0.2-0.1-0.3-0.3-0.4s-0.4-0.1-0.9,0l-0.1-0.4l17.6-4.7
			c0.2-0.1,0.3-0.2,0.4-0.3c0.1-0.2,0.1-0.4,0-0.8l0.4-0.1l1.6,6l-0.4,0.1c-0.2-0.4-0.3-0.6-0.4-0.7c-0.1-0.1-0.3-0.1-0.5-0.1
			l-11.3,3l0.8,2.9l6.5-1.8c0.4-0.1,0.6-0.2,0.7-0.4c0.1-0.2,0.2-0.4,0.1-0.6l0.4-0.1l1.4,5.4L96.1,143.9z"/>
		<path class="st1" d="M119.3,137.7c-0.1-0.2-0.3-0.4-0.5-0.5c-0.2-0.1-0.5-0.1-0.8,0l-6.5,1.8l0.9,3.2l11.3-3
			c0.2-0.1,0.3-0.2,0.4-0.3c0.1-0.2,0.1-0.5,0-0.9l0.4-0.1l1.6,5.9l-0.4,0.1c-0.1-0.3-0.2-0.4-0.4-0.5c-0.1,0-0.3,0-0.4,0l-17.6,4.7
			l-0.1-0.4c0.4-0.2,0.7-0.3,0.8-0.4c0.1-0.1,0.1-0.3,0.1-0.4l-4.3-16c0-0.2-0.1-0.3-0.3-0.4s-0.4-0.1-0.9,0l-0.1-0.4l17.6-4.7
			c0.2-0.1,0.3-0.2,0.4-0.3c0.1-0.2,0.1-0.4,0-0.8l0.4-0.1l1.6,6l-0.4,0.1c-0.2-0.4-0.3-0.6-0.4-0.7c-0.1-0.1-0.3-0.1-0.5-0.1
			l-11.3,3l0.8,2.9l6.5-1.8c0.4-0.1,0.6-0.2,0.7-0.4c0.1-0.2,0.2-0.4,0.1-0.6l0.4-0.1l1.4,5.4L119.3,137.7z"/>
		<path class="st1" d="M152.3,135.5c0.4-0.2,0.7-0.3,0.8-0.4c0.1-0.1,0.1-0.3,0.1-0.4l-3.4-12.6l-0.1-0.1l-2.7,15l-9.8-11.8l-0.1,0
			l3.4,12.9c0,0.2,0.1,0.3,0.3,0.4c0.1,0.1,0.4,0.1,0.9,0l0.1,0.4l-6.2,1.7l-0.1-0.4c0.4-0.2,0.7-0.3,0.8-0.4
			c0.1-0.1,0.1-0.3,0.1-0.4l-4.3-16c0-0.2-0.1-0.3-0.3-0.4s-0.4-0.1-0.9,0l-0.1-0.4l9.2-2.5l0.1,0.4c-0.6,0.2-0.8,0.5-0.7,0.8
			c0,0,0.1,0.2,0.4,0.5c0.2,0.3,0.5,0.7,0.9,1.1c0.4,0.4,0.7,0.9,1.2,1.4c0.4,0.5,0.8,1,1.2,1.5c0.4,0.5,0.7,0.9,1,1.3
			c0.3,0.4,0.5,0.6,0.6,0.7c0.2-1,0.3-1.9,0.6-2.9c0.2-0.9,0.4-1.8,0.5-2.6c0.2-0.8,0.3-1.4,0.4-1.9c0.1-0.5,0.1-0.8,0.1-0.9
			c-0.1-0.4-0.4-0.5-1-0.4l-0.1-0.4l9.5-2.6l0.1,0.4c-0.4,0.2-0.7,0.3-0.8,0.4c-0.1,0.1-0.1,0.3-0.1,0.4l4.3,16
			c0,0.2,0.1,0.3,0.3,0.4c0.1,0.1,0.4,0.1,0.9,0l0.1,0.4l-7,1.9L152.3,135.5z"/>
		<path class="st1" d="M169.6,111.7c1.5-0.4,3-0.6,4.4-0.5c1.4,0,2.8,0.3,4,0.8c1.2,0.5,2.3,1.3,3.1,2.2c0.9,1,1.5,2.2,1.9,3.8
			s0.5,2.9,0.2,4.2c-0.3,1.3-0.8,2.5-1.6,3.5c-0.8,1-1.8,1.9-3,2.7c-1.2,0.7-2.6,1.3-4.1,1.7s-3,0.6-4.4,0.6c-1.4,0-2.7-0.3-3.9-0.8
			c-1.2-0.5-2.3-1.3-3.1-2.3c-0.9-1-1.5-2.2-1.9-3.8c-0.4-1.5-0.5-2.9-0.2-4.2c0.3-1.3,0.8-2.5,1.6-3.5c0.8-1,1.8-1.9,3-2.7
			C166.8,112.7,168.1,112.1,169.6,111.7z M170.8,115.9c-0.8,0.2-1.5,0.5-2.1,0.9c-0.6,0.4-1.2,0.9-1.6,1.5c-0.4,0.6-0.7,1.2-0.8,1.9
			c-0.1,0.7-0.1,1.5,0.1,2.3c0.2,0.8,0.6,1.5,1.1,2c0.5,0.5,1,1,1.7,1.2c0.6,0.3,1.3,0.4,2.1,0.5c0.8,0,1.5,0,2.3-0.2
			c0.8-0.2,1.5-0.5,2.1-0.9c0.6-0.4,1.2-0.9,1.6-1.5c0.4-0.6,0.7-1.2,0.8-1.9c0.1-0.7,0.1-1.5-0.1-2.3c-0.2-0.8-0.6-1.5-1.1-2
			c-0.5-0.5-1-1-1.7-1.2c-0.6-0.3-1.3-0.4-2.1-0.5C172.3,115.6,171.5,115.7,170.8,115.9z"/>
		<path class="st1" d="M195.7,123.2c0,0.2,0.1,0.3,0.3,0.4c0.1,0.1,0.4,0.1,0.9,0l0.1,0.4l-7.2,1.9l-0.1-0.4
			c0.4-0.2,0.7-0.3,0.8-0.4c0.1-0.1,0.1-0.3,0.1-0.4l-4.3-16c0-0.2-0.1-0.3-0.3-0.4c-0.1-0.1-0.4-0.1-0.9,0l-0.1-0.4l12.9-3.5
			c2.6-0.7,4.6-0.7,6-0.1c1.4,0.6,2.4,1.9,2.9,3.8c0.4,1.6,0.3,2.9-0.4,4.1c-0.7,1.1-1.7,2.1-3.1,2.9l5.7,4.6
			c0.4,0.3,0.8,0.5,1.2,0.3l0.1,0.4l-7.3,2l-0.1-0.4c0.5-0.2,0.7-0.4,0.6-0.8c0,0-0.1-0.2-0.4-0.4c-0.3-0.2-0.6-0.5-1-0.8
			c-0.4-0.3-0.8-0.6-1.3-1c-0.5-0.4-0.9-0.7-1.3-1c-0.4-0.3-0.8-0.6-1.1-0.9c-0.3-0.3-0.5-0.4-0.6-0.5l-3.4,0.9L195.7,123.2z
			 M199.1,112.2c1-0.3,1.7-0.7,2-1.1c0.3-0.5,0.4-1,0.2-1.5c-0.1-0.5-0.4-0.9-0.9-1.2c-0.5-0.3-1.2-0.3-2.3,0l-5.9,1.6l1,3.8
			L199.1,112.2z"/>
		<path class="st1" d="M226.9,108.9c-0.1-0.2-0.3-0.4-0.5-0.5c-0.2-0.1-0.5-0.1-0.8,0l-6.5,1.8l0.9,3.2l11.3-3
			c0.2-0.1,0.3-0.2,0.4-0.3c0.1-0.2,0.1-0.5,0-0.9l0.4-0.1l1.6,5.9l-0.4,0.1c-0.1-0.3-0.2-0.4-0.4-0.5c-0.1,0-0.3,0-0.4,0l-17.6,4.7
			l-0.1-0.4c0.4-0.2,0.7-0.3,0.8-0.4c0.1-0.1,0.1-0.3,0.1-0.4l-4.3-16c0-0.2-0.1-0.3-0.3-0.4s-0.4-0.1-0.9,0l-0.1-0.4l17.6-4.7
			c0.2-0.1,0.3-0.2,0.4-0.3c0.1-0.2,0.1-0.4,0-0.8l0.4-0.1l1.6,6l-0.4,0.1c-0.2-0.4-0.3-0.6-0.4-0.7c-0.1-0.1-0.3-0.1-0.5-0.1
			l-11.3,3l0.8,2.9l6.5-1.8c0.4-0.1,0.6-0.2,0.7-0.4c0.1-0.2,0.2-0.4,0.1-0.6l0.4-0.1l1.4,5.4L226.9,108.9z"/>
	</g>
	<g>
		<path class="st2" d="M70.4,189.7c0,0.2,0,0.4,0.1,0.7c0.1,0.2,0.3,0.4,0.9,0.6c0.5,0.2,1.1,0.3,1.9,0.4c0.8,0.1,1.6,0.1,2.5,0
			c0.9-0.1,1.9-0.2,2.8-0.5c1.8-0.5,3-1,3.7-1.6s1-1.3,0.8-2.1c-0.1-0.4-0.5-0.6-1.3-0.6s-1.7,0.1-2.8,0.3c-1.1,0.2-2.3,0.4-3.6,0.6
			c-1.3,0.2-2.5,0.3-3.7,0.2c-1.2,0-2.2-0.3-3.1-0.7c-0.9-0.4-1.5-1.2-1.8-2.3c-0.2-0.9-0.2-1.7,0-2.5c0.2-0.8,0.6-1.6,1.2-2.3
			c0.6-0.7,1.4-1.3,2.4-1.9c1-0.6,2.1-1,3.4-1.4c1.2-0.3,2.3-0.5,3.4-0.7c1.1-0.1,2-0.2,2.9-0.2c0.8,0,1.6,0,2.1,0
			c0.6,0,1,0,1.2-0.1c0.2-0.1,0.4-0.2,0.5-0.3c0.1-0.1,0.2-0.3,0.3-0.5l0.4,0l-1.1,5.4l-0.5-0.1l-0.1-0.4c-0.1-0.2-0.3-0.4-0.9-0.5
			c-0.5-0.1-1.1-0.1-1.9-0.1c-0.7,0-1.6,0.1-2.5,0.2c-0.9,0.1-1.8,0.3-2.6,0.5c-1.5,0.4-2.5,0.9-3.1,1.4c-0.5,0.5-0.7,1-0.6,1.3
			c0.1,0.4,0.4,0.6,0.9,0.7c0.5,0.1,1.1,0.1,1.8,0c0.7-0.1,1.5-0.2,2.4-0.4c0.9-0.2,1.8-0.3,2.7-0.5c0.9-0.1,1.9-0.2,2.8-0.2
			s1.8,0.1,2.6,0.3c0.8,0.2,1.5,0.6,2.1,1.1c0.6,0.5,1,1.3,1.3,2.3c0.2,0.8,0.2,1.5,0.1,2.4c-0.1,0.8-0.5,1.6-1.1,2.4
			c-0.6,0.8-1.5,1.5-2.7,2.2c-1.2,0.7-2.7,1.3-4.6,1.8c-1.5,0.4-2.8,0.7-3.9,0.8c-1.1,0.1-2.1,0.2-2.9,0.2c-0.8,0-1.4,0-1.9-0.1
			c-0.5,0-0.8,0-1,0c-0.1,0-0.3,0.1-0.3,0.2c-0.1,0.1-0.2,0.3-0.3,0.4l-0.5,0l1-6.8L70.4,189.7z"/>
		<path class="st2" d="M105.9,180.5c-0.1-0.2-0.3-0.4-0.5-0.5c-0.2-0.1-0.5-0.1-0.8,0l-6.5,1.8L99,185l11.3-3
			c0.2-0.1,0.3-0.2,0.4-0.3c0.1-0.2,0.1-0.5,0-0.9l0.4-0.1l1.6,5.9l-0.4,0.1c-0.1-0.3-0.2-0.4-0.4-0.5c-0.1,0-0.3,0-0.4,0l-17.6,4.7
			l-0.1-0.4c0.4-0.2,0.7-0.3,0.8-0.4c0.1-0.1,0.1-0.3,0.1-0.4l-4.3-16c0-0.2-0.1-0.3-0.3-0.4s-0.4-0.1-0.9,0l-0.1-0.4l17.6-4.7
			c0.2-0.1,0.3-0.2,0.4-0.3c0.1-0.2,0.1-0.4,0-0.8l0.4-0.1l1.6,6l-0.4,0.1c-0.2-0.4-0.3-0.6-0.4-0.7c-0.1-0.1-0.3-0.1-0.5-0.1
			l-11.3,3l0.8,2.9l6.5-1.8c0.4-0.1,0.6-0.2,0.7-0.4c0.1-0.2,0.2-0.4,0.1-0.6l0.4-0.1l1.4,5.4L105.9,180.5z"/>
		<path class="st2" d="M129.1,174.3c-0.1-0.2-0.3-0.4-0.5-0.5c-0.2-0.1-0.5-0.1-0.8,0l-6.5,1.8l0.9,3.2l11.3-3
			c0.2-0.1,0.3-0.2,0.4-0.3c0.1-0.2,0.1-0.5,0-0.9l0.4-0.1l1.6,5.9l-0.4,0.1c-0.1-0.3-0.2-0.4-0.4-0.5c-0.1,0-0.3,0-0.4,0l-17.6,4.7
			l-0.1-0.4c0.4-0.2,0.7-0.3,0.8-0.4c0.1-0.1,0.1-0.3,0.1-0.4l-4.3-16c0-0.2-0.1-0.3-0.3-0.4c-0.1-0.1-0.4-0.1-0.9,0l-0.1-0.4
			l17.6-4.7c0.2-0.1,0.3-0.2,0.4-0.3c0.1-0.2,0.1-0.4,0-0.8l0.4-0.1l1.6,6l-0.4,0.1c-0.2-0.4-0.3-0.6-0.4-0.7
			c-0.1-0.1-0.3-0.1-0.5-0.1l-11.3,3l0.8,2.9l6.5-1.8c0.4-0.1,0.6-0.2,0.7-0.4c0.1-0.2,0.2-0.4,0.1-0.6l0.4-0.1l1.4,5.4L129.1,174.3
			z"/>
		<path class="st2" d="M162.1,172.1c0.4-0.2,0.7-0.3,0.8-0.4c0.1-0.1,0.1-0.3,0.1-0.4l-3.4-12.6l-0.1,0l-2.7,15l-9.8-11.8l-0.1,0
			l3.4,12.9c0,0.2,0.1,0.3,0.3,0.4s0.4,0.1,0.9,0l0.1,0.4l-6.2,1.7l-0.1-0.4c0.4-0.2,0.7-0.3,0.8-0.4c0.1-0.1,0.1-0.3,0.1-0.4
			l-4.3-16c0-0.2-0.1-0.3-0.3-0.4c-0.1-0.1-0.4-0.1-0.9,0l-0.1-0.4l9.2-2.5l0.1,0.4c-0.6,0.2-0.8,0.5-0.7,0.8c0,0,0.1,0.2,0.4,0.5
			c0.2,0.3,0.5,0.7,0.9,1.1c0.4,0.4,0.7,0.9,1.2,1.4c0.4,0.5,0.8,1,1.2,1.5c0.4,0.5,0.7,0.9,1,1.3c0.3,0.4,0.5,0.6,0.6,0.7
			c0.2-1,0.3-1.9,0.6-2.9c0.2-0.9,0.4-1.8,0.5-2.6c0.2-0.8,0.3-1.4,0.4-1.9c0.1-0.5,0.1-0.8,0.1-0.9c-0.1-0.4-0.4-0.5-1-0.4
			l-0.1-0.4l9.5-2.6l0.1,0.4c-0.4,0.2-0.7,0.3-0.8,0.4c-0.1,0.1-0.1,0.3-0.1,0.4l4.3,16c0,0.2,0.1,0.3,0.3,0.4
			c0.1,0.1,0.4,0.1,0.9,0l0.1,0.4l-7,1.9L162.1,172.1z"/>
		<path class="st2" d="M179.4,148.3c1.5-0.4,3-0.6,4.4-0.5c1.4,0,2.8,0.3,4,0.8c1.2,0.5,2.3,1.3,3.1,2.3c0.9,1,1.5,2.2,1.9,3.8
			c0.4,1.5,0.5,2.9,0.2,4.2c-0.3,1.3-0.8,2.5-1.6,3.5c-0.8,1-1.8,1.9-3,2.7c-1.2,0.7-2.6,1.3-4.1,1.7s-3,0.6-4.4,0.6
			c-1.4,0-2.7-0.3-3.9-0.8c-1.2-0.5-2.3-1.3-3.1-2.2c-0.9-1-1.5-2.2-1.9-3.8c-0.4-1.5-0.5-2.9-0.2-4.2c0.3-1.3,0.8-2.5,1.6-3.5
			c0.8-1,1.8-1.9,3-2.7C176.6,149.3,177.9,148.7,179.4,148.3z M180.6,152.5c-0.8,0.2-1.5,0.5-2.1,0.9c-0.6,0.4-1.2,0.9-1.6,1.5
			c-0.4,0.6-0.7,1.2-0.8,1.9c-0.1,0.7-0.1,1.5,0.1,2.3c0.2,0.8,0.6,1.5,1.1,2c0.5,0.5,1,1,1.7,1.2c0.6,0.3,1.3,0.4,2.1,0.5
			c0.8,0,1.5,0,2.3-0.2c0.8-0.2,1.5-0.5,2.1-0.9c0.6-0.4,1.2-0.9,1.6-1.5c0.4-0.6,0.7-1.2,0.8-1.9c0.1-0.7,0.1-1.5-0.1-2.3
			c-0.2-0.8-0.6-1.5-1.1-2c-0.5-0.5-1-1-1.7-1.2s-1.3-0.4-2.1-0.5C182.1,152.2,181.3,152.3,180.6,152.5z"/>
		<path class="st2" d="M205.5,159.8c0,0.2,0.1,0.3,0.3,0.4s0.4,0.1,0.9,0l0.1,0.4l-7.2,1.9l-0.1-0.4c0.4-0.2,0.7-0.3,0.8-0.4
			c0.1-0.1,0.1-0.3,0.1-0.4l-4.3-16c0-0.2-0.1-0.3-0.3-0.4s-0.4-0.1-0.9,0l-0.1-0.4l12.9-3.5c2.6-0.7,4.6-0.7,6-0.1
			c1.4,0.6,2.4,1.9,2.9,3.8c0.4,1.6,0.3,2.9-0.4,4.1c-0.7,1.1-1.7,2.1-3.1,2.9l5.7,4.6c0.4,0.3,0.8,0.5,1.2,0.3l0.1,0.4l-7.3,2
			l-0.1-0.4c0.5-0.2,0.7-0.4,0.6-0.8c0,0-0.1-0.2-0.4-0.4c-0.3-0.2-0.6-0.5-1-0.8c-0.4-0.3-0.8-0.6-1.3-1c-0.5-0.4-0.9-0.7-1.3-1
			c-0.4-0.3-0.8-0.6-1.1-0.9c-0.3-0.3-0.5-0.4-0.6-0.5L204,154L205.5,159.8z M208.9,148.8c1-0.3,1.7-0.7,2-1.1
			c0.3-0.5,0.4-1,0.2-1.5c-0.1-0.5-0.4-0.9-0.9-1.2c-0.5-0.3-1.2-0.3-2.3,0l-5.9,1.6l1,3.8L208.9,148.8z"/>
		<path class="st2" d="M236.7,145.5c-0.1-0.2-0.3-0.4-0.5-0.5s-0.5-0.1-0.8,0l-6.5,1.8l0.9,3.2l11.3-3c0.2-0.1,0.3-0.2,0.4-0.3
			c0.1-0.2,0.1-0.5,0-0.9l0.4-0.1l1.6,5.9l-0.4,0.1c-0.1-0.3-0.2-0.4-0.4-0.5c-0.1,0-0.3,0-0.4,0l-17.6,4.7l-0.1-0.4
			c0.4-0.2,0.7-0.3,0.8-0.4c0.1-0.1,0.1-0.3,0.1-0.4l-4.3-16c0-0.2-0.1-0.3-0.3-0.4s-0.4-0.1-0.9,0l-0.1-0.4l17.6-4.7
			c0.2-0.1,0.3-0.2,0.4-0.3c0.1-0.2,0.1-0.4,0-0.8l0.4-0.1l1.6,6l-0.4,0.1c-0.2-0.4-0.3-0.6-0.4-0.7c-0.1-0.1-0.3-0.1-0.5-0.1
			l-11.3,3l0.8,2.9l6.5-1.8c0.4-0.1,0.6-0.2,0.7-0.4c0.1-0.2,0.2-0.4,0.1-0.6l0.4-0.1l1.4,5.4L236.7,145.5z"/>
	</g>
	<g>
		<path class="st1" d="M80.2,226.2c0,0.1,0,0.4,0.1,0.7c0.1,0.2,0.3,0.4,0.9,0.6c0.5,0.2,1.1,0.3,1.9,0.4c0.8,0.1,1.6,0.1,2.5,0
			s1.9-0.2,2.8-0.5c1.8-0.5,3-1,3.7-1.6c0.7-0.6,1-1.3,0.8-2.1c-0.1-0.4-0.5-0.6-1.3-0.6c-0.8,0-1.7,0.1-2.8,0.3
			c-1.1,0.2-2.3,0.4-3.6,0.6c-1.3,0.2-2.5,0.3-3.7,0.2c-1.2,0-2.2-0.3-3.1-0.7c-0.9-0.4-1.5-1.2-1.8-2.3c-0.2-0.9-0.2-1.7,0-2.5
			c0.2-0.8,0.6-1.6,1.2-2.3c0.6-0.7,1.4-1.3,2.4-1.9c1-0.6,2.1-1,3.4-1.4c1.2-0.3,2.3-0.5,3.4-0.7c1.1-0.1,2-0.2,2.9-0.2
			c0.8,0,1.6,0,2.1,0c0.6,0,1,0,1.2-0.1c0.2-0.1,0.4-0.2,0.5-0.3c0.1-0.1,0.2-0.3,0.3-0.5l0.4,0l-1.1,5.4l-0.5-0.1l-0.1-0.4
			c-0.1-0.2-0.3-0.4-0.9-0.5c-0.5-0.1-1.1-0.1-1.9-0.1c-0.7,0-1.6,0.1-2.5,0.2c-0.9,0.1-1.8,0.3-2.6,0.5c-1.5,0.4-2.5,0.9-3.1,1.4
			s-0.7,1-0.6,1.3c0.1,0.4,0.4,0.6,0.9,0.7c0.5,0.1,1.1,0.1,1.8,0c0.7-0.1,1.5-0.2,2.4-0.4c0.9-0.2,1.8-0.3,2.7-0.5
			c0.9-0.1,1.9-0.2,2.8-0.2c0.9,0,1.8,0.1,2.6,0.3c0.8,0.2,1.5,0.6,2.1,1.1c0.6,0.5,1,1.3,1.3,2.3c0.2,0.8,0.2,1.5,0.1,2.4
			c-0.1,0.8-0.5,1.6-1.1,2.4c-0.6,0.8-1.5,1.5-2.7,2.2c-1.2,0.7-2.7,1.3-4.6,1.8c-1.5,0.4-2.8,0.7-3.9,0.8c-1.1,0.1-2.1,0.2-2.9,0.2
			c-0.8,0-1.4,0-1.9-0.1c-0.5,0-0.8,0-1,0c-0.1,0-0.3,0.1-0.3,0.2c-0.1,0.1-0.2,0.3-0.3,0.4l-0.5,0l1-6.8L80.2,226.2z"/>
		<path class="st1" d="M115.8,217.1c-0.1-0.2-0.3-0.4-0.5-0.5c-0.2-0.1-0.5-0.1-0.8,0l-6.5,1.8l0.9,3.2l11.3-3
			c0.2-0.1,0.3-0.2,0.4-0.3c0.1-0.2,0.1-0.5,0-0.9l0.4-0.1l1.6,5.9l-0.4,0.1c-0.1-0.3-0.2-0.4-0.4-0.5c-0.1,0-0.3,0-0.4,0l-17.6,4.7
			l-0.1-0.4c0.4-0.2,0.7-0.3,0.8-0.4c0.1-0.1,0.1-0.3,0.1-0.4l-4.3-16c0-0.2-0.1-0.3-0.3-0.4c-0.1-0.1-0.4-0.1-0.9,0l-0.1-0.4
			l17.6-4.7c0.2-0.1,0.3-0.2,0.4-0.3c0.1-0.2,0.1-0.4,0-0.8l0.4-0.1l1.6,6l-0.4,0.1c-0.2-0.4-0.3-0.6-0.4-0.7
			c-0.1-0.1-0.3-0.1-0.5-0.1l-11.3,3l0.8,2.9l6.5-1.8c0.4-0.1,0.6-0.2,0.7-0.4c0.1-0.2,0.2-0.4,0.1-0.6l0.4-0.1l1.4,5.4L115.8,217.1
			z"/>
		<path class="st1" d="M138.9,210.9c-0.1-0.2-0.3-0.4-0.5-0.5c-0.2-0.1-0.5-0.1-0.8,0l-6.5,1.8l0.9,3.2l11.3-3
			c0.2-0.1,0.3-0.2,0.4-0.3c0.1-0.2,0.1-0.5,0-0.9l0.4-0.1l1.6,5.9l-0.4,0.1c-0.1-0.3-0.2-0.4-0.4-0.5c-0.1,0-0.3,0-0.4,0l-17.6,4.7
			l-0.1-0.4c0.4-0.2,0.7-0.3,0.8-0.4c0.1-0.1,0.1-0.3,0.1-0.4l-4.3-16c0-0.2-0.1-0.3-0.3-0.4s-0.4-0.1-0.9,0l-0.1-0.4l17.6-4.7
			c0.2-0.1,0.3-0.2,0.4-0.3c0.1-0.2,0.1-0.4,0-0.8l0.4-0.1l1.6,6l-0.4,0.1c-0.2-0.4-0.3-0.6-0.4-0.7c-0.1-0.1-0.3-0.1-0.5-0.1
			l-11.3,3l0.8,2.9l6.5-1.8c0.4-0.1,0.6-0.2,0.7-0.4c0.1-0.2,0.2-0.4,0.1-0.6l0.4-0.1l1.4,5.4L138.9,210.9z"/>
		<path class="st1" d="M171.9,208.7c0.4-0.2,0.7-0.3,0.8-0.4c0.1-0.1,0.1-0.3,0.1-0.4l-3.4-12.6l-0.1-0.1l-2.7,15l-9.8-11.8l-0.1,0
			l3.4,12.9c0,0.2,0.1,0.3,0.3,0.4c0.1,0.1,0.4,0.1,0.9,0l0.1,0.4l-6.2,1.7l-0.1-0.4c0.4-0.2,0.7-0.3,0.8-0.4
			c0.1-0.1,0.1-0.3,0.1-0.4l-4.3-16c0-0.2-0.1-0.3-0.3-0.4s-0.4-0.1-0.9,0l-0.1-0.4l9.2-2.5l0.1,0.4c-0.6,0.2-0.8,0.5-0.7,0.8
			c0,0,0.1,0.2,0.4,0.5c0.2,0.3,0.5,0.7,0.9,1.1c0.4,0.4,0.7,0.9,1.2,1.4c0.4,0.5,0.8,1,1.2,1.5c0.4,0.5,0.7,0.9,1,1.3
			c0.3,0.4,0.5,0.6,0.6,0.7c0.2-1,0.3-1.9,0.6-2.9c0.2-0.9,0.4-1.8,0.5-2.6c0.2-0.8,0.3-1.4,0.4-1.9c0.1-0.5,0.1-0.8,0.1-0.9
			c-0.1-0.4-0.4-0.5-1-0.4l-0.1-0.4l9.5-2.6l0.1,0.4c-0.4,0.2-0.7,0.3-0.8,0.4c-0.1,0.1-0.1,0.3-0.1,0.4l4.3,16
			c0,0.2,0.1,0.3,0.3,0.4c0.1,0.1,0.4,0.1,0.9,0l0.1,0.4l-7,1.9L171.9,208.7z"/>
		<path class="st1" d="M189.2,184.9c1.5-0.4,3-0.6,4.4-0.5c1.4,0,2.8,0.3,4,0.8c1.2,0.5,2.3,1.3,3.1,2.2c0.9,1,1.5,2.2,1.9,3.8
			c0.4,1.5,0.5,2.9,0.2,4.2c-0.3,1.3-0.8,2.5-1.6,3.5c-0.8,1-1.8,1.9-3,2.7c-1.2,0.7-2.6,1.3-4.1,1.7s-3,0.6-4.4,0.6
			c-1.4,0-2.7-0.3-3.9-0.8c-1.2-0.5-2.3-1.3-3.1-2.3c-0.9-1-1.5-2.2-1.9-3.7c-0.4-1.5-0.5-2.9-0.2-4.2c0.3-1.3,0.8-2.5,1.6-3.5
			c0.8-1,1.8-1.9,3-2.7C186.4,185.9,187.7,185.3,189.2,184.9z M190.4,189.1c-0.8,0.2-1.5,0.5-2.1,0.9c-0.6,0.4-1.2,0.9-1.6,1.5
			c-0.4,0.6-0.7,1.2-0.8,1.9c-0.1,0.7-0.1,1.5,0.1,2.3c0.2,0.8,0.6,1.5,1.1,2c0.5,0.5,1,1,1.7,1.2c0.6,0.3,1.3,0.4,2.1,0.5
			c0.8,0,1.5,0,2.3-0.2c0.8-0.2,1.5-0.5,2.1-0.9c0.6-0.4,1.2-0.9,1.6-1.5c0.4-0.6,0.7-1.2,0.8-1.9c0.1-0.7,0.1-1.5-0.1-2.3
			c-0.2-0.8-0.6-1.5-1.1-2c-0.5-0.5-1-1-1.7-1.2c-0.6-0.3-1.3-0.4-2.1-0.5C191.9,188.8,191.1,188.9,190.4,189.1z"/>
		<path class="st1" d="M215.3,196.4c0,0.2,0.1,0.3,0.3,0.4c0.1,0.1,0.4,0.1,0.9,0l0.1,0.4l-7.2,1.9l-0.1-0.4
			c0.4-0.2,0.7-0.3,0.8-0.4c0.1-0.1,0.1-0.3,0.1-0.4l-4.3-16c0-0.2-0.1-0.3-0.3-0.4c-0.1-0.1-0.4-0.1-0.9,0l-0.1-0.4l12.9-3.5
			c2.6-0.7,4.6-0.7,6-0.1c1.4,0.6,2.4,1.9,2.9,3.8c0.4,1.6,0.3,2.9-0.4,4.1c-0.7,1.1-1.7,2.1-3.1,2.9l5.7,4.6
			c0.4,0.3,0.8,0.5,1.2,0.3l0.1,0.4l-7.3,2l-0.1-0.4c0.5-0.2,0.7-0.4,0.6-0.8c0,0-0.1-0.2-0.4-0.4c-0.3-0.2-0.6-0.5-1-0.8
			c-0.4-0.3-0.8-0.6-1.3-1c-0.5-0.4-0.9-0.7-1.3-1c-0.4-0.3-0.8-0.6-1.1-0.9c-0.3-0.3-0.5-0.4-0.6-0.5l-3.4,0.9L215.3,196.4z
			 M218.7,185.4c1-0.3,1.7-0.7,2-1.1c0.3-0.5,0.4-1,0.2-1.5c-0.1-0.5-0.4-0.9-0.9-1.2c-0.5-0.3-1.2-0.3-2.3,0l-5.9,1.6l1,3.8
			L218.7,185.4z"/>
		<path class="st1" d="M246.5,182.1c-0.1-0.2-0.3-0.4-0.5-0.5c-0.2-0.1-0.5-0.1-0.8,0l-6.5,1.8l0.9,3.2l11.3-3
			c0.2-0.1,0.3-0.2,0.4-0.3c0.1-0.2,0.1-0.5,0-0.9l0.4-0.1l1.6,5.9l-0.4,0.1c-0.1-0.3-0.2-0.4-0.4-0.5c-0.1,0-0.3,0-0.4,0l-17.6,4.7
			l-0.1-0.4c0.4-0.2,0.7-0.3,0.8-0.4c0.1-0.1,0.1-0.3,0.1-0.4l-4.3-16c0-0.2-0.1-0.3-0.3-0.4s-0.4-0.1-0.9,0l-0.1-0.4l17.6-4.7
			c0.2-0.1,0.3-0.2,0.4-0.3c0.1-0.2,0.1-0.4,0-0.8l0.4-0.1l1.6,6l-0.4,0.1c-0.2-0.4-0.3-0.6-0.4-0.7c-0.1-0.1-0.3-0.1-0.5-0.1
			l-11.3,3l0.8,2.9l6.5-1.8c0.4-0.1,0.6-0.2,0.7-0.4c0.1-0.2,0.2-0.4,0.1-0.6l0.4-0.1l1.4,5.4L246.5,182.1z"/>
	</g>
</g>
</svg>
