<?xml version="1.0" encoding="utf-8"?>
<!-- Generator: Adobe Illustrator 24.2.3, SVG Export Plug-In . SVG Version: 6.00 Build 0)  -->
<svg version="1.1" id="レイヤー_1" xmlns="http://www.w3.org/2000/svg" xmlns:xlink="http://www.w3.org/1999/xlink" x="0px"
	 y="0px" viewBox="0 0 400 400" style="enable-background:new 0 0 400 400;" xml:space="preserve">
<style type="text/css">
	.st0{fill:#F58163;}
	.st1{fill:#131313;}
</style>
<g>
	<path class="st0" d="M199.87,399.47c-29.18,0-57.49-6.3-84.15-18.73C16.06,334.27-27.22,215.38,19.26,115.72
		c16.36-35.08,42.28-64.4,74.96-84.81c31.84-19.88,68.47-30.39,105.91-30.39c29.18,0,57.49,6.3,84.15,18.73
		c99.66,46.47,142.93,165.36,96.46,265.02c-16.36,35.08-42.28,64.4-74.96,84.81C273.94,388.97,237.31,399.47,199.87,399.47z"/>
	<path class="st1" d="M200.13,1.1c29.1,0,57.33,6.28,83.9,18.68c24.33,11.35,45.71,27.12,63.55,46.87
		c17.23,19.08,30.44,41.07,39.28,65.34c8.83,24.27,12.84,49.6,11.91,75.3c-0.96,26.6-7.2,52.42-18.55,76.75
		c-16.31,34.98-42.16,64.22-74.74,84.56c-31.75,19.82-68.27,30.3-105.61,30.3c-29.1,0-57.33-6.28-83.91-18.68
		c-24.33-11.35-45.71-27.12-63.55-46.87c-17.23-19.08-30.44-41.07-39.28-65.34c-8.83-24.27-12.84-49.6-11.91-75.3
		c0.96-26.6,7.2-52.42,18.55-76.75C36.09,80.99,61.93,51.74,94.52,31.4C126.27,11.58,162.79,1.1,200.13,1.1L200.13,1.1 M200.13-0.05
		c-75.32,0-147.46,42.76-181.39,115.52c-46.68,100.11-3.37,219.1,96.74,265.79c27.34,12.75,56.09,18.79,84.39,18.79
		c75.32,0,147.46-42.76,181.39-115.52c46.68-100.11,3.37-219.1-96.74-265.79C257.18,5.99,228.43-0.05,200.13-0.05L200.13-0.05z"/>
</g>
<g>
	<g>
		<polygon class="st1" points="242.16,173.5 236.02,186.67 220.18,189.95 215.67,199.63 242.05,194.89 252.9,171.45 		"/>
		<path class="st1" d="M223.49,180.14"/>
		<polygon class="st1" points="195.24,141.58 234.66,135.36 227.6,127.99 187.96,133.74 170.31,171.59 177.75,179.08 		"/>
		<polygon class="st1" points="208.42,154.97 247.76,148.34 239.63,140.1 200.04,146.87 182.68,184.1 190.79,192.77 		"/>
		<polygon class="st1" points="252.74,153.34 213.42,160.53 195.99,197.91 204.05,206.35 221.64,168.63 260.84,161.62 		"/>
	</g>
	<g>
		
			<rect x="135.71" y="220.19" transform="matrix(0.4226 -0.9063 0.9063 0.4226 -116.0425 267.2502)" class="st1" width="32.04" height="9.02"/>
		<polygon class="st1" points="230.93,243.94 201.04,230 197.73,237.11 208.79,242.26 198.55,264.22 206.33,267.84 216.57,245.89 
			227.62,251.04 		"/>
		<g>
			<polygon class="st1" points="154.09,243.32 162.41,247.2 169.53,243.39 168.15,236.08 			"/>
			<polygon class="st1" points="197.49,228.4 189.12,224.5 178.72,230.1 176.26,218.46 167.58,214.43 175.1,253.17 184.53,257.57 
				180.26,237.34 			"/>
		</g>
		<polygon class="st1" points="248.39,251.98 248.43,251.94 248.39,251.93 240.92,248.44 240.89,248.43 240.89,248.48 214.64,271.6 
			223.14,275.56 227.4,271.52 237.44,276.19 237.46,267.56 233.51,265.72 241.14,258.49 241.02,283.9 249.51,287.86 		"/>
		<polygon class="st1" points="100.78,218.75 109.1,222.63 109.12,222.64 119.49,200.42 137.43,208.79 132.77,218.79 117.55,211.69 
			119.51,220.97 136.99,229.12 148.09,205.32 114.37,189.6 		"/>
	</g>
</g>
<g>
	<path class="st1" d="M211.14,40.77c-0.04,0-0.08-0.01-0.11-0.01s-0.07-0.01-0.11-0.01c-0.08,0-0.27,0.07-0.58,0.22
		c-0.31,0.15-0.69,0.32-1.16,0.5s-1,0.34-1.59,0.47c-0.59,0.13-1.21,0.18-1.85,0.16c-0.84-0.03-1.64-0.16-2.41-0.4
		c-0.77-0.24-1.44-0.59-2.01-1.06c-0.58-0.47-1.03-1.04-1.35-1.72c-0.32-0.68-0.47-1.46-0.44-2.36c0.03-0.88,0.23-1.65,0.6-2.31
		c0.37-0.66,0.86-1.21,1.47-1.64c0.61-0.43,1.3-0.75,2.08-0.95c0.78-0.2,1.59-0.29,2.43-0.26c0.68,0.02,1.29,0.1,1.84,0.22
		c0.55,0.12,1.03,0.25,1.44,0.39s0.73,0.26,0.97,0.37c0.24,0.12,0.38,0.17,0.43,0.18c0.07,0,0.12-0.03,0.17-0.09
		c0.05-0.06,0.09-0.12,0.12-0.16l0.29,0.25l-1.64,2.37l-0.2-0.15c0-0.04,0-0.08-0.01-0.12c-0.01-0.04-0.01-0.09-0.03-0.14
		c-0.02-0.15-0.15-0.3-0.38-0.46c-0.23-0.16-0.53-0.31-0.88-0.44c-0.35-0.13-0.72-0.25-1.11-0.34c-0.39-0.09-0.75-0.15-1.08-0.16
		c-0.56-0.02-1.1,0.04-1.62,0.18s-0.97,0.36-1.36,0.65c-0.39,0.29-0.71,0.66-0.95,1.1c-0.24,0.44-0.37,0.94-0.39,1.52
		c-0.02,0.57,0.08,1.09,0.29,1.54s0.5,0.84,0.87,1.16c0.37,0.32,0.81,0.57,1.32,0.75c0.51,0.18,1.04,0.28,1.6,0.29
		c0.43,0.01,0.87-0.02,1.34-0.1c0.47-0.08,0.9-0.2,1.29-0.34c0.39-0.14,0.72-0.3,0.99-0.49c0.27-0.18,0.4-0.36,0.41-0.54
		c0-0.09-0.02-0.17-0.07-0.24l0.28-0.15l1.25,2.17L211.14,40.77z"/>
	<path class="st1" d="M222.22,32.86c0.63,0.08,1.2,0.21,1.71,0.39c0.5,0.18,0.92,0.41,1.26,0.7c0.34,0.29,0.58,0.64,0.73,1.06
		c0.15,0.42,0.19,0.91,0.12,1.48c-0.11,0.87-0.45,1.51-1.03,1.91s-1.31,0.62-2.2,0.67l2.17,4.1c0.08,0.14,0.17,0.24,0.3,0.28
		c0.12,0.04,0.24,0.07,0.34,0.08l-0.04,0.36l-3.71-0.47l0.04-0.36c0.12,0.02,0.22,0.01,0.32-0.02c0.09-0.03,0.14-0.08,0.15-0.14
		c0.01-0.07-0.01-0.14-0.05-0.24c-0.04-0.09-0.11-0.22-0.2-0.38l-1.79-3.37l-2.84-0.36l-0.44,3.53c-0.02,0.12,0.02,0.21,0.09,0.28
		c0.08,0.07,0.23,0.12,0.46,0.15l-0.04,0.36l-3.43-0.43l0.04-0.36c0.38,0.05,0.59-0.05,0.62-0.29l1.13-9.01
		c0.03-0.24-0.15-0.38-0.53-0.43l0.04-0.36L222.22,32.86z M221.12,37.44c0.48,0.06,0.88,0.07,1.2,0.04c0.33-0.03,0.59-0.1,0.79-0.21
		c0.2-0.11,0.35-0.25,0.46-0.42c0.1-0.17,0.17-0.36,0.19-0.57c0.03-0.21,0.01-0.41-0.05-0.6c-0.06-0.19-0.17-0.36-0.34-0.52
		c-0.17-0.16-0.41-0.29-0.72-0.4c-0.31-0.11-0.7-0.2-1.18-0.26l-3.43-0.43l-0.37,2.94L221.12,37.44z"/>
	<path class="st1" d="M239.8,38.32c0.03-0.14,0-0.26-0.1-0.36c-0.1-0.1-0.28-0.17-0.55-0.23l-6.33-1.37l-0.52,2.42l3.83,0.83
		c0.26,0.06,0.47,0.06,0.63,0.02c0.16-0.04,0.27-0.21,0.34-0.51l0.35,0.08l-0.66,3.05l-0.35-0.08c0.06-0.3,0.03-0.51-0.09-0.62
		s-0.32-0.2-0.58-0.26l-3.83-0.83l-0.58,2.7l6.53,1.41c0.2,0.04,0.37,0.03,0.51-0.03c0.14-0.06,0.23-0.17,0.27-0.33l0.35,0.08
		l-0.58,2.68l-0.35-0.08c0.04-0.2,0-0.32-0.11-0.37s-0.27-0.1-0.47-0.14l-9.11-1.97l0.08-0.35c0.09,0.02,0.18,0.01,0.26-0.04
		c0.08-0.04,0.14-0.12,0.17-0.24l1.92-8.88c0.02-0.12,0.01-0.21-0.05-0.29c-0.06-0.08-0.13-0.12-0.23-0.14l0.08-0.35l8.92,1.92
		c0.27,0.06,0.47,0.06,0.6,0c0.13-0.06,0.21-0.16,0.24-0.31l0.35,0.08l-0.56,2.58L239.8,38.32z"/>
	<path class="st1" d="M240.09,46.6c0.17,0.03,0.33-0.02,0.47-0.13c0.14-0.11,0.28-0.24,0.42-0.39l5.81-6.36
		c0.14-0.14,0.26-0.27,0.38-0.39c0.11-0.12,0.19-0.23,0.22-0.33c0.04-0.13,0.02-0.23-0.05-0.31c-0.07-0.08-0.16-0.15-0.25-0.2
		l0.1-0.34l3.23,0.99l-0.1,0.34c-0.1,0-0.2,0-0.3,0.02c-0.1,0.02-0.18,0.1-0.22,0.24c-0.03,0.1-0.04,0.21-0.03,0.33
		c0.01,0.12,0.04,0.27,0.08,0.46l1.6,9c0.02,0.16,0.08,0.29,0.16,0.38c0.09,0.1,0.19,0.2,0.31,0.3l-0.1,0.34l-3.37-1.03l0.11-0.34
		c0.05,0.02,0.12,0.02,0.21,0c0.09-0.01,0.14-0.06,0.17-0.14c0.04-0.13,0.04-0.31,0-0.54l-0.29-1.64l-4.67-1.42l-1.1,1.15
		c-0.21,0.23-0.33,0.4-0.37,0.52c-0.04,0.14,0.06,0.25,0.3,0.32l-0.1,0.34l-2.72-0.83L240.09,46.6z M248.39,45.25l-0.52-4.05
		l-2.88,3.01L248.39,45.25z"/>
	<path class="st1" d="M259.18,52.67c-0.09,0.22,0,0.39,0.28,0.5l-0.13,0.33l-2.86-1.13l0.13-0.33c0.09,0.03,0.17,0.04,0.27,0.01
		c0.09-0.03,0.16-0.1,0.2-0.21l2.92-7.4l-3.07-1.21c-0.11-0.04-0.23-0.06-0.36-0.04c-0.13,0.02-0.23,0.12-0.3,0.29l-0.33-0.13
		l1.03-2.6l0.33,0.13c-0.07,0.17-0.06,0.31,0.02,0.42s0.18,0.18,0.29,0.22l8.26,3.26c0.11,0.04,0.23,0.06,0.36,0.04
		c0.13-0.02,0.23-0.12,0.3-0.29l0.33,0.13l-1.03,2.6l-0.33-0.13c0.07-0.17,0.06-0.31-0.02-0.42c-0.08-0.1-0.18-0.18-0.29-0.22
		l-3.07-1.21L259.18,52.67z"/>
	<path class="st1" d="M265.05,55.59c0.32,0.14,0.52,0.1,0.62-0.12l3.7-8.29c0.1-0.22-0.01-0.4-0.33-0.54l0.15-0.33l3.03,1.35
		l-0.15,0.33c-0.32-0.14-0.52-0.1-0.62,0.12l-3.7,8.29c-0.1,0.22,0.01,0.4,0.33,0.54l-0.15,0.33l-3.03-1.35L265.05,55.59z"/>
	<path class="st1" d="M285.56,55.04c-0.23-0.13-0.45-0.13-0.65-0.02s-0.35,0.21-0.45,0.29l-6.81,5.16
		c-0.23,0.18-0.42,0.32-0.57,0.42s-0.24,0.18-0.27,0.24s-0.04,0.11-0.03,0.16c0.01,0.05,0.03,0.11,0.06,0.17l-0.17,0.32l-2.69-1.46
		l0.17-0.32c0.13,0.01,0.23-0.04,0.29-0.16c0.03-0.06,0.05-0.2,0.06-0.43c0.01-0.23,0.02-0.51,0.04-0.85l0.55-8.59
		c0.01-0.16-0.02-0.3-0.09-0.42c-0.07-0.12-0.19-0.26-0.36-0.42l0.17-0.32l3.15,1.7l-0.17,0.32c-0.08-0.04-0.17-0.07-0.27-0.07
		c-0.1,0-0.18,0.06-0.24,0.18c-0.07,0.13-0.11,0.32-0.12,0.57c-0.01,0.25-0.02,0.56-0.04,0.93l-0.36,6.06l4.78-3.58
		c0.31-0.23,0.58-0.43,0.84-0.6c0.25-0.17,0.4-0.31,0.46-0.4c0.1-0.19-0.01-0.37-0.34-0.55l0.17-0.32l3.08,1.66L285.56,55.04z"/>
	<path class="st1" d="M295.31,63.48c0.08-0.12,0.09-0.25,0.04-0.37s-0.2-0.26-0.43-0.42l-5.42-3.54l-1.36,2.08l3.28,2.14
		c0.22,0.15,0.42,0.23,0.58,0.25c0.16,0.02,0.33-0.1,0.5-0.36l0.3,0.2l-1.71,2.61l-0.3-0.2c0.17-0.26,0.21-0.46,0.14-0.61
		c-0.08-0.15-0.23-0.3-0.45-0.45l-3.28-2.14l-1.51,2.31l5.59,3.65c0.17,0.11,0.33,0.16,0.49,0.15c0.16-0.01,0.28-0.08,0.37-0.21
		l0.3,0.2l-1.5,2.29l-0.3-0.2c0.11-0.17,0.12-0.3,0.03-0.39s-0.22-0.19-0.39-0.3l-7.8-5.1l0.2-0.3c0.08,0.05,0.16,0.07,0.26,0.06
		c0.09-0.01,0.17-0.07,0.24-0.17l4.97-7.6c0.07-0.1,0.08-0.2,0.06-0.29c-0.03-0.09-0.08-0.16-0.16-0.21l0.2-0.3l7.63,4.99
		c0.23,0.15,0.42,0.22,0.57,0.21c0.14-0.01,0.25-0.08,0.33-0.2l0.3,0.2l-1.44,2.21L295.31,63.48z"/>
	<path class="st1" d="M307.45,83.06c-0.16,0.18-0.13,0.37,0.08,0.56l-0.24,0.27l-2.28-2.07l0.24-0.27c0.07,0.06,0.15,0.1,0.25,0.1
		s0.18-0.04,0.26-0.13l5.34-5.9l-2.45-2.21c-0.09-0.08-0.2-0.13-0.33-0.16c-0.13-0.03-0.25,0.03-0.38,0.17l-0.27-0.24l1.88-2.07
		l0.27,0.24c-0.13,0.14-0.17,0.27-0.13,0.4s0.1,0.23,0.19,0.31l6.58,5.96c0.09,0.08,0.2,0.13,0.33,0.16s0.26-0.03,0.38-0.17
		l0.27,0.24l-1.88,2.08l-0.27-0.24c0.13-0.14,0.17-0.27,0.13-0.4c-0.04-0.13-0.1-0.23-0.19-0.31l-2.45-2.21L307.45,83.06z"/>
	<path class="st1" d="M324.02,85.78c0.44,0.47,0.79,0.93,1.06,1.39c0.27,0.46,0.45,0.91,0.52,1.35c0.07,0.44,0.04,0.87-0.12,1.28
		c-0.15,0.42-0.44,0.82-0.86,1.21c-0.64,0.6-1.31,0.87-2.01,0.81c-0.7-0.06-1.4-0.36-2.12-0.89l-0.96,4.54
		c-0.03,0.16-0.02,0.29,0.05,0.41c0.07,0.11,0.14,0.2,0.21,0.28l-0.26,0.25l-2.55-2.73l0.26-0.25c0.08,0.09,0.17,0.15,0.25,0.19
		c0.09,0.04,0.16,0.03,0.21-0.01s0.09-0.12,0.11-0.22c0.03-0.1,0.06-0.24,0.09-0.41l0.78-3.74l-1.95-2.09l-2.6,2.43
		c-0.09,0.08-0.12,0.17-0.11,0.28c0.01,0.1,0.1,0.24,0.25,0.41l-0.26,0.25l-2.36-2.53l0.26-0.25c0.26,0.28,0.48,0.34,0.66,0.18
		l6.64-6.2c0.18-0.16,0.13-0.39-0.13-0.67l0.26-0.25L324.02,85.78z M320.24,88.59c0.33,0.35,0.63,0.62,0.9,0.8
		c0.27,0.18,0.52,0.3,0.75,0.34c0.22,0.05,0.43,0.04,0.62-0.03c0.19-0.06,0.36-0.17,0.51-0.31s0.27-0.31,0.35-0.49
		c0.08-0.18,0.1-0.38,0.07-0.61c-0.03-0.23-0.13-0.48-0.29-0.77c-0.17-0.28-0.41-0.6-0.74-0.95l-2.36-2.53l-2.16,2.02L320.24,88.59z
		"/>
	<path class="st1" d="M334.03,101.22c0.12-0.09,0.17-0.2,0.15-0.34c-0.01-0.13-0.1-0.31-0.28-0.53l-3.99-5.1l-1.95,1.53l2.42,3.09
		c0.16,0.21,0.32,0.35,0.47,0.42c0.15,0.07,0.34,0.01,0.58-0.18l0.22,0.28l-2.46,1.92l-0.22-0.28c0.24-0.19,0.35-0.37,0.33-0.54
		c-0.02-0.17-0.12-0.36-0.28-0.57l-2.42-3.09l-2.17,1.7l4.12,5.26c0.12,0.16,0.26,0.26,0.41,0.3c0.15,0.04,0.29,0.01,0.42-0.08
		l0.22,0.28l-2.16,1.69l-0.22-0.28c0.16-0.12,0.21-0.24,0.15-0.36c-0.06-0.12-0.15-0.25-0.27-0.41l-5.74-7.34l0.28-0.22
		c0.06,0.07,0.13,0.12,0.22,0.14s0.19-0.01,0.28-0.08l7.15-5.59c0.09-0.07,0.14-0.16,0.14-0.25c0-0.09-0.03-0.18-0.08-0.25
		l0.28-0.22l5.62,7.18c0.17,0.22,0.33,0.35,0.47,0.38c0.14,0.04,0.26,0.01,0.38-0.08l0.22,0.28l-2.08,1.63L334.03,101.22z"/>
	<path class="st1" d="M329.76,108.92c0.14,0.21,0.31,0.25,0.51,0.12l7.63-4.92c0.2-0.13,0.23-0.3,0.1-0.51l0.3-0.2l1.85,2.87
		l-0.3,0.2c-0.06-0.09-0.14-0.1-0.25-0.03c-0.09,0.06-0.17,0.27-0.25,0.64l-1.89,8.06l5.34-3.45c0.2-0.13,0.21-0.34,0.02-0.63
		l0.3-0.2l1.64,2.54l-0.3,0.2c-0.14-0.21-0.31-0.25-0.51-0.12l-7.63,4.93c-0.2,0.13-0.23,0.3-0.1,0.51l-0.3,0.2l-1.76-2.72l0.3-0.2
		c0.09,0.15,0.19,0.19,0.29,0.12c0.08-0.05,0.15-0.22,0.21-0.52l2.04-8.57l-5.58,3.6c-0.2,0.13-0.22,0.32-0.05,0.58l-0.3,0.2
		l-1.61-2.49L329.76,108.92z"/>
	<path class="st1" d="M349.87,122.85c0.34,0.65,0.56,1.31,0.66,1.97c0.1,0.66,0.07,1.3-0.1,1.91c-0.17,0.61-0.48,1.19-0.95,1.73
		c-0.46,0.54-1.09,1.02-1.88,1.43c-0.79,0.41-1.54,0.65-2.25,0.72s-1.36,0-1.96-0.22s-1.14-0.55-1.62-1.02
		c-0.48-0.46-0.89-1.02-1.23-1.67l-3.07-5.89l0.32-0.17c0.14,0.27,0.32,0.35,0.53,0.24l8.05-4.19c0.21-0.11,0.25-0.3,0.11-0.57
		l0.32-0.17L349.87,122.85z M341.69,126.2c0.29,0.56,0.59,1.02,0.9,1.38c0.31,0.36,0.66,0.62,1.04,0.76
		c0.38,0.15,0.81,0.18,1.29,0.11s1.02-0.27,1.63-0.59c0.62-0.32,1.09-0.65,1.42-1c0.33-0.35,0.55-0.72,0.65-1.12
		c0.1-0.4,0.09-0.83-0.03-1.29c-0.12-0.46-0.33-0.97-0.62-1.53l-1.43-2.75l-6.28,3.27L341.69,126.2z"/>
	<path class="st1" d="M349.4,149.07l-0.08-0.22c0.14-0.05,0.19-0.14,0.16-0.26c-0.03-0.12-0.07-0.25-0.12-0.39l-2.96-7.88
		c-0.05-0.14-0.1-0.25-0.16-0.33c-0.05-0.08-0.13-0.1-0.25-0.06l-0.08-0.22l0.67-0.25c0.66-0.25,1.29-0.3,1.89-0.14
		c0.6,0.15,1.17,0.41,1.72,0.77c0.55,0.36,1.07,0.78,1.56,1.25c0.49,0.47,0.96,0.91,1.42,1.3c0.46,0.4,0.89,0.71,1.3,0.93
		c0.41,0.22,0.81,0.26,1.2,0.12c0.26-0.1,0.46-0.24,0.58-0.42c0.12-0.18,0.2-0.39,0.24-0.61c0.04-0.23,0.03-0.46-0.02-0.7
		c-0.05-0.24-0.11-0.46-0.19-0.68c-0.08-0.21-0.22-0.46-0.41-0.75c-0.19-0.28-0.42-0.54-0.67-0.77c-0.26-0.23-0.53-0.41-0.81-0.54
		c-0.28-0.13-0.56-0.14-0.82-0.05c-0.06,0.02-0.14,0.07-0.23,0.14c-0.09,0.07-0.14,0.13-0.16,0.2l-0.2-0.14l1.34-2.7l0.2,0.14
		c-0.01,0.06-0.01,0.12-0.02,0.18c-0.01,0.06,0,0.12,0.03,0.18c0.03,0.08,0.17,0.18,0.44,0.31c0.26,0.13,0.57,0.33,0.93,0.59
		c0.36,0.26,0.73,0.62,1.11,1.08s0.71,1.04,0.98,1.77c0.18,0.47,0.29,0.96,0.35,1.46c0.06,0.5,0.03,0.97-0.08,1.42
		c-0.11,0.45-0.32,0.85-0.61,1.21s-0.72,0.65-1.27,0.85c-0.59,0.22-1.12,0.29-1.59,0.21c-0.47-0.08-0.91-0.25-1.32-0.52
		c-0.41-0.27-0.79-0.6-1.15-0.99c-0.36-0.39-0.72-0.79-1.08-1.21c-0.36-0.41-0.73-0.8-1.09-1.17c-0.37-0.37-0.77-0.66-1.21-0.88
		l-0.19,0.07l2.32,6.18c0.05,0.14,0.12,0.26,0.22,0.36c0.09,0.1,0.27,0.1,0.52,0.01l0.08,0.22L349.4,149.07z"/>
	<path class="st1" d="M361.96,152.89c0.22,0.74,0.29,1.47,0.22,2.19s-0.26,1.39-0.58,2c-0.32,0.61-0.75,1.15-1.3,1.61
		s-1.2,0.8-1.95,1.02c-0.76,0.22-1.49,0.28-2.19,0.19c-0.71-0.09-1.36-0.31-1.95-0.66c-0.59-0.35-1.11-0.81-1.54-1.39
		c-0.43-0.58-0.76-1.23-0.97-1.98c-0.22-0.74-0.3-1.47-0.24-2.19c0.05-0.72,0.24-1.38,0.55-1.99s0.75-1.15,1.29-1.61
		c0.55-0.46,1.2-0.8,1.95-1.02c0.75-0.22,1.49-0.28,2.19-0.19s1.36,0.31,1.96,0.66c0.6,0.35,1.12,0.8,1.57,1.38
		C361.41,151.49,361.74,152.15,361.96,152.89z M360.3,153.37c-0.13-0.45-0.34-0.84-0.63-1.17c-0.29-0.33-0.63-0.59-1.03-0.77
		c-0.39-0.18-0.83-0.29-1.3-0.33c-0.48-0.04-0.96,0.02-1.46,0.17c-0.5,0.15-0.94,0.36-1.32,0.65c-0.38,0.29-0.69,0.61-0.92,0.98
		c-0.23,0.37-0.38,0.77-0.45,1.2s-0.04,0.88,0.09,1.33c0.13,0.45,0.34,0.84,0.63,1.17c0.29,0.33,0.63,0.59,1.03,0.77
		c0.39,0.18,0.83,0.29,1.3,0.33c0.48,0.04,0.96-0.02,1.46-0.17c0.5-0.15,0.94-0.36,1.32-0.65c0.38-0.28,0.69-0.61,0.92-0.98
		c0.23-0.37,0.38-0.77,0.45-1.2C360.47,154.27,360.43,153.82,360.3,153.37z"/>
	<path class="st1" d="M355.42,172.41l-0.05-0.23c0.14-0.03,0.21-0.11,0.2-0.24c-0.01-0.13-0.03-0.26-0.06-0.41l-1.73-8.24
		c-0.03-0.14-0.07-0.26-0.1-0.35c-0.04-0.09-0.12-0.12-0.23-0.09l-0.05-0.24l0.71-0.15c0.69-0.14,1.32-0.1,1.89,0.15
		c0.57,0.24,1.1,0.58,1.58,1.03c0.49,0.44,0.94,0.93,1.35,1.47c0.41,0.54,0.81,1.04,1.21,1.5s0.77,0.84,1.14,1.12
		c0.37,0.28,0.76,0.38,1.17,0.3c0.27-0.06,0.49-0.17,0.64-0.33c0.15-0.16,0.26-0.35,0.33-0.57c0.07-0.22,0.1-0.45,0.09-0.69
		c-0.01-0.24-0.04-0.48-0.09-0.7c-0.05-0.22-0.14-0.49-0.29-0.8c-0.15-0.31-0.33-0.6-0.55-0.87c-0.22-0.27-0.46-0.49-0.72-0.66
		c-0.26-0.17-0.53-0.23-0.8-0.17c-0.07,0.01-0.15,0.05-0.24,0.1c-0.1,0.05-0.16,0.11-0.19,0.17l-0.18-0.17l1.73-2.47l0.18,0.17
		c-0.02,0.06-0.03,0.12-0.04,0.17c-0.02,0.06-0.02,0.12,0,0.18c0.02,0.08,0.14,0.2,0.38,0.37c0.24,0.17,0.51,0.41,0.83,0.72
		c0.31,0.32,0.62,0.73,0.93,1.23c0.31,0.51,0.54,1.14,0.7,1.9c0.1,0.5,0.15,0.99,0.13,1.49c-0.02,0.5-0.11,0.96-0.29,1.39
		c-0.18,0.43-0.44,0.79-0.79,1.11c-0.35,0.31-0.81,0.53-1.39,0.65c-0.61,0.13-1.15,0.12-1.6-0.03s-0.86-0.39-1.22-0.71
		c-0.36-0.33-0.69-0.71-0.99-1.15c-0.3-0.44-0.59-0.89-0.89-1.36c-0.29-0.46-0.59-0.9-0.9-1.32c-0.31-0.42-0.66-0.77-1.06-1.05
		l-0.2,0.04l1.36,6.46c0.03,0.14,0.08,0.27,0.16,0.38s0.25,0.14,0.51,0.09l0.05,0.23L355.42,172.41z"/>
	<path class="st1" d="M357.08,184.34l-0.03-0.24c0.15-0.02,0.22-0.09,0.21-0.22c0-0.13-0.01-0.26-0.03-0.41l-1.1-8.35
		c-0.02-0.15-0.04-0.26-0.08-0.35s-0.11-0.13-0.23-0.11l-0.03-0.24l0.71-0.09c0.7-0.09,1.33,0,1.87,0.29
		c0.55,0.28,1.05,0.67,1.5,1.14s0.87,1,1.24,1.57c0.37,0.57,0.73,1.1,1.09,1.59c0.35,0.49,0.71,0.89,1.06,1.2
		c0.35,0.31,0.73,0.44,1.14,0.38c0.28-0.04,0.5-0.13,0.66-0.28c0.16-0.15,0.29-0.33,0.37-0.54s0.13-0.44,0.14-0.68
		c0.01-0.24,0-0.48-0.03-0.7c-0.03-0.23-0.11-0.5-0.23-0.82c-0.12-0.32-0.28-0.62-0.48-0.9c-0.2-0.28-0.42-0.52-0.67-0.71
		s-0.51-0.26-0.79-0.23c-0.07,0.01-0.15,0.04-0.25,0.08s-0.17,0.1-0.2,0.16l-0.17-0.18l1.91-2.33l0.17,0.18
		c-0.02,0.06-0.04,0.11-0.06,0.17c-0.02,0.06-0.03,0.12-0.02,0.18c0.01,0.08,0.13,0.21,0.36,0.4c0.23,0.19,0.48,0.45,0.77,0.79
		s0.57,0.77,0.84,1.3c0.27,0.53,0.46,1.18,0.56,1.94c0.07,0.5,0.07,1,0.02,1.5c-0.05,0.5-0.19,0.95-0.39,1.36
		c-0.21,0.41-0.5,0.76-0.87,1.04c-0.37,0.28-0.85,0.46-1.43,0.54c-0.62,0.08-1.15,0.03-1.59-0.15c-0.44-0.18-0.83-0.45-1.17-0.8
		c-0.33-0.35-0.63-0.76-0.9-1.22c-0.26-0.46-0.52-0.94-0.78-1.42c-0.26-0.48-0.53-0.95-0.8-1.39c-0.27-0.44-0.6-0.82-0.98-1.13
		l-0.2,0.03l0.86,6.54c0.02,0.15,0.06,0.28,0.13,0.4c0.07,0.12,0.24,0.16,0.5,0.13l0.03,0.24L357.08,184.34z"/>
	<path class="st1" d="M363.44,193.53c-1.14,0.06-2.11-0.81-2.17-1.95s0.81-2.11,1.95-2.17c1.14-0.06,2.11,0.81,2.17,1.95
		C365.45,192.54,364.54,193.47,363.44,193.53z"/>
	<path class="st1" d="M359.23,210.85c0-0.04,0.01-0.08,0.01-0.11c0.01-0.03,0.01-0.07,0.01-0.11c0-0.08-0.07-0.27-0.22-0.58
		s-0.32-0.69-0.5-1.16c-0.18-0.47-0.34-1-0.47-1.59c-0.13-0.59-0.18-1.21-0.16-1.85c0.03-0.84,0.16-1.64,0.4-2.41
		c0.24-0.77,0.59-1.44,1.06-2.02c0.47-0.58,1.04-1.03,1.72-1.35c0.68-0.33,1.46-0.47,2.35-0.44c0.88,0.03,1.65,0.23,2.31,0.6
		c0.66,0.37,1.21,0.86,1.64,1.46c0.43,0.61,0.75,1.3,0.95,2.08c0.2,0.78,0.29,1.59,0.26,2.43c-0.02,0.68-0.1,1.29-0.22,1.84
		c-0.12,0.55-0.25,1.03-0.39,1.44c-0.13,0.41-0.26,0.73-0.37,0.97s-0.17,0.38-0.17,0.43c0,0.07,0.03,0.12,0.09,0.17
		c0.06,0.05,0.12,0.09,0.16,0.12l-0.25,0.29l-2.37-1.64l0.15-0.2c0.04,0,0.08,0,0.12-0.01c0.04-0.01,0.09-0.01,0.14-0.03
		c0.15-0.02,0.3-0.15,0.46-0.39c0.16-0.23,0.31-0.53,0.44-0.88c0.13-0.35,0.24-0.72,0.34-1.11c0.09-0.39,0.14-0.75,0.16-1.09
		c0.02-0.56-0.04-1.1-0.19-1.62c-0.14-0.52-0.36-0.97-0.66-1.36c-0.29-0.39-0.66-0.71-1.1-0.95c-0.44-0.24-0.95-0.37-1.52-0.39
		c-0.57-0.02-1.09,0.08-1.54,0.29c-0.45,0.21-0.84,0.5-1.16,0.87s-0.57,0.81-0.74,1.32c-0.18,0.51-0.27,1.04-0.29,1.6
		c-0.01,0.43,0.02,0.88,0.11,1.34c0.08,0.47,0.2,0.9,0.34,1.29c0.14,0.39,0.3,0.72,0.49,0.99s0.36,0.4,0.54,0.41
		c0.09,0,0.17-0.02,0.24-0.07l0.15,0.29l-2.16,1.25L359.23,210.85z"/>
	<path class="st1" d="M367.15,221.92c-0.08,0.63-0.21,1.2-0.38,1.71c-0.18,0.5-0.41,0.92-0.7,1.26s-0.64,0.58-1.06,0.74
		s-0.91,0.19-1.48,0.12c-0.87-0.11-1.51-0.45-1.91-1.02c-0.4-0.57-0.62-1.31-0.67-2.2l-4.1,2.17c-0.14,0.08-0.24,0.18-0.28,0.3
		c-0.04,0.12-0.07,0.24-0.08,0.34l-0.36-0.04l0.46-3.71l0.36,0.04c-0.01,0.12-0.01,0.22,0.02,0.31s0.08,0.14,0.14,0.15
		c0.07,0.01,0.15-0.01,0.24-0.05c0.09-0.04,0.22-0.11,0.38-0.2l3.37-1.8l0.35-2.84l-3.53-0.44c-0.12-0.01-0.21,0.02-0.28,0.1
		s-0.12,0.23-0.15,0.46l-0.36-0.04l0.43-3.43l0.36,0.04c-0.05,0.38,0.05,0.59,0.29,0.62l9.01,1.12c0.24,0.03,0.38-0.15,0.43-0.53
		l0.36,0.04L367.15,221.92z M362.57,220.82c-0.06,0.48-0.07,0.88-0.04,1.2c0.03,0.33,0.1,0.59,0.21,0.79s0.25,0.35,0.42,0.45
		c0.17,0.1,0.36,0.17,0.57,0.19c0.21,0.03,0.41,0.01,0.6-0.05c0.19-0.06,0.36-0.17,0.52-0.34c0.15-0.17,0.29-0.41,0.4-0.72
		c0.11-0.31,0.2-0.7,0.26-1.18l0.43-3.43l-2.94-0.36L362.57,220.82z"/>
	<path class="st1" d="M361.72,239.5c0.14,0.03,0.26,0,0.36-0.1c0.1-0.09,0.17-0.28,0.23-0.55l1.36-6.34l-2.42-0.52l-0.82,3.83
		c-0.06,0.26-0.06,0.47-0.02,0.63c0.04,0.16,0.21,0.27,0.51,0.33l-0.08,0.35l-3.05-0.65l0.07-0.35c0.3,0.06,0.51,0.03,0.62-0.09
		c0.11-0.12,0.2-0.32,0.26-0.58l0.82-3.83l-2.7-0.58l-1.4,6.53c-0.04,0.2-0.03,0.37,0.03,0.51c0.06,0.14,0.18,0.23,0.33,0.26
		l-0.08,0.35l-2.68-0.57l0.08-0.35c0.2,0.04,0.32,0,0.37-0.11c0.05-0.12,0.1-0.28,0.14-0.47l1.95-9.11l0.35,0.08
		c-0.02,0.09-0.01,0.18,0.04,0.26c0.04,0.08,0.12,0.14,0.24,0.16l8.88,1.9c0.12,0.03,0.21,0.01,0.29-0.05
		c0.07-0.06,0.12-0.13,0.14-0.23l0.35,0.08l-1.91,8.92c-0.06,0.27-0.06,0.47,0,0.6s0.16,0.21,0.31,0.24l-0.08,0.35l-2.58-0.55
		L361.72,239.5z"/>
	<path class="st1" d="M353.45,239.81c-0.03,0.17,0.02,0.33,0.13,0.47s0.24,0.28,0.39,0.42l6.37,5.8c0.14,0.14,0.27,0.26,0.39,0.38
		c0.12,0.11,0.23,0.18,0.33,0.22c0.13,0.04,0.23,0.02,0.31-0.05c0.08-0.07,0.15-0.16,0.2-0.25l0.34,0.1l-0.98,3.23l-0.34-0.1
		c0-0.1-0.01-0.2-0.02-0.3c-0.02-0.1-0.1-0.17-0.24-0.22c-0.1-0.03-0.21-0.04-0.33-0.03c-0.12,0.01-0.27,0.04-0.46,0.08l-9,1.62
		c-0.16,0.02-0.29,0.08-0.39,0.17c-0.1,0.09-0.2,0.19-0.3,0.31l-0.34-0.1l1.02-3.37l0.34,0.1c-0.01,0.05-0.01,0.12,0,0.21
		c0.01,0.09,0.06,0.14,0.14,0.17c0.13,0.04,0.31,0.04,0.54,0l1.64-0.3l1.42-4.67l-1.15-1.1c-0.23-0.21-0.4-0.33-0.52-0.37
		c-0.14-0.04-0.25,0.06-0.32,0.3l-0.34-0.1l0.83-2.72L353.45,239.81z M354.82,248.11l4.05-0.53l-3.01-2.88L354.82,248.11z"/>
	<path class="st1" d="M347.4,258.94c-0.22-0.09-0.39,0.01-0.5,0.28l-0.33-0.13l1.13-2.87l0.34,0.13c-0.04,0.09-0.04,0.17-0.01,0.26
		c0.03,0.09,0.1,0.16,0.21,0.2l7.41,2.91l1.21-3.07c0.04-0.11,0.06-0.23,0.04-0.36c-0.02-0.13-0.12-0.23-0.29-0.3l0.13-0.33
		l2.61,1.02l-0.13,0.33c-0.17-0.07-0.31-0.06-0.42,0.02c-0.1,0.08-0.18,0.18-0.22,0.29l-3.25,8.27c-0.04,0.11-0.06,0.23-0.04,0.36
		c0.02,0.13,0.12,0.23,0.29,0.3l-0.13,0.33l-2.61-1.02l0.13-0.33c0.17,0.07,0.31,0.06,0.42-0.02c0.1-0.08,0.18-0.18,0.22-0.29
		l1.21-3.07L347.4,258.94z"/>
	<path class="st1" d="M344.51,264.78c-0.14,0.32-0.1,0.52,0.12,0.62l8.29,3.7c0.22,0.1,0.4-0.01,0.54-0.33l0.33,0.15l-1.35,3.03
		l-0.33-0.15c0.14-0.32,0.1-0.52-0.12-0.62l-8.29-3.7c-0.22-0.1-0.4,0.01-0.54,0.33l-0.33-0.15l1.35-3.03L344.51,264.78z"/>
	<path class="st1" d="M345.07,285.32c0.13-0.24,0.13-0.45,0.02-0.65c-0.11-0.2-0.21-0.35-0.29-0.45l-5.17-6.81
		c-0.18-0.23-0.32-0.42-0.42-0.57c-0.1-0.15-0.18-0.24-0.24-0.27c-0.06-0.03-0.11-0.04-0.16-0.03c-0.05,0.01-0.11,0.03-0.17,0.06
		l-0.32-0.17l1.45-2.69l0.32,0.17c-0.01,0.13,0.04,0.23,0.16,0.29c0.06,0.03,0.2,0.05,0.43,0.06c0.23,0.01,0.51,0.02,0.85,0.04
		l8.59,0.54c0.16,0.01,0.3-0.02,0.41-0.1s0.26-0.2,0.42-0.36l0.32,0.17l-1.7,3.15l-0.32-0.17c0.04-0.08,0.07-0.17,0.07-0.27
		c0-0.1-0.06-0.18-0.18-0.24c-0.13-0.07-0.32-0.11-0.57-0.12s-0.56-0.02-0.93-0.04l-6.06-0.35l3.59,4.77
		c0.23,0.3,0.43,0.58,0.6,0.84c0.17,0.25,0.31,0.4,0.4,0.46c0.19,0.1,0.37-0.01,0.55-0.34l0.32,0.17l-1.66,3.08L345.07,285.32z"/>
	<path class="st1" d="M336.66,295.06c0.12,0.08,0.25,0.09,0.37,0.04c0.12-0.05,0.26-0.2,0.42-0.43l3.53-5.43l-2.08-1.35l-2.14,3.29
		c-0.14,0.22-0.23,0.42-0.25,0.58s0.1,0.33,0.36,0.5l-0.2,0.3l-2.62-1.7l0.2-0.3c0.26,0.17,0.46,0.21,0.61,0.14
		c0.15-0.08,0.3-0.22,0.45-0.45l2.14-3.29l-2.31-1.5l-3.64,5.6c-0.11,0.17-0.16,0.33-0.15,0.49c0.01,0.16,0.08,0.28,0.21,0.37
		l-0.2,0.3l-2.3-1.49l0.2-0.3c0.17,0.11,0.3,0.12,0.39,0.03c0.09-0.09,0.19-0.22,0.3-0.39l5.08-7.81l0.3,0.2
		c-0.05,0.08-0.07,0.17-0.06,0.26s0.07,0.17,0.17,0.24l7.61,4.95c0.1,0.07,0.2,0.08,0.29,0.06c0.09-0.03,0.16-0.08,0.21-0.16
		l0.3,0.2l-4.97,7.64c-0.15,0.23-0.22,0.42-0.21,0.57c0.01,0.14,0.08,0.25,0.2,0.33l-0.2,0.3l-2.21-1.44L336.66,295.06z"/>
	<path class="st1" d="M317.12,307.22c-0.18-0.16-0.37-0.13-0.56,0.08l-0.27-0.24l2.06-2.29l0.27,0.24c-0.06,0.07-0.1,0.15-0.1,0.25
		c0,0.09,0.04,0.18,0.13,0.26l5.91,5.33l2.21-2.45c0.08-0.09,0.13-0.2,0.16-0.33c0.03-0.13-0.03-0.26-0.17-0.38l0.24-0.27l2.08,1.88
		l-0.24,0.27c-0.14-0.13-0.27-0.17-0.4-0.13c-0.12,0.04-0.23,0.1-0.31,0.19l-5.95,6.59c-0.08,0.09-0.13,0.2-0.16,0.33
		c-0.03,0.13,0.03,0.25,0.17,0.38l-0.24,0.27l-2.08-1.88l0.24-0.27c0.14,0.12,0.27,0.17,0.4,0.13c0.13-0.04,0.23-0.1,0.31-0.19
		l2.21-2.45L317.12,307.22z"/>
	<path class="st1" d="M314.41,323.82c-0.47,0.44-0.93,0.79-1.39,1.07c-0.46,0.27-0.91,0.45-1.35,0.52
		c-0.44,0.07-0.87,0.04-1.28-0.11s-0.82-0.43-1.21-0.85c-0.6-0.64-0.87-1.31-0.81-2.01s0.36-1.4,0.89-2.12l-4.54-0.95
		c-0.16-0.03-0.29-0.02-0.4,0.05c-0.11,0.07-0.2,0.14-0.28,0.21l-0.25-0.26l2.73-2.56l0.25,0.26c-0.09,0.08-0.15,0.17-0.19,0.26
		c-0.04,0.09-0.03,0.16,0.01,0.21s0.12,0.09,0.22,0.11c0.1,0.03,0.24,0.06,0.42,0.09l3.74,0.77l2.09-1.96l-2.43-2.6
		c-0.08-0.09-0.17-0.12-0.28-0.11c-0.1,0.01-0.24,0.1-0.4,0.26l-0.25-0.26l2.52-2.37l0.25,0.26c-0.28,0.26-0.34,0.48-0.18,0.66
		l6.21,6.63c0.16,0.17,0.39,0.13,0.67-0.13l0.25,0.26L314.41,323.82z M311.59,320.05c-0.35,0.33-0.62,0.63-0.8,0.9
		c-0.18,0.27-0.3,0.52-0.34,0.75c-0.04,0.23-0.03,0.43,0.03,0.62c0.06,0.19,0.17,0.36,0.32,0.51c0.15,0.16,0.31,0.27,0.49,0.35
		c0.18,0.08,0.39,0.1,0.61,0.07c0.23-0.03,0.48-0.13,0.77-0.29c0.28-0.17,0.6-0.41,0.95-0.74l2.52-2.37l-2.02-2.16L311.59,320.05z"
		/>
	<path class="st1" d="M298.99,333.86c0.09,0.12,0.2,0.17,0.34,0.15s0.31-0.1,0.53-0.28l5.1-4l-1.53-1.95l-3.08,2.42
		c-0.21,0.17-0.35,0.32-0.42,0.47s-0.01,0.34,0.18,0.58l-0.28,0.22l-1.93-2.45l0.28-0.22c0.19,0.24,0.37,0.35,0.54,0.33
		c0.17-0.02,0.36-0.12,0.57-0.28l3.08-2.42l-1.7-2.17l-5.25,4.13c-0.16,0.12-0.26,0.26-0.3,0.41c-0.04,0.15-0.01,0.29,0.08,0.42
		l-0.28,0.22l-1.69-2.15l0.28-0.22c0.12,0.16,0.24,0.21,0.36,0.15c0.12-0.06,0.25-0.15,0.41-0.27l7.33-5.76l0.22,0.28
		c-0.07,0.06-0.12,0.13-0.14,0.22c-0.02,0.09,0.01,0.19,0.08,0.28l5.61,7.14c0.07,0.09,0.16,0.14,0.25,0.14
		c0.09,0,0.18-0.03,0.25-0.08l0.22,0.28l-7.17,5.63c-0.22,0.17-0.35,0.33-0.38,0.47c-0.04,0.14-0.01,0.27,0.08,0.38l-0.28,0.22
		l-1.63-2.08L298.99,333.86z"/>
	<path class="st1" d="M291.3,329.59c-0.21,0.14-0.25,0.31-0.12,0.51l4.94,7.62c0.13,0.2,0.3,0.23,0.51,0.09l0.2,0.3l-2.87,1.86
		l-0.2-0.3c0.09-0.06,0.1-0.14,0.03-0.25c-0.06-0.09-0.27-0.17-0.64-0.25l-8.06-1.88l3.46,5.34c0.13,0.2,0.34,0.21,0.63,0.02
		l0.2,0.3l-2.53,1.64l-0.2-0.3c0.21-0.14,0.25-0.31,0.12-0.51l-4.94-7.62c-0.13-0.2-0.3-0.23-0.51-0.09l-0.2-0.3l2.72-1.76l0.2,0.3
		c-0.15,0.09-0.19,0.19-0.12,0.29c0.05,0.08,0.22,0.15,0.52,0.21l8.58,2.02l-3.61-5.57c-0.13-0.2-0.32-0.22-0.58-0.05l-0.2-0.3
		l2.48-1.61L291.3,329.59z"/>
	<path class="st1" d="M277.38,349.75c-0.65,0.34-1.3,0.56-1.96,0.67c-0.66,0.1-1.3,0.07-1.91-0.09c-0.61-0.17-1.19-0.48-1.74-0.94
		c-0.54-0.46-1.02-1.09-1.43-1.88c-0.41-0.79-0.66-1.54-0.72-2.25c-0.07-0.71,0-1.36,0.21-1.96c0.21-0.6,0.55-1.14,1.01-1.62
		c0.46-0.48,1.02-0.89,1.67-1.23l5.88-3.08l0.17,0.32c-0.27,0.14-0.35,0.32-0.24,0.53l4.21,8.05c0.11,0.21,0.3,0.25,0.57,0.11
		l0.17,0.32L277.38,349.75z M274.01,341.58c-0.56,0.29-1.02,0.59-1.38,0.9s-0.62,0.66-0.76,1.04c-0.15,0.38-0.18,0.81-0.11,1.29
		s0.27,1.02,0.59,1.63s0.66,1.09,1,1.42c0.35,0.33,0.72,0.55,1.12,0.65c0.4,0.1,0.83,0.09,1.29-0.03c0.46-0.12,0.97-0.33,1.53-0.62
		l2.75-1.44l-3.28-6.27L274.01,341.58z"/>
	<path class="st1" d="M251.18,349.31l0.22-0.08c0.05,0.14,0.14,0.19,0.26,0.16c0.12-0.03,0.25-0.07,0.39-0.13l7.88-2.97
		c0.14-0.05,0.25-0.1,0.33-0.16s0.1-0.13,0.06-0.25l0.22-0.08l0.25,0.67c0.25,0.66,0.3,1.29,0.15,1.89
		c-0.15,0.6-0.41,1.17-0.77,1.72s-0.78,1.07-1.25,1.56c-0.47,0.49-0.9,0.96-1.3,1.42c-0.4,0.46-0.71,0.89-0.93,1.3
		s-0.26,0.81-0.11,1.2c0.1,0.26,0.24,0.46,0.42,0.58c0.18,0.12,0.39,0.2,0.61,0.24c0.23,0.04,0.46,0.03,0.7-0.02
		c0.24-0.05,0.46-0.11,0.68-0.19c0.21-0.08,0.46-0.22,0.74-0.41c0.28-0.19,0.54-0.42,0.77-0.68c0.23-0.26,0.41-0.53,0.54-0.81
		c0.13-0.28,0.14-0.56,0.04-0.82c-0.02-0.06-0.07-0.14-0.14-0.23c-0.07-0.09-0.13-0.14-0.2-0.16l0.14-0.2l2.7,1.33l-0.14,0.2
		c-0.06-0.01-0.12-0.01-0.18-0.02c-0.06-0.01-0.12,0-0.18,0.03c-0.08,0.03-0.18,0.17-0.31,0.44c-0.13,0.26-0.33,0.57-0.59,0.93
		s-0.62,0.73-1.08,1.11s-1.04,0.71-1.76,0.99c-0.47,0.18-0.96,0.3-1.46,0.36c-0.5,0.06-0.97,0.04-1.42-0.07
		c-0.45-0.11-0.85-0.31-1.21-0.61c-0.36-0.3-0.65-0.72-0.85-1.27c-0.22-0.59-0.29-1.12-0.21-1.59c0.08-0.47,0.25-0.91,0.52-1.32
		c0.27-0.41,0.6-0.79,0.99-1.15c0.39-0.36,0.79-0.72,1.2-1.08c0.41-0.36,0.8-0.73,1.17-1.09c0.37-0.37,0.66-0.77,0.88-1.21
		l-0.07-0.19l-6.17,2.33c-0.14,0.05-0.26,0.12-0.36,0.22c-0.1,0.09-0.1,0.27-0.01,0.52l-0.22,0.08L251.18,349.31z"/>
	<path class="st1" d="M247.36,361.89c-0.74,0.22-1.47,0.29-2.2,0.23c-0.72-0.07-1.39-0.26-2-0.58s-1.15-0.75-1.61-1.3
		c-0.46-0.55-0.8-1.2-1.02-1.95c-0.22-0.76-0.29-1.49-0.19-2.19c0.09-0.71,0.31-1.36,0.66-1.95c0.35-0.6,0.81-1.11,1.38-1.54
		c0.58-0.43,1.23-0.76,1.98-0.97c0.74-0.22,1.47-0.3,2.19-0.25s1.38,0.24,2,0.55c0.61,0.31,1.15,0.74,1.61,1.29
		c0.46,0.55,0.8,1.2,1.02,1.95c0.22,0.75,0.29,1.49,0.19,2.19c-0.09,0.71-0.31,1.36-0.65,1.96c-0.34,0.6-0.8,1.12-1.37,1.57
		C248.75,361.34,248.1,361.67,247.36,361.89z M246.87,360.24c0.45-0.13,0.84-0.34,1.17-0.63c0.33-0.29,0.59-0.63,0.77-1.03
		c0.18-0.39,0.29-0.83,0.33-1.3c0.04-0.48-0.02-0.96-0.17-1.46c-0.15-0.5-0.36-0.94-0.65-1.32c-0.29-0.38-0.61-0.69-0.98-0.92
		c-0.37-0.23-0.77-0.38-1.21-0.45c-0.44-0.07-0.88-0.04-1.33,0.1c-0.45,0.13-0.84,0.34-1.17,0.63c-0.33,0.29-0.59,0.63-0.77,1.03
		c-0.18,0.39-0.29,0.83-0.33,1.3c-0.03,0.48,0.02,0.96,0.17,1.46c0.15,0.5,0.36,0.94,0.65,1.32c0.29,0.38,0.61,0.69,0.98,0.92
		c0.37,0.23,0.77,0.38,1.21,0.45C245.98,360.4,246.42,360.37,246.87,360.24z"/>
	<path class="st1" d="M227.86,355.38l0.24-0.05c0.03,0.14,0.11,0.21,0.24,0.2c0.13-0.01,0.26-0.04,0.41-0.07l8.24-1.75
		c0.14-0.03,0.26-0.07,0.35-0.1c0.09-0.04,0.12-0.12,0.09-0.23l0.24-0.05l0.15,0.7c0.15,0.69,0.1,1.32-0.14,1.89
		c-0.24,0.57-0.58,1.1-1.02,1.59c-0.44,0.49-0.93,0.94-1.47,1.35s-1.04,0.82-1.5,1.21c-0.46,0.39-0.83,0.77-1.12,1.15
		c-0.28,0.37-0.38,0.76-0.29,1.17c0.06,0.27,0.17,0.49,0.33,0.64s0.35,0.26,0.57,0.33c0.22,0.07,0.45,0.1,0.69,0.09
		c0.24-0.01,0.48-0.04,0.7-0.09c0.22-0.05,0.49-0.14,0.8-0.29c0.31-0.15,0.6-0.33,0.86-0.55c0.27-0.22,0.49-0.46,0.65-0.72
		c0.17-0.26,0.23-0.53,0.17-0.8c-0.01-0.07-0.05-0.15-0.1-0.24c-0.05-0.1-0.11-0.16-0.17-0.19l0.17-0.18l2.47,1.72l-0.17,0.18
		c-0.06-0.02-0.12-0.03-0.17-0.04c-0.06-0.01-0.12-0.02-0.19,0c-0.08,0.02-0.2,0.15-0.37,0.38c-0.17,0.24-0.41,0.52-0.72,0.83
		c-0.31,0.31-0.73,0.62-1.23,0.94c-0.51,0.31-1.14,0.55-1.89,0.71c-0.5,0.11-0.99,0.15-1.49,0.13c-0.5-0.02-0.96-0.11-1.39-0.29
		s-0.79-0.44-1.11-0.79c-0.31-0.35-0.53-0.81-0.65-1.38c-0.13-0.61-0.12-1.15,0.03-1.6c0.15-0.46,0.39-0.86,0.71-1.22
		c0.33-0.36,0.71-0.69,1.15-0.99c0.44-0.3,0.89-0.6,1.35-0.89c0.46-0.3,0.9-0.6,1.32-0.9c0.42-0.31,0.77-0.66,1.05-1.06l-0.04-0.2
		l-6.46,1.37c-0.14,0.03-0.27,0.08-0.38,0.16c-0.11,0.08-0.14,0.25-0.09,0.51l-0.23,0.05L227.86,355.38z"/>
	<path class="st1" d="M215.93,357.07l0.24-0.03c0.02,0.15,0.09,0.22,0.22,0.21c0.13,0,0.26-0.01,0.41-0.03l8.35-1.12
		c0.15-0.02,0.26-0.04,0.35-0.08s0.13-0.11,0.11-0.23l0.24-0.03l0.1,0.71c0.09,0.7,0,1.33-0.28,1.87c-0.28,0.55-0.66,1.05-1.14,1.5
		c-0.48,0.45-1,0.87-1.57,1.24s-1.1,0.74-1.59,1.09s-0.89,0.71-1.2,1.06c-0.31,0.35-0.44,0.73-0.38,1.14
		c0.04,0.28,0.13,0.5,0.28,0.66c0.15,0.16,0.33,0.29,0.54,0.37c0.21,0.08,0.44,0.13,0.68,0.14c0.24,0.01,0.48,0,0.7-0.03
		c0.23-0.03,0.5-0.11,0.82-0.23c0.32-0.12,0.62-0.29,0.9-0.48c0.28-0.2,0.52-0.42,0.71-0.67c0.19-0.25,0.26-0.51,0.23-0.79
		c-0.01-0.07-0.04-0.15-0.08-0.25c-0.05-0.1-0.1-0.17-0.16-0.2l0.18-0.17l2.33,1.91l-0.18,0.17c-0.06-0.02-0.11-0.04-0.17-0.06
		c-0.06-0.02-0.12-0.02-0.18-0.02c-0.08,0.01-0.21,0.13-0.4,0.36c-0.18,0.23-0.45,0.48-0.78,0.77c-0.34,0.29-0.77,0.57-1.3,0.84
		c-0.53,0.27-1.18,0.46-1.94,0.56c-0.5,0.07-1,0.07-1.5,0.02s-0.95-0.19-1.36-0.39c-0.41-0.21-0.76-0.5-1.04-0.87
		c-0.29-0.37-0.47-0.85-0.54-1.43c-0.08-0.62-0.03-1.15,0.15-1.59c0.18-0.44,0.45-0.83,0.8-1.17c0.35-0.34,0.76-0.64,1.22-0.9
		c0.46-0.26,0.93-0.53,1.42-0.78c0.48-0.26,0.95-0.53,1.39-0.8c0.44-0.27,0.82-0.6,1.13-0.98l-0.03-0.2l-6.54,0.87
		c-0.15,0.02-0.28,0.06-0.4,0.13c-0.12,0.07-0.16,0.24-0.12,0.5l-0.24,0.03L215.93,357.07z"/>
	<path class="st1" d="M206.73,363.44c-0.06-1.14,0.81-2.11,1.94-2.17c1.14-0.06,2.11,0.81,2.17,1.94s-0.81,2.11-1.95,2.17
		C207.72,365.45,206.79,364.54,206.73,363.44z"/>
	<path class="st1" d="M189.43,359.27c0.04,0,0.08,0.01,0.11,0.01c0.03,0.01,0.07,0.01,0.11,0.01c0.08,0,0.27-0.07,0.58-0.22
		c0.3-0.15,0.69-0.32,1.16-0.5c0.47-0.19,0.99-0.34,1.58-0.47c0.59-0.13,1.21-0.18,1.85-0.16c0.84,0.03,1.64,0.16,2.41,0.39
		c0.77,0.24,1.44,0.59,2.02,1.05c0.58,0.46,1.03,1.03,1.36,1.71s0.48,1.46,0.45,2.36c-0.03,0.88-0.22,1.65-0.59,2.31
		c-0.37,0.66-0.85,1.21-1.46,1.65c-0.61,0.43-1.3,0.75-2.08,0.96c-0.78,0.2-1.59,0.29-2.43,0.27c-0.68-0.02-1.29-0.09-1.84-0.22
		c-0.55-0.12-1.03-0.25-1.44-0.38c-0.41-0.13-0.73-0.26-0.97-0.37c-0.24-0.11-0.38-0.17-0.43-0.17c-0.07,0-0.12,0.03-0.17,0.09
		c-0.05,0.07-0.09,0.12-0.11,0.16l-0.29-0.25l1.63-2.37l0.2,0.15c0,0.04,0,0.08,0.01,0.12c0.01,0.04,0.01,0.09,0.03,0.14
		c0.02,0.15,0.15,0.3,0.39,0.46c0.24,0.16,0.53,0.31,0.88,0.44s0.72,0.24,1.11,0.33s0.75,0.14,1.08,0.15
		c0.56,0.02,1.1-0.05,1.62-0.19c0.52-0.14,0.97-0.36,1.36-0.66c0.39-0.3,0.7-0.66,0.94-1.1c0.24-0.44,0.37-0.95,0.39-1.52
		c0.02-0.57-0.08-1.09-0.29-1.54c-0.21-0.45-0.5-0.84-0.88-1.16s-0.81-0.57-1.32-0.74c-0.51-0.18-1.04-0.27-1.6-0.29
		c-0.43-0.01-0.87,0.02-1.34,0.11c-0.47,0.08-0.9,0.2-1.29,0.34c-0.39,0.14-0.72,0.3-0.99,0.49c-0.27,0.19-0.4,0.36-0.41,0.54
		c0,0.09,0.02,0.17,0.07,0.24l-0.29,0.15l-1.25-2.16L189.43,359.27z"/>
	<path class="st1" d="M178.35,367.21c-0.64-0.08-1.2-0.21-1.71-0.38c-0.5-0.18-0.92-0.41-1.26-0.7c-0.34-0.29-0.59-0.64-0.74-1.06
		c-0.15-0.42-0.19-0.91-0.12-1.48c0.11-0.87,0.45-1.51,1.02-1.91s1.31-0.63,2.2-0.68l-2.18-4.09c-0.08-0.14-0.18-0.24-0.3-0.28
		c-0.12-0.04-0.24-0.07-0.34-0.08l0.04-0.36l3.71,0.45l-0.04,0.36c-0.12-0.01-0.22-0.01-0.31,0.02c-0.09,0.03-0.14,0.08-0.15,0.14
		c-0.01,0.07,0.01,0.15,0.05,0.24c0.04,0.09,0.11,0.22,0.2,0.38l1.81,3.36l2.84,0.35l0.43-3.53c0.02-0.12-0.02-0.21-0.1-0.28
		c-0.08-0.07-0.23-0.12-0.46-0.15l0.04-0.36l3.43,0.42l-0.04,0.36c-0.38-0.05-0.59,0.05-0.62,0.29l-1.1,9.01
		c-0.03,0.24,0.15,0.38,0.53,0.43l-0.04,0.36L178.35,367.21z M179.44,362.63c-0.48-0.06-0.88-0.07-1.2-0.04
		c-0.33,0.03-0.59,0.11-0.79,0.22c-0.2,0.11-0.35,0.25-0.45,0.42c-0.1,0.17-0.16,0.36-0.19,0.57c-0.03,0.21-0.01,0.41,0.05,0.6
		s0.17,0.36,0.34,0.51c0.17,0.16,0.41,0.29,0.72,0.4c0.31,0.11,0.7,0.2,1.18,0.25l3.43,0.42l0.36-2.94L179.44,362.63z"/>
	<path class="st1" d="M160.76,361.81c-0.03,0.14,0,0.26,0.1,0.36c0.1,0.1,0.28,0.17,0.55,0.23l6.34,1.34l0.51-2.43l-3.83-0.81
		c-0.26-0.06-0.47-0.06-0.63-0.02c-0.16,0.04-0.27,0.21-0.33,0.51l-0.35-0.08l0.65-3.05l0.35,0.07c-0.06,0.3-0.03,0.51,0.09,0.62
		s0.32,0.2,0.58,0.26l3.83,0.81l0.57-2.7l-6.53-1.39c-0.2-0.04-0.36-0.03-0.51,0.04c-0.14,0.06-0.23,0.18-0.27,0.33l-0.35-0.08
		l0.57-2.68l0.35,0.07c-0.04,0.2,0,0.32,0.12,0.37c0.12,0.05,0.28,0.1,0.47,0.14l9.12,1.93l-0.07,0.35
		c-0.09-0.02-0.18-0.01-0.26,0.04c-0.08,0.04-0.14,0.12-0.16,0.24l-1.88,8.88c-0.02,0.12-0.01,0.21,0.05,0.29s0.13,0.12,0.23,0.14
		l-0.08,0.35l-8.92-1.89c-0.27-0.06-0.48-0.06-0.6,0s-0.21,0.16-0.24,0.31l-0.35-0.08l0.55-2.58L160.76,361.81z"/>
	<path class="st1" d="M160.44,353.54c-0.17-0.02-0.33,0.02-0.47,0.13c-0.14,0.11-0.28,0.24-0.42,0.39l-5.79,6.38
		c-0.14,0.14-0.27,0.27-0.38,0.39c-0.11,0.12-0.18,0.23-0.21,0.33c-0.04,0.13-0.02,0.23,0.05,0.31c0.07,0.08,0.16,0.14,0.25,0.2
		l-0.1,0.34l-3.24-0.98l0.1-0.34c0.1,0,0.2-0.01,0.3-0.02c0.1-0.02,0.18-0.1,0.22-0.24c0.03-0.1,0.04-0.21,0.03-0.33
		c-0.01-0.12-0.04-0.27-0.08-0.46l-1.63-9c-0.02-0.16-0.08-0.29-0.17-0.38c-0.09-0.1-0.19-0.2-0.32-0.3l0.1-0.34l3.37,1.02
		l-0.1,0.34c-0.05-0.02-0.12-0.02-0.21,0c-0.09,0.02-0.14,0.06-0.17,0.14c-0.04,0.13-0.04,0.31,0,0.54l0.3,1.64l4.67,1.41l1.1-1.15
		c0.21-0.23,0.33-0.4,0.36-0.52c0.04-0.14-0.06-0.25-0.3-0.32l0.1-0.35l2.72,0.82L160.44,353.54z M152.15,354.92l0.53,4.05
		l2.87-3.02L152.15,354.92z"/>
	<path class="st1" d="M141.31,347.52c0.09-0.22-0.01-0.39-0.28-0.5l0.13-0.33l2.87,1.12l-0.13,0.34c-0.09-0.03-0.18-0.04-0.27-0.01
		c-0.09,0.03-0.16,0.1-0.2,0.21l-2.9,7.41l3.07,1.2c0.11,0.04,0.23,0.05,0.36,0.03c0.13-0.02,0.23-0.12,0.3-0.29l0.34,0.13
		l-1.02,2.61l-0.33-0.13c0.07-0.17,0.06-0.31-0.02-0.42c-0.08-0.1-0.18-0.18-0.29-0.22l-8.27-3.23c-0.11-0.04-0.23-0.05-0.36-0.03
		c-0.13,0.02-0.23,0.12-0.3,0.29l-0.34-0.13l1.02-2.61l0.34,0.13c-0.07,0.17-0.06,0.31,0.02,0.42s0.18,0.18,0.29,0.22l3.07,1.2
		L141.31,347.52z"/>
	<path class="st1" d="M135.4,344.62c-0.32-0.14-0.52-0.1-0.62,0.12l-3.7,8.29c-0.1,0.22,0.01,0.4,0.33,0.54l-0.15,0.33l-3.03-1.35
		l0.15-0.33c0.32,0.14,0.52,0.1,0.62-0.12l3.7-8.29c0.1-0.22-0.01-0.4-0.33-0.54l0.15-0.33l3.03,1.35L135.4,344.62z"/>
	<path class="st1" d="M114.92,345.24c0.23,0.13,0.45,0.13,0.65,0.02s0.35-0.21,0.45-0.29l6.8-5.18c0.23-0.18,0.42-0.32,0.57-0.42
		c0.15-0.1,0.23-0.18,0.27-0.24c0.03-0.06,0.04-0.11,0.03-0.16c-0.01-0.05-0.03-0.11-0.06-0.17l0.17-0.32l2.7,1.45l-0.17,0.32
		c-0.13-0.01-0.23,0.04-0.29,0.16c-0.03,0.06-0.05,0.2-0.06,0.43s-0.02,0.51-0.04,0.85l-0.52,8.59c-0.01,0.16,0.02,0.3,0.1,0.41
		c0.07,0.12,0.2,0.26,0.36,0.42l-0.17,0.32l-3.15-1.69l0.17-0.32c0.08,0.04,0.17,0.07,0.27,0.07s0.18-0.06,0.24-0.18
		c0.07-0.13,0.11-0.32,0.11-0.57c0.01-0.25,0.02-0.56,0.04-0.93l0.34-6.06l-4.76,3.59c-0.3,0.23-0.58,0.43-0.84,0.61
		s-0.4,0.31-0.45,0.4c-0.1,0.19,0.01,0.37,0.34,0.55l-0.17,0.32l-3.08-1.65L114.92,345.24z"/>
	<path class="st1" d="M105.17,336.85c-0.08,0.12-0.09,0.25-0.04,0.37c0.06,0.12,0.2,0.26,0.44,0.41l5.44,3.53l1.35-2.08l-3.29-2.13
		c-0.22-0.15-0.42-0.23-0.58-0.25c-0.16-0.02-0.33,0.1-0.49,0.36l-0.3-0.2l1.7-2.62l0.3,0.2c-0.17,0.26-0.21,0.46-0.14,0.62
		c0.08,0.15,0.23,0.3,0.45,0.45l3.29,2.13l1.5-2.32l-5.61-3.63c-0.17-0.11-0.33-0.16-0.49-0.15c-0.16,0.01-0.28,0.08-0.37,0.21
		l-0.3-0.2l1.49-2.3l0.3,0.2c-0.11,0.17-0.12,0.3-0.03,0.39c0.09,0.09,0.22,0.19,0.39,0.3l7.82,5.07l-0.2,0.3
		c-0.08-0.05-0.16-0.07-0.26-0.06c-0.09,0.01-0.17,0.07-0.24,0.17l-4.94,7.62c-0.07,0.1-0.08,0.2-0.05,0.29
		c0.03,0.09,0.08,0.16,0.16,0.21l-0.2,0.3l-7.65-4.96c-0.23-0.15-0.42-0.22-0.57-0.21c-0.14,0.01-0.25,0.08-0.33,0.2l-0.3-0.2
		l1.44-2.21L105.17,336.85z"/>
	<path class="st1" d="M92.95,317.31c0.16-0.18,0.13-0.37-0.09-0.56l0.24-0.27l2.29,2.06l-0.24,0.27c-0.07-0.06-0.15-0.1-0.25-0.1
		c-0.09,0-0.18,0.04-0.26,0.13l-5.32,5.92l2.45,2.21c0.09,0.08,0.2,0.13,0.33,0.16c0.13,0.03,0.26-0.03,0.38-0.17l0.27,0.24
		l-1.87,2.08l-0.27-0.24c0.12-0.14,0.17-0.27,0.13-0.4c-0.04-0.12-0.1-0.23-0.19-0.31l-6.6-5.94c-0.09-0.08-0.2-0.13-0.33-0.16
		c-0.13-0.03-0.25,0.03-0.38,0.17l-0.27-0.24l1.87-2.08l0.27,0.24c-0.12,0.14-0.17,0.27-0.13,0.4c0.04,0.12,0.1,0.23,0.19,0.31
		l2.45,2.21L92.95,317.31z"/>
	<path class="st1" d="M76.37,314.65c-0.44-0.47-0.79-0.93-1.07-1.38c-0.27-0.46-0.45-0.91-0.52-1.35c-0.08-0.44-0.04-0.87,0.11-1.28
		c0.15-0.41,0.43-0.82,0.85-1.21c0.64-0.6,1.31-0.87,2.01-0.81c0.7,0.06,1.4,0.35,2.12,0.89l0.95-4.54c0.03-0.16,0.02-0.29-0.05-0.4
		c-0.07-0.11-0.14-0.21-0.21-0.28l0.26-0.25l2.56,2.72l-0.26,0.25c-0.08-0.09-0.17-0.15-0.26-0.18c-0.09-0.04-0.16-0.03-0.21,0.01
		c-0.05,0.05-0.09,0.12-0.11,0.22c-0.03,0.1-0.06,0.24-0.09,0.41l-0.77,3.74l1.96,2.08l2.59-2.44c0.09-0.08,0.12-0.17,0.11-0.28
		s-0.1-0.24-0.26-0.4l0.26-0.25l2.37,2.52l-0.26,0.25c-0.26-0.28-0.48-0.34-0.66-0.18l-6.62,6.22c-0.18,0.17-0.13,0.39,0.13,0.67
		l-0.26,0.25L76.37,314.65z M80.14,311.82c-0.33-0.35-0.63-0.62-0.9-0.8c-0.27-0.18-0.52-0.3-0.75-0.34
		c-0.22-0.04-0.43-0.04-0.62,0.03c-0.19,0.07-0.36,0.17-0.51,0.32s-0.27,0.31-0.35,0.49c-0.08,0.18-0.1,0.39-0.07,0.61
		c0.03,0.23,0.13,0.48,0.29,0.77s0.41,0.6,0.74,0.95l2.37,2.52l2.16-2.03L80.14,311.82z"/>
	<path class="st1" d="M66.3,299.24c-0.11,0.09-0.17,0.2-0.15,0.34c0.01,0.13,0.1,0.31,0.28,0.53l4.01,5.09l1.95-1.54l-2.43-3.08
		c-0.17-0.21-0.32-0.35-0.47-0.42c-0.15-0.07-0.34-0.01-0.58,0.18l-0.22-0.28l2.45-1.93l0.22,0.28c-0.24,0.19-0.35,0.37-0.33,0.54
		s0.12,0.36,0.28,0.57l2.43,3.08l2.17-1.71l-4.13-5.25c-0.12-0.16-0.26-0.26-0.41-0.3c-0.15-0.04-0.29-0.01-0.42,0.09l-0.22-0.28
		l2.15-1.7l0.22,0.28c-0.16,0.12-0.21,0.24-0.15,0.36c0.06,0.12,0.15,0.25,0.27,0.41l5.77,7.32l-0.28,0.22
		c-0.06-0.07-0.13-0.12-0.23-0.14s-0.19,0.01-0.28,0.08l-7.13,5.62c-0.09,0.07-0.14,0.16-0.14,0.25c0,0.09,0.03,0.18,0.08,0.25
		l-0.28,0.22l-5.64-7.16c-0.17-0.22-0.33-0.35-0.47-0.38c-0.14-0.04-0.26-0.01-0.38,0.08l-0.22-0.28l2.07-1.63L66.3,299.24z"/>
	<path class="st1" d="M70.56,291.54c-0.14-0.21-0.31-0.25-0.51-0.12l-7.61,4.95c-0.2,0.13-0.23,0.3-0.09,0.51l-0.3,0.2l-1.87-2.87
		l0.3-0.2c0.06,0.09,0.14,0.1,0.25,0.02c0.09-0.06,0.17-0.27,0.25-0.64l1.86-8.06l-5.33,3.47c-0.2,0.13-0.21,0.34-0.02,0.63
		l-0.3,0.2l-1.65-2.53l0.3-0.2c0.14,0.21,0.31,0.25,0.51,0.12l7.61-4.95c0.2-0.13,0.23-0.3,0.1-0.51l0.3-0.2l1.77,2.72l-0.3,0.2
		c-0.09-0.14-0.19-0.18-0.29-0.12c-0.08,0.05-0.15,0.22-0.21,0.52l-2,8.58l5.56-3.62c0.2-0.13,0.22-0.32,0.05-0.58l0.3-0.2
		l1.61,2.48L70.56,291.54z"/>
	<path class="st1" d="M50.39,277.65c-0.34-0.65-0.56-1.3-0.67-1.96c-0.11-0.66-0.07-1.3,0.09-1.91c0.17-0.62,0.48-1.19,0.94-1.74
		s1.09-1.02,1.88-1.44c0.79-0.41,1.54-0.66,2.25-0.73c0.71-0.07,1.36,0,1.96,0.21c0.6,0.21,1.14,0.55,1.63,1.01
		c0.48,0.46,0.89,1.02,1.24,1.67l3.08,5.88l-0.32,0.17c-0.14-0.27-0.32-0.35-0.53-0.24l-8.04,4.22c-0.21,0.11-0.25,0.3-0.1,0.57
		l-0.32,0.17L50.39,277.65z M58.55,274.27c-0.29-0.55-0.59-1.01-0.9-1.38c-0.31-0.36-0.66-0.62-1.04-0.76
		c-0.38-0.14-0.81-0.18-1.29-0.1c-0.47,0.08-1.02,0.27-1.63,0.6c-0.61,0.32-1.08,0.66-1.42,1c-0.33,0.35-0.55,0.72-0.65,1.12
		c-0.1,0.4-0.09,0.83,0.04,1.29c0.12,0.46,0.33,0.97,0.62,1.53l1.44,2.75l6.27-3.29L58.55,274.27z"/>
	<path class="st1" d="M50.77,251.43l0.09,0.22c-0.14,0.05-0.19,0.14-0.16,0.26c0.03,0.12,0.08,0.25,0.13,0.39l2.99,7.87
		c0.05,0.14,0.1,0.25,0.16,0.33c0.05,0.08,0.13,0.1,0.25,0.06l0.08,0.22l-0.67,0.26c-0.66,0.25-1.29,0.3-1.89,0.15
		c-0.6-0.15-1.17-0.41-1.72-0.77c-0.55-0.36-1.07-0.78-1.56-1.25c-0.49-0.47-0.97-0.9-1.42-1.3s-0.89-0.71-1.3-0.93
		c-0.41-0.22-0.81-0.26-1.2-0.11c-0.26,0.1-0.46,0.24-0.58,0.42c-0.12,0.18-0.2,0.39-0.24,0.61c-0.03,0.23-0.03,0.46,0.02,0.7
		c0.05,0.24,0.11,0.46,0.19,0.68c0.08,0.21,0.22,0.46,0.41,0.74c0.19,0.28,0.42,0.54,0.68,0.77c0.26,0.23,0.53,0.41,0.81,0.54
		c0.28,0.13,0.56,0.14,0.82,0.04c0.06-0.02,0.14-0.07,0.23-0.14s0.14-0.13,0.16-0.2l0.2,0.14l-1.33,2.71l-0.2-0.14
		c0.01-0.06,0.01-0.12,0.02-0.18c0.01-0.06,0-0.12-0.03-0.18c-0.03-0.08-0.17-0.18-0.44-0.31c-0.26-0.13-0.57-0.32-0.93-0.59
		c-0.36-0.26-0.73-0.62-1.11-1.08c-0.39-0.45-0.72-1.04-0.99-1.76c-0.18-0.47-0.3-0.96-0.36-1.46c-0.06-0.5-0.04-0.97,0.07-1.42
		c0.11-0.45,0.31-0.85,0.61-1.21c0.3-0.36,0.72-0.65,1.27-0.86c0.59-0.22,1.12-0.29,1.59-0.22c0.47,0.08,0.91,0.25,1.32,0.52
		c0.41,0.27,0.79,0.59,1.15,0.99c0.36,0.39,0.72,0.79,1.09,1.2c0.36,0.41,0.73,0.8,1.09,1.17s0.77,0.66,1.21,0.88l0.19-0.07
		l-2.34-6.17c-0.05-0.14-0.13-0.26-0.22-0.36c-0.1-0.1-0.27-0.1-0.52-0.01l-0.08-0.22L50.77,251.43z"/>
	<path class="st1" d="M38.2,247.65c-0.22-0.74-0.29-1.47-0.23-2.19s0.26-1.39,0.58-2c0.32-0.62,0.75-1.15,1.3-1.61
		c0.55-0.46,1.2-0.8,1.95-1.02s1.49-0.29,2.19-0.2c0.71,0.09,1.36,0.31,1.95,0.66c0.6,0.34,1.11,0.81,1.54,1.38
		c0.43,0.57,0.76,1.23,0.98,1.97c0.22,0.74,0.3,1.47,0.25,2.19c-0.05,0.72-0.24,1.38-0.55,2c-0.31,0.61-0.74,1.15-1.29,1.61
		c-0.55,0.46-1.2,0.8-1.95,1.02c-0.75,0.22-1.48,0.29-2.19,0.2c-0.71-0.09-1.36-0.31-1.96-0.65c-0.6-0.34-1.13-0.8-1.57-1.37
		C38.75,249.05,38.42,248.39,38.2,247.65z M39.85,247.16c0.13,0.45,0.34,0.84,0.64,1.17c0.29,0.33,0.64,0.59,1.03,0.77
		c0.39,0.18,0.83,0.29,1.3,0.32c0.48,0.03,0.96-0.02,1.46-0.17c0.5-0.15,0.94-0.36,1.32-0.65s0.69-0.61,0.92-0.98
		c0.23-0.37,0.38-0.77,0.45-1.21c0.07-0.44,0.03-0.88-0.1-1.33c-0.13-0.45-0.34-0.84-0.64-1.17c-0.29-0.33-0.64-0.59-1.03-0.77
		c-0.39-0.18-0.83-0.29-1.3-0.32c-0.48-0.03-0.96,0.02-1.46,0.17c-0.5,0.15-0.94,0.36-1.32,0.65c-0.38,0.29-0.69,0.61-0.92,0.98
		c-0.23,0.37-0.38,0.77-0.45,1.21C39.68,246.27,39.72,246.72,39.85,247.16z"/>
	<path class="st1" d="M44.67,228.14l0.05,0.24c-0.14,0.03-0.21,0.11-0.19,0.24c0.01,0.13,0.04,0.26,0.07,0.4l1.76,8.23
		c0.03,0.14,0.07,0.26,0.1,0.35c0.04,0.09,0.12,0.12,0.23,0.09l0.05,0.23l-0.7,0.15c-0.69,0.15-1.32,0.1-1.89-0.14
		c-0.57-0.24-1.1-0.58-1.59-1.02s-0.94-0.93-1.36-1.47c-0.41-0.54-0.82-1.04-1.21-1.5c-0.39-0.46-0.77-0.83-1.15-1.12
		c-0.37-0.28-0.76-0.38-1.17-0.29c-0.27,0.06-0.49,0.17-0.64,0.33c-0.15,0.16-0.26,0.35-0.33,0.57c-0.07,0.22-0.1,0.45-0.09,0.69
		c0.01,0.24,0.04,0.47,0.09,0.7c0.05,0.22,0.14,0.49,0.29,0.8c0.15,0.31,0.33,0.6,0.55,0.86c0.22,0.27,0.46,0.48,0.72,0.65
		c0.26,0.17,0.53,0.22,0.8,0.17c0.07-0.01,0.15-0.05,0.24-0.1c0.1-0.05,0.16-0.11,0.19-0.17l0.18,0.17l-1.72,2.47l-0.18-0.17
		c0.02-0.06,0.03-0.12,0.05-0.17c0.02-0.06,0.02-0.12,0-0.18c-0.02-0.08-0.15-0.2-0.39-0.37c-0.24-0.17-0.52-0.41-0.83-0.72
		c-0.31-0.31-0.63-0.73-0.94-1.23c-0.31-0.51-0.55-1.14-0.71-1.89c-0.11-0.5-0.15-0.99-0.14-1.5c0.02-0.5,0.11-0.96,0.29-1.39
		c0.17-0.43,0.44-0.8,0.79-1.11c0.35-0.31,0.81-0.53,1.38-0.65c0.61-0.13,1.15-0.12,1.6,0.03c0.46,0.15,0.86,0.38,1.23,0.71
		c0.36,0.33,0.69,0.71,0.99,1.15c0.3,0.44,0.6,0.89,0.89,1.35s0.6,0.9,0.91,1.32c0.31,0.42,0.66,0.77,1.06,1.05l0.2-0.04l-1.38-6.45
		c-0.03-0.14-0.08-0.27-0.16-0.38s-0.25-0.14-0.51-0.09l-0.05-0.23L44.67,228.14z"/>
	<path class="st1" d="M42.97,216.22l0.03,0.24c-0.15,0.02-0.22,0.09-0.21,0.22c0,0.13,0.02,0.26,0.04,0.41l1.13,8.34
		c0.02,0.15,0.04,0.26,0.08,0.35s0.11,0.13,0.23,0.11l0.03,0.24l-0.71,0.1c-0.7,0.09-1.32,0-1.87-0.28
		c-0.55-0.28-1.05-0.66-1.51-1.14s-0.87-1-1.24-1.57s-0.74-1.1-1.09-1.59c-0.35-0.49-0.71-0.89-1.06-1.2
		c-0.35-0.31-0.73-0.44-1.14-0.38c-0.28,0.04-0.5,0.13-0.66,0.28c-0.16,0.15-0.28,0.33-0.37,0.54c-0.09,0.21-0.13,0.44-0.14,0.68
		c-0.01,0.24,0,0.48,0.03,0.7c0.03,0.23,0.11,0.5,0.23,0.82c0.12,0.32,0.29,0.62,0.49,0.9c0.2,0.28,0.42,0.52,0.67,0.71
		s0.51,0.26,0.79,0.23c0.07-0.01,0.15-0.04,0.25-0.08c0.1-0.05,0.17-0.1,0.2-0.16l0.17,0.18l-1.9,2.34l-0.17-0.18
		c0.02-0.06,0.04-0.11,0.06-0.17c0.02-0.06,0.02-0.12,0.02-0.18c-0.01-0.08-0.13-0.21-0.36-0.4c-0.23-0.18-0.48-0.45-0.77-0.78
		c-0.29-0.34-0.57-0.77-0.84-1.3s-0.46-1.17-0.57-1.94c-0.07-0.5-0.07-1-0.02-1.5c0.05-0.5,0.18-0.95,0.39-1.37
		c0.21-0.41,0.5-0.76,0.87-1.04s0.85-0.47,1.43-0.55c0.62-0.08,1.15-0.04,1.59,0.15c0.44,0.18,0.83,0.45,1.17,0.8
		s0.64,0.76,0.9,1.22c0.26,0.46,0.53,0.93,0.79,1.42c0.26,0.48,0.53,0.94,0.8,1.38c0.27,0.44,0.6,0.82,0.98,1.13l0.2-0.03L41,217.33
		c-0.02-0.15-0.06-0.28-0.13-0.4c-0.07-0.12-0.24-0.16-0.5-0.12l-0.03-0.24L42.97,216.22z"/>
	<path class="st1" d="M36.58,207.03c1.14-0.06,2.11,0.8,2.17,1.94c0.06,1.14-0.8,2.11-1.94,2.17c-1.14,0.07-2.11-0.8-2.17-1.94
		C34.57,208.02,35.48,207.09,36.58,207.03z"/>
	<path class="st1" d="M40.73,189.69c0,0.04,0,0.08-0.01,0.11c-0.01,0.03-0.01,0.07-0.01,0.11c0,0.08,0.07,0.27,0.22,0.58
		c0.15,0.3,0.32,0.69,0.51,1.16s0.34,0.99,0.47,1.58c0.13,0.59,0.19,1.21,0.17,1.85c-0.02,0.84-0.15,1.64-0.39,2.41
		c-0.24,0.77-0.59,1.44-1.05,2.02c-0.46,0.58-1.03,1.03-1.71,1.36c-0.68,0.33-1.46,0.48-2.35,0.45c-0.88-0.03-1.65-0.22-2.31-0.59
		c-0.66-0.37-1.21-0.85-1.65-1.46c-0.44-0.61-0.76-1.3-0.96-2.08c-0.2-0.78-0.29-1.59-0.27-2.43c0.02-0.68,0.09-1.29,0.21-1.84
		c0.12-0.55,0.25-1.03,0.38-1.44c0.13-0.41,0.25-0.73,0.37-0.97c0.11-0.24,0.17-0.38,0.17-0.43c0-0.07-0.03-0.12-0.09-0.17
		c-0.07-0.05-0.12-0.09-0.16-0.11l0.25-0.29l2.37,1.63l-0.15,0.2c-0.04,0-0.08,0-0.12,0.01s-0.09,0.01-0.14,0.03
		c-0.15,0.02-0.3,0.15-0.46,0.39c-0.16,0.24-0.31,0.53-0.44,0.88c-0.13,0.35-0.24,0.72-0.33,1.11s-0.14,0.75-0.15,1.09
		c-0.02,0.56,0.05,1.1,0.19,1.62c0.14,0.52,0.37,0.97,0.66,1.36c0.3,0.39,0.66,0.7,1.1,0.94c0.44,0.24,0.95,0.37,1.52,0.38
		s1.09-0.08,1.54-0.29c0.45-0.21,0.84-0.51,1.16-0.88s0.56-0.81,0.74-1.32c0.17-0.51,0.27-1.04,0.29-1.6
		c0.01-0.43-0.02-0.87-0.11-1.34c-0.09-0.47-0.2-0.9-0.34-1.29s-0.31-0.72-0.49-0.98c-0.19-0.27-0.37-0.4-0.54-0.41
		c-0.09,0-0.17,0.02-0.24,0.07l-0.15-0.28l2.16-1.26L40.73,189.69z"/>
	<path class="st1" d="M32.77,178.66c0.08-0.64,0.2-1.21,0.38-1.71c0.18-0.5,0.41-0.93,0.7-1.27c0.29-0.34,0.64-0.59,1.06-0.74
		c0.41-0.15,0.91-0.19,1.48-0.12c0.87,0.1,1.51,0.44,1.91,1.02s0.63,1.3,0.68,2.2l4.09-2.19c0.14-0.08,0.24-0.18,0.28-0.3
		c0.04-0.12,0.07-0.24,0.08-0.34l0.36,0.04l-0.45,3.71l-0.36-0.04c0.02-0.12,0.01-0.22-0.02-0.31s-0.08-0.14-0.14-0.15
		c-0.07-0.01-0.15,0.01-0.24,0.05c-0.09,0.04-0.22,0.11-0.38,0.2l-3.36,1.81l-0.34,2.84l3.53,0.42c0.12,0.02,0.21-0.02,0.28-0.1
		c0.07-0.08,0.12-0.23,0.15-0.46l0.36,0.04l-0.41,3.43l-0.36-0.04c0.05-0.38-0.05-0.59-0.29-0.62l-9.01-1.09
		c-0.24-0.03-0.38,0.15-0.43,0.53l-0.36-0.04L32.77,178.66z M37.35,179.74c0.06-0.48,0.07-0.88,0.03-1.21s-0.11-0.59-0.22-0.79
		c-0.11-0.2-0.25-0.35-0.42-0.45c-0.17-0.1-0.36-0.16-0.57-0.19c-0.21-0.03-0.41-0.01-0.6,0.05c-0.19,0.06-0.36,0.17-0.51,0.34
		c-0.16,0.17-0.29,0.41-0.4,0.72c-0.11,0.31-0.2,0.7-0.25,1.18L34,182.82l2.94,0.36L37.35,179.74z"/>
	<path class="st1" d="M38.13,161.06c-0.14-0.03-0.26,0-0.36,0.1c-0.09,0.1-0.17,0.28-0.23,0.55l-1.33,6.34l2.43,0.51l0.81-3.84
		c0.06-0.26,0.06-0.47,0.02-0.63c-0.04-0.16-0.21-0.27-0.51-0.33l0.07-0.35l3.05,0.64l-0.07,0.35c-0.3-0.06-0.51-0.03-0.62,0.09
		c-0.12,0.13-0.2,0.32-0.25,0.58l-0.81,3.83l2.7,0.57l1.38-6.54c0.04-0.2,0.03-0.37-0.04-0.51c-0.06-0.14-0.18-0.23-0.33-0.26
		l0.07-0.35l2.68,0.56l-0.07,0.35c-0.2-0.04-0.32,0-0.37,0.12c-0.05,0.12-0.1,0.28-0.14,0.47l-1.92,9.12l-0.35-0.07
		c0.02-0.09,0.01-0.18-0.04-0.26c-0.04-0.08-0.12-0.14-0.24-0.16l-8.89-1.87c-0.12-0.03-0.21-0.01-0.29,0.05
		c-0.07,0.06-0.12,0.14-0.14,0.23l-0.35-0.07l1.88-8.93c0.06-0.27,0.06-0.47,0-0.6c-0.06-0.13-0.16-0.21-0.31-0.24l0.07-0.35
		l2.58,0.54L38.13,161.06z"/>
	<path class="st1" d="M46.41,160.7c0.02-0.17-0.02-0.33-0.13-0.47c-0.11-0.14-0.24-0.28-0.4-0.42l-6.39-5.78
		c-0.14-0.14-0.27-0.26-0.39-0.38c-0.12-0.11-0.23-0.18-0.33-0.21c-0.13-0.04-0.23-0.02-0.31,0.05c-0.08,0.07-0.15,0.16-0.2,0.25
		l-0.34-0.1l0.97-3.24l0.34,0.1c0,0.1,0.01,0.2,0.03,0.3c0.02,0.1,0.1,0.17,0.24,0.22c0.1,0.03,0.21,0.04,0.33,0.03
		c0.12-0.01,0.27-0.04,0.46-0.08l8.99-1.65c0.16-0.02,0.29-0.08,0.38-0.17c0.1-0.09,0.2-0.19,0.3-0.32l0.35,0.1l-1.01,3.37
		l-0.34-0.1c0.02-0.05,0.02-0.12,0-0.21c-0.02-0.09-0.06-0.14-0.14-0.17c-0.13-0.04-0.31-0.04-0.54,0l-1.64,0.3l-1.4,4.67l1.15,1.1
		c0.23,0.21,0.4,0.33,0.52,0.37c0.14,0.04,0.25-0.06,0.32-0.3l0.34,0.1l-0.82,2.72L46.41,160.7z M45.02,152.41l-4.05,0.54l3.02,2.87
		L45.02,152.41z"/>
	<path class="st1" d="M52.39,141.59c0.22,0.09,0.39-0.01,0.5-0.28l0.34,0.13l-1.12,2.87l-0.34-0.13c0.03-0.09,0.04-0.18,0.01-0.27
		s-0.1-0.16-0.21-0.2l-7.42-2.88l-1.2,3.08c-0.04,0.11-0.05,0.23-0.03,0.36c0.02,0.13,0.12,0.23,0.29,0.3l-0.13,0.34l-2.61-1.01
		l0.13-0.34c0.17,0.07,0.31,0.06,0.42-0.02c0.1-0.08,0.18-0.18,0.22-0.29l3.22-8.28c0.04-0.11,0.06-0.23,0.03-0.36
		c-0.02-0.13-0.12-0.23-0.29-0.3l0.13-0.33l2.61,1.01l-0.13,0.34c-0.17-0.07-0.31-0.06-0.42,0.02s-0.18,0.18-0.22,0.29l-1.2,3.08
		L52.39,141.59z"/>
	<path class="st1" d="M55.27,135.68c0.14-0.32,0.1-0.52-0.12-0.62l-8.29-3.7c-0.22-0.1-0.4,0.01-0.54,0.33L46,131.53l1.35-3.03
		l0.33,0.15c-0.14,0.32-0.1,0.52,0.12,0.62l8.29,3.7c0.22,0.1,0.4-0.01,0.54-0.33l0.33,0.15l-1.35,3.03L55.27,135.68z"/>
	<path class="st1" d="M54.62,115.2c-0.13,0.24-0.13,0.45-0.02,0.65c0.11,0.2,0.21,0.35,0.29,0.45l5.2,6.79
		c0.18,0.23,0.32,0.42,0.42,0.57c0.1,0.15,0.19,0.23,0.24,0.27c0.06,0.03,0.11,0.04,0.17,0.03c0.05-0.01,0.11-0.03,0.17-0.06
		l0.32,0.17l-1.44,2.7l-0.32-0.17c0.01-0.13-0.04-0.23-0.16-0.29c-0.06-0.03-0.2-0.05-0.43-0.06c-0.23-0.01-0.51-0.02-0.85-0.04
		l-8.59-0.51c-0.16-0.01-0.3,0.02-0.41,0.1s-0.26,0.2-0.42,0.36l-0.32-0.17l1.69-3.16l0.32,0.17c-0.04,0.08-0.07,0.17-0.07,0.27
		c0,0.1,0.06,0.18,0.18,0.24c0.13,0.07,0.32,0.11,0.57,0.11c0.25,0.01,0.56,0.02,0.93,0.03l6.06,0.33l-3.6-4.76
		c-0.23-0.3-0.43-0.58-0.61-0.83c-0.17-0.25-0.31-0.4-0.4-0.45c-0.19-0.1-0.37,0.01-0.55,0.34l-0.32-0.17l1.65-3.09L54.62,115.2z"/>
	<path class="st1" d="M63,105.42c-0.12-0.08-0.25-0.09-0.37-0.04c-0.12,0.06-0.26,0.2-0.41,0.44l-3.52,5.44l2.08,1.35l2.13-3.29
		c0.14-0.22,0.23-0.42,0.24-0.58c0.02-0.16-0.1-0.33-0.36-0.49l0.2-0.3l2.62,1.69l-0.2,0.3c-0.26-0.17-0.46-0.21-0.62-0.14
		c-0.15,0.08-0.3,0.23-0.45,0.45l-2.13,3.29l2.32,1.5l3.62-5.61c0.11-0.17,0.16-0.33,0.15-0.49c-0.01-0.16-0.08-0.28-0.22-0.37
		l0.2-0.3l2.3,1.49l-0.2,0.3c-0.17-0.11-0.3-0.12-0.39-0.02c-0.09,0.09-0.19,0.22-0.3,0.39l-5.06,7.83l-0.3-0.19
		c0.05-0.08,0.07-0.17,0.06-0.26c-0.01-0.09-0.07-0.17-0.17-0.24l-7.63-4.92c-0.1-0.07-0.2-0.08-0.29-0.05
		c-0.09,0.03-0.16,0.08-0.21,0.16l-0.3-0.2l4.95-7.66c0.15-0.24,0.22-0.42,0.21-0.57c-0.01-0.14-0.08-0.25-0.2-0.33l0.19-0.3
		l2.22,1.43L63,105.42z"/>
	<path class="st1" d="M82.51,93.19c0.18,0.16,0.37,0.13,0.56-0.09l0.27,0.24l-2.05,2.29l-0.27-0.24c0.06-0.07,0.1-0.15,0.1-0.25
		c0-0.09-0.04-0.18-0.13-0.26l-5.93-5.31l-2.2,2.46c-0.08,0.09-0.13,0.2-0.16,0.33s0.03,0.26,0.17,0.38l-0.24,0.27l-2.09-1.87
		l0.24-0.27c0.14,0.12,0.27,0.17,0.4,0.13c0.13-0.04,0.23-0.1,0.31-0.19l5.92-6.62c0.08-0.09,0.13-0.2,0.16-0.33
		c0.03-0.13-0.03-0.26-0.17-0.38l0.24-0.27l2.09,1.87l-0.24,0.27c-0.14-0.12-0.27-0.17-0.4-0.13c-0.13,0.04-0.23,0.1-0.31,0.19
		l-2.2,2.46L82.51,93.19z"/>
	<path class="st1" d="M85.16,76.57c0.47-0.44,0.93-0.8,1.38-1.07c0.46-0.28,0.9-0.45,1.35-0.53c0.44-0.08,0.87-0.04,1.28,0.11
		c0.42,0.15,0.82,0.43,1.21,0.85c0.6,0.64,0.88,1.31,0.82,2c-0.06,0.7-0.35,1.4-0.88,2.12L94.87,81c0.16,0.03,0.29,0.02,0.4-0.05
		c0.11-0.07,0.2-0.14,0.28-0.21L95.8,81l-2.72,2.57l-0.25-0.26c0.09-0.08,0.15-0.17,0.19-0.26c0.04-0.09,0.03-0.16-0.02-0.21
		c-0.05-0.05-0.12-0.08-0.22-0.11s-0.24-0.06-0.42-0.09l-3.74-0.76l-2.08,1.96l2.44,2.59c0.08,0.09,0.18,0.12,0.28,0.11
		s0.24-0.1,0.4-0.26l0.25,0.26l-2.52,2.38l-0.25-0.26c0.28-0.26,0.34-0.48,0.18-0.66l-6.23-6.6c-0.16-0.17-0.39-0.13-0.67,0.14
		l-0.25-0.26L85.16,76.57z M87.99,80.33c0.35-0.33,0.62-0.63,0.8-0.9c0.18-0.27,0.29-0.52,0.34-0.75c0.04-0.22,0.03-0.43-0.03-0.62
		s-0.17-0.36-0.32-0.51c-0.15-0.16-0.31-0.27-0.49-0.35c-0.18-0.08-0.39-0.1-0.61-0.07c-0.23,0.03-0.48,0.13-0.77,0.3
		s-0.6,0.41-0.95,0.74l-2.52,2.38l2.03,2.15L87.99,80.33z"/>
	<path class="st1" d="M100.55,66.48c-0.09-0.11-0.2-0.17-0.34-0.15c-0.13,0.01-0.31,0.11-0.53,0.28l-5.08,4.02l1.54,1.95l3.07-2.43
		c0.21-0.17,0.35-0.32,0.42-0.47c0.07-0.15,0.01-0.34-0.18-0.58l0.28-0.22l1.93,2.45l-0.28,0.22c-0.19-0.24-0.37-0.35-0.54-0.33
		c-0.17,0.02-0.36,0.12-0.57,0.28l-3.07,2.43l1.71,2.16l5.24-4.14c0.16-0.12,0.26-0.26,0.3-0.41c0.04-0.15,0.01-0.29-0.09-0.42
		l0.28-0.22l1.7,2.15l-0.28,0.22c-0.12-0.16-0.24-0.21-0.36-0.15c-0.12,0.06-0.25,0.15-0.41,0.27l-7.31,5.78l-0.22-0.28
		c0.07-0.06,0.12-0.13,0.14-0.23c0.02-0.09-0.01-0.19-0.08-0.28l-5.63-7.12c-0.07-0.09-0.16-0.14-0.25-0.14
		c-0.1,0-0.18,0.03-0.25,0.08l-0.22-0.28l7.15-5.66c0.22-0.17,0.35-0.33,0.38-0.47c0.03-0.14,0.01-0.27-0.08-0.38l0.28-0.22
		l1.64,2.07L100.55,66.48z"/>
	<path class="st1" d="M108.26,70.72c0.21-0.14,0.25-0.31,0.12-0.51l-4.97-7.6c-0.13-0.2-0.3-0.23-0.52-0.09l-0.2-0.3l2.86-1.87
		l0.2,0.3c-0.09,0.06-0.1,0.14-0.02,0.25c0.06,0.09,0.27,0.17,0.64,0.25l8.06,1.85l-3.48-5.32c-0.13-0.2-0.34-0.21-0.63-0.02
		l-0.2-0.3l2.53-1.65l0.2,0.3c-0.21,0.14-0.25,0.31-0.12,0.51l4.97,7.6c0.13,0.2,0.3,0.23,0.51,0.09l0.2,0.3l-2.71,1.77l-0.2-0.3
		c0.15-0.09,0.18-0.19,0.12-0.29c-0.05-0.08-0.22-0.15-0.52-0.21l-8.58-1.99l3.63,5.56c0.13,0.2,0.33,0.22,0.58,0.05l0.2,0.3
		l-2.48,1.62L108.26,70.72z"/>
	<path class="st1" d="M122.08,50.53c0.65-0.34,1.3-0.57,1.96-0.67c0.66-0.11,1.3-0.08,1.91,0.09c0.62,0.17,1.19,0.48,1.74,0.94
		s1.02,1.08,1.44,1.88c0.42,0.79,0.66,1.54,0.73,2.25c0.07,0.71,0,1.36-0.21,1.96c-0.21,0.6-0.55,1.14-1.01,1.63
		c-0.46,0.49-1.02,0.9-1.66,1.24l-5.87,3.1l-0.17-0.32c0.27-0.14,0.35-0.32,0.24-0.53l-4.24-8.03c-0.11-0.21-0.3-0.25-0.57-0.1
		l-0.17-0.32L122.08,50.53z M125.48,58.69c0.55-0.29,1.01-0.59,1.38-0.91c0.36-0.31,0.62-0.66,0.76-1.04s0.18-0.81,0.1-1.29
		c-0.08-0.47-0.28-1.02-0.6-1.63c-0.32-0.61-0.66-1.08-1.01-1.41c-0.35-0.33-0.72-0.54-1.12-0.64c-0.4-0.1-0.83-0.09-1.29,0.04
		s-0.97,0.33-1.53,0.62l-2.74,1.45l3.3,6.26L125.48,58.69z"/>
	<path class="st1" d="M148.31,50.86l-0.22,0.09c-0.05-0.14-0.14-0.19-0.26-0.16s-0.25,0.08-0.39,0.13l-7.87,3
		c-0.14,0.05-0.25,0.1-0.33,0.16s-0.1,0.13-0.06,0.25l-0.22,0.08l-0.26-0.67c-0.25-0.66-0.3-1.29-0.15-1.89
		c0.15-0.6,0.4-1.17,0.77-1.73c0.36-0.55,0.78-1.07,1.24-1.57c0.47-0.49,0.9-0.97,1.3-1.43c0.4-0.46,0.7-0.89,0.93-1.31
		c0.22-0.41,0.26-0.81,0.11-1.2c-0.1-0.26-0.24-0.45-0.42-0.58s-0.39-0.2-0.61-0.24c-0.23-0.03-0.46-0.03-0.7,0.02
		s-0.46,0.11-0.68,0.19c-0.21,0.08-0.46,0.22-0.74,0.41c-0.28,0.19-0.54,0.42-0.77,0.68c-0.23,0.26-0.41,0.53-0.53,0.81
		c-0.13,0.28-0.14,0.56-0.04,0.82c0.02,0.06,0.07,0.14,0.14,0.22s0.14,0.14,0.2,0.16l-0.14,0.2l-2.71-1.32l0.14-0.2
		c0.06,0.01,0.12,0.01,0.18,0.02c0.06,0.01,0.12,0,0.18-0.03c0.08-0.03,0.18-0.17,0.3-0.44c0.13-0.26,0.32-0.57,0.59-0.93
		c0.26-0.36,0.62-0.73,1.07-1.12c0.45-0.39,1.04-0.72,1.76-0.99c0.47-0.18,0.96-0.3,1.46-0.36c0.5-0.06,0.97-0.04,1.42,0.07
		c0.45,0.11,0.85,0.31,1.22,0.61c0.36,0.3,0.65,0.72,0.86,1.27c0.22,0.59,0.3,1.11,0.22,1.59c-0.08,0.47-0.25,0.91-0.51,1.32
		c-0.27,0.41-0.59,0.79-0.98,1.16c-0.39,0.36-0.79,0.73-1.2,1.09c-0.41,0.36-0.8,0.73-1.17,1.1c-0.37,0.37-0.66,0.77-0.88,1.21
		l0.07,0.19l6.17-2.35c0.14-0.05,0.26-0.13,0.35-0.22s0.1-0.27,0.01-0.52l0.22-0.08L148.31,50.86z"/>
	<path class="st1" d="M152.09,38.27c0.74-0.22,1.47-0.3,2.19-0.23c0.72,0.06,1.39,0.26,2.01,0.57c0.62,0.32,1.15,0.75,1.61,1.29
		c0.46,0.55,0.8,1.19,1.03,1.95c0.22,0.75,0.29,1.49,0.2,2.19c-0.09,0.71-0.31,1.36-0.65,1.96c-0.34,0.6-0.8,1.11-1.38,1.55
		c-0.57,0.43-1.23,0.76-1.97,0.98s-1.47,0.3-2.19,0.25c-0.72-0.05-1.38-0.23-2-0.54c-0.61-0.31-1.15-0.74-1.61-1.29
		c-0.46-0.54-0.8-1.19-1.03-1.95c-0.22-0.75-0.29-1.49-0.2-2.19c0.09-0.71,0.3-1.36,0.65-1.97c0.34-0.6,0.8-1.13,1.37-1.57
		C150.69,38.83,151.35,38.49,152.09,38.27z M152.58,39.92c-0.45,0.13-0.84,0.35-1.17,0.64s-0.59,0.64-0.77,1.03
		c-0.18,0.4-0.29,0.83-0.32,1.31c-0.03,0.48,0.02,0.96,0.17,1.46c0.15,0.5,0.37,0.94,0.65,1.32c0.29,0.38,0.61,0.69,0.98,0.92
		c0.37,0.23,0.77,0.38,1.21,0.45c0.44,0.07,0.88,0.03,1.33-0.1c0.45-0.13,0.84-0.34,1.17-0.64c0.33-0.29,0.59-0.64,0.77-1.03
		c0.18-0.39,0.29-0.83,0.32-1.31c0.03-0.47-0.03-0.96-0.17-1.46c-0.15-0.5-0.37-0.94-0.65-1.32c-0.29-0.38-0.61-0.69-0.98-0.92
		c-0.37-0.23-0.77-0.38-1.21-0.45C153.47,39.75,153.03,39.79,152.58,39.92z"/>
	<path class="st1" d="M171.61,44.71l-0.23,0.05c-0.03-0.14-0.11-0.21-0.24-0.2c-0.13,0.01-0.26,0.04-0.41,0.07l-8.23,1.77
		c-0.14,0.03-0.26,0.07-0.35,0.1c-0.09,0.04-0.12,0.12-0.09,0.24l-0.23,0.05l-0.15-0.7c-0.15-0.69-0.1-1.32,0.13-1.89
		c0.24-0.57,0.58-1.1,1.02-1.59c0.44-0.49,0.93-0.94,1.47-1.36c0.54-0.42,1.04-0.82,1.5-1.21c0.46-0.39,0.83-0.78,1.11-1.15
		c0.28-0.37,0.38-0.76,0.29-1.17c-0.06-0.27-0.17-0.49-0.33-0.63c-0.16-0.15-0.35-0.26-0.57-0.33c-0.22-0.07-0.45-0.1-0.69-0.08
		c-0.24,0.01-0.48,0.04-0.7,0.09c-0.22,0.05-0.49,0.15-0.8,0.29s-0.6,0.33-0.86,0.55c-0.27,0.22-0.48,0.46-0.65,0.72
		c-0.17,0.26-0.22,0.53-0.16,0.8c0.01,0.07,0.05,0.15,0.1,0.24c0.05,0.1,0.11,0.16,0.17,0.19l-0.17,0.18l-2.48-1.72l0.17-0.18
		c0.06,0.01,0.12,0.03,0.17,0.04c0.06,0.02,0.12,0.02,0.18,0c0.08-0.02,0.2-0.15,0.37-0.39c0.17-0.24,0.41-0.52,0.72-0.83
		c0.31-0.31,0.72-0.63,1.23-0.94c0.5-0.31,1.14-0.55,1.89-0.71c0.5-0.11,0.99-0.15,1.49-0.14c0.5,0.01,0.96,0.11,1.39,0.28
		c0.43,0.17,0.8,0.44,1.11,0.78s0.53,0.81,0.66,1.38c0.13,0.61,0.12,1.15-0.02,1.6c-0.15,0.46-0.38,0.86-0.71,1.23
		c-0.32,0.36-0.71,0.69-1.15,0.99c-0.44,0.3-0.89,0.6-1.35,0.9c-0.46,0.3-0.9,0.6-1.32,0.91c-0.42,0.31-0.77,0.66-1.05,1.07
		l0.04,0.2l6.45-1.39c0.14-0.03,0.27-0.08,0.38-0.16s0.14-0.25,0.08-0.51l0.23-0.05L171.61,44.71z"/>
	<path class="st1" d="M183.53,42.99l-0.24,0.03c-0.02-0.15-0.09-0.22-0.22-0.21c-0.13,0-0.26,0.02-0.41,0.04l-8.34,1.14
		c-0.15,0.02-0.26,0.05-0.35,0.08c-0.09,0.03-0.13,0.11-0.11,0.23l-0.24,0.03l-0.1-0.71c-0.1-0.7,0-1.32,0.28-1.88
		c0.28-0.55,0.66-1.05,1.14-1.51c0.48-0.46,1-0.87,1.56-1.24s1.1-0.74,1.59-1.1c0.49-0.36,0.89-0.71,1.2-1.06
		c0.31-0.35,0.43-0.73,0.38-1.14c-0.04-0.28-0.13-0.5-0.28-0.66c-0.15-0.16-0.33-0.28-0.55-0.37c-0.21-0.08-0.44-0.13-0.68-0.14
		c-0.24-0.01-0.48,0-0.7,0.04c-0.22,0.03-0.5,0.11-0.82,0.23c-0.32,0.12-0.62,0.29-0.9,0.49c-0.28,0.2-0.52,0.42-0.71,0.67
		c-0.19,0.25-0.26,0.51-0.22,0.79c0.01,0.07,0.04,0.15,0.08,0.25s0.1,0.17,0.16,0.2l-0.18,0.17l-2.34-1.9l0.18-0.17
		c0.06,0.02,0.11,0.04,0.17,0.06c0.06,0.02,0.12,0.02,0.18,0.01c0.08-0.01,0.21-0.13,0.4-0.36c0.18-0.23,0.44-0.49,0.78-0.77
		c0.34-0.29,0.77-0.57,1.3-0.84s1.17-0.46,1.94-0.57c0.5-0.07,1-0.08,1.5-0.02c0.5,0.05,0.95,0.18,1.37,0.39
		c0.41,0.21,0.76,0.5,1.05,0.87c0.29,0.37,0.47,0.85,0.55,1.43c0.09,0.62,0.04,1.15-0.14,1.59c-0.18,0.44-0.45,0.83-0.8,1.17
		c-0.35,0.34-0.76,0.64-1.22,0.9c-0.46,0.27-0.93,0.53-1.42,0.79c-0.48,0.26-0.94,0.53-1.38,0.81c-0.44,0.28-0.82,0.6-1.13,0.98
		l0.03,0.2l6.54-0.9c0.15-0.02,0.28-0.06,0.4-0.13c0.12-0.07,0.16-0.24,0.12-0.5l0.24-0.03L183.53,42.99z"/>
	<path class="st1" d="M192.71,36.58c0.07,1.14-0.8,2.11-1.94,2.18c-1.14,0.07-2.11-0.8-2.18-1.94c-0.07-1.14,0.8-2.11,1.94-2.18
		C191.71,34.57,192.64,35.48,192.71,36.58z"/>
</g>
</svg>
