<?xml version="1.0" encoding="utf-8"?>
<!-- Generator: Adobe Illustrator 24.2.3, SVG Export Plug-In . SVG Version: 6.00 Build 0)  -->
<svg version="1.1" id="レイヤー_1" xmlns="http://www.w3.org/2000/svg" xmlns:xlink="http://www.w3.org/1999/xlink" x="0px"
	 y="0px" viewBox="0 0 450 450" style="enable-background:new 0 0 450 450;" xml:space="preserve">
<style type="text/css">
	.st0{fill:#F58163;}
	.st1{fill:#131313;}
	.st2{fill:#FFFFFF;stroke:#FFFFFF;stroke-width:1.1861;stroke-miterlimit:10;}
	.st3{font-family:'Copperplate-Bold';}
	.st4{font-size:74.7246px;}
	.st5{letter-spacing:-1;}
	.st6{font-size:64.3462px;}
	.st7{font-family:'KozGoPr6N-Regular-83pv-RKSJ-H';}
	.st8{font-size:58.1191px;}
	.st9{font-size:62.2705px;}
	.st10{letter-spacing:-14;}
</style>
<g>
	<g>
		<path class="st0" d="M225,449.05c-7.51,0-14.58-6.17-21.41-12.13c-5.91-5.16-12.02-10.49-18.42-11.76
			c-1.19-0.24-2.48-0.35-3.82-0.35c-5.74,0-12.14,2.15-18.34,4.23c-6.03,2.02-12.26,4.12-17.67,4.12c-2.3,0-4.3-0.36-6.1-1.11
			c-6.81-2.82-10.94-11.16-14.94-19.23c-3.52-7.1-7.15-14.44-12.67-18.13c-5.58-3.73-13.8-4.3-21.76-4.85
			c-8.92-0.62-18.15-1.26-23.3-6.41s-5.79-14.38-6.41-23.3c-0.55-7.96-1.12-16.18-4.85-21.76c-3.69-5.51-11.03-9.15-18.13-12.67
			c-8.06-4-16.4-8.13-19.23-14.94c-2.75-6.64,0.17-15.35,3-23.78c2.55-7.61,5.2-15.48,3.88-22.16c-1.26-6.39-6.6-12.51-11.75-18.42
			C7.12,239.58,0.95,232.51,0.95,225s6.17-14.58,12.13-21.41c5.16-5.91,10.49-12.02,11.76-18.42c1.32-6.68-1.32-14.55-3.88-22.16
			c-2.83-8.43-5.76-17.14-3-23.78c2.82-6.81,11.16-10.94,19.23-14.94c7.1-3.52,14.44-7.15,18.13-12.67
			c3.73-5.58,4.3-13.8,4.85-21.76c0.62-8.92,1.26-18.15,6.41-23.3s14.38-5.79,23.3-6.41c7.96-0.55,16.18-1.12,21.76-4.85
			c5.51-3.69,9.15-11.03,12.67-18.13c4-8.06,8.13-16.4,14.94-19.23c1.81-0.75,3.8-1.11,6.1-1.11c5.41,0,11.64,2.09,17.67,4.12
			c6.19,2.08,12.6,4.23,18.34,4.23c1.34,0,2.63-0.12,3.82-0.35c6.39-1.26,12.51-6.6,18.42-11.75c6.83-5.96,13.9-12.13,21.41-12.13
			s14.58,6.17,21.41,12.13c5.91,5.16,12.02,10.49,18.42,11.76c1.19,0.24,2.48,0.35,3.82,0.35c5.74,0,12.14-2.15,18.34-4.23
			c6.03-2.02,12.26-4.12,17.67-4.12c2.3,0,4.3,0.36,6.1,1.11c6.81,2.82,10.94,11.16,14.94,19.23c3.52,7.1,7.15,14.44,12.67,18.13
			c5.58,3.73,13.8,4.3,21.76,4.85c8.92,0.62,18.15,1.26,23.3,6.41s5.79,14.38,6.41,23.3c0.55,7.96,1.12,16.18,4.85,21.76
			c3.69,5.51,11.03,9.15,18.13,12.67c8.06,4,16.4,8.13,19.23,14.94c2.75,6.64-0.17,15.35-3,23.78c-2.55,7.61-5.2,15.48-3.88,22.16
			c1.26,6.39,6.6,12.51,11.75,18.42c5.96,6.83,12.13,13.9,12.13,21.41s-6.17,14.58-12.13,21.41c-5.16,5.91-10.49,12.02-11.76,18.42
			c-1.32,6.68,1.32,14.55,3.88,22.16c2.83,8.43,5.76,17.14,3,23.78c-2.82,6.81-11.16,10.94-19.23,14.94
			c-7.1,3.52-14.44,7.15-18.13,12.67c-3.73,5.58-4.3,13.8-4.85,21.76c-0.62,8.92-1.26,18.15-6.41,23.3s-14.38,5.79-23.3,6.41
			c-7.96,0.55-16.18,1.12-21.76,4.85c-5.51,3.69-9.15,11.03-12.67,18.13c-4,8.06-8.13,16.4-14.94,19.23
			c-1.81,0.75-3.8,1.11-6.1,1.11c-5.41,0-11.64-2.09-17.67-4.12c-6.19-2.08-12.6-4.23-18.34-4.23c-1.34,0-2.63,0.12-3.82,0.35
			c-6.39,1.26-12.51,6.6-18.42,11.75C239.58,442.88,232.51,449.05,225,449.05z"/>
		<g>
			<path class="st1" d="M225,1.52c7.3,0,14.28,6.09,21.04,11.99c5.97,5.21,12.14,10.59,18.68,11.89c1.23,0.24,2.55,0.37,3.93,0.37
				c5.83,0,12.28-2.17,18.52-4.26c5.99-2.01,12.17-4.09,17.49-4.09c2.22,0,4.15,0.35,5.88,1.07c6.61,2.74,10.69,10.98,14.64,18.95
				c3.55,7.17,7.22,14.58,12.86,18.35c5.71,3.82,14.01,4.39,22.04,4.95c8.82,0.61,17.94,1.24,22.94,6.24c5,5,5.63,14.12,6.24,22.94
				c0.56,8.03,1.13,16.33,4.95,22.04c3.78,5.64,11.19,9.31,18.35,12.86c7.97,3.95,16.21,8.03,18.95,14.64
				c2.67,6.44-0.09,14.66-3.02,23.38c-2.58,7.68-5.25,15.62-3.89,22.45c1.29,6.54,6.68,12.71,11.89,18.68
				c5.89,6.75,11.99,13.74,11.99,21.04s-6.09,14.28-11.99,21.04c-5.21,5.97-10.59,12.14-11.89,18.68
				c-1.35,6.83,1.32,14.77,3.89,22.45c2.92,8.71,5.69,16.94,3.02,23.38c-2.74,6.61-10.98,10.69-18.95,14.64
				c-7.17,3.55-14.58,7.22-18.35,12.86c-3.82,5.71-4.39,14.01-4.95,22.04c-0.61,8.82-1.24,17.94-6.24,22.94
				c-5,5-14.12,5.63-22.94,6.24c-8.03,0.56-16.33,1.13-22.04,4.95c-5.64,3.78-9.31,11.19-12.86,18.35
				c-3.95,7.97-8.03,16.21-14.64,18.95c-1.74,0.72-3.66,1.07-5.89,1.07c-5.32,0-11.51-2.08-17.49-4.09
				c-6.24-2.09-12.69-4.26-18.52-4.26c-1.38,0-2.7,0.12-3.93,0.37c-6.54,1.29-12.71,6.68-18.68,11.89
				c-6.75,5.89-13.74,11.99-21.04,11.99s-14.28-6.09-21.04-11.99c-5.97-5.21-12.14-10.59-18.68-11.89
				c-1.23-0.24-2.55-0.37-3.93-0.37c-5.83,0-12.28,2.17-18.52,4.26c-5.99,2.01-12.18,4.09-17.49,4.09c-2.22,0-4.15-0.35-5.89-1.07
				c-6.61-2.74-10.69-10.98-14.64-18.95c-3.55-7.17-7.22-14.58-12.86-18.35c-5.71-3.82-14.01-4.39-22.04-4.95
				c-8.82-0.61-17.94-1.24-22.94-6.24c-5-5-5.63-14.12-6.24-22.94c-0.56-8.03-1.13-16.33-4.95-22.04
				c-3.78-5.64-11.19-9.31-18.35-12.86c-7.97-3.95-16.21-8.03-18.95-14.64c-2.67-6.44,0.09-14.66,3.02-23.38
				c2.58-7.68,5.25-15.62,3.89-22.45c-1.29-6.54-6.68-12.71-11.89-18.68C7.62,239.28,1.52,232.3,1.52,225s6.09-14.28,11.99-21.04
				c5.21-5.97,10.59-12.14,11.89-18.68c1.35-6.83-1.32-14.77-3.89-22.45c-2.92-8.71-5.69-16.94-3.02-23.38
				c2.74-6.61,10.98-10.69,18.95-14.64c7.17-3.55,14.58-7.22,18.35-12.86c3.82-5.71,4.39-14.01,4.95-22.04
				c0.61-8.82,1.24-17.94,6.24-22.94c5-5,14.12-5.63,22.94-6.24c8.03-0.56,16.33-1.13,22.04-4.95c5.64-3.78,9.31-11.19,12.86-18.35
				c3.95-7.97,8.03-16.21,14.64-18.95c1.74-0.72,3.66-1.07,5.89-1.07c5.31,0,11.5,2.08,17.49,4.09c6.24,2.09,12.69,4.26,18.52,4.26
				c1.38,0,2.7-0.12,3.93-0.37c6.54-1.29,12.71-6.68,18.68-11.89C210.72,7.62,217.7,1.52,225,1.52 M225,0.38
				c-14.33,0-26.4,21.21-39.94,23.89c-1.2,0.24-2.44,0.34-3.71,0.34c-11.24,0-24.96-8.35-36.01-8.35c-2.23,0-4.35,0.34-6.32,1.16
				c-13.07,5.42-16.09,29.64-27.7,37.41c-11.7,7.83-35.23,1.41-45.15,11.33c-9.92,9.92-3.5,33.45-11.33,45.15
				c-7.78,11.61-31.99,14.63-37.41,27.7c-5.33,12.84,9.61,32.08,6.85,46.04C21.59,198.6,0.38,210.67,0.38,225
				c0,14.33,21.21,26.4,23.89,39.94c2.76,13.96-12.17,33.2-6.85,46.04c5.42,13.07,29.64,16.09,37.41,27.7
				c7.83,11.7,1.41,35.23,11.33,45.15c9.92,9.92,33.45,3.5,45.15,11.33c11.61,7.78,14.63,31.99,27.7,37.41
				c1.97,0.82,4.09,1.16,6.32,1.16c11.05,0,24.77-8.35,36.01-8.35c1.27,0,2.51,0.11,3.71,0.34c13.55,2.68,25.61,23.89,39.94,23.89
				c14.33,0,26.4-21.21,39.94-23.89c1.2-0.24,2.44-0.34,3.71-0.34c11.24,0,24.96,8.35,36.01,8.35c2.23,0,4.35-0.34,6.32-1.16
				c13.07-5.42,16.09-29.64,27.7-37.41c11.7-7.83,35.23-1.41,45.15-11.33c9.92-9.92,3.5-33.45,11.33-45.15
				c7.78-11.61,31.99-14.63,37.41-27.7c5.33-12.84-9.61-32.08-6.85-46.04c2.68-13.55,23.89-25.61,23.89-39.94
				c0-14.33-21.21-26.4-23.89-39.94c-2.76-13.96,12.17-33.2,6.85-46.04c-5.42-13.07-29.64-16.09-37.41-27.7
				c-7.83-11.7-1.41-35.23-11.33-45.15c-9.92-9.92-33.45-3.5-45.15-11.33c-11.61-7.78-14.63-31.99-27.7-37.41
				c-1.97-0.82-4.09-1.16-6.32-1.16c-11.05,0-24.77,8.35-36.01,8.35c-1.27,0-2.51-0.11-3.71-0.34C251.4,21.59,239.33,0.38,225,0.38
				L225,0.38z"/>
		</g>
	</g>
	<text transform="matrix(1 0 0 1 96.6919 247.4424)"><tspan x="0" y="0" class="st2 st3 st4 st5">THEME</tspan><tspan x="-0.92" y="60.87" class="st3 st6 st5">TRENDS</tspan></text>
	<text transform="matrix(1 0 0 1 90.374 167.9644)"><tspan x="0" y="0" class="st7 st8">・</tspan><tspan x="58.12" y="-4.84" class="st3 st9">2022</tspan><tspan x="210.31" y="0" class="st7 st8 st10">・</tspan></text>
</g>
</svg>
